# 3ds Max Wavefront OBJ Exporter v0.97b - (c)2007 guruware
# File Created: 02.05.2015 22:40:26

#
# object Box007
#

v  -29.7607 0.0000 3.1360
v  -8.9549 0.0000 3.6332
v  -18.3402 0.0000 19.3633
v  -29.7607 0.0000 19.3633
v  -20.6547 14.9781 15.6031
v  -12.7143 14.9781 3.0192
v  -26.0014 14.9781 3.0931
v  -26.0004 14.9781 15.6031
v  -18.3402 12.0182 19.3633
v  -29.7607 12.0182 19.3633
v  -8.9549 12.0182 3.6332
v  -8.9549 0.0000 -9.4643
v  -29.7607 0.0000 -9.4643
v  -29.7607 12.0182 -9.4643
v  -8.9549 12.0182 -9.4643
v  -29.7607 12.0182 3.1360
v  -12.7152 14.9781 -5.7041
v  -26.0004 14.9781 -5.7041
v  28.6472 0.0000 -8.0242
v  28.6472 12.0182 -8.0242
v  28.6472 12.0182 3.6332
v  28.6472 0.0000 3.6332
v  27.2071 12.0182 -9.4643
v  27.2071 0.0000 -9.4643
v  -20.0392 12.0182 16.6031
v  -27.0004 12.0182 16.6031
v  -11.7152 12.0182 2.9763
v  -11.7152 12.0182 -6.7041
v  -27.0004 12.0182 -6.7041
v  -27.0004 12.0182 3.1360
v  -20.0392 13.9781 16.6031
v  -27.0004 13.9781 16.6031
v  -11.7152 13.9781 2.9763
v  -11.7152 13.9781 -6.7041
v  -27.0004 13.9781 -6.7041
v  -27.0004 13.9781 3.1360
v  -11.3149 6.0988 7.5886
v  -11.6471 8.5183 8.1454
v  -9.9355 8.5183 9.1666
v  -9.6033 6.0988 8.6099
v  -12.5546 10.2895 9.6664
v  -10.8430 10.2895 10.6877
v  -13.7943 10.9378 11.7442
v  -12.0827 10.9378 12.7654
v  -15.0340 10.2895 13.8220
v  -13.3224 10.2895 14.8432
v  -15.9415 8.5183 15.3430
v  -14.2299 8.5183 16.3643
v  -16.2737 6.0988 15.8998
v  -14.5621 6.0988 16.9210
v  -15.9415 3.6793 15.3430
v  -14.2299 3.6793 16.3643
v  -15.0340 1.9081 13.8220
v  -13.3224 1.9081 14.8432
v  -13.7943 1.2598 11.7442
v  -12.0827 1.2598 12.7654
v  -12.5546 1.9081 9.6664
v  -10.8430 1.9081 10.6877
v  -11.6471 3.6793 8.1454
v  -9.9355 3.6793 9.1666
v  24.4017 1.8580 -9.4643
v  -17.3650 1.8580 -9.4643
v  -15.3311 3.0374 -11.5053
v  22.3678 3.0374 -11.5053
v  -17.3650 9.1393 -9.4643
v  -15.3311 7.9599 -11.5053
v  24.4017 9.1393 -9.4643
v  22.3678 7.9599 -11.5053
v  -13.4509 4.9176 -11.5053
v  20.4876 4.9176 -11.5053
v  -13.4509 6.0797 -11.5053
v  20.4876 6.0797 -11.5053
v  -13.4509 4.9176 -9.4035
v  20.4876 4.9176 -9.4035
v  -13.4509 6.0797 -9.4035
v  20.4876 6.0797 -9.4035
v  28.6472 6.0126 -7.2124
v  28.6472 8.2015 -6.6259
v  31.4434 8.2015 -6.6259
v  31.4434 6.0126 -7.2124
v  28.6472 9.8038 -5.0235
v  31.4434 9.8038 -5.0235
v  28.6472 10.3903 -2.8347
v  31.4434 10.3903 -2.8347
v  28.6472 9.8038 -0.6459
v  31.4434 9.8038 -0.6459
v  28.6472 8.2015 0.9565
v  31.4434 8.2015 0.9565
v  28.6472 6.0126 1.5430
v  31.4434 6.0126 1.5430
v  28.6472 3.8238 0.9565
v  31.4434 3.8238 0.9565
v  28.6472 2.2215 -0.6459
v  31.4434 2.2215 -0.6459
v  28.6472 1.6350 -2.8347
v  31.4434 1.6350 -2.8347
v  28.6472 2.2215 -5.0235
v  31.4434 2.2215 -5.0235
v  28.6472 3.8238 -6.6259
v  31.4434 3.8238 -6.6259
v  32.5812 7.5235 -5.4515
v  32.5812 6.0126 -5.8563
v  32.5812 8.6295 -4.3455
v  32.5812 9.0343 -2.8347
v  32.5812 8.6295 -1.3239
v  32.5812 7.5235 -0.2179
v  32.5812 6.0126 0.1870
v  32.5812 4.5018 -0.2179
v  32.5812 3.3958 -1.3239
v  32.5812 2.9910 -2.8347
v  32.5812 3.3958 -4.3455
v  32.5812 4.5018 -5.4515
# 112 vertices

vn 0.0000 -1.0000 -0.0000
vn 0.0000 1.0000 -0.0000
vn 0.0000 0.0000 1.0000
vn 0.8588 0.0000 0.5124
vn 0.0000 0.0000 -1.0000
vn -1.0000 0.0000 -0.0000
vn 1.0000 0.0000 -0.0000
vn 0.8534 0.0000 0.5213
vn 0.0000 0.7071 0.7071
vn 0.5925 0.7194 0.3625
vn 0.5896 0.7230 0.3601
vn 0.6976 0.6946 0.1758
vn 0.6923 0.6815 0.2374
vn 0.7071 0.7071 -0.0001
vn 0.0000 0.7071 -0.7071
vn -0.7071 0.7071 -0.0000
vn -0.7074 0.7068 -0.0000
vn -0.7071 0.7071 0.0000
vn -0.7071 0.7071 0.0001
vn 0.7071 0.0000 -0.7071
vn 0.5124 -0.0000 -0.8588
vn 0.4437 0.5000 -0.7437
vn 0.2562 0.8660 -0.4294
vn -0.0000 1.0000 0.0000
vn -0.2562 0.8660 0.4294
vn -0.4437 0.5000 0.7437
vn -0.5124 0.0000 0.8588
vn -0.4437 -0.5000 0.7437
vn -0.2562 -0.8660 0.4294
vn -0.0000 -1.0000 0.0000
vn 0.2562 -0.8660 -0.4294
vn 0.4437 -0.5000 -0.7437
vn 0.8588 -0.0000 0.5124
vn 0.0000 -0.8658 -0.5003
vn -0.7083 0.0000 -0.7059
vn 0.0000 0.8658 -0.5003
vn 0.7083 0.0000 -0.7059
vn 0.0000 -0.0000 -1.0000
vn 0.0000 0.5000 -0.8660
vn -0.0000 -0.0000 -1.0000
vn -0.0000 0.8660 -0.5000
vn -0.0000 1.0000 -0.0000
vn 0.0000 0.8660 0.5000
vn 0.0000 0.5000 0.8660
vn 0.0000 -0.0000 1.0000
vn 0.0000 -0.5000 0.8660
vn 0.0000 -0.8660 0.5000
vn -0.0000 -0.8660 -0.5000
vn -0.0000 -0.5000 -0.8660
vn 0.7661 -0.0000 -0.6428
vn 0.7661 0.3214 -0.5567
vn 0.9207 0.1951 -0.3380
vn 0.9207 -0.0000 -0.3903
vn 0.7661 0.5567 -0.3214
vn 0.9207 0.3380 -0.1951
vn 0.7661 0.6428 0.0000
vn 0.9207 0.3903 0.0000
vn 0.7661 0.5567 0.3214
vn 0.9207 0.3380 0.1951
vn 0.7661 0.3214 0.5567
vn 0.9207 0.1951 0.3380
vn 0.7661 0.0000 0.6428
vn 0.9207 0.0000 0.3903
vn 0.7661 -0.3214 0.5567
vn 0.9207 -0.1951 0.3380
vn 0.7661 -0.5567 0.3214
vn 0.9207 -0.3380 0.1951
vn 0.7661 -0.6428 0.0000
vn 0.9207 -0.3903 0.0000
vn 0.7661 -0.5567 -0.3214
vn 0.9207 -0.3380 -0.1951
vn 0.7661 -0.3214 -0.5567
vn 0.9207 -0.1951 -0.3380
# 73 vertex normals

vt 1.0000 0.5557 0.0000
vt 0.0000 0.5557 0.0000
vt 0.0000 0.0000 0.0000
vt 1.0000 0.0000 0.0000
vt 0.9116 0.0351 0.0000
vt 0.9346 0.5557 0.0000
vt 0.0654 0.5557 0.0000
vt 0.1437 0.0351 0.0000
vt 1.0000 1.0000 0.0000
vt 0.0000 1.0000 0.0000
vt 0.5557 0.0000 0.0000
vt 0.5557 1.0000 0.0000
vt 0.4443 0.0000 0.0000
vt 0.4443 1.0000 0.0000
vt 0.9346 0.9561 0.0000
vt 0.0654 0.9570 0.0000
vt 0.9511 0.0000 0.0000
vt 0.9511 1.0000 0.0000
vt 0.7500 0.0000 1.0000
vt 0.8333 0.0000 1.0000
vt 0.8333 1.0000 1.0000
vt 0.7500 1.0000 1.0000
vt 0.9167 0.0000 1.0000
vt 0.9167 1.0000 1.0000
vt 1.0000 0.0000 1.0000
vt 1.0000 1.0000 1.0000
vt 0.0000 0.0000 1.0000
vt 0.0833 0.0000 1.0000
vt 0.0833 1.0000 1.0000
vt 0.0000 1.0000 1.0000
vt 0.1667 0.0000 1.0000
vt 0.1667 1.0000 1.0000
vt 0.2500 0.0000 1.0000
vt 0.2500 1.0000 1.0000
vt 0.3333 0.0000 1.0000
vt 0.3333 1.0000 1.0000
vt 0.4167 0.0000 1.0000
vt 0.4167 1.0000 1.0000
vt 0.5000 0.0000 1.0000
vt 0.5000 1.0000 1.0000
vt 0.5833 0.0000 1.0000
vt 0.5833 1.0000 1.0000
vt 0.6667 0.0000 1.0000
vt 0.6667 1.0000 1.0000
# 44 texture coords

g Box007
s 1
f 1/1/1 2/2/1 3/3/1 4/4/1 
f 5/5/2 6/6/2 7/7/2 8/8/2 
s 2
f 4/3/3 3/4/3 9/9/3 10/10/3 
s 4
f 2/11/4 11/12/4 9/10/4 3/3/4 
s 2
f 12/3/5 13/4/5 14/9/5 15/10/5 
s 4
f 1/13/6 16/14/6 14/10/6 13/3/6 
s 1
f 13/9/1 12/10/1 2/2/1 1/1/1 
f 17/15/2 18/16/2 7/7/2 6/6/2 
s 2
f 19/17/7 20/18/7 21/12/7 22/11/7 
s 4
f 4/4/6 10/9/6 16/14/6 1/13/6 
s 1
f 2/11/1 19/17/1 22/11/1 
s 2
f 12/4/5 15/9/5 23/9/5 24/4/5 
s 1
f 15/9/2 11/12/2 20/18/2 23/9/2 
s 8
f 11/12/3 2/11/3 22/11/3 21/12/3 
s 1
f 10/3/2 9/4/2 25/4/2 26/3/2 
f 9/4/2 11/1/2 27/1/2 25/4/2 
f 11/1/2 15/9/2 28/9/2 27/1/2 
f 15/9/2 14/10/2 29/10/2 28/9/2 
f 14/10/2 16/2/2 30/2/2 29/10/2 
f 16/2/2 10/3/2 26/3/2 30/2/2 
s 2
f 26/3/3 25/4/3 31/4/3 32/3/3 
s 4
f 25/4/8 27/1/8 33/1/8 31/4/8 
s 2
f 27/1/7 28/9/7 34/9/7 33/1/7 
s 4
f 28/9/5 29/10/5 35/10/5 34/9/5 
s 8
f 29/10/6 30/2/6 36/2/6 35/10/6 
f 30/2/6 26/3/6 32/3/6 36/2/6 
s 16
f 8/8/9 32/3/9 31/4/9 5/5/9 
s 8
f 5/5/10 31/4/11 33/1/12 6/6/13 
f 6/6/13 33/1/12 34/9/14 17/15/14 
s 16
f 17/15/15 34/9/15 35/10/15 18/16/15 
s 32
f 18/16/16 35/10/16 36/2/17 7/7/17 
f 7/7/17 36/2/17 32/3/18 8/8/19 
s 4
f 19/17/20 24/4/20 23/9/20 20/18/20 
s 1
f 11/12/2 21/12/2 20/18/2 
f 12/4/1 24/4/1 19/17/1 2/11/1 
s 8
f 37/19/21 38/20/22 39/21/22 40/22/21 
f 38/20/22 41/23/23 42/24/23 39/21/22 
f 41/23/23 43/25/24 44/26/24 42/24/23 
f 43/27/24 45/28/25 46/29/25 44/30/24 
f 45/28/25 47/31/26 48/32/26 46/29/25 
f 47/31/26 49/33/27 50/34/27 48/32/26 
f 49/33/27 51/35/28 52/36/28 50/34/27 
f 51/35/28 53/37/29 54/38/29 52/36/28 
f 53/37/29 55/39/30 56/40/30 54/38/29 
f 55/39/30 57/41/31 58/42/31 56/40/30 
f 57/41/31 59/43/32 60/44/32 58/42/31 
f 59/43/32 37/19/21 40/22/21 60/44/32 
s 1
f 56/40/4 42/24/4 44/30/4 54/38/4 
s 2
f 58/42/33 39/21/33 42/24/33 56/40/33 
f 54/38/33 44/30/33 46/29/33 52/36/33 
s off
f 58/42/33 60/44/33 40/22/33 39/21/33 
f 50/34/33 52/36/33 46/29/33 48/32/33 
s 8
f 61/3/34 62/4/34 63/9/34 64/10/34 
s 16
f 62/3/35 65/4/35 66/9/35 63/10/35 
s 32
f 65/3/36 67/4/36 68/9/36 66/10/36 
s 64
f 67/3/37 61/4/37 64/9/37 68/10/37 
s off
f 64/3/5 63/4/5 69/4/5 70/3/5 
f 63/4/5 66/9/5 71/9/5 69/4/5 
f 66/9/5 68/10/5 72/10/5 71/9/5 
f 68/10/5 64/3/5 70/3/5 72/10/5 
f 70/3/2 69/4/2 73/4/2 74/3/2 
f 69/4/7 71/9/7 75/9/7 73/4/7 
f 71/9/1 72/10/1 76/10/1 75/9/1 
f 72/10/6 70/3/6 74/3/6 76/10/6 
s 1
f 77/19/38 78/20/39 79/21/39 80/22/40 
f 78/20/39 81/23/41 82/24/41 79/21/39 
f 81/23/41 83/25/2 84/26/42 82/24/41 
f 83/27/2 85/28/43 86/29/43 84/30/42 
f 85/28/43 87/31/44 88/32/44 86/29/43 
f 87/31/44 89/33/3 90/34/45 88/32/44 
f 89/33/3 91/35/46 92/36/46 90/34/45 
f 91/35/46 93/37/47 94/38/47 92/36/46 
f 93/37/47 95/39/30 96/40/30 94/38/47 
f 95/39/30 97/41/48 98/42/48 96/40/30 
f 97/41/48 99/43/49 100/44/49 98/42/48 
f 99/43/49 77/19/38 80/22/40 100/44/49 
s 2
f 80/22/50 79/21/51 101/21/52 102/22/53 
f 79/21/51 82/24/54 103/24/55 101/21/52 
f 82/24/54 84/26/56 104/26/57 103/24/55 
f 84/30/56 86/29/58 105/29/59 104/30/57 
f 86/29/58 88/32/60 106/32/61 105/29/59 
f 88/32/60 90/34/62 107/34/63 106/32/61 
f 90/34/62 92/36/64 108/36/65 107/34/63 
f 92/36/64 94/38/66 109/38/67 108/36/65 
f 94/38/66 96/40/68 110/40/69 109/38/67 
f 96/40/68 98/42/70 111/42/71 110/40/69 
f 98/42/70 100/44/72 112/44/73 111/42/71 
f 100/44/72 80/22/50 102/22/53 112/44/73 
f 112/38/73 105/24/59 106/26/61 111/36/71 
f 102/25/53 104/22/57 105/24/59 112/38/73 
f 111/36/71 106/26/61 107/29/63 110/34/69 
f 103/24/55 104/26/57 102/25/53 101/21/52 
f 109/38/67 110/40/69 107/29/63 108/36/65 
# 91 polygons - 2 triangles

#
# object Cylinder002
#

v  -13.1799 -57.0844 -3.7256
v  -13.1799 -53.8959 -17.6950
v  19.8388 -53.8959 -17.6950
v  19.8388 -57.0844 -3.7256
v  -13.1799 -44.9622 -28.8977
v  19.8388 -44.9622 -28.8977
v  -13.1799 -32.0524 -35.1146
v  19.8388 -32.0524 -35.1146
v  -13.1799 -17.7238 -35.1146
v  19.8388 -17.7238 -35.1146
v  -13.1799 -4.8141 -28.8977
v  19.8388 -4.8141 -28.8977
v  -13.1799 4.1197 -17.6950
v  19.8388 4.1197 -17.6950
v  -13.1799 7.3082 -3.7256
v  19.8388 7.3082 -3.7256
v  -13.1799 4.1197 10.2438
v  19.8388 4.1197 10.2438
v  -13.1799 -4.8141 21.4464
v  19.8388 -4.8141 21.4464
v  -13.1799 -17.7238 27.6634
v  19.8388 -17.7238 27.6634
v  -13.1799 -32.0525 27.6634
v  19.8388 -32.0525 27.6634
v  -13.1799 -44.9622 21.4464
v  19.8388 -44.9622 21.4464
v  -13.1799 -53.8959 10.2438
v  19.8388 -53.8959 10.2438
# 28 vertices

vn -0.0000 -1.0000 -0.0000
vn -0.0000 -0.9010 -0.4339
vn -0.0000 -0.6235 -0.7818
vn -0.0000 -0.2225 -0.9749
vn 0.0000 0.2225 -0.9749
vn 0.0000 0.6235 -0.7818
vn 0.0000 0.9010 -0.4339
vn 0.0000 1.0000 -0.0000
vn 0.0000 0.9010 0.4339
vn 0.0000 0.6235 0.7818
vn 0.0000 0.2225 0.9749
vn -0.0000 -0.2225 0.9749
vn -0.0000 -0.6235 0.7818
vn -0.0000 -0.9010 0.4339
# 14 vertex normals

vt 0.0002 1.0000 1.0000
vt 0.0002 0.9286 1.0000
vt 1.0000 0.9286 1.0000
vt 1.0000 1.0000 1.0000
vt 0.0002 0.8572 1.0000
vt 0.9999 0.8571 1.0000
vt 0.0001 0.7857 1.0000
vt 0.9999 0.7857 1.0000
vt 0.0001 0.7143 1.0000
vt 0.9998 0.7143 1.0000
vt 0.0000 0.6429 1.0000
vt 0.9998 0.6429 1.0000
vt 0.0000 0.5714 1.0000
vt 0.9997 0.5714 1.0000
vt -0.0000 0.5000 1.0000
vt 0.9997 0.5000 1.0000
vt -0.0000 0.4286 1.0000
vt 0.9997 0.4286 1.0000
vt 0.0000 0.3572 1.0000
vt 0.9998 0.3572 1.0000
vt 0.0001 0.2857 1.0000
vt 0.9998 0.2857 1.0000
vt 0.0001 0.2143 1.0000
vt 0.9999 0.2143 1.0000
vt 0.0002 0.1429 1.0000
vt 0.9999 0.1429 1.0000
vt 0.0002 0.0715 1.0000
vt 0.9999 0.0715 1.0000
vt 0.0002 0.0000 1.0000
vt 1.0000 0.0001 1.0000
# 30 texture coords

g Cylinder002
s 8
f 113/45/74 114/46/75 115/47/75 116/48/74 
f 114/46/75 117/49/76 118/50/76 115/47/75 
f 117/49/76 119/51/77 120/52/77 118/50/76 
f 119/51/77 121/53/78 122/54/78 120/52/77 
f 121/53/78 123/55/79 124/56/79 122/54/78 
f 123/55/79 125/57/80 126/58/80 124/56/79 
f 125/57/80 127/59/81 128/60/81 126/58/80 
f 127/59/81 129/61/82 130/62/82 128/60/81 
f 129/61/82 131/63/83 132/64/83 130/62/82 
f 131/63/83 133/65/84 134/66/84 132/64/83 
f 133/65/84 135/67/85 136/68/85 134/66/84 
f 135/67/85 137/69/86 138/70/86 136/68/85 
f 137/69/86 139/71/87 140/72/87 138/70/86 
f 139/71/87 113/73/74 116/74/74 140/72/87 
# 14 polygons

