# 3ds Max Wavefront OBJ Exporter v0.97b - (c)2007 guruware
# File Created: 03.05.2015 13:37:14

#
# object UIHousing
#

v  -29.7607 -3.1360 0.0000
v  -8.9549 -3.6332 0.0000
v  -18.3402 -19.3633 0.0000
v  -29.7607 -19.3633 0.0000
v  -20.6547 -15.6031 14.9781
v  -12.7143 -3.0192 14.9781
v  -26.0014 -3.0931 14.9781
v  -26.0004 -15.6031 14.9781
v  -18.3402 -19.3633 12.0182
v  -29.7607 -19.3633 12.0182
v  -8.9549 -3.6332 12.0182
v  -8.9549 9.4643 0.0000
v  -29.7607 9.4643 0.0000
v  -29.7607 9.4643 12.0182
v  -8.9549 9.4643 12.0182
v  -29.7607 -3.1360 12.0182
v  -12.7152 5.7041 14.9781
v  -26.0004 5.7041 14.9781
v  28.6472 8.0242 0.0000
v  28.6472 8.0242 12.0182
v  28.6472 -3.6332 12.0182
v  28.6472 -3.6332 0.0000
v  27.2071 9.4643 12.0182
v  27.2071 9.4643 0.0000
v  -20.0392 -16.6031 12.0182
v  -27.0004 -16.6031 12.0182
v  -11.7152 -2.9763 12.0182
v  -11.7152 6.7041 12.0182
v  -27.0004 6.7041 12.0182
v  -27.0004 -3.1360 12.0182
v  -20.0392 -16.6031 13.9781
v  -27.0004 -16.6031 13.9781
v  -11.7152 -2.9763 13.9781
v  -11.7152 6.7041 13.9781
v  -27.0004 6.7041 13.9781
v  -27.0004 -3.1360 13.9781
v  -11.3149 -7.5886 6.0988
v  -11.6471 -8.1454 8.5183
v  -9.9355 -9.1666 8.5183
v  -9.6033 -8.6099 6.0988
v  -12.5546 -9.6664 10.2895
v  -10.8430 -10.6877 10.2895
v  -13.7943 -11.7442 10.9378
v  -12.0827 -12.7654 10.9378
v  -15.0340 -13.8220 10.2895
v  -13.3224 -14.8432 10.2895
v  -15.9415 -15.3430 8.5183
v  -14.2299 -16.3643 8.5183
v  -16.2737 -15.8998 6.0988
v  -14.5621 -16.9210 6.0988
v  -15.9415 -15.3430 3.6793
v  -14.2299 -16.3643 3.6793
v  -15.0340 -13.8220 1.9081
v  -13.3224 -14.8432 1.9081
v  -13.7943 -11.7442 1.2598
v  -12.0827 -12.7654 1.2598
v  -12.5546 -9.6664 1.9081
v  -10.8430 -10.6877 1.9081
v  -11.6471 -8.1454 3.6793
v  -9.9355 -9.1666 3.6793
v  24.4017 9.4643 1.8580
v  -17.3650 9.4643 1.8580
v  -15.3311 11.5053 3.0374
v  22.3678 11.5053 3.0374
v  -17.3650 9.4643 9.1393
v  -15.3311 11.5053 7.9599
v  24.4017 9.4643 9.1393
v  22.3678 11.5053 7.9599
v  -13.4509 11.5053 4.9176
v  20.4876 11.5053 4.9176
v  -13.4509 11.5053 6.0797
v  20.4876 11.5053 6.0797
v  -13.4509 9.4035 4.9176
v  20.4876 9.4035 4.9176
v  -13.4509 9.4035 6.0797
v  20.4876 9.4035 6.0797
v  28.6472 7.2124 6.0126
v  28.6472 6.6259 8.2015
v  31.4434 6.6259 8.2015
v  31.4434 7.2124 6.0126
v  28.6472 5.0235 9.8038
v  31.4434 5.0235 9.8038
v  28.6472 2.8347 10.3903
v  31.4434 2.8347 10.3903
v  28.6472 0.6459 9.8038
v  31.4434 0.6459 9.8038
v  28.6472 -0.9565 8.2015
v  31.4434 -0.9565 8.2015
v  28.6472 -1.5430 6.0126
v  31.4434 -1.5430 6.0126
v  28.6472 -0.9565 3.8238
v  31.4434 -0.9565 3.8238
v  28.6472 0.6459 2.2215
v  31.4434 0.6459 2.2215
v  28.6472 2.8347 1.6350
v  31.4434 2.8347 1.6350
v  28.6472 5.0235 2.2215
v  31.4434 5.0235 2.2215
v  28.6472 6.6259 3.8238
v  31.4434 6.6259 3.8238
v  32.5812 5.4515 7.5235
v  32.5812 5.8563 6.0126
v  32.5812 4.3455 8.6295
v  32.5812 2.8347 9.0343
v  32.5812 1.3239 8.6295
v  32.5812 0.2179 7.5235
v  32.5812 -0.1870 6.0126
v  32.5812 0.2179 4.5018
v  32.5812 1.3239 3.3958
v  32.5812 2.8347 2.9910
v  32.5812 4.3455 3.3958
v  32.5812 5.4515 4.5018
# 112 vertices

vn 0.0000 0.0000 -1.0000
vn 0.0000 0.0000 1.0000
vn 0.0000 -1.0000 0.0000
vn 0.8588 -0.5124 0.0000
vn 0.0000 1.0000 0.0000
vn -1.0000 0.0000 0.0000
vn 1.0000 0.0000 0.0000
vn 0.8534 -0.5213 0.0000
vn 0.0000 -0.7071 0.7071
vn 0.5925 -0.3625 0.7194
vn 0.5896 -0.3601 0.7230
vn 0.6976 -0.1758 0.6946
vn 0.6923 -0.2374 0.6815
vn 0.7071 0.0001 0.7071
vn 0.0000 0.7071 0.7071
vn -0.7071 0.0000 0.7071
vn -0.7074 0.0000 0.7068
vn -0.7071 -0.0000 0.7071
vn -0.7071 -0.0001 0.7071
vn 0.7071 0.7071 0.0000
vn 0.5124 0.8588 -0.0000
vn 0.4437 0.7437 0.5000
vn 0.2562 0.4294 0.8660
vn -0.0000 -0.0000 1.0000
vn -0.2562 -0.4294 0.8660
vn -0.4437 -0.7437 0.5000
vn -0.5124 -0.8588 0.0000
vn -0.4437 -0.7437 -0.5000
vn -0.2562 -0.4294 -0.8660
vn -0.0000 -0.0000 -1.0000
vn 0.2562 0.4294 -0.8660
vn 0.4437 0.7437 -0.5000
vn 0.8588 -0.5124 -0.0000
vn 0.0000 0.5003 -0.8658
vn -0.7083 0.7059 0.0000
vn 0.0000 0.5003 0.8658
vn 0.7083 0.7059 0.0000
vn 0.0000 1.0000 -0.0000
vn 0.0000 0.8660 0.5000
vn -0.0000 1.0000 -0.0000
vn -0.0000 0.5000 0.8660
vn -0.0000 0.0000 1.0000
vn 0.0000 -0.5000 0.8660
vn 0.0000 -0.8660 0.5000
vn 0.0000 -1.0000 -0.0000
vn 0.0000 -0.8660 -0.5000
vn 0.0000 -0.5000 -0.8660
vn -0.0000 0.5000 -0.8660
vn -0.0000 0.8660 -0.5000
vn 0.7661 0.6428 -0.0000
vn 0.7661 0.5567 0.3214
vn 0.9207 0.3380 0.1951
vn 0.9207 0.3903 -0.0000
vn 0.7661 0.3214 0.5567
vn 0.9207 0.1951 0.3380
vn 0.7661 -0.0000 0.6428
vn 0.9207 -0.0000 0.3903
vn 0.7661 -0.3214 0.5567
vn 0.9207 -0.1951 0.3380
vn 0.7661 -0.5567 0.3214
vn 0.9207 -0.3380 0.1951
vn 0.7661 -0.6428 0.0000
vn 0.9207 -0.3903 0.0000
vn 0.7661 -0.5567 -0.3214
vn 0.9207 -0.3380 -0.1951
vn 0.7661 -0.3214 -0.5567
vn 0.9207 -0.1951 -0.3380
vn 0.7661 -0.0000 -0.6428
vn 0.9207 -0.0000 -0.3903
vn 0.7661 0.3214 -0.5567
vn 0.9207 0.1951 -0.3380
vn 0.7661 0.5567 -0.3214
vn 0.9207 0.3380 -0.1951
# 73 vertex normals

vt 1.0000 0.5557 0.0000
vt 0.0000 0.5557 0.0000
vt 0.0000 0.0000 0.0000
vt 1.0000 0.0000 0.0000
vt 0.9116 0.0351 0.0000
vt 0.9346 0.5557 0.0000
vt 0.0654 0.5557 0.0000
vt 0.1437 0.0351 0.0000
vt 1.0000 1.0000 0.0000
vt 0.0000 1.0000 0.0000
vt 0.5557 0.0000 0.0000
vt 0.5557 1.0000 0.0000
vt 0.4443 0.0000 0.0000
vt 0.4443 1.0000 0.0000
vt 0.9346 0.9561 0.0000
vt 0.0654 0.9570 0.0000
vt 0.9511 0.0000 0.0000
vt 0.9511 1.0000 0.0000
vt 0.7500 0.0000 1.0000
vt 0.8333 0.0000 1.0000
vt 0.8333 1.0000 1.0000
vt 0.7500 1.0000 1.0000
vt 0.9167 0.0000 1.0000
vt 0.9167 1.0000 1.0000
vt 1.0000 0.0000 1.0000
vt 1.0000 1.0000 1.0000
vt 0.0000 0.0000 1.0000
vt 0.0833 0.0000 1.0000
vt 0.0833 1.0000 1.0000
vt 0.0000 1.0000 1.0000
vt 0.1667 0.0000 1.0000
vt 0.1667 1.0000 1.0000
vt 0.2500 0.0000 1.0000
vt 0.2500 1.0000 1.0000
vt 0.3333 0.0000 1.0000
vt 0.3333 1.0000 1.0000
vt 0.4167 0.0000 1.0000
vt 0.4167 1.0000 1.0000
vt 0.5000 0.0000 1.0000
vt 0.5000 1.0000 1.0000
vt 0.5833 0.0000 1.0000
vt 0.5833 1.0000 1.0000
vt 0.6667 0.0000 1.0000
vt 0.6667 1.0000 1.0000
# 44 texture coords

g UIHousing
f 1/1/1 2/2/1 3/3/1 4/4/1 
f 5/5/2 6/6/2 7/7/2 8/8/2 
f 4/3/3 3/4/3 9/9/3 10/10/3 
f 2/11/4 11/12/4 9/10/4 3/3/4 
f 12/3/5 13/4/5 14/9/5 15/10/5 
f 1/13/6 16/14/6 14/10/6 13/3/6 
f 13/9/1 12/10/1 2/2/1 1/1/1 
f 17/15/2 18/16/2 7/7/2 6/6/2 
f 19/17/7 20/18/7 21/12/7 22/11/7 
f 4/4/6 10/9/6 16/14/6 1/13/6 
f 2/11/1 19/17/1 22/11/1 
f 12/4/5 15/9/5 23/9/5 24/4/5 
f 15/9/2 11/12/2 20/18/2 23/9/2 
f 11/12/3 2/11/3 22/11/3 21/12/3 
f 10/3/2 9/4/2 25/4/2 26/3/2 
f 9/4/2 11/1/2 27/1/2 25/4/2 
f 11/1/2 15/9/2 28/9/2 27/1/2 
f 15/9/2 14/10/2 29/10/2 28/9/2 
f 14/10/2 16/2/2 30/2/2 29/10/2 
f 16/2/2 10/3/2 26/3/2 30/2/2 
f 26/3/3 25/4/3 31/4/3 32/3/3 
f 25/4/8 27/1/8 33/1/8 31/4/8 
f 27/1/7 28/9/7 34/9/7 33/1/7 
f 28/9/5 29/10/5 35/10/5 34/9/5 
f 29/10/6 30/2/6 36/2/6 35/10/6 
f 30/2/6 26/3/6 32/3/6 36/2/6 
f 8/8/9 32/3/9 31/4/9 5/5/9 
f 5/5/10 31/4/11 33/1/12 6/6/13 
f 6/6/13 33/1/12 34/9/14 17/15/14 
f 17/15/15 34/9/15 35/10/15 18/16/15 
f 18/16/16 35/10/16 36/2/17 7/7/17 
f 7/7/17 36/2/17 32/3/18 8/8/19 
f 19/17/20 24/4/20 23/9/20 20/18/20 
f 11/12/2 21/12/2 20/18/2 
f 12/4/1 24/4/1 19/17/1 2/11/1 
f 37/19/21 38/20/22 39/21/22 40/22/21 
f 38/20/22 41/23/23 42/24/23 39/21/22 
f 41/23/23 43/25/24 44/26/24 42/24/23 
f 43/27/24 45/28/25 46/29/25 44/30/24 
f 45/28/25 47/31/26 48/32/26 46/29/25 
f 47/31/26 49/33/27 50/34/27 48/32/26 
f 49/33/27 51/35/28 52/36/28 50/34/27 
f 51/35/28 53/37/29 54/38/29 52/36/28 
f 53/37/29 55/39/30 56/40/30 54/38/29 
f 55/39/30 57/41/31 58/42/31 56/40/30 
f 57/41/31 59/43/32 60/44/32 58/42/31 
f 59/43/32 37/19/21 40/22/21 60/44/32 
f 56/40/4 42/24/4 44/30/4 54/38/4 
f 58/42/33 39/21/33 42/24/33 56/40/33 
f 54/38/33 44/30/33 46/29/33 52/36/33 
f 58/42/33 60/44/33 40/22/33 39/21/33 
f 50/34/33 52/36/33 46/29/33 48/32/33 
f 61/3/34 62/4/34 63/9/34 64/10/34 
f 62/3/35 65/4/35 66/9/35 63/10/35 
f 65/3/36 67/4/36 68/9/36 66/10/36 
f 67/3/37 61/4/37 64/9/37 68/10/37 
f 64/3/5 63/4/5 69/4/5 70/3/5 
f 63/4/5 66/9/5 71/9/5 69/4/5 
f 66/9/5 68/10/5 72/10/5 71/9/5 
f 68/10/5 64/3/5 70/3/5 72/10/5 
f 70/3/2 69/4/2 73/4/2 74/3/2 
f 69/4/7 71/9/7 75/9/7 73/4/7 
f 71/9/1 72/10/1 76/10/1 75/9/1 
f 72/10/6 70/3/6 74/3/6 76/10/6 
f 77/19/38 78/20/39 79/21/39 80/22/40 
f 78/20/39 81/23/41 82/24/41 79/21/39 
f 81/23/41 83/25/2 84/26/42 82/24/41 
f 83/27/2 85/28/43 86/29/43 84/30/42 
f 85/28/43 87/31/44 88/32/44 86/29/43 
f 87/31/44 89/33/3 90/34/45 88/32/44 
f 89/33/3 91/35/46 92/36/46 90/34/45 
f 91/35/46 93/37/47 94/38/47 92/36/46 
f 93/37/47 95/39/30 96/40/30 94/38/47 
f 95/39/30 97/41/48 98/42/48 96/40/30 
f 97/41/48 99/43/49 100/44/49 98/42/48 
f 99/43/49 77/19/38 80/22/40 100/44/49 
f 80/22/50 79/21/51 101/21/52 102/22/53 
f 79/21/51 82/24/54 103/24/55 101/21/52 
f 82/24/54 84/26/56 104/26/57 103/24/55 
f 84/30/56 86/29/58 105/29/59 104/30/57 
f 86/29/58 88/32/60 106/32/61 105/29/59 
f 88/32/60 90/34/62 107/34/63 106/32/61 
f 90/34/62 92/36/64 108/36/65 107/34/63 
f 92/36/64 94/38/66 109/38/67 108/36/65 
f 94/38/66 96/40/68 110/40/69 109/38/67 
f 96/40/68 98/42/70 111/42/71 110/40/69 
f 98/42/70 100/44/72 112/44/73 111/42/71 
f 100/44/72 80/22/50 102/22/53 112/44/73 
f 112/38/73 105/24/59 106/26/61 111/36/71 
f 102/25/53 104/22/57 105/24/59 112/38/73 
f 111/36/71 106/26/61 107/29/63 110/34/69 
f 103/24/55 104/26/57 102/25/53 101/21/52 
f 109/38/67 110/40/69 107/29/63 108/36/65 
# 91 polygons - 2 triangles

#
# object ReciptPaper
#

v  -13.1799 17.6950 -53.8959
v  -13.1799 28.8977 -44.9622
v  19.8388 28.8977 -44.9622
v  19.8388 17.6950 -53.8959
v  -13.1799 35.1146 -32.0524
v  19.8388 35.1146 -32.0524
v  -13.1799 35.1146 -17.7238
v  19.8388 35.1146 -17.7238
v  -13.1799 28.8977 -4.8141
v  19.8388 28.8977 -4.8141
v  -13.1799 17.6950 4.1197
v  19.8388 17.6950 4.1197
v  -13.1799 3.7256 7.3082
v  19.8388 3.7256 7.3082
# 14 vertices

vn -0.0000 0.6235 -0.7818
vn -0.0000 0.7818 -0.6235
vn -0.0000 0.9749 -0.2225
vn 0.0000 0.9749 0.2225
vn 0.0000 0.7818 0.6235
vn 0.0000 0.4339 0.9010
vn 0.0000 0.2225 0.9749
# 7 vertex normals

vt 0.0012 0.9981 1.0000
vt 0.0011 0.8320 1.0000
vt 0.9999 0.8319 1.0000
vt 1.0000 0.9981 1.0000
vt 0.0011 0.6658 1.0000
vt 0.9999 0.6658 1.0000
vt 0.0010 0.4996 1.0000
vt 0.9998 0.4996 1.0000
vt 0.0010 0.3335 1.0000
vt 0.9998 0.3334 1.0000
vt 0.0010 0.1673 1.0000
vt 0.9997 0.1673 1.0000
vt 0.0010 0.0011 1.0000
vt 0.9997 0.0011 1.0000
# 14 texture coords

g ReciptPaper
f 113/45/74 114/46/75 115/47/75 116/48/74 
f 114/46/75 117/49/76 118/50/76 115/47/75 
f 117/49/76 119/51/77 120/52/77 118/50/76 
f 119/51/77 121/53/78 122/54/78 120/52/77 
f 121/53/78 123/55/79 124/56/79 122/54/78 
f 123/55/79 125/57/80 126/58/80 124/56/79 
# 6 polygons

