# 3ds Max Wavefront OBJ Exporter v0.97b - (c)2007 guruware
# File Created: 03.05.2015 12:41:52

#
# object Vacuum_Tube
#

v  0.7508 -0.2733 1.8931
v  0.7241 0.3377 1.8931
v  0.7241 0.3377 20.4105
v  0.7508 -0.2733 20.4105
v  0.2733 0.7508 1.8931
v  0.2733 0.7508 20.4105
v  -0.3377 0.7241 1.8931
v  -0.3377 0.7241 20.4105
v  -0.7508 0.2733 1.8931
v  -0.7508 0.2733 20.4105
v  -0.7241 -0.3377 1.8931
v  -0.7241 -0.3377 20.4105
v  -0.2733 -0.7508 1.8931
v  -0.2733 -0.7508 20.4105
v  0.3377 -0.7241 1.8931
v  0.3377 -0.7241 20.4105
v  0.9421 -0.3429 20.4105
v  0.9086 0.4237 20.4105
v  0.9086 0.4237 21.3074
v  0.9421 -0.3429 21.3074
v  0.3429 0.9421 20.4105
v  0.3429 0.9421 21.3074
v  -0.4237 0.9086 20.4105
v  -0.4237 0.9086 21.3074
v  -0.9421 0.3429 20.4105
v  -0.9421 0.3429 21.3074
v  -0.9086 -0.4237 20.4105
v  -0.9086 -0.4237 21.3074
v  -0.3429 -0.9421 20.4105
v  -0.3429 -0.9421 21.3074
v  0.4237 -0.9086 20.4105
v  0.4237 -0.9086 21.3074
v  0.7995 0.3728 20.4105
v  0.8290 -0.3017 20.4105
v  0.3017 0.8290 20.4105
v  -0.3728 0.7995 20.4105
v  -0.8290 0.3017 20.4105
v  -0.7995 -0.3728 20.4105
v  -0.3017 -0.8290 20.4105
v  0.3728 -0.7995 20.4105
v  0.7241 0.3377 21.3074
v  0.7508 -0.2733 21.3074
v  0.8290 -0.3017 21.3074
v  0.7995 0.3728 21.3074
v  0.3377 -0.7241 21.3074
v  0.3728 -0.7995 21.3074
v  -0.2733 -0.7508 21.3074
v  -0.3017 -0.8290 21.3074
v  -0.7241 -0.3377 21.3074
v  -0.7995 -0.3728 21.3074
v  -0.7508 0.2733 21.3074
v  -0.8290 0.3017 21.3074
v  -0.3377 0.7241 21.3074
v  -0.3728 0.7995 21.3074
v  0.2733 0.7508 21.3074
v  0.3017 0.8290 21.3074
v  0.8290 -0.3017 16.2218
v  0.7995 0.3728 16.2218
v  0.9086 0.4237 16.2218
v  0.9421 -0.3429 16.2218
v  0.3017 0.8290 16.2218
v  0.3429 0.9421 16.2218
v  -0.3728 0.7995 16.2218
v  -0.4237 0.9086 16.2218
v  -0.8290 0.3017 16.2218
v  -0.9421 0.3429 16.2218
v  -0.7995 -0.3728 16.2218
v  -0.9086 -0.4237 16.2218
v  -0.3017 -0.8290 16.2218
v  -0.3429 -0.9421 16.2218
v  0.3728 -0.7995 16.2218
v  0.4237 -0.9086 16.2218
v  0.7995 0.3728 40.6622
v  0.8290 -0.3017 40.6622
v  0.9421 -0.3429 40.6622
v  0.9086 0.4237 40.6622
v  0.3728 -0.7995 40.6622
v  0.4237 -0.9086 40.6622
v  -0.3017 -0.8290 40.6622
v  -0.3429 -0.9421 40.6622
v  -0.7995 -0.3728 40.6622
v  -0.9086 -0.4237 40.6622
v  -0.8290 0.3017 40.6622
v  -0.9421 0.3429 40.6622
v  -0.3728 0.7995 40.6622
v  -0.4237 0.9086 40.6622
v  0.3017 0.8290 40.6622
v  0.3429 0.9421 40.6622
# 88 vertices

vn 0.9397 -0.3420 -0.0000
vn 0.9063 0.4226 -0.0000
vn 0.3420 0.9397 0.0000
vn -0.4226 0.9063 0.0000
vn -0.9397 0.3420 0.0000
vn -0.9063 -0.4226 0.0000
vn -0.3420 -0.9397 -0.0000
vn 0.4226 -0.9063 -0.0000
vn 0.9990 0.0436 -0.0000
vn 0.6756 0.7373 -0.0000
vn -0.0436 0.9990 0.0000
vn -0.7373 0.6756 0.0000
vn -0.9990 -0.0436 0.0000
vn -0.6756 -0.7373 0.0000
vn 0.0436 -0.9990 -0.0000
vn 0.7373 -0.6756 -0.0000
vn 0.0000 -0.0000 -1.0000
vn -0.0000 0.0000 1.0000
vn 0.6756 0.7373 0.0000
# 19 vertex normals

vt 0.7500 0.0000 1.0000
vt 0.8750 0.0000 1.0000
vt 0.8750 1.0000 1.0000
vt 0.7500 1.0000 1.0000
vt 1.0000 0.0000 1.0000
vt 1.0000 1.0000 1.0000
vt 0.0000 0.0000 1.0000
vt 0.1250 0.0000 1.0000
vt 0.1250 1.0000 1.0000
vt 0.0000 1.0000 1.0000
vt 0.2500 0.0000 1.0000
vt 0.2500 1.0000 1.0000
vt 0.3750 0.0000 1.0000
vt 0.3750 1.0000 1.0000
vt 0.5000 0.0000 1.0000
vt 0.5000 1.0000 1.0000
vt 0.6250 0.0000 1.0000
vt 0.6250 1.0000 1.0000
# 18 texture coords

g Vacuum_Tube
f 1/1/1 2/2/2 3/3/2 4/4/1 
f 2/2/2 5/5/3 6/6/3 3/3/2 
f 5/7/3 7/8/4 8/9/4 6/10/3 
f 7/8/4 9/11/5 10/12/5 8/9/4 
f 9/11/5 11/13/6 12/14/6 10/12/5 
f 11/13/6 13/15/7 14/16/7 12/14/6 
f 13/15/7 15/17/8 16/18/8 14/16/7 
f 15/17/8 1/1/1 4/4/1 16/18/8 
f 17/4/9 18/3/9 19/3/9 20/4/9 
f 18/3/10 21/6/10 22/6/10 19/3/10 
f 21/6/11 23/9/11 24/9/11 22/6/11 
f 23/9/12 25/12/12 26/12/12 24/9/12 
f 25/12/13 27/14/13 28/14/13 26/12/13 
f 27/14/14 29/16/14 30/16/14 28/14/14 
f 29/16/15 31/18/15 32/18/15 30/16/15 
f 31/18/16 17/4/16 20/4/16 32/18/16 
f 4/4/17 3/3/17 33/3/17 34/4/17 
f 3/3/17 6/6/17 35/6/17 33/3/17 
f 6/6/17 8/9/17 36/9/17 35/6/17 
f 8/9/17 10/12/17 37/12/17 36/9/17 
f 10/12/17 12/14/17 38/14/17 37/12/17 
f 12/14/17 14/16/17 39/16/17 38/14/17 
f 14/16/17 16/18/17 40/18/17 39/16/17 
f 16/18/17 4/4/17 34/4/17 40/18/17 
f 41/3/18 42/4/18 43/4/18 44/3/18 
f 42/4/18 45/18/18 46/18/18 43/4/18 
f 45/18/18 47/16/18 48/16/18 46/18/18 
f 47/16/18 49/14/18 50/14/18 48/16/18 
f 49/14/18 51/12/18 52/12/18 50/14/18 
f 51/12/18 53/9/18 54/9/18 52/12/18 
f 53/9/18 55/6/18 56/6/18 54/9/18 
f 55/6/18 41/3/18 44/3/18 56/6/18 
f 57/4/17 58/3/17 59/3/17 60/4/17 
f 58/3/17 61/6/17 62/6/17 59/3/17 
f 61/6/17 63/9/17 64/9/17 62/6/17 
f 63/9/17 65/12/17 66/12/17 64/9/17 
f 65/12/17 67/14/17 68/14/17 66/12/17 
f 67/14/17 69/16/17 70/16/17 68/14/17 
f 69/16/17 71/18/17 72/18/17 70/16/17 
f 71/18/17 57/4/17 60/4/17 72/18/17 
f 73/3/18 74/4/18 75/4/18 76/3/18 
f 74/4/18 77/18/18 78/18/18 75/4/18 
f 77/18/18 79/16/18 80/16/18 78/18/18 
f 79/16/18 81/14/18 82/14/18 80/16/18 
f 81/14/18 83/12/18 84/12/18 82/14/18 
f 83/12/18 85/9/18 86/9/18 84/12/18 
f 85/9/18 87/6/18 88/6/18 86/9/18 
f 87/6/18 73/3/18 76/3/18 88/6/18 
f 34/4/13 33/3/13 58/3/13 57/4/13 
f 33/3/14 35/6/14 61/6/14 58/3/14 
f 35/6/15 36/9/15 63/9/15 61/6/15 
f 36/9/16 37/12/16 65/12/16 63/9/16 
f 37/12/9 38/14/9 67/14/9 65/12/9 
f 38/14/10 39/16/10 69/16/10 67/14/10 
f 39/16/11 40/18/11 71/18/11 69/16/11 
f 40/18/12 34/4/12 57/4/12 71/18/12 
f 18/3/9 17/4/9 60/4/9 59/3/9 
f 17/4/16 31/18/16 72/18/16 60/4/16 
f 31/18/15 29/16/15 70/16/15 72/18/15 
f 29/16/14 27/14/14 68/14/14 70/16/14 
f 27/14/13 25/12/13 66/12/13 68/14/13 
f 25/12/12 23/9/12 64/9/12 66/12/12 
f 23/9/11 21/6/11 62/6/11 64/9/11 
f 21/6/10 18/3/10 59/3/10 62/6/10 
f 44/3/13 43/4/13 74/4/13 73/3/13 
f 43/4/12 46/18/12 77/18/12 74/4/12 
f 46/18/11 48/16/11 79/16/11 77/18/11 
f 48/16/19 50/14/19 81/14/19 79/16/19 
f 50/14/9 52/12/9 83/12/9 81/14/9 
f 52/12/16 54/9/16 85/9/16 83/12/16 
f 54/9/15 56/6/15 87/6/15 85/9/15 
f 56/6/14 44/3/14 73/3/14 87/6/14 
f 20/4/9 19/3/9 76/3/9 75/4/9 
f 19/3/10 22/6/10 88/6/10 76/3/10 
f 22/6/11 24/9/11 86/9/11 88/6/11 
f 24/9/12 26/12/12 84/12/12 86/9/12 
f 26/12/13 28/14/13 82/14/13 84/12/13 
f 28/14/14 30/16/14 80/16/14 82/14/14 
f 30/16/15 32/18/15 78/18/15 80/16/15 
f 32/18/16 20/4/16 75/4/16 78/18/16 
# 80 polygons

#
# object Vacuum_Tube001
#

v  0.8015 0.3738 0.0328
v  0.8946 0.4172 0.2898
v  0.9276 -0.3376 0.2898
v  0.8311 -0.3025 0.0328
v  0.3025 0.8311 0.0328
v  0.3376 0.9276 0.2898
v  -0.3738 0.8015 0.0328
v  -0.4172 0.8946 0.2898
v  -0.8311 0.3025 0.0328
v  -0.9276 0.3376 0.2898
v  -0.8015 -0.3738 0.0328
v  -0.8946 -0.4172 0.2898
v  -0.3025 -0.8311 0.0328
v  -0.3376 -0.9276 0.2898
v  0.3738 -0.8015 0.0328
v  0.4172 -0.8946 0.2898
v  0.4345 -0.0941 -9.2337
v  0.4163 0.1162 -9.2270
v  0.4692 0.1287 -9.2463
v  0.4893 -0.1041 -9.2536
v  0.1087 0.2585 -9.1151
v  0.1287 0.2861 -9.1223
v  -0.3081 0.2493 -8.9634
v  -0.3327 0.2759 -8.9544
v  -0.5899 0.0941 -8.8608
v  -0.6447 0.1041 -8.8408
v  -0.5717 -0.1162 -8.8674
v  -0.6246 -0.1287 -8.8482
v  -0.2641 -0.2585 -8.9794
v  -0.2841 -0.2861 -8.9721
v  0.1527 -0.2493 -9.1311
v  0.1773 -0.2759 -9.1400
v  0.7521 0.3507 5.5160
v  0.7799 -0.2838 5.5160
v  0.8632 -0.3142 5.5160
v  0.8326 0.3882 5.5160
v  0.3507 -0.7521 5.5160
v  0.3882 -0.8326 5.5160
v  -0.2838 -0.7799 5.5160
v  -0.3142 -0.8632 5.5160
v  -0.7521 -0.3507 5.5160
v  -0.8326 -0.3882 5.5160
v  -0.7799 0.2838 5.5160
v  -0.8632 0.3142 5.5160
v  -0.3507 0.7521 5.5160
v  -0.3882 0.8326 5.5160
v  0.2838 0.7799 5.5160
v  0.3142 0.8632 5.5160
v  0.7508 -0.2733 0.0328
v  0.7241 0.3377 0.0328
v  0.2733 0.7508 0.0328
v  -0.3377 0.7241 0.0328
v  -0.7508 0.2733 0.0328
v  -0.7241 -0.3377 0.0328
v  -0.2733 -0.7508 0.0328
v  0.3377 -0.7241 0.0328
# 56 vertices

vn 0.5671 0.2644 -0.7801
vn 0.8392 0.3913 -0.3776
vn 0.8701 -0.3167 -0.3776
vn 0.5880 -0.2140 -0.7801
vn 0.2140 0.5880 -0.7801
vn 0.3167 0.8701 -0.3776
vn -0.2644 0.5671 -0.7801
vn -0.3913 0.8392 -0.3776
vn -0.5880 0.2140 -0.7801
vn -0.8701 0.3167 -0.3776
vn -0.5671 -0.2644 -0.7801
vn -0.8392 -0.3913 -0.3776
vn -0.2140 -0.5880 -0.7801
vn -0.3167 -0.8701 -0.3776
vn 0.2644 -0.5671 -0.7801
vn 0.3913 -0.8392 -0.3776
vn -0.1159 0.0000 -0.9933
vn -0.1159 -0.0000 -0.9933
vn -0.1158 0.0000 -0.9933
vn -0.0000 0.0000 1.0000
vn -0.9315 0.3430 0.1215
vn -0.8900 -0.4329 0.1431
vn -0.8228 -0.5551 0.1220
vn -0.8875 0.4339 0.1549
vn -0.3359 -0.9257 0.1741
vn -0.2200 -0.9650 0.1429
vn 0.3968 -0.9076 0.1369
vn 0.2623 -0.9517 0.1597
vn 0.9340 -0.3489 0.0762
vn 0.8861 -0.4497 0.1122
vn 0.8925 0.4400 0.0996
vn 0.8149 0.5736 0.0836
vn 0.3277 0.9317 0.1569
vn 0.2253 0.9644 0.1387
vn -0.4056 0.9011 0.1532
vn -0.2534 0.9517 0.1734
vn 0.8951 0.4254 -0.1334
vn 0.9231 -0.3542 -0.1499
vn 0.8794 -0.4561 -0.1366
vn 0.8267 0.5361 -0.1708
vn 0.4101 -0.8920 -0.1902
vn 0.2778 -0.9485 -0.1520
vn -0.3148 -0.9355 -0.1607
vn -0.2062 -0.9621 -0.1784
vn -0.8969 -0.4327 -0.0913
vn -0.8242 -0.5507 -0.1324
vn -0.9268 0.3604 -0.1055
vn -0.8754 0.4739 -0.0954
vn -0.4035 0.8991 -0.1699
vn -0.2836 0.9477 -0.1463
vn 0.3242 0.9302 -0.1721
vn 0.1924 0.9627 -0.1902
vn 0.9056 0.4223 0.0408
vn 0.9389 -0.3417 0.0408
vn 0.3417 0.9389 0.0408
vn -0.4223 0.9056 0.0408
vn -0.9389 0.3417 0.0408
vn -0.9056 -0.4223 0.0408
vn -0.3417 -0.9389 0.0408
vn 0.4223 -0.9056 0.0408
# 60 vertex normals

vt 0.8750 0.0000 1.0000
vt 0.8750 0.5000 1.0000
vt 0.7500 0.5000 1.0000
vt 0.7500 0.0000 1.0000
vt 1.0000 0.0000 1.0000
vt 1.0000 0.5000 1.0000
vt 0.1250 0.0000 1.0000
vt 0.1250 0.5000 1.0000
vt 0.0000 0.5000 1.0000
vt 0.0000 0.0000 1.0000
vt 0.2500 0.0000 1.0000
vt 0.2500 0.5000 1.0000
vt 0.3750 0.0000 1.0000
vt 0.3750 0.5000 1.0000
vt 0.5000 0.0000 1.0000
vt 0.5000 0.5000 1.0000
vt 0.6250 0.0000 1.0000
vt 0.6250 0.5000 1.0000
vt 0.8750 1.0000 1.0000
vt 0.7500 1.0000 1.0000
vt 0.6250 1.0000 1.0000
vt 0.5000 1.0000 1.0000
vt 0.3750 1.0000 1.0000
vt 0.2500 1.0000 1.0000
vt 0.1250 1.0000 1.0000
vt 0.0000 1.0000 1.0000
vt 1.0000 1.0000 1.0000
# 27 texture coords

g Vacuum_Tube001
f 89/19/20 90/20/21 91/21/22 92/22/23 
f 93/23/24 94/24/25 90/20/21 89/19/20 
f 95/25/26 96/26/27 94/27/25 93/28/24 
f 97/29/28 98/30/29 96/26/27 95/25/26 
f 99/31/30 100/32/31 98/30/29 97/29/28 
f 101/33/32 102/34/33 100/32/31 99/31/30 
f 103/35/34 104/36/35 102/34/33 101/33/32 
f 92/22/23 91/21/22 104/36/35 103/35/34 
f 105/22/36 106/19/36 107/19/36 108/22/36 
f 106/19/37 109/23/37 110/23/37 107/19/37 
f 109/28/37 111/25/37 112/25/37 110/28/37 
f 111/25/37 113/29/37 114/29/37 112/25/37 
f 113/29/38 115/31/38 116/31/38 114/29/38 
f 115/31/36 117/33/36 118/33/36 116/31/36 
f 117/33/37 119/35/37 120/35/37 118/33/37 
f 119/35/36 105/22/36 108/22/36 120/35/36 
f 121/37/39 122/38/39 123/38/39 124/37/39 
f 122/38/39 125/39/39 126/39/39 123/38/39 
f 125/39/39 127/40/39 128/40/39 126/39/39 
f 127/40/39 129/41/39 130/41/39 128/40/39 
f 129/41/39 131/42/39 132/42/39 130/41/39 
f 131/42/39 133/43/39 134/43/39 132/42/39 
f 133/43/39 135/44/39 136/44/39 134/43/39 
f 135/45/39 121/37/39 124/37/39 136/45/39 
f 137/22/40 138/19/41 106/19/42 105/22/43 
f 138/19/41 139/23/44 109/23/45 106/19/42 
f 139/28/44 140/25/46 111/25/47 109/28/45 
f 140/25/46 141/29/48 113/29/49 111/25/47 
f 141/29/48 142/31/50 115/31/51 113/29/49 
f 142/31/50 143/33/52 117/33/53 115/31/51 
f 143/33/52 144/35/54 119/35/55 117/33/53 
f 144/35/54 137/22/40 105/22/43 119/35/55 
f 89/19/56 92/22/57 108/22/58 107/19/59 
f 92/22/57 103/35/60 120/35/61 108/22/58 
f 103/35/60 101/33/62 118/33/63 120/35/61 
f 101/33/62 99/31/64 116/31/65 118/33/63 
f 99/31/64 97/29/66 114/29/67 116/31/65 
f 97/29/66 95/25/68 112/25/69 114/29/67 
f 95/25/68 93/28/70 110/28/71 112/25/69 
f 93/23/70 89/19/56 107/19/59 110/23/71 
f 124/37/72 123/38/73 91/21/22 90/20/21 
f 136/45/74 124/37/72 90/20/21 94/24/25 
f 134/43/75 136/44/74 94/27/25 96/26/27 
f 132/42/76 134/43/75 96/26/27 98/30/29 
f 130/41/77 132/42/76 98/30/29 100/32/31 
f 128/40/78 130/41/77 100/32/31 102/34/33 
f 126/39/79 128/40/78 102/34/33 104/36/35 
f 123/38/73 126/39/79 104/36/35 91/21/22 
# 48 polygons

