# 3ds Max Wavefront OBJ Exporter v0.97b - (c)2007 guruware
# File Created: 02.05.2015 21:50:02

#
# object Box001
#

v  -10.2905 258.8146 -3.0044
v  12.5292 258.8146 -3.0044
v  12.5292 258.8146 6.2427
v  -10.2905 258.8146 6.2427
v  -10.2905 337.0606 -3.0044
v  -10.2905 337.0606 6.2427
v  12.5292 337.0606 6.2427
v  12.5292 337.0606 -3.0044
# 8 vertices

vn 0.0000 -1.0000 -0.0000
vn 0.0000 1.0000 -0.0000
vn -1.0000 0.0000 -0.0000
vn -0.0000 0.0000 1.0000
vn 1.0000 0.0000 0.0000
vn 0.0000 0.0000 -1.0000
# 6 vertex normals

vt 1.0000 0.0000 0.0000
vt 1.0000 1.0000 0.0000
vt 0.0000 1.0000 0.0000
vt 0.0000 0.0000 0.0000
# 4 texture coords

g Box001
s 2
f 1/1/1 2/2/1 3/3/1 4/4/1 
s 4
f 5/4/2 6/1/2 7/2/2 8/3/2 
s 8
f 1/4/3 4/1/3 6/2/3 5/3/3 
s 16
f 4/4/4 3/1/4 7/2/4 6/3/4 
s 32
f 3/4/5 2/1/5 8/2/5 7/3/5 
s 64
f 2/4/6 1/1/6 5/2/6 8/3/6 
# 6 polygons

#
# object Box009
#

v  -103.5317 240.3587 -3.0045
v  -94.9889 243.8984 -3.0045
v  -94.9889 243.8984 6.2426
v  -103.5317 240.3587 6.2426
v  -130.9673 306.5718 -3.0046
v  -130.9673 306.5718 6.2425
v  -122.4246 310.1116 6.2425
v  -122.4246 310.1116 -3.0046
# 8 vertices

vn 0.3828 -0.9238 0.0000
vn -0.3828 0.9238 -0.0000
vn -0.9238 -0.3828 0.0000
vn -0.0000 0.0000 1.0000
vn 0.9238 0.3828 -0.0000
vn 0.0000 -0.0000 -1.0000
# 6 vertex normals

vt 1.0000 0.0000 0.0000
vt 1.0000 1.0000 0.0000
vt 0.0000 1.0000 0.0000
vt 0.0000 0.0000 0.0000
# 4 texture coords

g Box009
s 2
f 9/5/7 10/6/7 11/7/7 12/8/7 
s 4
f 13/8/8 14/5/8 15/6/8 16/7/8 
s 8
f 9/8/9 12/5/9 14/6/9 13/7/9 
s 16
f 12/8/10 11/5/10 15/6/10 14/7/10 
s 32
f 11/8/11 10/5/11 16/6/11 15/7/11 
s 64
f 10/8/12 9/5/12 13/6/12 16/7/12 
# 6 polygons

#
# object Box010
#

v  -190.0901 174.8585 -3.0045
v  -173.9581 190.9983 -3.0045
v  -173.9581 190.9983 6.2426
v  -190.0901 174.8585 6.2426
v  -245.4317 230.1736 -3.0046
v  -245.4317 230.1736 6.2425
v  -229.2996 246.3134 6.2425
v  -229.2996 246.3134 -3.0045
# 8 vertices

vn 0.7073 -0.7069 0.0000
vn -0.7073 0.7069 -0.0000
vn -0.7069 -0.7073 -0.0000
vn -0.0000 0.0000 1.0000
vn 0.7069 0.7073 0.0000
vn 0.0000 0.0000 -1.0000
# 6 vertex normals

vt 1.0000 0.0000 0.0000
vt 1.0000 1.0000 0.0000
vt 0.0000 1.0000 0.0000
vt 0.0000 0.0000 0.0000
# 4 texture coords

g Box010
s 2
f 17/9/13 18/10/13 19/11/13 20/12/13 
s 4
f 21/12/14 22/9/14 23/10/14 24/11/14 
s 8
f 17/12/15 20/9/15 22/10/15 21/11/15 
s 16
f 20/12/16 19/9/16 23/10/16 22/11/16 
s 32
f 19/12/17 18/9/17 24/10/17 23/11/17 
s 64
f 18/12/18 17/9/18 21/10/18 24/11/18 
# 6 polygons

#
# object Box011
#

v  -242.9525 95.8639 -3.0045
v  -239.4169 104.4084 -3.0045
v  -239.4169 104.4084 6.2426
v  -242.9525 95.8639 6.2426
v  -309.1788 123.2679 -3.0045
v  -309.1788 123.2679 6.2426
v  -305.6432 131.8124 6.2426
v  -305.6432 131.8124 -3.0045
# 8 vertices

vn 0.9240 -0.3824 0.0000
vn -0.9240 0.3824 -0.0000
vn -0.3824 -0.9240 0.0000
vn -0.0000 0.0000 1.0000
vn 0.3824 0.9240 -0.0000
vn 0.0000 -0.0000 -1.0000
# 6 vertex normals

vt 1.0000 0.0000 0.0000
vt 1.0000 1.0000 0.0000
vt 0.0000 1.0000 0.0000
vt 0.0000 0.0000 0.0000
# 4 texture coords

g Box011
s 2
f 25/13/19 26/14/19 27/15/19 28/16/19 
s 4
f 29/16/20 30/13/20 31/14/20 32/15/20 
s 8
f 25/16/21 28/13/21 30/14/21 29/15/21 
s 16
f 28/16/22 27/13/22 31/14/22 30/15/22 
s 32
f 27/16/23 26/13/23 32/14/23 31/15/23 
s 64
f 26/16/24 25/13/24 29/14/24 32/15/24 
# 6 polygons

#
# object Box012
#

v  -257.8172 -11.6614 -3.0046
v  -257.8281 11.1583 -3.0046
v  -257.8281 11.1583 6.2425
v  -257.8172 -11.6614 6.2425
v  -336.0632 -11.6989 -3.0046
v  -336.0633 -11.6989 6.2425
v  -336.0742 11.1208 6.2425
v  -336.0742 11.1208 -3.0046
# 8 vertices

vn 1.0000 0.0005 0.0000
vn -1.0000 -0.0005 -0.0000
vn 0.0005 -1.0000 0.0000
vn -0.0000 0.0000 1.0000
vn -0.0005 1.0000 -0.0000
vn 0.0000 0.0000 -1.0000
# 6 vertex normals

vt 1.0000 0.0000 0.0000
vt 1.0000 1.0000 0.0000
vt 0.0000 1.0000 0.0000
vt 0.0000 0.0000 0.0000
# 4 texture coords

g Box012
s 2
f 33/17/25 34/18/25 35/19/25 36/20/25 
s 4
f 37/20/26 38/17/26 39/18/26 40/19/26 
s 8
f 33/20/27 36/17/27 38/18/27 37/19/27 
s 16
f 36/20/28 35/17/28 39/18/28 38/19/28 
s 32
f 35/20/29 34/17/29 40/18/29 39/19/29 
s 64
f 34/20/30 33/17/30 37/18/30 40/19/30 
# 6 polygons

#
# object Box013
#

v  -239.3167 -104.8936 -3.0044
v  -242.8605 -96.3525 -3.0044
v  -242.8605 -96.3525 6.2427
v  -239.3167 -104.8936 6.2427
v  -305.5168 -132.3609 -3.0044
v  -305.5168 -132.3609 6.2427
v  -309.0606 -123.8198 6.2427
v  -309.0606 -123.8198 -3.0044
# 8 vertices

vn 0.9237 0.3832 -0.0000
vn -0.9237 -0.3832 0.0000
vn 0.3832 -0.9237 0.0000
vn -0.0000 0.0000 1.0000
vn -0.3832 0.9237 -0.0000
vn 0.0000 -0.0000 -1.0000
# 6 vertex normals

vt 1.0000 0.0000 0.0000
vt 1.0000 1.0000 0.0000
vt 0.0000 1.0000 0.0000
vt 0.0000 0.0000 0.0000
# 4 texture coords

g Box013
s 2
f 41/21/31 42/22/31 43/23/31 44/24/31 
s 4
f 45/24/32 46/21/32 47/22/32 48/23/32 
s 8
f 41/24/33 44/21/33 46/22/33 45/23/33 
s 16
f 44/24/34 43/21/34 47/22/34 46/23/34 
s 32
f 43/24/35 42/21/35 48/22/35 47/23/35 
s 64
f 42/24/36 41/21/36 45/22/36 48/23/36 
# 6 polygons

#
# object Box014
#

v  -173.7752 -191.4207 -3.0045
v  -189.9227 -175.2964 -3.0045
v  -189.9227 -175.2964 6.2426
v  -173.7752 -191.4207 6.2426
v  -229.0638 -246.7888 -3.0045
v  -229.0638 -246.7888 6.2425
v  -245.2113 -230.6644 6.2425
v  -245.2113 -230.6644 -3.0046
# 8 vertices

vn 0.7066 0.7076 0.0000
vn -0.7066 -0.7076 -0.0000
vn 0.7076 -0.7066 0.0000
vn -0.0000 0.0000 1.0000
vn -0.7076 0.7066 -0.0000
vn 0.0000 0.0000 -1.0000
# 6 vertex normals

vt 1.0000 0.0000 0.0000
vt 1.0000 1.0000 0.0000
vt 0.0000 1.0000 0.0000
vt 0.0000 0.0000 0.0000
# 4 texture coords

g Box014
s 2
f 49/25/37 50/26/37 51/27/37 52/28/37 
s 4
f 53/28/38 54/25/38 55/26/38 56/27/38 
s 8
f 49/28/39 52/25/39 54/26/39 53/27/39 
s 16
f 52/28/40 51/25/40 55/26/40 54/27/40 
s 32
f 51/28/41 50/25/41 56/26/41 55/27/41 
s 64
f 50/28/42 49/25/42 53/26/42 56/27/42 
# 6 polygons

#
# object Box015
#

v  -94.7553 -244.2452 -3.0045
v  -103.3015 -240.7136 -3.0045
v  -103.3015 -240.7136 6.2426
v  -94.7553 -244.2452 6.2426
v  -122.1276 -310.4846 -3.0045
v  -122.1276 -310.4846 6.2426
v  -130.6738 -306.9530 6.2426
v  -130.6738 -306.9530 -3.0045
# 8 vertices

vn 0.3819 0.9242 0.0000
vn -0.3819 -0.9242 -0.0000
vn 0.9242 -0.3819 0.0000
vn -0.0000 0.0000 1.0000
vn -0.9242 0.3819 -0.0000
vn 0.0000 0.0000 -1.0000
# 6 vertex normals

vt 1.0000 0.0000 0.0000
vt 1.0000 1.0000 0.0000
vt 0.0000 1.0000 0.0000
vt 0.0000 0.0000 0.0000
# 4 texture coords

g Box015
s 2
f 57/29/43 58/30/43 59/31/43 60/32/43 
s 4
f 61/32/44 62/29/44 63/30/44 64/31/44 
s 8
f 57/32/45 60/29/45 62/30/45 61/31/45 
s 16
f 60/32/46 59/29/46 63/30/46 62/31/46 
s 32
f 59/32/47 58/29/47 64/30/47 63/31/47 
s 64
f 58/32/48 57/29/48 61/30/48 64/31/48 
# 6 polygons

#
# object Box016
#

v  12.7774 -259.0584 -3.0044
v  -10.0422 -259.0803 -3.0044
v  -10.0422 -259.0803 6.2427
v  12.7774 -259.0584 6.2427
v  12.8524 -337.3044 -3.0044
v  12.8524 -337.3044 6.2427
v  -9.9672 -337.3263 6.2427
v  -9.9672 -337.3263 -3.0044
# 8 vertices

vn -0.0010 1.0000 -0.0000
vn 0.0010 -1.0000 0.0000
vn 1.0000 0.0010 0.0000
vn -0.0000 0.0000 1.0000
vn -1.0000 -0.0010 -0.0000
vn 0.0000 0.0000 -1.0000
# 6 vertex normals

vt 1.0000 0.0000 0.0000
vt 1.0000 1.0000 0.0000
vt 0.0000 1.0000 0.0000
vt 0.0000 0.0000 0.0000
# 4 texture coords

g Box016
s 2
f 65/33/49 66/34/49 67/35/49 68/36/49 
s 4
f 69/36/50 70/33/50 71/34/50 72/35/50 
s 8
f 65/36/51 68/33/51 70/34/51 69/35/51 
s 16
f 68/36/52 67/33/52 71/34/52 70/35/52 
s 32
f 67/36/53 66/33/53 72/34/53 71/35/53 
s 64
f 66/36/54 65/33/54 69/34/54 72/35/54 
# 6 polygons

#
# object Box017
#

v  106.0009 -240.5132 -3.0044
v  97.4615 -244.0611 -3.0044
v  97.4615 -244.0611 6.2427
v  106.0009 -240.5132 6.2427
v  133.5000 -306.7001 -3.0044
v  133.5000 -306.7001 6.2427
v  124.9606 -310.2480 6.2427
v  124.9606 -310.2480 -3.0044
# 8 vertices

vn -0.3837 0.9235 -0.0000
vn 0.3837 -0.9235 0.0000
vn 0.9235 0.3837 0.0000
vn -0.0000 0.0000 1.0000
vn -0.9235 -0.3837 -0.0000
vn 0.0000 0.0000 -1.0000
# 6 vertex normals

vt 1.0000 0.0000 0.0000
vt 1.0000 1.0000 0.0000
vt 0.0000 1.0000 0.0000
vt 0.0000 0.0000 0.0000
# 4 texture coords

g Box017
s 2
f 73/37/55 74/38/55 75/39/55 76/40/55 
s 4
f 77/40/56 78/37/56 79/38/56 80/39/56 
s 8
f 73/40/57 76/37/57 78/38/57 77/39/57 
s 16
f 76/40/58 75/37/58 79/38/58 78/39/58 
s 32
f 75/40/59 74/37/59 80/38/59 79/39/59 
s 64
f 74/40/60 73/37/60 77/38/60 80/39/60 
# 6 polygons

#
# object Box018
#

v  192.4966 -174.9301 -3.0043
v  176.3800 -191.0854 -3.0043
v  176.3800 -191.0854 6.2428
v  192.4966 -174.9301 6.2428
v  247.8911 -230.1921 -3.0042
v  247.8911 -230.1921 6.2429
v  231.7745 -246.3474 6.2429
v  231.7745 -246.3474 -3.0042
# 8 vertices

vn -0.7080 0.7063 -0.0000
vn 0.7080 -0.7063 0.0000
vn 0.7063 0.7080 0.0000
vn -0.0000 0.0000 1.0000
vn -0.7063 -0.7080 -0.0000
vn 0.0000 0.0000 -1.0000
# 6 vertex normals

vt 1.0000 0.0000 0.0000
vt 1.0000 1.0000 0.0000
vt 0.0000 1.0000 0.0000
vt 0.0000 0.0000 0.0000
# 4 texture coords

g Box018
s 2
f 81/41/61 82/42/61 83/43/61 84/44/61 
s 4
f 85/44/62 86/41/62 87/42/62 88/43/62 
s 8
f 81/44/63 84/41/63 86/42/63 85/43/63 
s 16
f 84/44/64 83/41/64 87/42/64 86/43/64 
s 32
f 83/44/65 82/41/65 88/42/65 87/43/65 
s 64
f 82/44/66 81/41/66 85/42/66 88/43/66 
# 6 polygons

#
# object Box019
#

v  245.2830 -95.8853 -3.0043
v  241.7555 -104.4332 -3.0043
v  241.7555 -104.4332 6.2428
v  245.2830 -95.8853 6.2428
v  311.5355 -123.2259 -3.0043
v  311.5355 -123.2259 6.2428
v  308.0080 -131.7738 6.2428
v  308.0080 -131.7738 -3.0043
# 8 vertices

vn -0.9244 0.3815 -0.0000
vn 0.9244 -0.3815 0.0000
vn 0.3815 0.9244 0.0000
vn -0.0000 -0.0000 1.0000
vn -0.3815 -0.9244 -0.0000
vn 0.0000 0.0000 -1.0000
# 6 vertex normals

vt 1.0000 0.0000 0.0000
vt 1.0000 1.0000 0.0000
vt 0.0000 1.0000 0.0000
vt 0.0000 0.0000 0.0000
# 4 texture coords

g Box019
s 2
f 89/45/67 90/46/67 91/47/67 92/48/67 
s 4
f 93/48/68 94/45/68 95/46/68 96/47/68 
s 8
f 89/48/69 92/45/69 94/46/69 93/47/69 
s 16
f 92/48/70 91/45/70 95/46/70 94/47/70 
s 32
f 91/48/71 90/45/71 96/46/71 95/47/71 
s 64
f 90/48/72 89/45/72 93/46/72 96/47/72 
# 6 polygons

#
# object Box020
#

v  260.0448 11.6542 -3.0041
v  260.0776 -11.1655 -3.0041
v  260.0776 -11.1655 6.2430
v  260.0448 11.6542 6.2430
v  338.2908 11.7665 -3.0040
v  338.2908 11.7665 6.2431
v  338.3236 -11.0531 6.2431
v  338.3236 -11.0531 -3.0040
# 8 vertices

vn -1.0000 -0.0014 -0.0000
vn 1.0000 0.0014 0.0000
vn -0.0014 1.0000 -0.0000
vn -0.0000 0.0000 1.0000
vn 0.0014 -1.0000 0.0000
vn 0.0000 0.0000 -1.0000
# 6 vertex normals

vt 1.0000 0.0000 0.0000
vt 1.0000 1.0000 0.0000
vt 0.0000 1.0000 0.0000
vt 0.0000 0.0000 0.0000
# 4 texture coords

g Box020
s 2
f 97/49/73 98/50/73 99/51/73 100/52/73 
s 4
f 101/52/74 102/49/74 103/50/74 104/51/74 
s 8
f 97/52/75 100/49/75 102/50/75 101/51/75 
s 16
f 100/52/76 99/49/76 103/50/76 102/51/76 
s 32
f 99/52/77 98/49/77 104/50/77 103/51/77 
s 64
f 98/52/78 97/49/78 101/50/78 104/51/78 
# 6 polygons

#
# object Box021
#

v  241.4550 104.8689 -3.0042
v  245.0070 96.3312 -3.0042
v  245.0070 96.3312 6.2429
v  241.4550 104.8689 6.2429
v  307.6287 132.3996 -3.0042
v  307.6287 132.3996 6.2429
v  311.1807 123.8619 6.2429
v  311.1807 123.8619 -3.0042
# 8 vertices

vn -0.9233 -0.3841 -0.0000
vn 0.9233 0.3841 0.0000
vn -0.3841 0.9233 -0.0000
vn -0.0000 0.0000 1.0000
vn 0.3841 -0.9233 0.0000
vn 0.0000 0.0000 -1.0000
# 6 vertex normals

vt 1.0000 0.0000 0.0000
vt 1.0000 1.0000 0.0000
vt 0.0000 1.0000 0.0000
vt 0.0000 0.0000 0.0000
# 4 texture coords

g Box021
s 2
f 105/53/79 106/54/79 107/55/79 108/56/79 
s 4
f 109/56/80 110/53/80 111/54/80 112/55/80 
s 8
f 105/56/81 108/53/81 110/54/81 109/55/81 
s 16
f 108/56/82 107/53/82 111/54/82 110/55/82 
s 32
f 107/56/83 106/53/83 112/54/83 111/55/83 
s 64
f 106/56/84 105/53/84 109/54/84 112/55/84 
# 6 polygons

#
# object Box022
#

v  175.8304 191.3333 -3.0044
v  191.9934 175.2244 -3.0044
v  191.9934 175.2244 6.2427
v  175.8304 191.3333 6.2427
v  231.0659 246.7542 -3.0044
v  231.0659 246.7542 6.2427
v  247.2289 230.6454 6.2428
v  247.2289 230.6454 -3.0043
# 8 vertices

vn -0.7059 -0.7083 -0.0000
vn 0.7059 0.7083 0.0000
vn -0.7083 0.7059 -0.0000
vn -0.0000 0.0000 1.0000
vn 0.7083 -0.7059 0.0000
vn 0.0000 -0.0000 -1.0000
# 6 vertex normals

vt 1.0000 0.0000 0.0000
vt 1.0000 1.0000 0.0000
vt 0.0000 1.0000 0.0000
vt 0.0000 0.0000 0.0000
# 4 texture coords

g Box022
s 2
f 113/57/85 114/58/85 115/59/85 116/60/85 
s 4
f 117/60/86 118/57/86 119/58/86 120/59/86 
s 8
f 113/60/87 116/57/87 118/58/87 117/59/87 
s 16
f 116/60/88 115/57/88 119/58/88 118/59/88 
s 32
f 115/60/89 114/57/89 120/58/89 119/59/89 
s 64
f 114/60/90 113/57/90 117/58/90 120/59/90 
# 6 polygons

#
# object Box023
#

v  96.7601 244.0821 -3.0044
v  105.3096 240.5587 -3.0044
v  105.3096 240.5587 6.2427
v  96.7601 244.0821 6.2427
v  124.0689 310.3477 -3.0044
v  124.0689 310.3477 6.2427
v  132.6184 306.8243 6.2427
v  132.6184 306.8243 -3.0044
# 8 vertices

vn -0.3810 -0.9246 -0.0000
vn 0.3810 0.9246 0.0000
vn -0.9246 0.3810 -0.0000
vn -0.0000 0.0000 1.0000
vn 0.9246 -0.3810 0.0000
vn 0.0000 0.0000 -1.0000
# 6 vertex normals

vt 1.0000 0.0000 0.0000
vt 1.0000 1.0000 0.0000
vt 0.0000 1.0000 0.0000
vt 0.0000 0.0000 0.0000
# 4 texture coords

g Box023
s 2
f 121/61/91 122/62/91 123/63/91 124/64/91 
s 4
f 125/64/92 126/61/92 127/62/92 128/63/92 
s 8
f 121/64/93 124/61/93 126/62/93 125/63/93 
s 16
f 124/64/94 123/61/94 127/62/94 126/63/94 
s 32
f 123/64/95 122/61/95 128/62/95 127/63/95 
s 64
f 122/64/96 121/61/96 125/62/96 128/63/96 
# 6 polygons

