# 3ds Max Wavefront OBJ Exporter v0.97b - (c)2007 guruware
# File Created: 01.05.2015 23:57:17

#
# object AAABatteryTop
#

v  1.1838 -0.2765 -0.0000
v  1.1838 -0.2265 -0.1864
v  1.1838 -0.1679 -0.1525
v  1.1838 -0.2088 -0.0000
v  1.1838 -0.0901 -0.3228
v  1.1838 -0.0563 -0.2642
v  1.1838 0.0963 -0.3727
v  1.1838 0.0963 -0.3050
v  1.1838 0.2826 -0.3228
v  1.1838 0.2488 -0.2642
v  1.1838 0.4191 -0.1864
v  1.1838 0.3604 -0.1525
v  1.1838 0.4690 -0.0000
v  1.1838 0.4013 -0.0000
v  1.1838 0.4191 0.1864
v  1.1838 0.3604 0.1525
v  1.1838 0.2826 0.3228
v  1.1838 0.2488 0.2642
v  1.1838 0.0963 0.3727
v  1.1838 0.0963 0.3050
v  1.1838 -0.0901 0.3228
v  1.1838 -0.0563 0.2642
v  1.1838 -0.2265 0.1864
v  1.1838 -0.1679 0.1525
v  0.3417 -0.2765 -0.0000
v  0.3417 -0.2265 -0.1864
v  0.3417 -0.0901 -0.3228
v  0.3417 0.0963 -0.3727
v  0.3417 0.2826 -0.3228
v  0.3417 0.4191 -0.1864
v  0.3417 0.4690 -0.0000
v  0.3417 0.4191 0.1864
v  0.3417 0.2826 0.3228
v  0.3417 0.0963 0.3727
v  0.3417 -0.0901 0.3228
v  0.3417 -0.2265 0.1864
# 36 vertices

vn 1.0000 -0.0000 -0.0000
vn -0.0000 -0.8660 -0.5000
vn -0.0000 -1.0000 0.0000
vn -0.0000 -0.5000 -0.8660
vn 0.0000 0.0000 -1.0000
vn 0.0000 0.5000 -0.8660
vn 0.0000 0.8660 -0.5000
vn 0.0000 1.0000 -0.0000
vn 0.0000 0.8660 0.5000
vn 0.0000 0.5000 0.8660
vn 0.0000 0.0000 1.0000
vn -0.0000 -0.5000 0.8660
vn -0.0000 -0.8660 0.5000
# 13 vertex normals

vt 0.5000 1.0000 0.2500
vt 0.2500 0.9330 0.2500
vt 0.3333 0.7887 0.2500
vt 0.5000 0.8333 0.2500
vt 0.0670 0.7500 0.2500
vt 0.2113 0.6667 0.2500
vt 0.0000 0.5000 0.2500
vt 0.1667 0.5000 0.2500
vt 0.0670 0.2500 0.2500
vt 0.2113 0.3333 0.2500
vt 0.2500 0.0670 0.2500
vt 0.3333 0.2113 0.2500
vt 0.5000 0.0000 0.2500
vt 0.5000 0.1667 0.2500
vt 0.7500 0.0670 0.2500
vt 0.6667 0.2113 0.2500
vt 0.9330 0.2500 0.2500
vt 0.7887 0.3333 0.2500
vt 1.0000 0.5000 0.2500
vt 0.8333 0.5000 0.2500
vt 0.9330 0.7500 0.2500
vt 0.7887 0.6667 0.2500
vt 0.7500 0.9330 0.2500
vt 0.6667 0.7887 0.2500
vt 0.8333 1.0000 1.0000
vt 0.7500 1.0000 1.0000
vt 0.7500 0.6841 1.0000
vt 0.8333 0.6841 1.0000
vt 0.9167 1.0000 1.0000
vt 0.9167 0.6841 1.0000
vt 1.0000 1.0000 1.0000
vt 1.0000 0.6841 1.0000
vt 0.0833 1.0000 1.0000
vt 0.0000 1.0000 1.0000
vt 0.0000 0.6841 1.0000
vt 0.0833 0.6841 1.0000
vt 0.1667 1.0000 1.0000
vt 0.1667 0.6841 1.0000
vt 0.2500 1.0000 1.0000
vt 0.2500 0.6841 1.0000
vt 0.3333 1.0000 1.0000
vt 0.3333 0.6841 1.0000
vt 0.4167 1.0000 1.0000
vt 0.4167 0.6841 1.0000
vt 0.5000 1.0000 1.0000
vt 0.5000 0.6841 1.0000
vt 0.5833 1.0000 1.0000
vt 0.5833 0.6841 1.0000
vt 0.6667 1.0000 1.0000
vt 0.6667 0.6841 1.0000
# 50 texture coords

g AAABatteryTop
s 1
f 1/1/1 2/2/1 3/3/1 4/4/1 
f 2/2/1 5/5/1 6/6/1 3/3/1 
f 5/5/1 7/7/1 8/8/1 6/6/1 
f 7/7/1 9/9/1 10/10/1 8/8/1 
f 9/9/1 11/11/1 12/12/1 10/10/1 
f 11/11/1 13/13/1 14/14/1 12/12/1 
f 13/13/1 15/15/1 16/16/1 14/14/1 
f 15/15/1 17/17/1 18/18/1 16/16/1 
f 17/17/1 19/19/1 20/20/1 18/18/1 
f 19/19/1 21/21/1 22/22/1 20/20/1 
f 21/21/1 23/23/1 24/24/1 22/22/1 
f 23/23/1 1/1/1 4/4/1 24/24/1 
s 8
f 2/25/2 1/26/3 25/27/3 26/28/2 
f 5/29/4 2/25/2 26/28/2 27/30/4 
f 7/31/5 5/29/4 27/30/4 28/32/5 
f 9/33/6 7/34/5 28/35/5 29/36/6 
f 11/37/7 9/33/6 29/36/6 30/38/7 
f 13/39/8 11/37/7 30/38/7 31/40/8 
f 15/41/9 13/39/8 31/40/8 32/42/9 
f 17/43/10 15/41/9 32/42/9 33/44/10 
f 19/45/11 17/43/10 33/44/10 34/46/11 
f 21/47/12 19/45/11 34/46/11 35/48/12 
f 23/49/13 21/47/12 35/48/12 36/50/13 
f 1/26/3 23/49/13 36/50/13 25/27/3 
# 24 polygons

#
# object AAABatterymetal
#

v  1.1838 -0.2088 -0.0000
v  1.1838 -0.1679 -0.1525
v  1.1838 -0.0113 -0.0621
v  1.1838 -0.0280 -0.0000
v  1.1838 -0.0563 -0.2642
v  1.1838 0.0341 -0.1076
v  1.1838 0.0963 -0.3050
v  1.1838 0.0963 -0.1242
v  1.1838 0.2488 -0.2642
v  1.1838 0.1584 -0.1076
v  1.1838 0.3604 -0.1525
v  1.1838 0.2039 -0.0621
v  1.1838 0.4013 -0.0000
v  1.1838 0.2205 -0.0000
v  1.1838 0.3604 0.1525
v  1.1838 0.2039 0.0621
v  1.1838 0.2488 0.2642
v  1.1838 0.1584 0.1076
v  1.1838 0.0963 0.3050
v  1.1838 0.0963 0.1242
v  1.1838 -0.0563 0.2642
v  1.1838 0.0341 0.1076
v  1.1838 -0.1679 0.1525
v  1.1838 -0.0113 0.0621
v  1.2897 -0.0280 -0.0000
v  1.2897 -0.0113 -0.0621
v  1.2897 0.0963 -0.0000
v  1.2897 0.0341 -0.1076
v  1.2897 0.0963 -0.1242
v  1.2897 0.1584 -0.1076
v  1.2897 0.2039 -0.0621
v  1.2897 0.2205 -0.0000
v  1.2897 0.2039 0.0621
v  1.2897 0.1584 0.1076
v  1.2897 0.0963 0.1242
v  1.2897 0.0341 0.1076
v  1.2897 -0.0113 0.0621
v  -1.4822 -0.1843 -0.1620
v  -1.4822 -0.2277 -0.0000
v  -1.4489 0.0963 -0.0000
v  -1.4822 -0.0657 -0.2806
v  -1.4822 0.0963 -0.3240
v  -1.4822 0.2582 -0.2806
v  -1.4822 0.3768 -0.1620
v  -1.4822 0.4202 -0.0000
v  -1.4822 0.3768 0.1620
v  -1.4822 0.2583 0.2806
v  -1.4822 0.0963 0.3240
v  -1.4822 -0.0657 0.2806
v  -1.4822 -0.1843 0.1620
# 50 vertices

vn 1.0000 -0.0000 -0.0000
vn -0.0000 -0.9659 -0.2588
vn -0.0000 -0.7071 -0.7071
vn -0.0000 -0.2588 -0.9659
vn 0.0000 0.2588 -0.9659
vn 0.0000 0.7071 -0.7071
vn 0.0000 0.9659 -0.2588
vn 0.0000 0.9659 0.2588
vn 0.0000 0.7071 0.7071
vn 0.0000 0.2588 0.9659
vn -0.0000 -0.2588 0.9659
vn -0.0000 -0.7071 0.7071
vn -0.0000 -0.9659 0.2588
vn -0.9961 0.0768 0.0443
vn -0.9961 0.0887 -0.0000
vn -1.0000 0.0000 0.0000
vn -0.9961 0.0443 0.0768
vn -0.9961 0.0000 0.0887
vn -0.9961 -0.0443 0.0768
vn -0.9961 -0.0768 0.0443
vn -0.9961 -0.0887 0.0000
vn -0.9961 -0.0768 -0.0443
vn -0.9961 -0.0443 -0.0768
vn -0.9961 0.0000 -0.0887
vn -0.9961 0.0443 -0.0768
vn -0.9961 0.0768 -0.0443
# 26 vertex normals

vt 0.5000 0.8333 0.2500
vt 0.3333 0.7887 0.2500
vt 0.4167 0.6443 0.2500
vt 0.5000 0.6667 0.2500
vt 0.2113 0.6667 0.2500
vt 0.3557 0.5833 0.2500
vt 0.1667 0.5000 0.2500
vt 0.3333 0.5000 0.2500
vt 0.2113 0.3333 0.2500
vt 0.3557 0.4167 0.2500
vt 0.3333 0.2113 0.2500
vt 0.4167 0.3557 0.2500
vt 0.5000 0.1667 0.2500
vt 0.5000 0.3333 0.2500
vt 0.6667 0.2113 0.2500
vt 0.5833 0.3557 0.2500
vt 0.7887 0.3333 0.2500
vt 0.6443 0.4167 0.2500
vt 0.8333 0.5000 0.2500
vt 0.6667 0.5000 0.2500
vt 0.7887 0.6667 0.2500
vt 0.6443 0.5833 0.2500
vt 0.6667 0.7887 0.2500
vt 0.5833 0.6443 0.2500
vt 0.5000 0.5000 0.2500
vt 0.3333 0.7887 -0.2500
vt 0.5000 0.8333 -0.2500
vt 0.5000 0.5000 -0.2500
vt 0.2113 0.6667 -0.2500
vt 0.1667 0.5000 -0.2500
vt 0.2113 0.3333 -0.2500
vt 0.3333 0.2113 -0.2500
vt 0.5000 0.1667 -0.2500
vt 0.6667 0.2113 -0.2500
vt 0.7887 0.3333 -0.2500
vt 0.8333 0.5000 -0.2500
vt 0.7887 0.6667 -0.2500
vt 0.6667 0.7887 -0.2500
# 38 texture coords

g AAABatterymetal
s 1
f 37/51/14 38/52/14 39/53/14 40/54/14 
f 38/52/14 41/55/14 42/56/14 39/53/14 
f 41/55/14 43/57/14 44/58/14 42/56/14 
f 43/57/14 45/59/14 46/60/14 44/58/14 
f 45/59/14 47/61/14 48/62/14 46/60/14 
f 47/61/14 49/63/14 50/64/14 48/62/14 
f 49/63/14 51/65/14 52/66/14 50/64/14 
f 51/65/14 53/67/14 54/68/14 52/66/14 
f 53/67/14 55/69/14 56/70/14 54/68/14 
f 55/69/14 57/71/14 58/72/14 56/70/14 
f 57/71/14 59/73/14 60/74/14 58/72/14 
f 59/73/14 37/51/14 40/54/14 60/74/14 
f 61/54/14 62/53/14 63/75/14 
f 62/53/14 64/56/14 63/75/14 
f 64/56/14 65/58/14 63/75/14 
f 65/58/14 66/60/14 63/75/14 
f 66/60/14 67/62/14 63/75/14 
f 67/62/14 68/64/14 63/75/14 
f 68/64/14 69/66/14 63/75/14 
f 69/66/14 70/68/14 63/75/14 
f 70/68/14 71/70/14 63/75/14 
f 71/70/14 72/72/14 63/75/14 
f 72/72/14 73/74/14 63/75/14 
f 73/74/14 61/54/14 63/75/14 
s off
f 40/54/15 39/53/15 62/53/15 61/54/15 
f 39/53/16 42/56/16 64/56/16 62/53/16 
f 42/56/17 44/58/17 65/58/17 64/56/17 
f 44/58/18 46/60/18 66/60/18 65/58/18 
f 46/60/19 48/62/19 67/62/19 66/60/19 
f 48/62/20 50/64/20 68/64/20 67/62/20 
f 50/64/21 52/66/21 69/66/21 68/64/21 
f 52/66/22 54/68/22 70/68/22 69/66/22 
f 54/68/23 56/70/23 71/70/23 70/68/23 
f 56/70/24 58/72/24 72/72/24 71/70/24 
f 58/72/25 60/74/25 73/74/25 72/72/25 
f 60/74/26 40/54/26 61/54/26 73/74/26 
s 1
f 74/76/27 75/77/28 76/78/29 
f 77/79/30 74/76/27 76/78/29 
f 78/80/31 77/79/30 76/78/29 
f 79/81/32 78/80/31 76/78/29 
f 80/82/33 79/81/32 76/78/29 
f 81/83/34 80/82/33 76/78/29 
f 82/84/35 81/83/34 76/78/29 
f 83/85/36 82/84/35 76/78/29 
f 84/86/37 83/85/36 76/78/29 
f 85/87/38 84/86/37 76/78/29 
f 86/88/39 85/87/38 76/78/29 
f 75/77/28 86/88/39 76/78/29 
# 24 polygons - 24 triangles

#
# object AAABatteryBody
#

v  -1.4822 -0.2265 -0.1864
v  0.3417 -0.2265 -0.1864
v  0.3417 -0.2765 -0.0000
v  -1.4822 -0.2765 -0.0000
v  -1.4822 -0.0901 -0.3228
v  0.3417 -0.0901 -0.3228
v  -1.4822 0.0963 -0.3727
v  0.3417 0.0963 -0.3727
v  -1.4822 0.2826 -0.3228
v  0.3417 0.2826 -0.3228
v  -1.4822 0.4191 -0.1864
v  0.3417 0.4191 -0.1864
v  -1.4822 0.4690 -0.0000
v  0.3417 0.4690 -0.0000
v  -1.4822 0.4191 0.1864
v  0.3417 0.4191 0.1864
v  -1.4822 0.2826 0.3228
v  0.3417 0.2826 0.3228
v  -1.4822 0.0963 0.3727
v  0.3417 0.0963 0.3727
v  -1.4822 -0.0901 0.3228
v  0.3417 -0.0901 0.3228
v  -1.4822 -0.2265 0.1864
v  0.3417 -0.2265 0.1864
v  -1.4822 -0.2277 -0.0000
v  -1.4822 -0.1843 -0.1620
v  -1.4822 -0.0657 -0.2806
v  -1.4822 0.0963 -0.3240
v  -1.4822 0.2582 -0.2806
v  -1.4822 0.3768 -0.1620
v  -1.4822 0.4202 -0.0000
v  -1.4822 0.3768 0.1620
v  -1.4822 0.2583 0.2806
v  -1.4822 0.0963 0.3240
v  -1.4822 -0.0657 0.2806
v  -1.4822 -0.1843 0.1620
# 36 vertices

vn -0.0000 -0.8660 -0.5000
vn -0.0000 -1.0000 0.0000
vn -0.0000 -0.5000 -0.8660
vn -0.0000 0.0000 -1.0000
vn 0.0000 0.0000 -1.0000
vn 0.0000 0.5000 -0.8660
vn 0.0000 0.8660 -0.5000
vn 0.0000 1.0000 -0.0000
vn 0.0000 0.8660 0.5000
vn 0.0000 0.5000 0.8660
vn 0.0000 0.0000 1.0000
vn -0.0000 -0.5000 0.8660
vn -0.0000 -0.8660 0.5000
vn -1.0000 0.0000 -0.0000
# 14 vertex normals

vt 0.8333 0.0000 1.0000
vt 0.8333 0.6841 1.0000
vt 0.7500 0.6841 1.0000
vt 0.7500 0.0000 1.0000
vt 0.9167 0.0000 1.0000
vt 0.9167 0.6841 1.0000
vt 1.0000 0.0000 1.0000
vt 1.0000 0.6841 1.0000
vt 0.0833 0.0000 1.0000
vt 0.0833 0.6841 1.0000
vt 0.0000 0.6841 1.0000
vt 0.0000 0.0000 1.0000
vt 0.1667 0.0000 1.0000
vt 0.1667 0.6841 1.0000
vt 0.2500 0.0000 1.0000
vt 0.2500 0.6841 1.0000
vt 0.3333 0.0000 1.0000
vt 0.3333 0.6841 1.0000
vt 0.4167 0.0000 1.0000
vt 0.4167 0.6841 1.0000
vt 0.5000 0.0000 1.0000
vt 0.5000 0.6841 1.0000
vt 0.5833 0.0000 1.0000
vt 0.5833 0.6841 1.0000
vt 0.6667 0.0000 1.0000
vt 0.6667 0.6841 1.0000
vt 0.2500 0.9330 -0.2500
vt 0.5000 1.0000 -0.2500
vt 0.5000 0.8333 -0.2500
vt 0.3333 0.7887 -0.2500
vt 0.0670 0.7500 -0.2500
vt 0.2113 0.6667 -0.2500
vt 0.0000 0.5000 -0.2500
vt 0.1667 0.5000 -0.2500
vt 0.0670 0.2500 -0.2500
vt 0.2113 0.3333 -0.2500
vt 0.2500 0.0670 -0.2500
vt 0.3333 0.2113 -0.2500
vt 0.5000 0.0000 -0.2500
vt 0.5000 0.1667 -0.2500
vt 0.7500 0.0670 -0.2500
vt 0.6667 0.2113 -0.2500
vt 0.9330 0.2500 -0.2500
vt 0.7887 0.3333 -0.2500
vt 1.0000 0.5000 -0.2500
vt 0.8333 0.5000 -0.2500
vt 0.9330 0.7500 -0.2500
vt 0.7887 0.6667 -0.2500
vt 0.7500 0.9330 -0.2500
vt 0.6667 0.7887 -0.2500
# 50 texture coords

g AAABatteryBody
s 8
f 87/89/40 88/90/40 89/91/41 90/92/41 
f 91/93/42 92/94/42 88/90/40 87/89/40 
f 93/95/43 94/96/44 92/94/42 91/93/42 
f 95/97/45 96/98/45 94/99/44 93/100/43 
f 97/101/46 98/102/46 96/98/45 95/97/45 
f 99/103/47 100/104/47 98/102/46 97/101/46 
f 101/105/48 102/106/48 100/104/47 99/103/47 
f 103/107/49 104/108/49 102/106/48 101/105/48 
f 105/109/50 106/110/50 104/108/49 103/107/49 
f 107/111/51 108/112/51 106/110/50 105/109/50 
f 109/113/52 110/114/52 108/112/51 107/111/51 
f 90/92/41 89/91/41 110/114/52 109/113/52 
s 1
f 87/115/53 90/116/53 111/117/53 112/118/53 
f 91/119/53 87/115/53 112/118/53 113/120/53 
f 93/121/53 91/119/53 113/120/53 114/122/53 
f 95/123/53 93/121/53 114/122/53 115/124/53 
f 97/125/53 95/123/53 115/124/53 116/126/53 
f 99/127/53 97/125/53 116/126/53 117/128/53 
f 101/129/53 99/127/53 117/128/53 118/130/53 
f 103/131/53 101/129/53 118/130/53 119/132/53 
f 105/133/53 103/131/53 119/132/53 120/134/53 
f 107/135/53 105/133/53 120/134/53 121/136/53 
f 109/137/53 107/135/53 121/136/53 122/138/53 
f 90/116/53 109/137/53 122/138/53 111/117/53 
# 24 polygons

