# 3ds Max Wavefront OBJ Exporter v0.97b - (c)2007 guruware
# File Created: 01.05.2015 23:54:26

#
# object BobbyPin
#

v  -2.4122 -0.0797 0.1551
v  -1.1228 -0.0797 0.0890
v  -1.1228 -0.0797 0.1657
v  -2.4122 -0.0797 0.2378
v  -1.1228 0.0797 0.1657
v  -1.1228 0.0797 0.0890
v  -2.4122 0.0797 0.1551
v  -2.4122 0.0797 0.2378
v  2.6200 -0.0797 0.2221
v  2.6200 -0.0797 0.1516
v  2.6200 0.0797 0.1516
v  2.6200 0.0797 0.2221
v  2.4944 -0.1085 0.0952
v  2.4944 0.1085 0.0952
v  -2.6200 -0.0797 0.1050
v  -2.5430 -0.0797 0.0675
v  -2.5430 0.0797 0.0675
v  -2.6200 0.0797 0.1050
v  -2.6200 -0.0797 -0.0347
v  -2.5443 -0.0797 -0.0091
v  -2.5443 0.0797 -0.0091
v  -2.6200 0.0797 -0.0347
v  -2.4203 -0.0797 -0.1954
v  -2.4215 -0.0797 -0.1137
v  -2.4215 0.0797 -0.1137
v  -2.4203 0.0797 -0.1954
v  -2.2008 -0.0642 -0.1887
v  -2.2115 -0.0642 -0.1104
v  -2.2115 0.0642 -0.1104
v  -2.2008 0.0642 -0.1887
v  1.2375 -0.0797 0.1123
v  1.2375 -0.0797 0.1851
v  1.2375 0.0797 0.1851
v  1.2375 0.0797 0.1123
v  2.2341 -0.0797 0.1446
v  2.2341 -0.0797 0.2158
v  2.2341 0.0797 0.2158
v  2.2341 0.0797 0.1446
v  -0.1387 -0.0797 -0.0763
v  0.1081 -0.0797 -0.1740
v  0.0994 -0.0797 -0.1152
v  -0.1474 -0.0797 -0.0162
v  0.0994 0.0797 -0.1152
v  0.1081 0.0797 -0.1740
v  -0.1387 0.0797 -0.0763
v  -0.1474 0.0797 -0.0162
v  1.3422 -0.0797 -0.0916
v  1.7145 -0.0797 -0.1665
v  1.7170 -0.0797 -0.1090
v  1.3335 -0.0797 -0.0389
v  1.0953 -0.0797 -0.1843
v  1.0867 -0.0797 -0.1303
v  0.8485 -0.0797 -0.0865
v  0.8398 -0.0797 -0.0313
v  0.6017 -0.0797 -0.1792
v  0.5930 -0.0797 -0.1228
v  0.3549 -0.0797 -0.0814
v  0.3462 -0.0797 -0.0238
v  -1.1346 -0.0797 0.0116
v  -1.1259 -0.0797 -0.0533
v  -0.8878 -0.0797 -0.1001
v  -0.8791 -0.0797 -0.1638
v  -0.6410 -0.0797 -0.0086
v  -0.6323 -0.0797 -0.0712
v  -0.3942 -0.0797 -0.1076
v  -0.3855 -0.0797 -0.1689
v  1.7170 0.0797 -0.1090
v  1.7145 0.0797 -0.1665
v  1.3422 0.0797 -0.0916
v  1.3335 0.0797 -0.0389
v  1.0953 0.0797 -0.1843
v  1.0867 0.0797 -0.1303
v  0.8485 0.0797 -0.0865
v  0.8398 0.0797 -0.0313
v  0.6017 0.0797 -0.1792
v  0.5930 0.0797 -0.1228
v  0.3549 0.0797 -0.0814
v  0.3462 0.0797 -0.0238
v  -1.1346 0.0797 0.0116
v  -1.1259 0.0797 -0.0533
v  -0.8878 0.0797 -0.1001
v  -0.8791 0.0797 -0.1638
v  -0.6410 0.0797 -0.0086
v  -0.6323 0.0797 -0.0712
v  -0.3942 0.0797 -0.1076
v  -0.3855 0.0797 -0.1689
v  2.4944 -0.1085 0.2742
v  2.4944 0.1085 0.2742
v  1.9597 -0.0995 -0.2742
v  2.1315 -0.0797 -0.2505
v  2.1466 -0.0797 -0.1875
v  1.9738 -0.0995 -0.0976
v  2.1466 0.0797 -0.1875
v  2.1315 0.0797 -0.2505
v  1.9597 0.0995 -0.2742
v  1.9738 0.0995 -0.0976
# 96 vertices

vn 0.0000 -1.0000 -0.0000
vn -0.0000 1.0000 -0.0000
vn 0.0425 0.0000 0.9991
vn 0.0995 0.0000 0.9950
vn 1.0000 0.0000 -0.0000
vn 0.1541 0.0000 -0.9881
vn 0.6269 0.0000 -0.7791
vn 0.0000 1.0000 -0.0000
vn -0.7528 0.0000 0.6582
vn 0.7682 0.0000 -0.6402
vn -1.0000 0.0000 0.0000
vn 1.0000 0.0000 -0.0095
vn -0.8215 0.0000 -0.5702
vn 0.8362 0.0000 0.5484
vn 0.1026 -0.9947 0.0043
vn 0.1026 0.9947 0.0043
vn 0.0541 0.0000 -0.9985
vn -0.0281 0.0000 0.9996
vn -0.0349 0.0000 0.9994
vn -0.0914 0.0000 -0.9958
vn -0.0369 0.0000 -0.9993
vn 0.0378 0.0000 -0.9993
vn -0.0841 -0.9965 -0.0000
vn -0.0879 -0.9961 -0.0000
vn -0.0879 0.9961 -0.0000
vn -0.0841 0.9965 -0.0000
vn -0.2239 0.0000 0.9746
vn -0.5785 0.0000 -0.8156
vn 0.5833 0.0000 0.8122
vn -0.0203 -0.9998 -0.0015
vn -0.0203 0.9998 -0.0015
vn -0.3390 0.0000 -0.9408
vn 0.5579 0.0000 -0.8299
vn 0.2201 0.0000 -0.9755
vn -0.6255 0.0000 -0.7802
vn 0.3109 0.0000 0.9504
vn -0.5528 0.0000 0.8333
vn -0.1988 0.0000 0.9800
vn 0.6297 0.0000 0.7769
vn -0.1431 0.0000 -0.9897
vn 0.3108 -0.9505 -0.0000
vn 0.0532 -0.9986 -0.0000
vn 0.0432 -0.9991 -0.0000
vn 0.0532 0.9986 -0.0000
vn 0.3108 0.9505 -0.0000
vn 0.0432 0.9991 -0.0000
vn 0.5963 0.0000 0.8028
vn 0.1055 0.0000 0.9944
vn 0.1583 -0.9873 -0.0108
vn 0.1583 0.9873 -0.0108
vn 0.2400 0.0000 -0.9708
vn 0.6813 0.0000 0.7320
vn -0.1105 -0.9939 0.0044
vn -0.1105 0.9939 0.0044
vn -0.6180 0.0000 -0.7861
vn -0.0790 0.0000 0.9969
vn 0.9912 0.0000 -0.1326
# 57 vertex normals

vt 1.0000 1.0000 0.0000
vt 0.7202 1.0000 0.0000
vt 0.7202 0.0000 0.0000
vt 1.0000 0.0000 0.0000
vt 0.2798 0.0000 0.0000
vt 0.2798 1.0000 0.0000
vt 0.0000 1.0000 0.0000
vt 0.0000 0.0000 0.0000
vt 0.0280 0.0000 0.0000
vt 0.0280 1.0000 0.0000
vt 0.2701 1.0000 0.0000
vt 0.2701 0.0000 0.0000
vt 0.7299 0.0000 0.0000
vt 0.7299 1.0000 0.0000
vt 0.0859 1.0000 0.0000
vt 0.0859 0.0000 0.0000
vt 0.9141 0.0000 0.0000
vt 0.9141 1.0000 0.0000
vt 0.9720 0.0000 0.0000
vt 0.9720 1.0000 0.0000
# 20 texture coords

g BobbyPin
s 2
f 1/1/1 2/2/1 3/3/1 4/4/1 
s 4
f 5/5/2 6/6/2 7/7/2 8/8/2 
s 8
f 3/5/3 5/6/3 8/7/4 4/8/4 
s 16
f 9/8/5 10/4/5 11/1/5 12/7/5 
s 32
f 13/9/6 14/10/6 11/7/7 10/8/7 
s off
f 1/1/1 4/4/1 15/4/1 16/1/1 
f 8/8/8 7/7/8 17/7/8 18/8/8 
f 4/8/9 8/7/9 18/7/9 15/8/9 
f 7/1/10 1/4/10 16/4/10 17/1/10 
f 16/1/1 15/4/1 19/4/1 20/1/1 
f 18/8/8 17/7/8 21/7/8 22/8/8 
f 15/8/11 18/7/11 22/7/11 19/8/11 
f 17/1/12 16/4/12 20/4/12 21/1/12 
f 20/1/1 19/4/1 23/4/1 24/1/1 
f 22/8/8 21/7/8 25/7/8 26/8/8 
f 19/8/13 22/7/13 26/7/13 23/8/13 
f 21/1/14 20/4/14 24/4/14 25/1/14 
f 24/1/15 23/4/15 27/4/15 28/1/15 
f 26/8/16 25/7/16 29/7/16 30/8/16 
f 23/8/17 26/7/17 30/7/17 27/8/17 
f 25/1/18 24/4/18 28/4/18 29/1/18 
s 2
f 31/11/1 32/12/1 3/3/1 2/2/1 
s 4
f 33/13/8 34/14/8 6/6/2 5/5/2 
s 8
f 32/13/19 33/14/19 5/6/3 3/5/3 
s 32
f 1/4/20 7/1/20 6/2/21 2/3/21 
f 2/3/21 6/2/21 34/11/22 31/12/22 
s 2
f 35/15/23 36/16/24 32/12/1 31/11/1 
s 4
f 33/13/8 37/17/25 38/18/26 34/14/8 
s 8
f 36/17/27 37/18/27 33/14/19 32/13/19 
s off
f 39/4/1 40/4/1 41/1/1 42/1/1 
f 43/7/8 44/8/8 45/8/8 46/7/8 
f 44/7/28 40/8/28 39/8/28 45/7/28 
f 41/4/29 43/1/29 46/1/29 42/4/29 
f 47/4/1 48/4/1 49/1/1 50/1/1 
f 51/4/1 47/4/1 50/1/1 52/1/1 
f 53/4/1 51/4/1 52/1/1 54/1/1 
f 55/4/1 53/4/1 54/1/1 56/1/1 
f 57/4/1 55/4/1 56/1/1 58/1/1 
f 40/4/1 57/4/1 58/1/1 41/1/1 
f 59/1/30 28/1/30 27/4/30 60/4/30 
f 61/1/1 59/1/1 60/4/1 62/4/1 
f 63/1/1 61/1/1 62/4/1 64/4/1 
f 65/1/1 63/1/1 64/4/1 66/4/1 
f 42/1/1 65/1/1 66/4/1 39/4/1 
f 67/7/8 68/8/8 69/8/8 70/7/8 
f 70/7/8 69/8/8 71/8/8 72/7/8 
f 72/7/8 71/8/8 73/8/8 74/7/8 
f 74/7/8 73/8/8 75/8/8 76/7/8 
f 76/7/8 75/8/8 77/8/8 78/7/8 
f 78/7/8 77/8/8 44/8/8 43/7/8 
f 30/8/31 29/7/31 79/7/31 80/8/31 
f 80/8/8 79/7/8 81/7/8 82/8/8 
f 82/8/8 81/7/8 83/7/8 84/8/8 
f 84/8/8 83/7/8 85/7/8 86/8/8 
f 86/8/8 85/7/8 46/7/8 45/8/8 
f 68/7/32 48/8/32 47/8/32 69/7/32 
f 69/7/33 47/8/33 51/8/33 71/7/33 
f 71/7/28 51/8/28 53/8/28 73/7/28 
f 73/7/33 53/8/33 55/8/33 75/7/33 
f 75/7/28 55/8/28 57/8/28 77/7/28 
f 77/7/33 57/8/33 40/8/33 44/7/33 
f 27/8/34 30/7/34 80/7/34 60/8/34 
f 60/8/35 80/7/35 82/7/35 62/8/35 
f 62/8/33 82/7/33 84/7/33 64/8/33 
f 64/8/28 84/7/28 86/7/28 66/8/28 
f 66/8/33 86/7/33 45/7/33 39/8/33 
f 49/4/36 67/1/36 70/1/36 50/4/36 
f 50/4/37 70/1/37 72/1/37 52/4/37 
f 52/4/29 72/1/29 74/1/29 54/4/29 
f 54/4/37 74/1/37 76/1/37 56/4/37 
f 56/4/29 76/1/29 78/1/29 58/4/29 
f 58/4/37 78/1/37 43/1/37 41/4/37 
f 29/1/38 28/4/38 59/4/38 79/1/38 
f 79/1/39 59/4/39 61/4/39 81/1/39 
f 81/1/37 61/4/37 63/4/37 83/1/37 
f 83/1/29 63/4/29 65/4/29 85/1/29 
f 85/1/37 65/4/37 42/4/37 46/1/37 
s 32
f 35/16/40 38/15/40 14/10/6 13/9/6 
s 2
f 10/7/41 9/8/41 87/9/42 13/10/43 
s 4
f 88/19/44 12/4/45 11/1/45 14/20/46 
s 8
f 9/4/47 12/1/47 88/20/48 87/19/48 
s 2
f 13/10/43 87/9/42 36/16/24 35/15/23 
s 4
f 37/17/25 88/19/44 14/20/46 38/18/26 
s 8
f 87/19/48 88/20/48 37/18/27 36/17/27 
s 32
f 31/12/22 34/11/22 38/15/40 35/16/40 
s off
f 89/4/49 90/4/49 91/1/49 92/1/49 
f 93/7/50 94/8/50 95/8/50 96/7/50 
f 94/7/51 90/8/51 89/8/51 95/7/51 
f 91/4/52 93/1/52 96/1/52 92/4/52 
f 48/4/53 89/4/53 92/1/53 49/1/53 
f 96/7/54 95/8/54 68/8/54 67/7/54 
f 95/7/55 89/8/55 48/8/55 68/7/55 
f 92/4/56 96/1/56 67/1/56 49/4/56 
f 94/7/57 93/7/57 91/4/57 90/4/57 
# 94 polygons

