# 3ds Max Wavefront OBJ Exporter v0.97b - (c)2007 guruware
# File Created: 01.05.2015 22:19:51

#
# object BottleCap
#

v  0.8701 0.0000 -0.5076
v  0.6153 0.6153 -0.5076
v  0.6927 0.6927 0.5076
v  0.9796 0.0000 0.5076
v  -0.0000 0.8701 -0.5076
v  -0.0000 0.9796 0.5076
v  -0.6153 0.6153 -0.5076
v  -0.6927 0.6927 0.5076
v  -0.8701 -0.0000 -0.5076
v  -0.9796 -0.0000 0.5076
v  -0.6153 -0.6153 -0.5076
v  -0.6927 -0.6927 0.5076
v  0.0000 -0.8701 -0.5076
v  0.0000 -0.9796 0.5076
v  0.6153 -0.6153 -0.5076
v  0.6927 -0.6927 0.5076
v  -0.5956 -0.5956 -0.3686
v  0.0000 -0.8423 -0.3686
v  0.5956 -0.5956 -0.3686
v  0.8423 0.0000 -0.3686
v  0.5956 0.5956 -0.3686
v  -0.0000 0.8423 -0.3686
v  -0.5956 0.5956 -0.3686
v  -0.8423 -0.0000 -0.3686
# 24 vertices

vn 0.9942 0.0000 -0.1072
vn 0.7030 0.7030 -0.1072
vn -0.0000 0.9942 -0.1072
vn -0.7030 0.7030 -0.1072
vn -0.9942 -0.0000 -0.1072
vn -0.7030 -0.7030 -0.1072
vn 0.0000 -0.9942 -0.1072
vn 0.7030 -0.7030 -0.1072
vn 0.0000 -0.0000 -1.0000
vn 0.0000 0.0000 1.0000
vn -0.9144 -0.3787 0.1432
vn -0.3787 -0.9144 0.1432
vn 0.3787 -0.9144 0.1432
vn 0.9144 -0.3787 0.1432
vn 0.9144 0.3787 0.1432
vn 0.3787 0.9144 0.1432
vn -0.3787 0.9144 0.1432
vn -0.9144 0.3787 0.1432
# 18 vertex normals

vt 0.7500 0.0000 1.0000
vt 0.8750 0.0000 1.0000
vt 0.8750 1.0000 1.0000
vt 0.7500 1.0000 1.0000
vt 1.0000 0.0000 1.0000
vt 1.0000 1.0000 1.0000
vt 0.0000 0.0000 1.0000
vt 0.1250 0.0000 1.0000
vt 0.1250 1.0000 1.0000
vt 0.0000 1.0000 1.0000
vt 0.2500 0.0000 1.0000
vt 0.2500 1.0000 1.0000
vt 0.3750 0.0000 1.0000
vt 0.3750 1.0000 1.0000
vt 0.5000 0.0000 1.0000
vt 0.5000 1.0000 1.0000
vt 0.6250 0.0000 1.0000
vt 0.6250 1.0000 1.0000
vt 0.0000 0.5000 -0.2500
vt 0.1464 0.8536 -0.2500
vt 0.5000 1.0000 -0.2500
vt 0.8536 0.8536 -0.2500
vt 1.0000 0.5000 -0.2500
vt 0.8536 0.1464 -0.2500
vt 0.5000 0.0000 -0.2500
vt 0.1464 0.1464 -0.2500
vt 0.8536 0.1464 0.2500
vt 1.0000 0.5000 0.2500
vt 0.8536 0.8536 0.2500
vt 0.5000 1.0000 0.2500
vt 0.1464 0.8536 0.2500
vt 0.0000 0.5000 0.2500
vt 0.1464 0.1464 0.2500
vt 0.5000 0.0000 0.2500
# 34 texture coords

g BottleCap
s 8
f 1/1/1 2/2/2 3/3/2 4/4/1 
f 2/2/2 5/5/3 6/6/3 3/3/2 
f 5/7/3 7/8/4 8/9/4 6/10/3 
f 7/8/4 9/11/5 10/12/5 8/9/4 
f 9/11/5 11/13/6 12/14/6 10/12/5 
f 11/13/6 13/15/7 14/16/7 12/14/6 
f 13/15/7 15/17/8 16/18/8 14/16/7 
f 15/17/8 1/1/1 4/4/1 16/18/8 
s 1
f 5/19/9 2/20/9 1/21/9 15/22/9 13/23/9 11/24/9 9/25/9 7/26/9 
f 17/27/10 18/28/10 19/29/10 20/30/10 21/31/10 22/32/10 23/33/10 24/34/10 
s off
f 4/30/11 3/31/11 21/31/11 20/30/11 
f 3/31/12 6/32/12 22/32/12 21/31/12 
f 6/32/13 8/33/13 23/33/13 22/32/13 
f 8/33/14 10/34/14 24/34/14 23/33/14 
f 10/34/15 12/27/15 17/27/15 24/34/15 
f 12/27/16 14/28/16 18/28/16 17/27/16 
f 14/28/17 16/29/17 19/29/17 18/28/17 
f 16/29/18 4/30/18 20/30/18 19/29/18 
# 18 polygons

