# 3ds Max Wavefront OBJ Exporter v0.97b - (c)2007 guruware
# File Created: 02.05.2015 00:32:37

mtllib BUG_001.mtl

#
# object BUG_001
#

v  0.8261 0.0730 -0.4454
v  0.8261 -0.0861 -0.2227
v  0.4130 -0.1826 -0.3558
v  0.4130 0.0730 -0.7117
v  0.0000 -0.1826 -0.3558
v  0.0000 0.0730 -0.7117
v  -0.4130 -0.1826 -0.3558
v  -0.4130 0.0730 -0.7117
v  -0.8261 -0.1199 -0.3096
v  -0.8261 0.0730 -0.6192
v  0.8261 -0.0861 0.0000
v  0.4130 -0.2773 0.0000
v  0.0000 -0.2773 -0.0000
v  -0.4130 -0.2773 -0.0000
v  -0.8261 -0.1199 -0.0000
v  0.8261 -0.0861 0.2227
v  0.4130 -0.1826 0.3558
v  -0.0000 -0.1826 0.3558
v  -0.4130 -0.1826 0.3558
v  -0.8261 -0.1199 0.3096
v  0.8261 0.0730 0.4454
v  0.4130 0.0730 0.7117
v  -0.0000 0.0730 0.7117
v  -0.4130 0.0730 0.7117
v  -0.8261 0.0730 0.6192
v  0.8261 0.1530 -0.4454
v  0.4130 0.1530 -0.7117
v  0.4130 0.4086 -0.3558
v  0.8261 0.3121 -0.2227
v  0.0000 0.1530 -0.7117
v  0.0000 0.4086 -0.3558
v  -0.4130 0.1530 -0.7117
v  -0.4130 0.4086 -0.3558
v  -0.8261 0.1530 -0.6192
v  -0.8261 0.3459 -0.3096
v  0.4130 0.5032 0.0000
v  0.8261 0.3121 0.0000
v  0.0000 0.5032 -0.0000
v  -0.4130 0.5032 -0.0000
v  -0.8261 0.3459 -0.0000
v  0.4130 0.4086 0.3558
v  0.8261 0.3121 0.2227
v  -0.0000 0.4086 0.3558
v  -0.4130 0.4086 0.3558
v  -0.8261 0.3459 0.3096
v  0.4130 0.1530 0.7117
v  0.8261 0.1530 0.4454
v  -0.0000 0.1530 0.7117
v  -0.4130 0.1530 0.7117
v  -0.8261 0.1530 0.6192
v  -1.0018 0.0730 -0.2629
v  -1.0018 0.0000 -0.1315
v  -1.0018 0.2260 -0.1315
v  -1.0018 0.1530 -0.2629
v  -1.0018 0.0000 -0.0000
v  -1.0018 0.2260 -0.0000
v  -1.0018 0.0000 0.1315
v  -1.0018 0.2260 0.1315
v  -1.0018 0.0730 0.2629
v  -1.0018 0.1530 0.2629
v  2.2853 0.0907 0.1204
v  2.2853 0.0907 0.0879
v  2.2853 0.1353 0.0879
v  2.2853 0.1353 0.1204
v  1.9095 0.0000 0.1380
v  1.9095 0.0000 0.0000
v  1.9095 0.2260 0.0000
v  1.9095 0.2260 0.1380
v  1.9095 0.0000 -0.1380
v  1.9095 0.2260 -0.1380
v  2.2853 0.0907 -0.1021
v  2.2853 0.0907 -0.1347
v  2.2853 0.1353 -0.1347
v  2.2853 0.1353 -0.1021
v  1.0827 0.0838 -0.2142
v  1.0827 0.0321 -0.1071
v  1.0827 0.1422 -0.2142
v  1.0827 0.1939 -0.1071
v  1.0827 0.1939 0.0000
v  1.0827 0.1939 0.1071
v  1.0827 0.1422 0.2142
v  1.0827 0.0838 0.2142
v  1.0827 0.0321 0.1071
v  1.0827 0.0321 0.0000
v  1.3082 0.0722 -0.4605
v  1.3082 -0.0809 -0.2302
v  1.3082 0.1538 -0.4605
v  1.3082 0.3068 -0.2302
v  1.3082 0.3068 0.0000
v  1.3082 0.3068 0.2302
v  1.3082 0.1538 0.4605
v  1.3082 0.0722 0.4605
v  1.3082 -0.0809 0.2302
v  1.3082 -0.0809 0.0000
v  1.6464 0.0722 -0.4605
v  1.6464 -0.0809 -0.2302
v  1.6464 0.1538 -0.4605
v  1.6464 0.3068 -0.2302
v  1.6464 0.3068 0.0000
v  1.6464 0.3068 0.2302
v  1.6464 0.1538 0.4605
v  1.6464 0.0722 0.4605
v  1.6464 -0.0809 0.2302
v  1.6464 -0.0809 0.0000
v  1.9095 0.0722 -0.2759
v  1.9095 0.1538 -0.2759
v  1.9095 0.1538 0.2759
v  1.9095 0.0722 0.2759
v  2.0974 0.1353 0.1828
v  2.0974 0.0907 0.1828
v  2.0974 0.1353 0.2311
v  2.0974 0.0907 0.2311
v  2.0974 0.0907 -0.1828
v  2.0974 0.1353 -0.1828
v  2.0974 0.0907 -0.2311
v  2.0974 0.1353 -0.2311
v  1.0064 -0.0787 -1.1788
v  -0.2065 -0.0787 -1.4258
v  -0.2065 -0.0787 1.4258
v  1.0064 -0.0787 1.1788
v  -1.5544 -0.0787 0.7570
v  -1.5544 -0.0787 -0.7570
# 122 vertices

vn 0.3527 -0.7608 -0.5449
vn 0.3740 -0.8765 -0.3030
vn 0.1653 -0.8879 -0.4294
vn 0.1485 -0.8031 -0.5770
vn 0.0000 -0.9041 -0.4272
vn 0.0000 -0.8122 -0.5834
vn -0.1162 -0.9070 -0.4048
vn -0.0730 -0.8180 -0.5705
vn -0.1580 -0.9479 -0.2765
vn -0.1176 -0.8428 -0.5252
vn 0.3676 -0.9284 0.0540
vn 0.1883 -0.9820 0.0159
vn 0.0000 -1.0000 -0.0000
vn -0.1505 -0.9884 -0.0224
vn -0.3002 -0.9522 -0.0563
vn 0.2953 -0.9223 0.2492
vn 0.1811 -0.8918 0.4146
vn -0.0000 -0.9041 0.4272
vn -0.0825 -0.9033 0.4210
vn -0.2396 -0.9183 0.3153
vn 0.3509 -0.7620 0.5443
vn 0.1487 -0.8033 0.5767
vn -0.0000 -0.8122 0.5834
vn -0.0610 -0.8106 0.5824
vn -0.1568 -0.8202 0.5502
vn 0.3527 0.7608 -0.5449
vn 0.1485 0.8031 -0.5770
vn 0.1653 0.8879 -0.4294
vn 0.3740 0.8765 -0.3030
vn 0.0000 0.8122 -0.5834
vn 0.0000 0.9041 -0.4272
vn -0.0730 0.8180 -0.5705
vn -0.1162 0.9070 -0.4048
vn -0.1176 0.8428 -0.5252
vn -0.1580 0.9479 -0.2765
vn 0.1883 0.9820 0.0159
vn 0.3676 0.9284 0.0540
vn 0.0000 1.0000 -0.0000
vn -0.1505 0.9884 -0.0224
vn -0.3002 0.9522 -0.0563
vn 0.1811 0.8918 0.4146
vn 0.2953 0.9223 0.2492
vn -0.0000 0.9041 0.4272
vn -0.0825 0.9033 0.4210
vn -0.2396 0.9183 0.3153
vn 0.1487 0.8033 0.5767
vn 0.3509 0.7620 0.5443
vn -0.0000 0.8122 0.5834
vn -0.0610 0.8106 0.5824
vn -0.1568 0.8202 0.5502
vn 0.0000 0.0000 -1.0000
vn -0.2184 0.0000 -0.9758
vn -1.0000 0.0000 -0.0000
vn -0.2184 0.0000 0.9758
vn -0.0000 0.0000 1.0000
vn 1.0000 0.0000 0.0000
vn -0.7329 -0.5826 -0.3513
vn -0.5638 -0.8259 -0.0000
vn -0.7329 -0.5826 0.3513
vn -0.7329 0.5826 0.3513
vn -0.5638 0.8259 -0.0000
vn -0.7329 0.5826 -0.3513
vn 0.4989 -0.7302 -0.4668
vn 0.6694 0.0000 -0.7429
vn 0.4989 0.7302 -0.4668
vn 0.4183 0.9083 0.0000
vn 0.4989 0.7302 0.4668
vn 0.6694 0.0000 0.7429
vn 0.4989 -0.7302 0.4668
vn 0.4183 -0.9083 0.0000
vn -0.5515 -0.7131 -0.4329
vn -0.7376 0.0000 -0.6753
vn -0.5515 0.7131 -0.4329
vn -0.4479 0.8941 -0.0000
vn -0.5515 0.7131 0.4329
vn -0.7376 0.0000 0.6753
vn -0.5515 -0.7131 0.4329
vn -0.4479 -0.8941 -0.0000
vn 0.0000 -0.8327 -0.5537
vn 0.0000 0.8327 -0.5537
vn -0.0000 0.8327 0.5537
vn -0.0000 -0.8327 0.5537
vn 0.3759 -0.7904 -0.4836
vn 0.5743 0.0000 -0.8186
vn 0.3759 0.7904 -0.4836
vn 0.2938 0.9559 0.0000
vn 0.3759 0.7904 0.4836
vn 0.5743 0.0000 0.8186
vn 0.3759 -0.7904 0.4836
vn 0.2938 -0.9559 0.0000
vn 0.2320 0.0000 -0.9727
vn 0.2614 0.9000 0.3489
vn 0.2320 0.0000 0.9727
vn 0.2614 -0.9000 0.3489
vn 0.2614 -0.9000 -0.3489
vn 0.2614 0.9000 -0.3489
vn -0.4507 0.0000 -0.8927
vn 0.5074 0.0000 0.8617
vn -0.3944 0.0000 0.9190
vn 0.4566 0.0000 -0.8897
vn -0.1126 -0.9782 0.1747
vn -0.6185 0.0000 -0.7858
vn 0.1672 0.9512 -0.2594
vn 0.9711 0.0000 0.2389
vn -0.0000 -0.9782 0.2078
vn -0.9606 0.0000 -0.2778
vn 0.0000 0.9512 -0.3086
vn 0.9606 0.0000 -0.2778
vn 0.0000 -0.9782 -0.2078
vn 0.9606 0.0000 0.2778
vn -0.0000 0.9512 0.3086
vn -0.9606 0.0000 0.2778
vn -0.1126 -0.9782 -0.1747
vn 0.9711 0.0000 -0.2389
vn 0.1672 0.9512 0.2594
vn -0.6185 0.0000 0.7858
vn 0.1859 0.0000 0.9826
vn -0.2768 0.9512 0.1365
vn -0.6665 0.0000 -0.7455
vn 0.1864 -0.9782 -0.0919
vn 0.1859 0.0000 -0.9826
vn 0.1864 -0.9782 0.0919
vn -0.6665 0.0000 0.7455
vn -0.2768 0.9512 -0.1365
# 124 vertex normals

vt 1.0000 0.0000 0.0000
vt 1.0000 0.2500 0.0000
vt 0.7500 0.2500 0.0000
vt 0.7500 0.0000 0.0000
vt 0.5000 0.2500 0.0000
vt 0.5000 0.0000 0.0000
vt 0.2500 0.2500 0.0000
vt 0.2500 0.0000 0.0000
vt 0.0000 0.2500 0.0000
vt 0.0000 0.0000 0.0000
vt 1.0000 0.5000 0.0000
vt 0.7500 0.5000 0.0000
vt 0.5000 0.5000 0.0000
vt 0.2500 0.5000 0.0000
vt 0.0000 0.5000 0.0000
vt 1.0000 0.7500 0.0000
vt 0.7500 0.7500 0.0000
vt 0.5000 0.7500 0.0000
vt 0.2500 0.7500 0.0000
vt 0.0000 0.7500 0.0000
vt 1.0000 1.0000 0.0000
vt 0.7500 1.0000 0.0000
vt 0.5000 1.0000 0.0000
vt 0.2500 1.0000 0.0000
vt 0.0000 1.0000 0.0000
vt 0.1250 0.5000 0.0000
vt 0.6250 0.5000 0.0000
vt 0.3750 0.5000 0.0000
vt 0.8750 0.5000 0.0000
# 29 texture coords

g BUG_001
usemtl wire_228153184
s 2
f 1/1/1 2/2/2 3/3/3 4/4/4 
f 4/4/4 3/3/3 5/5/5 6/6/6 
f 6/6/6 5/5/5 7/7/7 8/8/8 
f 8/8/8 7/7/7 9/9/9 10/10/10 
f 2/2/2 11/11/11 12/12/12 3/3/3 
f 3/3/3 12/12/12 13/13/13 5/5/5 
f 5/5/5 13/13/13 14/14/14 7/7/7 
f 7/7/7 14/14/14 15/15/15 9/9/9 
f 11/11/11 16/16/16 17/17/17 12/12/12 
f 12/12/12 17/17/17 18/18/18 13/13/13 
f 13/13/13 18/18/18 19/19/19 14/14/14 
f 14/14/14 19/19/19 20/20/20 15/15/15 
f 16/16/16 21/21/21 22/22/22 17/17/17 
f 17/17/17 22/22/22 23/23/23 18/18/18 
f 18/18/18 23/23/23 24/24/24 19/19/19 
f 19/19/19 24/24/24 25/25/25 20/20/20 
s 4
f 26/10/26 27/8/27 28/7/28 29/9/29 
f 27/8/27 30/6/30 31/5/31 28/7/28 
f 30/6/30 32/4/32 33/3/33 31/5/31 
f 32/4/32 34/1/34 35/2/35 33/3/33 
f 29/9/29 28/7/28 36/14/36 37/15/37 
f 28/7/28 31/5/31 38/13/38 36/14/36 
f 31/5/31 33/3/33 39/12/39 38/13/38 
f 33/3/33 35/2/35 40/11/40 39/12/39 
f 37/15/37 36/14/36 41/19/41 42/20/42 
f 36/14/36 38/13/38 43/18/43 41/19/41 
f 38/13/38 39/12/39 44/17/44 43/18/43 
f 39/12/39 40/11/40 45/16/45 44/17/44 
f 42/20/42 41/19/41 46/24/46 47/25/47 
f 41/19/41 43/18/43 48/23/48 46/24/46 
f 43/18/43 44/17/44 49/22/49 48/23/48 
f 44/17/44 45/16/45 50/21/50 49/22/49 
s 8
f 4/8/51 6/6/51 30/23/51 27/24/51 
f 8/4/52 10/1/52 34/21/52 32/22/52 
s 16
f 51/10/53 52/8/53 53/24/53 54/25/53 
f 52/8/53 55/6/53 56/23/53 53/24/53 
f 55/6/53 57/4/53 58/22/53 56/23/53 
f 57/4/53 59/1/53 60/21/53 58/22/53 
s 32
f 25/10/54 24/8/54 49/24/54 50/25/54 
f 23/6/55 22/4/55 46/22/55 48/23/55 
s 64
f 61/10/56 62/8/56 63/24/56 64/25/56 
f 65/8/56 66/6/56 67/23/56 68/24/56 
f 66/6/56 69/4/56 70/22/56 67/23/56 
f 71/4/56 72/1/56 73/21/56 74/22/56 
s off
f 10/10/57 9/8/57 52/8/57 51/10/57 
f 9/8/58 15/6/58 55/6/58 52/8/58 
f 15/6/58 20/4/58 57/4/58 55/6/58 
f 20/4/59 25/1/59 59/1/59 57/4/59 
f 50/21/60 45/22/60 58/22/60 60/21/60 
f 45/22/61 40/23/61 56/23/61 58/22/61 
f 40/23/61 35/24/61 53/24/61 56/23/61 
f 35/24/62 34/25/62 54/25/62 53/24/62 
f 2/4/63 1/1/63 75/1/63 76/4/63 
f 1/1/64 26/21/64 77/21/64 75/1/64 
f 26/21/65 29/22/65 78/22/65 77/21/65 
f 29/22/66 37/23/66 79/23/66 78/22/66 
f 37/23/66 42/24/66 80/24/66 79/23/66 
f 42/24/67 47/25/67 81/25/67 80/24/67 
f 47/25/68 21/10/68 82/10/68 81/25/68 
f 21/10/69 16/8/69 83/8/69 82/10/69 
f 16/8/70 11/6/70 84/6/70 83/8/70 
f 11/6/70 2/4/70 76/4/70 84/6/70 
f 76/4/71 75/1/71 85/1/71 86/4/71 
f 75/1/72 77/21/72 87/21/72 85/1/72 
f 77/21/73 78/22/73 88/22/73 87/21/73 
f 78/22/74 79/23/74 89/23/74 88/22/74 
f 79/23/74 80/24/74 90/24/74 89/23/74 
f 80/24/75 81/25/75 91/25/75 90/24/75 
f 81/25/76 82/10/76 92/10/76 91/25/76 
f 82/10/77 83/8/77 93/8/77 92/10/77 
f 83/8/78 84/6/78 94/6/78 93/8/78 
f 84/6/78 76/4/78 86/4/78 94/6/78 
f 86/4/79 85/1/79 95/1/79 96/4/79 
f 85/1/51 87/21/51 97/21/51 95/1/51 
f 87/21/80 88/22/80 98/22/80 97/21/80 
f 88/22/38 89/23/38 99/23/38 98/22/38 
f 89/23/38 90/24/38 100/24/38 99/23/38 
f 90/24/81 91/25/81 101/25/81 100/24/81 
f 91/25/55 92/10/55 102/10/55 101/25/55 
f 92/10/82 93/8/82 103/8/82 102/10/82 
f 93/8/13 94/6/13 104/6/13 103/8/13 
f 94/6/13 86/4/13 96/4/13 104/6/13 
f 96/4/83 95/1/83 105/1/83 69/4/83 
f 95/1/84 97/21/84 106/21/84 105/1/84 
f 97/21/85 98/22/85 70/22/85 106/21/85 
f 98/22/86 99/23/86 67/23/86 70/22/86 
f 99/23/86 100/24/86 68/24/86 67/23/86 
f 100/24/87 101/25/87 107/25/87 68/24/87 
f 101/25/88 102/10/88 108/10/88 107/25/88 
f 102/10/89 103/8/89 65/8/89 108/10/89 
f 103/8/90 104/6/90 66/6/90 65/8/90 
f 104/6/90 96/4/90 69/4/90 66/6/90 
f 65/8/91 68/24/91 109/24/91 110/8/91 
f 68/24/92 107/25/92 111/25/92 109/24/92 
f 107/25/93 108/10/93 112/10/93 111/25/93 
f 108/10/94 65/8/94 110/8/94 112/10/94 
f 70/22/93 69/4/93 113/4/93 114/22/93 
f 69/4/95 105/1/95 115/1/95 113/4/95 
f 105/1/91 106/21/91 116/21/91 115/1/91 
f 106/21/96 70/22/96 114/22/96 116/21/96 
f 110/8/97 109/24/97 63/24/97 62/8/97 
f 109/24/38 111/25/38 64/25/38 63/24/38 
f 111/25/98 112/10/98 61/10/98 64/25/98 
f 112/10/13 110/8/13 62/8/13 61/10/13 
f 114/22/99 113/4/99 71/4/99 74/22/99 
f 113/4/13 115/1/13 72/1/13 71/4/13 
f 115/1/100 116/21/100 73/21/100 72/1/100 
f 116/21/38 114/22/38 74/22/38 73/21/38 
f 1/10/101 4/8/101 117/26/101 
f 4/8/102 27/24/102 117/26/102 
f 27/24/103 26/25/103 117/26/103 
f 26/25/104 1/10/104 117/26/104 
f 6/6/105 8/4/105 118/27/105 
f 8/4/106 32/22/106 118/27/106 
f 32/22/107 30/23/107 118/27/107 
f 30/23/108 6/6/108 118/27/108 
f 24/8/109 23/6/109 119/28/109 
f 23/6/110 48/23/110 119/28/110 
f 48/23/111 49/24/111 119/28/111 
f 49/24/112 24/8/112 119/28/112 
f 22/4/113 21/1/113 120/29/113 
f 21/1/114 47/21/114 120/29/114 
f 47/21/115 46/22/115 120/29/115 
f 46/22/116 22/4/116 120/29/116 
f 25/1/117 50/21/117 121/11/117 
f 50/21/118 60/21/118 121/11/118 
f 60/21/119 59/1/119 121/11/119 
f 59/1/120 25/1/120 121/11/120 
f 34/25/121 10/10/121 122/15/121 
f 10/10/122 51/10/122 122/15/122 
f 51/10/123 54/25/123 122/15/123 
f 54/25/124 34/25/124 122/15/124 
# 108 polygons - 24 triangles

