# 3ds Max Wavefront OBJ Exporter v0.97b - (c)2007 guruware
# File Created: 01.05.2015 22:39:53

#
# object Plane001
#

v  -0.2484 -0.2267 0.0079
v  0.1427 -0.2267 0.0079
v  0.1056 -0.0756 -0.0079
v  -0.1564 -0.0756 -0.0079
v  0.1056 0.0756 -0.0079
v  -0.1564 0.0756 -0.0079
v  0.1427 0.2267 0.0079
v  -0.2484 0.2267 0.0079
v  0.8914 -0.3778 0.0079
v  0.8914 0.3778 0.0079
v  0.6725 0.0756 0.0079
v  0.6725 -0.0756 0.0079
v  0.6295 -0.3307 0.0079
v  0.6460 -0.5880 0.0079
v  0.3675 0.3154 0.0079
v  -0.6803 -0.0000 0.0079
v  -0.8914 0.3174 0.0079
v  -0.8914 -0.3174 0.0079
v  -0.4183 -0.2267 0.0079
v  -0.5932 -0.2257 0.0079
v  -0.6220 -0.4451 0.0079
v  0.6295 0.3307 0.0079
v  0.6460 0.5880 0.0079
v  -0.6220 0.4451 0.0079
v  -0.5932 0.2257 0.0079
v  0.3675 -0.3154 0.0079
v  -0.4183 0.2267 0.0079
# 27 vertices

vn 0.0000 0.0210 0.9998
vn 0.0000 0.0294 0.9996
vn 0.0000 0.0535 0.9986
vn 0.0000 0.0578 0.9983
vn 0.0000 -0.0535 0.9986
vn 0.0000 -0.0578 0.9983
vn 0.0000 -0.0294 0.9996
vn 0.0000 -0.0210 0.9998
vn 0.0000 0.0000 1.0000
# 9 vertex normals

vt 0.4286 0.2857 0.0000
vt 0.5714 0.2857 0.0000
vt 0.5714 0.4286 0.0000
vt 0.4286 0.4286 0.0000
vt 0.5714 0.5714 0.0000
vt 0.4286 0.5714 0.0000
vt 0.5714 0.7143 0.0000
vt 0.4286 0.7143 0.0000
vt 1.0000 0.1429 0.0000
vt 1.0000 0.8571 0.0000
vt 0.8571 0.5714 0.0000
vt 0.8571 0.4286 0.0000
vt 0.8571 0.2857 0.0000
vt 1.0000 0.0000 0.0000
vt 0.7143 0.7143 0.0000
vt 0.1429 0.5000 0.0000
vt 0.0000 0.8571 0.0000
vt 0.0000 0.1429 0.0000
vt 0.2857 0.2857 0.0000
vt 0.1429 0.2857 0.0000
vt 0.0000 0.0000 0.0000
vt 0.8571 0.7143 0.0000
vt 1.0000 1.0000 0.0000
vt 0.0000 1.0000 0.0000
vt 0.1429 0.7143 0.0000
vt 0.7143 0.2857 0.0000
vt 0.2857 0.7143 0.0000
# 27 texture coords

g Plane001
s 1
f 1/1/1 2/2/2 3/3/3 4/4/4 
f 4/4/4 3/3/3 5/5/5 6/6/6 
f 6/6/6 5/5/5 7/7/7 8/8/8 
f 9/9/9 10/10/9 11/11/9 12/12/9 
f 12/12/9 13/13/9 14/14/9 9/9/9 
f 8/8/8 7/7/7 15/15/9 
f 16/16/9 17/17/9 18/18/9 
f 19/19/9 20/20/9 21/21/9 
f 22/22/9 11/11/9 10/10/9 23/23/9 
f 24/24/9 17/17/9 16/16/9 25/25/9 24/24/9 
f 26/26/9 2/2/2 1/1/1 
f 15/15/9 22/22/9 23/23/9 24/24/9 24/24/9 27/27/9 8/8/8 
f 25/25/9 27/27/9 24/24/9 
f 20/20/9 16/16/9 18/18/9 21/21/9 
f 26/26/9 1/1/1 19/19/9 21/21/9 14/14/9 13/13/9 
# 10 polygons - 5 triangles

