# 3ds Max Wavefront OBJ Exporter v0.97b - (c)2007 guruware
# File Created: 01.05.2015 22:43:26

#
# object capsul02
#

v  -0.2937 0.1031 -0.0757
v  0.0000 0.1031 -0.0757
v  0.0000 0.0000 -0.1254
v  -0.2937 0.0000 -0.1254
v  -0.2937 0.1286 0.0359
v  0.0000 0.1286 0.0359
v  -0.2937 0.0572 0.1254
v  0.0000 0.0572 0.1254
v  -0.2937 -0.0572 0.1254
v  0.0000 -0.0572 0.1254
v  -0.2937 -0.1286 0.0359
v  0.0000 -0.1286 0.0359
v  -0.2937 -0.1031 -0.0757
v  0.0000 -0.1031 -0.0757
v  -0.3578 0.0000 -0.0441
v  -0.3578 0.0396 -0.0251
v  -0.3578 0.0494 0.0178
v  -0.3578 0.0220 0.0522
v  -0.3578 -0.0220 0.0522
v  -0.3578 -0.0494 0.0178
v  -0.3578 -0.0396 -0.0251
# 21 vertices

vn 0.0000 0.7818 -0.6235
vn 0.0000 -0.0000 -1.0000
vn 0.0000 0.0000 -1.0000
vn 0.0000 0.9749 0.2225
vn 0.0000 0.4339 0.9010
vn 0.0000 -0.4339 0.9010
vn 0.0000 -0.9749 0.2225
vn 0.0000 -0.7818 -0.6235
vn -0.8054 -0.0000 -0.5927
vn -0.9219 -0.0000 -0.3873
vn -0.9219 0.3028 -0.2415
vn -0.8054 0.4634 -0.3695
vn -0.9219 0.3776 0.0862
vn -0.8054 0.5778 0.1319
vn -0.9219 0.1681 0.3490
vn -0.8054 0.2572 0.5340
vn -0.9219 -0.1681 0.3490
vn -0.8054 -0.2572 0.5340
vn -0.9219 -0.3776 0.0862
vn -0.8054 -0.5778 0.1319
vn -0.9219 -0.3028 -0.2415
vn -0.8054 -0.4634 -0.3695
# 22 vertex normals

vt 0.8929 1.0000 1.0000
vt 0.7500 1.0000 1.0000
vt 1.0357 1.0000 1.0000
vt 0.1786 1.0000 1.0000
vt 0.0357 1.0000 1.0000
vt 0.3214 1.0000 1.0000
vt 0.4643 1.0000 1.0000
vt 0.6071 1.0000 1.0000
vt 0.5000 1.0000 0.2500
vt 0.5000 0.7500 0.2500
vt 0.3045 0.6559 0.2500
vt 0.1091 0.8117 0.2500
vt 0.2563 0.4444 0.2500
vt 0.0125 0.3887 0.2500
vt 0.3915 0.2748 0.2500
vt 0.2831 0.0495 0.2500
vt 0.6085 0.2748 0.2500
vt 0.7169 0.0495 0.2500
vt 0.7437 0.4444 0.2500
vt 0.9875 0.3887 0.2500
vt 0.6955 0.6559 0.2500
vt 0.8909 0.8117 0.2500
# 22 texture coords

g capsul02
s 8
f 1/1/1 2/1/1 3/2/2 4/2/3 
f 5/3/4 6/3/4 2/1/1 1/1/1 
f 7/4/5 8/4/5 6/5/4 5/5/4 
f 9/6/6 10/6/6 8/4/5 7/4/5 
f 11/7/7 12/7/7 10/6/6 9/6/6 
f 13/8/8 14/8/8 12/7/7 11/7/7 
f 4/2/3 3/2/2 14/8/8 13/8/8 
s 1
f 4/9/9 15/10/10 16/11/11 1/12/12 
f 1/12/12 16/11/11 17/13/13 5/14/14 
f 5/14/14 17/13/13 18/15/15 7/16/16 
f 7/16/16 18/15/15 19/17/17 9/18/18 
f 9/18/18 19/17/17 20/19/19 11/20/20 
f 11/20/20 20/19/19 21/21/21 13/22/22 
f 13/22/22 21/21/21 15/10/10 4/9/9 
f 15/10/10 21/21/21 20/19/19 19/17/17 18/15/15 17/13/13 16/11/11 
# 15 polygons

#
# object capsul01
#

v  0.2937 0.0000 -0.1254
v  0.2937 0.1031 -0.0757
v  0.3578 0.0396 -0.0251
v  0.3578 0.0000 -0.0441
v  0.2937 0.1286 0.0359
v  0.3578 0.0494 0.0178
v  0.2937 0.0572 0.1254
v  0.3578 0.0220 0.0522
v  0.2937 -0.0572 0.1254
v  0.3578 -0.0220 0.0522
v  0.2937 -0.1286 0.0359
v  0.3578 -0.0494 0.0178
v  0.2937 -0.1031 -0.0757
v  0.3578 -0.0396 -0.0251
v  0.0000 0.0000 -0.1254
v  0.0000 0.1031 -0.0757
v  0.0000 0.1286 0.0359
v  0.0000 0.0572 0.1254
v  0.0000 -0.0572 0.1254
v  0.0000 -0.1286 0.0359
v  0.0000 -0.1031 -0.0757
# 21 vertices

vn 0.8054 -0.0000 -0.5927
vn 0.8054 0.4634 -0.3695
vn 0.9219 0.3028 -0.2415
vn 0.9219 -0.0000 -0.3873
vn 0.8054 0.5778 0.1319
vn 0.9219 0.3776 0.0862
vn 0.8054 0.2572 0.5340
vn 0.9219 0.1681 0.3490
vn 0.8054 -0.2572 0.5340
vn 0.9219 -0.1681 0.3490
vn 0.8054 -0.5778 0.1319
vn 0.9219 -0.3776 0.0862
vn 0.8054 -0.4634 -0.3695
vn 0.9219 -0.3028 -0.2415
vn 0.0000 0.7818 -0.6235
vn 0.0000 0.0000 -1.0000
vn 0.0000 0.9749 0.2225
vn 0.0000 0.4339 0.9010
vn 0.0000 -0.4339 0.9010
vn 0.0000 -0.9749 0.2225
vn 0.0000 -0.7818 -0.6235
# 21 vertex normals

vt 0.5000 1.0000 0.2500
vt 0.1091 0.8117 0.2500
vt 0.3045 0.6559 0.2500
vt 0.5000 0.7500 0.2500
vt 0.0125 0.3887 0.2500
vt 0.2563 0.4444 0.2500
vt 0.2831 0.0495 0.2500
vt 0.3915 0.2748 0.2500
vt 0.7169 0.0495 0.2500
vt 0.6085 0.2748 0.2500
vt 0.9875 0.3887 0.2500
vt 0.7437 0.4444 0.2500
vt 0.8909 0.8117 0.2500
vt 0.6955 0.6559 0.2500
vt 0.8929 1.0000 1.0000
vt 0.7500 1.0000 1.0000
vt 1.0357 1.0000 1.0000
vt 0.1786 1.0000 1.0000
vt 0.0357 1.0000 1.0000
vt 0.3214 1.0000 1.0000
vt 0.4643 1.0000 1.0000
vt 0.6071 1.0000 1.0000
# 22 texture coords

g capsul01
s 1
f 22/23/23 23/24/24 24/25/25 25/26/26 
f 23/24/24 26/27/27 27/28/28 24/25/25 
f 26/27/27 28/29/29 29/30/30 27/28/28 
f 28/29/29 30/31/31 31/32/32 29/30/30 
f 30/31/31 32/33/33 33/34/34 31/32/32 
f 32/33/33 34/35/35 35/36/36 33/34/34 
f 34/35/35 22/23/23 25/26/26 35/36/36 
f 25/26/26 24/25/25 27/28/28 29/30/30 31/32/32 33/34/34 35/36/36 
s 8
f 23/37/37 22/38/38 36/38/38 37/37/37 
f 26/39/39 23/37/37 37/37/37 38/39/39 
f 28/40/40 26/41/39 38/41/39 39/40/40 
f 30/42/41 28/40/40 39/40/40 40/42/41 
f 32/43/42 30/42/41 40/42/41 41/43/42 
f 34/44/43 32/43/42 41/43/42 42/44/43 
f 22/38/38 34/44/43 42/44/43 36/38/38 
# 15 polygons

