# 3ds Max Wavefront OBJ Exporter v0.97b - (c)2007 guruware
# File Created: 02.05.2015 15:34:20

mtllib CD.mtl

#
# object Object
#

v  1.4448 -0.0948 -2.5116
v  2.5070 -0.0948 -1.4527
v  0.9751 0.0000 -0.5650
v  0.5620 0.0000 -0.9769
v  2.8975 -0.0948 -0.0046
v  1.1270 0.0000 -0.0018
v  2.5116 -0.0948 1.4448
v  0.9769 0.0000 0.5620
v  1.4527 -0.0948 2.5070
v  0.5650 0.0000 0.9751
v  0.0046 -0.0948 2.8975
v  0.0018 0.0000 1.1270
v  -1.4448 -0.0948 2.5116
v  -0.5620 0.0000 0.9769
v  -2.5070 -0.0948 1.4527
v  -0.9751 0.0000 0.5650
v  -2.8975 -0.0948 0.0046
v  -1.1270 0.0000 0.0018
v  -2.5116 -0.0948 -1.4448
v  -0.9769 0.0000 -0.5620
v  -1.4527 -0.0948 -2.5070
v  -0.5650 0.0000 -0.9751
v  -0.0046 -0.0948 -2.8975
v  -0.0018 0.0000 -1.1270
v  2.5070 0.0948 -1.4527
v  1.4448 0.0948 -2.5116
v  -0.0046 0.0948 -2.8975
v  -1.4527 0.0948 -2.5070
v  -2.5116 0.0948 -1.4448
v  -2.8975 0.0948 0.0046
v  -2.5070 0.0948 1.4527
v  -1.4448 0.0948 2.5116
v  0.0046 0.0948 2.8975
v  1.4527 0.0948 2.5070
v  2.5116 0.0948 1.4448
v  2.8975 0.0948 -0.0046
v  4.9780 0.0000 -8.6536
v  8.6379 0.0000 -5.0052
v  9.9832 0.0000 -0.0157
v  8.6536 0.0000 4.9780
v  5.0052 0.0000 8.6379
v  0.0157 0.0000 9.9832
v  -4.9780 0.0000 8.6536
v  -8.6379 0.0000 5.0052
v  -9.9832 0.0000 0.0157
v  -8.6536 0.0000 -4.9780
v  -5.0052 0.0000 -8.6379
v  -0.0157 0.0000 -9.9832
# 48 vertices

vn -0.0391 -0.9985 0.0392
vn -0.0534 -0.9985 0.0144
vn -0.0535 -0.9985 -0.0142
vn -0.0392 -0.9985 -0.0391
vn -0.0144 -0.9985 -0.0534
vn 0.0142 -0.9985 -0.0535
vn 0.0391 -0.9985 -0.0392
vn 0.0534 -0.9985 -0.0144
vn 0.0535 -0.9985 0.0142
vn 0.0392 -0.9985 0.0391
vn 0.0144 -0.9985 0.0534
vn -0.0142 -0.9985 0.0535
vn -0.0391 0.9985 0.0392
vn -0.0142 0.9985 0.0535
vn 0.0144 0.9985 0.0534
vn 0.0392 0.9985 0.0391
vn 0.0535 0.9985 0.0142
vn 0.0534 0.9985 -0.0144
vn 0.0391 0.9985 -0.0392
vn 0.0142 0.9985 -0.0535
vn -0.0144 0.9985 -0.0534
vn -0.0392 0.9985 -0.0391
vn -0.0535 0.9985 -0.0142
vn -0.0534 0.9985 0.0144
vn 0.0098 -0.9999 -0.0098
vn 0.0134 -0.9999 -0.0036
vn 0.0134 -0.9999 0.0036
vn 0.0098 -0.9999 0.0098
vn 0.0036 -0.9999 0.0134
vn -0.0036 -0.9999 0.0134
vn -0.0098 -0.9999 0.0098
vn -0.0134 -0.9999 0.0036
vn -0.0134 -0.9999 -0.0036
vn -0.0098 -0.9999 -0.0098
vn -0.0036 -0.9999 -0.0134
vn 0.0036 -0.9999 -0.0134
vn 0.0098 0.9999 -0.0098
vn 0.0036 0.9999 -0.0134
vn -0.0036 0.9999 -0.0134
vn -0.0098 0.9999 -0.0098
vn -0.0134 0.9999 -0.0036
vn -0.0134 0.9999 0.0036
vn -0.0098 0.9999 0.0098
vn -0.0036 0.9999 0.0134
vn 0.0036 0.9999 0.0134
vn 0.0098 0.9999 0.0098
vn 0.0134 0.9999 0.0036
vn 0.0134 0.9999 -0.0036
# 48 vertex normals

vt 0.4841 0.1856 0.0000
vt 0.4832 0.3115 0.0000
vt 0.3399 0.2720 0.0000
vt 0.3403 0.2231 0.0000
vt 0.4195 0.4201 0.0000
vt 0.3151 0.3143 0.0000
vt 0.3100 0.4823 0.0000
vt 0.2725 0.3385 0.0000
vt 0.1841 0.4814 0.0000
vt 0.2236 0.3381 0.0000
vt 0.0755 0.4177 0.0000
vt 0.1813 0.3133 0.0000
vt 0.0133 0.3082 0.0000
vt 0.1571 0.2707 0.0000
vt 0.0142 0.1823 0.0000
vt 0.1575 0.2218 0.0000
vt 0.0779 0.0737 0.0000
vt 0.1823 0.1795 0.0000
vt 0.1874 0.0115 0.0000
vt 0.2249 0.1553 0.0000
vt 0.3133 0.0124 0.0000
vt 0.2739 0.1557 0.0000
vt 0.4219 0.0761 0.0000
vt 0.3161 0.1805 0.0000
vt 0.1841 0.9655 0.0000
vt 0.0755 0.9018 0.0000
vt 0.1813 0.7975 0.0000
vt 0.2236 0.8222 0.0000
vt 0.0133 0.7923 0.0000
vt 0.1571 0.7549 0.0000
vt 0.0142 0.6664 0.0000
vt 0.1575 0.7059 0.0000
vt 0.0779 0.5578 0.0000
vt 0.1823 0.6637 0.0000
vt 0.1874 0.4956 0.0000
vt 0.2249 0.6395 0.0000
vt 0.3133 0.4965 0.0000
vt 0.2739 0.6398 0.0000
vt 0.4219 0.5603 0.0000
vt 0.3161 0.6646 0.0000
vt 0.4841 0.6698 0.0000
vt 0.3403 0.7072 0.0000
vt 0.4832 0.7957 0.0000
vt 0.3399 0.7562 0.0000
vt 0.4195 0.9043 0.0000
vt 0.3151 0.7984 0.0000
vt 0.3100 0.9664 0.0000
vt 0.2725 0.8226 0.0000
vt 0.9837 0.6926 0.0000
vt 0.9828 0.8188 0.0000
vt 0.7976 0.7678 0.0000
vt 0.7978 0.7410 0.0000
vt 0.9189 0.9277 0.0000
vt 0.7840 0.7909 0.0000
vt 0.8091 0.9900 0.0000
vt 0.7608 0.8041 0.0000
vt 0.6829 0.9891 0.0000
vt 0.7340 0.8039 0.0000
vt 0.5741 0.9252 0.0000
vt 0.7109 0.7904 0.0000
vt 0.5118 0.8155 0.0000
vt 0.6976 0.7671 0.0000
vt 0.5127 0.6893 0.0000
vt 0.6978 0.7403 0.0000
vt 0.5766 0.5804 0.0000
vt 0.7114 0.7172 0.0000
vt 0.6863 0.5181 0.0000
vt 0.7347 0.7040 0.0000
vt 0.8125 0.5190 0.0000
vt 0.7615 0.7042 0.0000
vt 0.9214 0.5829 0.0000
vt 0.7846 0.7177 0.0000
vt 0.9735 0.3116 0.0000
vt 0.9096 0.4205 0.0000
vt 0.7747 0.2837 0.0000
vt 0.7883 0.2606 0.0000
vt 0.7998 0.4828 0.0000
vt 0.7514 0.2969 0.0000
vt 0.6736 0.4819 0.0000
vt 0.7247 0.2967 0.0000
vt 0.5648 0.4180 0.0000
vt 0.7016 0.2832 0.0000
vt 0.5025 0.3082 0.0000
vt 0.6883 0.2599 0.0000
vt 0.5034 0.1820 0.0000
vt 0.6885 0.2331 0.0000
vt 0.5672 0.0732 0.0000
vt 0.7021 0.2100 0.0000
vt 0.6770 0.0109 0.0000
vt 0.7254 0.1968 0.0000
vt 0.8032 0.0118 0.0000
vt 0.7522 0.1969 0.0000
vt 0.9120 0.0757 0.0000
vt 0.7753 0.2105 0.0000
vt 0.9744 0.1854 0.0000
vt 0.7885 0.2338 0.0000
# 96 texture coords

g Object
usemtl Material__43
s off
f 1/1/1 2/2/1 3/3/1 4/4/1 
f 2/2/2 5/5/2 6/6/2 3/3/2 
f 5/5/3 7/7/3 8/8/3 6/6/3 
f 7/7/4 9/9/4 10/10/4 8/8/4 
f 9/9/5 11/11/5 12/12/5 10/10/5 
f 11/11/6 13/13/6 14/14/6 12/12/6 
f 13/13/7 15/15/7 16/16/7 14/14/7 
f 15/15/8 17/17/8 18/18/8 16/16/8 
f 17/17/9 19/19/9 20/20/9 18/18/9 
f 19/19/10 21/21/10 22/22/10 20/20/10 
f 21/21/11 23/23/11 24/24/11 22/22/11 
f 23/23/12 1/1/12 4/4/12 24/24/12 
f 25/25/13 26/26/13 4/27/13 3/28/13 
f 26/26/14 27/29/14 24/30/14 4/27/14 
f 27/29/15 28/31/15 22/32/15 24/30/15 
f 28/31/16 29/33/16 20/34/16 22/32/16 
f 29/33/17 30/35/17 18/36/17 20/34/17 
f 30/35/18 31/37/18 16/38/18 18/36/18 
f 31/37/19 32/39/19 14/40/19 16/38/19 
f 32/39/20 33/41/20 12/42/20 14/40/20 
f 33/41/21 34/43/21 10/44/21 12/42/21 
f 34/43/22 35/45/22 8/46/22 10/44/22 
f 35/45/23 36/47/23 6/48/23 8/46/23 
f 36/47/24 25/25/24 3/28/24 6/48/24 
f 37/49/25 38/50/25 2/51/25 1/52/25 
f 38/50/26 39/53/26 5/54/26 2/51/26 
f 39/53/27 40/55/27 7/56/27 5/54/27 
f 40/55/28 41/57/28 9/58/28 7/56/28 
f 41/57/29 42/59/29 11/60/29 9/58/29 
f 42/59/30 43/61/30 13/62/30 11/60/30 
f 43/61/31 44/63/31 15/64/31 13/62/31 
f 44/63/32 45/65/32 17/66/32 15/64/32 
f 45/65/33 46/67/33 19/68/33 17/66/33 
f 46/67/34 47/69/34 21/70/34 19/68/34 
f 47/69/35 48/71/35 23/72/35 21/70/35 
f 48/71/36 37/49/36 1/52/36 23/72/36 
f 38/73/37 37/74/37 26/75/37 25/76/37 
f 37/74/38 48/77/38 27/78/38 26/75/38 
f 48/77/39 47/79/39 28/80/39 27/78/39 
f 47/79/40 46/81/40 29/82/40 28/80/40 
f 46/81/41 45/83/41 30/84/41 29/82/41 
f 45/83/42 44/85/42 31/86/42 30/84/42 
f 44/85/43 43/87/43 32/88/43 31/86/43 
f 43/87/44 42/89/44 33/90/44 32/88/44 
f 42/89/45 41/91/45 34/92/45 33/90/45 
f 41/91/46 40/93/46 35/94/46 34/92/46 
f 40/93/47 39/95/47 36/96/47 35/94/47 
f 39/95/48 38/73/48 25/76/48 36/96/48 
# 48 polygons

