# 3ds Max Wavefront OBJ Exporter v0.97b - (c)2007 guruware
# File Created: 01.05.2015 23:57:43

#
# object Chip
#

v  -0.9978 0.0790 0.6960
v  -1.7357 0.2545 0.5764
v  -1.4279 0.0522 0.9463
v  -0.8554 -0.1794 1.1718
v  0.0000 -0.0452 0.7506
v  0.0000 -0.3063 1.2726
v  0.9978 0.0555 0.8012
v  0.8554 -0.2482 1.3449
v  1.7357 0.2388 0.6639
v  1.4279 0.0088 1.0881
v  -0.9978 0.1568 0.0000
v  -1.7450 0.3063 0.0000
v  -0.0000 0.0465 0.0000
v  0.9978 0.1568 0.0000
v  1.7450 0.3063 0.0000
v  -0.9978 0.0790 -0.6960
v  -1.7357 0.2545 -0.5764
v  0.0000 -0.0452 -0.7506
v  0.9978 0.0555 -0.8012
v  1.7357 0.2388 -0.6639
v  -0.8554 -0.1794 -1.1718
v  -1.4279 0.0522 -0.9463
v  0.0000 -0.3063 -1.2726
v  0.8554 -0.2482 -1.3449
v  1.4279 0.0088 -1.0881
v  -1.0319 -0.0880 0.6742
v  0.0000 -0.2270 0.7243
v  1.0319 -0.1108 0.7761
v  -1.0343 -0.0238 0.0000
v  -0.0000 -0.1508 0.0000
v  1.0343 -0.0238 0.0000
v  -1.0319 -0.0880 -0.6742
v  0.0000 -0.2270 -0.7243
v  1.0319 -0.1108 -0.7761
# 34 vertices

vn 0.1433 0.9635 0.2263
vn -0.9184 0.2786 0.2811
vn -0.6580 0.0200 0.7527
vn -0.2522 -0.2259 0.9409
vn -0.0058 0.9711 0.2386
vn -0.0888 -0.3020 0.9492
vn -0.1306 0.9590 0.2513
vn -0.1826 0.6741 0.7157
vn 0.2291 0.9277 0.2949
vn 1.0000 0.0000 -0.0000
vn 0.1455 0.9894 -0.0032
vn -0.9439 0.3301 -0.0137
vn 0.0014 1.0000 -0.0013
vn -0.1446 0.9895 0.0024
vn 0.9417 0.3361 0.0135
vn 0.1303 0.9635 -0.2339
vn -0.2429 0.9283 -0.2815
vn -0.0031 0.9712 -0.2382
vn -0.1482 0.9590 -0.2415
vn 0.9226 0.2843 -0.2607
vn 0.0407 0.6032 -0.7966
vn -0.1080 -0.2960 -0.9491
vn 0.1863 -0.2627 -0.9467
vn 0.6882 0.0191 -0.7253
vn -0.2601 -0.9624 -0.0787
vn -0.0043 -0.9951 -0.0988
vn 0.2681 -0.9590 -0.0915
vn 0.4062 -0.9114 -0.0665
vn 0.2635 -0.9348 -0.2380
vn -0.2602 -0.9655 0.0019
vn -0.0015 -1.0000 0.0015
vn 0.2595 -0.9658 -0.0010
vn -0.2781 -0.9588 0.0582
vn -0.0084 -0.9947 0.1026
vn 0.2592 -0.9595 0.1106
vn -0.2449 -0.9411 0.2333
vn -0.4091 -0.9125 0.0084
# 37 vertex normals

vt 0.2500 0.2500 0.0000
vt 0.0000 0.2500 0.0000
vt 0.0000 0.0000 0.0000
vt 0.2500 0.0000 0.0000
vt 0.5000 0.2500 0.0000
vt 0.5000 0.0000 0.0000
vt 0.7500 0.2500 0.0000
vt 0.7500 0.0000 0.0000
vt 1.0000 0.2500 0.0000
vt 1.0000 0.0000 0.0000
vt 0.2500 0.5000 0.0000
vt 0.0000 0.5000 0.0000
vt 0.5000 0.5000 0.0000
vt 0.7500 0.5000 0.0000
vt 1.0000 0.5000 0.0000
vt 0.2500 0.7500 0.0000
vt 0.0000 0.7500 0.0000
vt 0.5000 0.7500 0.0000
vt 0.7500 0.7500 0.0000
vt 1.0000 0.7500 0.0000
vt 0.2500 1.0000 0.0000
vt 0.0000 1.0000 0.0000
vt 0.5000 1.0000 0.0000
vt 0.7500 1.0000 0.0000
vt 1.0000 1.0000 0.0000
# 25 texture coords

g Chip
s 1
f 1/1/1 2/2/2 3/3/3 4/4/4 
f 5/5/5 1/1/1 4/4/4 6/6/6 
f 7/7/7 5/5/5 6/6/6 8/8/8 
f 9/9/9 7/7/7 8/8/8 10/10/10 
f 11/11/11 12/12/12 2/2/2 1/1/1 
f 13/13/13 11/11/11 1/1/1 5/5/5 
f 14/14/14 13/13/13 5/5/5 7/7/7 
f 15/15/15 14/14/14 7/7/7 9/9/9 
f 16/16/16 17/17/17 12/12/12 11/11/11 
f 18/18/18 16/16/16 11/11/11 13/13/13 
f 19/19/19 18/18/18 13/13/13 14/14/14 
f 20/20/20 19/19/19 14/14/14 15/15/15 
f 21/21/21 22/22/10 17/17/17 16/16/16 
f 23/23/22 21/21/21 16/16/16 18/18/18 
f 24/24/23 23/23/22 18/18/18 19/19/19 
f 25/25/24 24/24/23 19/19/19 20/20/20 
f 3/3/3 2/2/2 26/1/25 4/4/4 
f 4/4/4 26/1/25 27/5/26 6/6/6 
f 6/6/6 27/5/26 28/7/27 8/8/8 
f 8/8/28 28/7/27 9/9/28 
f 9/9/29 10/10/10 8/8/29 
f 2/2/2 12/12/12 29/11/30 26/1/25 
f 26/1/25 29/11/30 30/13/31 27/5/26 
f 27/5/26 30/13/31 31/14/32 28/7/27 
f 28/7/27 31/14/32 15/15/15 9/9/9 
f 12/12/12 17/17/17 32/16/33 29/11/30 
f 29/11/30 32/16/33 33/18/34 30/13/31 
f 30/13/31 33/18/34 34/19/35 31/14/32 
f 31/14/32 34/19/35 20/20/20 15/15/15 
f 17/17/36 22/22/10 21/21/36 
f 21/21/37 32/16/33 17/17/37 
f 32/16/33 21/21/21 23/23/22 33/18/34 
f 33/18/34 23/23/22 24/24/23 34/19/35 
f 34/19/35 24/24/23 25/25/24 20/20/20 
# 30 polygons - 4 triangles

