# 3ds Max Wavefront OBJ Exporter v0.97b - (c)2007 guruware
# File Created: 01.05.2015 23:58:21

#
# object Chip3
#

v  -0.8097 -0.0329 0.7168
v  -1.3997 0.0914 0.7116
v  -1.0894 -0.0303 0.9925
v  -0.5995 -0.1695 1.0876
v  -0.0917 -0.1143 0.9745
v  -0.0102 -0.2447 1.4134
v  0.7662 -0.0174 0.8455
v  0.8286 -0.1598 1.2669
v  1.2906 0.1166 0.5849
v  1.1622 -0.0042 0.9245
v  -0.8943 0.0059 0.1447
v  -1.4759 0.1255 0.1990
v  0.1709 -0.0640 -0.3648
v  0.9210 0.0808 -0.4221
v  1.4792 0.2447 -0.5304
v  -0.9035 -0.0139 -0.5234
v  -1.4792 0.1221 -0.4088
v  0.2166 -0.0983 -0.9745
v  0.8846 0.0144 -0.9711
v  1.4492 0.1881 -0.9180
v  -0.4499 -0.1850 -1.2941
v  -1.2232 0.0081 -0.7464
v  0.3136 -0.2212 -1.4134
v  0.8126 -0.1638 -1.3702
v  1.2342 0.0229 -1.1756
v  -0.8489 -0.1461 0.7086
v  -0.0934 -0.2390 0.9620
v  0.8057 -0.1293 0.8339
v  -0.9367 -0.1147 0.1450
v  0.1871 -0.1971 -0.3648
v  0.9778 -0.0358 -0.4227
v  -0.9456 -0.1264 -0.5139
v  0.2301 -0.2225 -0.9620
v  0.9335 -0.0949 -0.9596
# 34 vertices

vn 0.1779 0.9695 0.1684
vn -0.8410 0.3198 0.4365
vn -0.4592 0.0780 0.8849
vn -0.3621 -0.1807 0.9144
vn -0.0391 0.9697 0.2410
vn -0.0962 -0.2276 0.9690
vn -0.1238 0.9599 0.2515
vn 0.0112 0.6022 0.7983
vn 0.4360 0.8229 0.3644
vn 1.0000 0.0000 -0.0000
vn 0.1730 0.9848 0.0123
vn -0.9244 0.3748 0.0715
vn -0.0842 0.9958 -0.0354
vn -0.2812 0.9588 -0.0399
vn 0.8682 0.4962 -0.0001
vn 0.1742 0.9808 -0.0882
vn -0.2733 0.9506 -0.1469
vn -0.0894 0.9672 -0.2376
vn -0.2580 0.9231 -0.2851
vn 0.8326 0.3884 -0.3950
vn 0.0190 0.4963 -0.8679
vn -0.0775 -0.2166 -0.9732
vn 0.2525 -0.2626 -0.9313
vn 0.6403 0.0059 -0.7681
vn -0.2986 -0.9540 0.0278
vn -0.0137 -0.9995 -0.0270
vn 0.3098 -0.9478 -0.0750
vn 0.4845 -0.8689 -0.1010
vn 0.1866 -0.9245 -0.3325
vn -0.3016 -0.9534 -0.0007
vn 0.0842 -0.9960 0.0304
vn 0.4162 -0.9083 0.0432
vn -0.3425 -0.9360 -0.0814
vn 0.0442 -0.9985 0.0328
vn 0.3822 -0.9189 0.0982
vn -0.0261 -0.9303 0.3658
vn -0.5137 -0.8196 -0.2540
# 37 vertex normals

vt 0.2500 0.2500 0.0000
vt 0.0000 0.2500 0.0000
vt 0.0000 0.0000 0.0000
vt 0.2500 0.0000 0.0000
vt 0.5000 0.2500 0.0000
vt 0.5000 0.0000 0.0000
vt 0.7500 0.2500 0.0000
vt 0.7500 0.0000 0.0000
vt 1.0000 0.2500 0.0000
vt 1.0000 0.0000 0.0000
vt 0.2500 0.5000 0.0000
vt 0.0000 0.5000 0.0000
vt 0.5000 0.5000 0.0000
vt 0.7500 0.5000 0.0000
vt 1.0000 0.5000 0.0000
vt 0.2500 0.7500 0.0000
vt 0.0000 0.7500 0.0000
vt 0.5000 0.7500 0.0000
vt 0.7500 0.7500 0.0000
vt 1.0000 0.7500 0.0000
vt 0.2500 1.0000 0.0000
vt 0.0000 1.0000 0.0000
vt 0.5000 1.0000 0.0000
vt 0.7500 1.0000 0.0000
vt 1.0000 1.0000 0.0000
# 25 texture coords

g Chip3
s 1
f 1/1/1 2/2/2 3/3/3 4/4/4 
f 5/5/5 1/1/1 4/4/4 6/6/6 
f 7/7/7 5/5/5 6/6/6 8/8/8 
f 9/9/9 7/7/7 8/8/8 10/10/10 
f 11/11/11 12/12/12 2/2/2 1/1/1 
f 13/13/13 11/11/11 1/1/1 5/5/5 
f 14/14/14 13/13/13 5/5/5 7/7/7 
f 15/15/15 14/14/14 7/7/7 9/9/9 
f 16/16/16 17/17/17 12/12/12 11/11/11 
f 18/18/18 16/16/16 11/11/11 13/13/13 
f 19/19/19 18/18/18 13/13/13 14/14/14 
f 20/20/20 19/19/19 14/14/14 15/15/15 
f 21/21/21 22/22/10 17/17/17 16/16/16 
f 23/23/22 21/21/21 16/16/16 18/18/18 
f 24/24/23 23/23/22 18/18/18 19/19/19 
f 25/25/24 24/24/23 19/19/19 20/20/20 
f 3/3/3 2/2/2 26/1/25 4/4/4 
f 4/4/4 26/1/25 27/5/26 6/6/6 
f 6/6/6 27/5/26 28/7/27 8/8/8 
f 8/8/28 28/7/27 9/9/28 
f 9/9/29 10/10/10 8/8/29 
f 2/2/2 12/12/12 29/11/30 26/1/25 
f 26/1/25 29/11/30 30/13/31 27/5/26 
f 27/5/26 30/13/31 31/14/32 28/7/27 
f 28/7/27 31/14/32 15/15/15 9/9/9 
f 12/12/12 17/17/17 32/16/33 29/11/30 
f 29/11/30 32/16/33 33/18/34 30/13/31 
f 30/13/31 33/18/34 34/19/35 31/14/32 
f 31/14/32 34/19/35 20/20/20 15/15/15 
f 17/17/36 22/22/10 21/21/36 
f 21/21/37 32/16/33 17/17/37 
f 32/16/33 21/21/21 23/23/22 33/18/34 
f 33/18/34 23/23/22 24/24/23 34/19/35 
f 34/19/35 24/24/23 25/25/24 20/20/20 
# 30 polygons - 4 triangles

