# 3ds Max Wavefront OBJ Exporter v0.97b - (c)2007 guruware
# File Created: 01.05.2015 23:51:55

#
# object Tobacco
#

v  4.0244 -0.3306 -0.0000
v  4.0244 -0.2675 -0.1943
v  4.0244 -0.0000 -0.0000
v  4.0244 -0.1022 -0.3144
v  4.0244 0.1022 -0.3144
v  4.0244 0.2675 -0.1943
v  4.0244 0.3306 0.0000
v  4.0244 0.2675 0.1943
v  4.0244 0.1022 0.3144
v  4.0244 -0.1022 0.3144
v  4.0244 -0.2675 0.1943
# 11 vertices

vn 1.0000 -0.0000 -0.0000
# 1 vertex normals

vt 0.5000 0.7500 0.2500
vt 0.3531 0.7023 0.2500
vt 0.5000 0.5000 0.2500
vt 0.2622 0.5773 0.2500
vt 0.2622 0.4227 0.2500
vt 0.3531 0.2977 0.2500
vt 0.5000 0.2500 0.2500
vt 0.6469 0.2977 0.2500
vt 0.7378 0.4227 0.2500
vt 0.7378 0.5773 0.2500
vt 0.6469 0.7023 0.2500
# 11 texture coords

g Tobacco
s 1
f 1/1/1 2/2/1 3/3/1 
f 2/2/1 4/4/1 3/3/1 
f 4/4/1 5/5/1 3/3/1 
f 5/5/1 6/6/1 3/3/1 
f 6/6/1 7/7/1 3/3/1 
f 7/7/1 8/8/1 3/3/1 
f 8/8/1 9/9/1 3/3/1 
f 9/9/1 10/10/1 3/3/1 
f 10/10/1 11/11/1 3/3/1 
f 11/11/1 1/1/1 3/3/1 
# 0 polygons - 10 triangles

#
# object cigarette
#

v  4.0244 -0.3797 -0.0000
v  4.0244 -0.3072 -0.2232
v  4.0244 -0.2675 -0.1943
v  4.0244 -0.3306 -0.0000
v  4.0244 -0.1173 -0.3611
v  4.0244 -0.1022 -0.3144
v  4.0244 0.1173 -0.3611
v  4.0244 0.1022 -0.3144
v  4.0244 0.3072 -0.2232
v  4.0244 0.2675 -0.1943
v  4.0244 0.3797 0.0000
v  4.0244 0.3306 0.0000
v  4.0244 0.3072 0.2232
v  4.0244 0.2675 0.1943
v  4.0244 0.1173 0.3611
v  4.0244 0.1022 0.3144
v  4.0244 -0.1173 0.3611
v  4.0244 -0.1022 0.3144
v  4.0244 -0.3072 0.2232
v  4.0244 -0.2675 0.1943
v  -1.7928 -0.3797 -0.0000
v  -1.7928 -0.3072 -0.2232
v  -1.7928 -0.1173 -0.3611
v  -1.7928 0.1173 -0.3611
v  -1.7928 0.3072 -0.2232
v  -1.7928 0.3797 0.0000
v  -1.7928 0.3072 0.2232
v  -1.7928 0.1173 0.3611
v  -1.7928 -0.1173 0.3611
v  -1.7928 -0.3072 0.2232
v  -4.0244 -0.2675 -0.1943
v  -4.0244 -0.3306 -0.0000
v  -4.0244 0.0000 -0.0000
v  -4.0244 -0.1022 -0.3144
v  -4.0244 0.1022 -0.3144
v  -4.0244 0.2675 -0.1943
v  -4.0244 0.3306 0.0000
v  -4.0244 0.2675 0.1943
v  -4.0244 0.1022 0.3144
v  -4.0244 -0.1022 0.3144
v  -4.0244 -0.2675 0.1943
# 41 vertices

vn 1.0000 -0.0000 -0.0000
vn -0.0000 -0.8090 -0.5878
vn -0.0000 -1.0000 -0.0000
vn -0.0000 -0.3090 -0.9511
vn 0.0000 0.3090 -0.9511
vn 0.0000 0.8090 -0.5878
vn 0.0000 1.0000 0.0000
vn 0.0000 0.8090 0.5878
vn 0.0000 0.3090 0.9511
vn -0.0000 -0.3090 0.9511
vn -0.0000 -0.8090 0.5878
vn -1.0000 0.0000 -0.0000
# 12 vertex normals

vt 0.5000 1.0000 0.2500
vt 0.2061 0.9045 0.2500
vt 0.3531 0.7023 0.2500
vt 0.5000 0.7500 0.2500
vt 0.0245 0.6545 0.2500
vt 0.2622 0.5773 0.2500
vt 0.0245 0.3455 0.2500
vt 0.2622 0.4227 0.2500
vt 0.2061 0.0955 0.2500
vt 0.3531 0.2977 0.2500
vt 0.5000 0.0000 0.2500
vt 0.5000 0.2500 0.2500
vt 0.7939 0.0955 0.2500
vt 0.6469 0.2977 0.2500
vt 0.9755 0.3455 0.2500
vt 0.7378 0.4227 0.2500
vt 0.9755 0.6545 0.2500
vt 0.7378 0.5773 0.2500
vt 0.7939 0.9045 0.2500
vt 0.6469 0.7023 0.2500
vt 0.8500 1.0000 1.0000
vt 0.7500 1.0000 1.0000
vt 0.7500 0.2773 1.0000
vt 0.8500 0.2773 1.0000
vt 0.9500 1.0000 1.0000
vt 0.9500 0.2773 1.0000
vt 1.0500 1.0000 1.0000
vt 1.0500 0.2773 1.0000
vt 0.1500 1.0000 1.0000
vt 0.0500 1.0000 1.0000
vt 0.0500 0.2773 1.0000
vt 0.1500 0.2773 1.0000
vt 0.2500 1.0000 1.0000
vt 0.2500 0.2773 1.0000
vt 0.3500 1.0000 1.0000
vt 0.3500 0.2773 1.0000
vt 0.4500 1.0000 1.0000
vt 0.4500 0.2773 1.0000
vt 0.5500 1.0000 1.0000
vt 0.5500 0.2773 1.0000
vt 0.6500 1.0000 1.0000
vt 0.6500 0.2773 1.0000
vt 0.3531 0.7023 -0.2500
vt 0.5000 0.7500 -0.2500
vt 0.5000 0.5000 -0.2500
vt 0.2622 0.5773 -0.2500
vt 0.2622 0.4227 -0.2500
vt 0.3531 0.2977 -0.2500
vt 0.5000 0.2500 -0.2500
vt 0.6469 0.2977 -0.2500
vt 0.7378 0.4227 -0.2500
vt 0.7378 0.5773 -0.2500
vt 0.6469 0.7023 -0.2500
# 53 texture coords

g cigarette
s 1
f 12/12/2 13/13/2 14/14/2 15/15/2 
f 13/13/2 16/16/2 17/17/2 14/14/2 
f 16/16/2 18/18/2 19/19/2 17/17/2 
f 18/18/2 20/20/2 21/21/2 19/19/2 
f 20/20/2 22/22/2 23/23/2 21/21/2 
f 22/22/2 24/24/2 25/25/2 23/23/2 
f 24/24/2 26/26/2 27/27/2 25/25/2 
f 26/26/2 28/28/2 29/29/2 27/27/2 
f 28/28/2 30/30/2 31/31/2 29/29/2 
f 30/30/2 12/12/2 15/15/2 31/31/2 
s 8
f 13/32/3 12/33/4 32/34/4 33/35/3 
f 16/36/5 13/32/3 33/35/3 34/37/5 
f 18/38/6 16/36/5 34/37/5 35/39/6 
f 20/40/7 18/41/6 35/42/6 36/43/7 
f 22/44/8 20/40/7 36/43/7 37/45/8 
f 24/46/9 22/44/8 37/45/8 38/47/9 
f 26/48/10 24/46/9 38/47/9 39/49/10 
f 28/50/11 26/48/10 39/49/10 40/51/11 
f 30/52/12 28/50/11 40/51/11 41/53/12 
f 12/33/4 30/52/12 41/53/12 32/34/4 
s 1
f 42/54/13 43/55/13 44/56/13 
f 45/57/13 42/54/13 44/56/13 
f 46/58/13 45/57/13 44/56/13 
f 47/59/13 46/58/13 44/56/13 
f 48/60/13 47/59/13 44/56/13 
f 49/61/13 48/60/13 44/56/13 
f 50/62/13 49/61/13 44/56/13 
f 51/63/13 50/62/13 44/56/13 
f 52/64/13 51/63/13 44/56/13 
f 43/55/13 52/64/13 44/56/13 
# 20 polygons - 10 triangles

#
# object Fliter
#

v  -4.0244 -0.3072 -0.2232
v  -1.7928 -0.3072 -0.2232
v  -1.7928 -0.3797 -0.0000
v  -4.0244 -0.3797 -0.0000
v  -4.0244 -0.1173 -0.3611
v  -1.7928 -0.1173 -0.3611
v  -4.0244 0.1173 -0.3611
v  -1.7928 0.1173 -0.3611
v  -4.0244 0.3072 -0.2232
v  -1.7928 0.3072 -0.2232
v  -4.0244 0.3797 0.0000
v  -1.7928 0.3797 0.0000
v  -4.0244 0.3072 0.2232
v  -1.7928 0.3072 0.2232
v  -4.0244 0.1173 0.3611
v  -1.7928 0.1173 0.3611
v  -4.0244 -0.1173 0.3611
v  -1.7928 -0.1173 0.3611
v  -4.0244 -0.3072 0.2232
v  -1.7928 -0.3072 0.2232
v  -4.0244 -0.3306 -0.0000
v  -4.0244 -0.2675 -0.1943
v  -4.0244 -0.1022 -0.3144
v  -4.0244 0.1022 -0.3144
v  -4.0244 0.2675 -0.1943
v  -4.0244 0.3306 0.0000
v  -4.0244 0.2675 0.1943
v  -4.0244 0.1022 0.3144
v  -4.0244 -0.1022 0.3144
v  -4.0244 -0.2675 0.1943
# 30 vertices

vn -0.0000 -0.8090 -0.5878
vn -0.0000 -1.0000 -0.0000
vn -0.0000 -0.3090 -0.9511
vn 0.0000 0.3090 -0.9511
vn 0.0000 0.8090 -0.5878
vn 0.0000 1.0000 0.0000
vn 0.0000 0.8090 0.5878
vn 0.0000 0.3090 0.9511
vn -0.0000 -0.3090 0.9511
vn -0.0000 -0.8090 0.5878
vn -1.0000 0.0000 -0.0000
# 11 vertex normals

vt 0.8500 0.0000 1.0000
vt 0.8500 0.2773 1.0000
vt 0.7500 0.2773 1.0000
vt 0.7500 0.0000 1.0000
vt 0.9500 0.0000 1.0000
vt 0.9500 0.2773 1.0000
vt 1.0500 0.0000 1.0000
vt 1.0500 0.2773 1.0000
vt 0.1500 0.0000 1.0000
vt 0.1500 0.2773 1.0000
vt 0.0500 0.2773 1.0000
vt 0.0500 0.0000 1.0000
vt 0.2500 0.0000 1.0000
vt 0.2500 0.2773 1.0000
vt 0.3500 0.0000 1.0000
vt 0.3500 0.2773 1.0000
vt 0.4500 0.0000 1.0000
vt 0.4500 0.2773 1.0000
vt 0.5500 0.0000 1.0000
vt 0.5500 0.2773 1.0000
vt 0.6500 0.0000 1.0000
vt 0.6500 0.2773 1.0000
vt 0.2061 0.9045 -0.2500
vt 0.5000 1.0000 -0.2500
vt 0.5000 0.7500 -0.2500
vt 0.3531 0.7023 -0.2500
vt 0.0245 0.6545 -0.2500
vt 0.2622 0.5773 -0.2500
vt 0.0245 0.3455 -0.2500
vt 0.2622 0.4227 -0.2500
vt 0.2061 0.0955 -0.2500
vt 0.3531 0.2977 -0.2500
vt 0.5000 0.0000 -0.2500
vt 0.5000 0.2500 -0.2500
vt 0.7939 0.0955 -0.2500
vt 0.6469 0.2977 -0.2500
vt 0.9755 0.3455 -0.2500
vt 0.7378 0.4227 -0.2500
vt 0.9755 0.6545 -0.2500
vt 0.7378 0.5773 -0.2500
vt 0.7939 0.9045 -0.2500
vt 0.6469 0.7023 -0.2500
# 42 texture coords

g Fliter
s 8
f 53/65/14 54/66/14 55/67/15 56/68/15 
f 57/69/16 58/70/16 54/66/14 53/65/14 
f 59/71/17 60/72/17 58/70/16 57/69/16 
f 61/73/18 62/74/18 60/75/17 59/76/17 
f 63/77/19 64/78/19 62/74/18 61/73/18 
f 65/79/20 66/80/20 64/78/19 63/77/19 
f 67/81/21 68/82/21 66/80/20 65/79/20 
f 69/83/22 70/84/22 68/82/21 67/81/21 
f 71/85/23 72/86/23 70/84/22 69/83/22 
f 56/68/15 55/67/15 72/86/23 71/85/23 
s 1
f 53/87/24 56/88/24 73/89/24 74/90/24 
f 57/91/24 53/87/24 74/90/24 75/92/24 
f 59/93/24 57/91/24 75/92/24 76/94/24 
f 61/95/24 59/93/24 76/94/24 77/96/24 
f 63/97/24 61/95/24 77/96/24 78/98/24 
f 65/99/24 63/97/24 78/98/24 79/100/24 
f 67/101/24 65/99/24 79/100/24 80/102/24 
f 69/103/24 67/101/24 80/102/24 81/104/24 
f 71/105/24 69/103/24 81/104/24 82/106/24 
f 56/88/24 71/105/24 82/106/24 73/89/24 
# 20 polygons

