# 3ds Max Wavefront OBJ Exporter v0.97b - (c)2007 guruware
# File Created: 02.05.2015 00:09:12

#
# object CoughDrop
#

v  -0.2935 -0.0972 0.2935
v  -0.2935 -0.0972 -0.2935
v  0.2935 -0.0972 -0.2935
v  0.2935 -0.0972 0.2935
v  -0.2935 0.0972 0.2935
v  0.2935 0.0972 0.2935
v  0.2935 0.0972 -0.2935
v  -0.2935 0.0972 -0.2935
v  -0.6383 -0.0898 0.6383
v  0.6383 -0.0898 0.6383
v  0.6383 0.0898 0.6383
v  -0.6383 0.0898 0.6383
v  0.6383 -0.0898 -0.6383
v  0.6383 0.0898 -0.6383
v  -0.6383 -0.0898 -0.6383
v  -0.6383 0.0898 -0.6383
v  -0.5111 -0.2190 -0.5111
v  -0.5111 -0.2190 0.5111
v  0.5111 -0.2190 -0.5111
v  0.5111 -0.2190 0.5111
v  0.5111 0.2190 0.5111
v  -0.5111 0.2190 0.5111
v  0.5111 0.2190 -0.5111
v  -0.5111 0.2190 -0.5111
# 24 vertices

vn 0.0000 -1.0000 -0.0000
vn 0.0000 1.0000 -0.0000
vn 0.0000 -0.1444 0.9895
vn 0.0000 0.1444 0.9895
vn 0.9895 -0.1444 -0.0000
vn 0.9895 0.1444 -0.0000
vn 0.0000 -0.1444 -0.9895
vn 0.0000 0.1444 -0.9895
vn -0.9895 -0.1444 -0.0000
vn -0.9895 0.1444 -0.0000
vn -0.9474 -0.3201 -0.0000
vn 0.0000 -0.3201 -0.9474
vn 0.9474 -0.3201 -0.0000
vn 0.0000 -0.3201 0.9474
vn 0.0000 0.3201 0.9474
vn 0.9474 0.3201 -0.0000
vn 0.0000 0.3201 -0.9474
vn -0.9474 0.3201 -0.0000
vn 0.8525 -0.5227 -0.0000
vn 0.0000 -0.5227 0.8525
vn -0.8525 -0.5227 -0.0000
vn 0.0000 -0.5227 -0.8525
vn 0.0000 0.5227 -0.8525
vn -0.8525 0.5227 -0.0000
vn 0.0000 0.5227 0.8525
vn 0.8525 0.5227 -0.0000
# 26 vertex normals

vt 1.0000 0.0000 0.0000
vt 1.0000 1.0000 0.0000
vt 0.0000 1.0000 0.0000
vt 0.0000 0.0000 0.0000
# 4 texture coords

g CoughDrop
s 1
f 1/1/1 2/2/1 3/3/1 4/4/1 
f 5/4/2 6/1/2 7/2/2 8/3/2 
f 9/4/3 10/1/3 11/2/4 12/3/4 
s 2
f 10/4/5 13/1/5 14/2/6 11/3/6 
s 1
f 13/4/7 15/1/7 16/2/8 14/3/8 
s 2
f 15/4/9 9/1/9 12/2/10 16/3/10 
f 9/1/9 15/2/9 17/2/11 18/1/11 
s 1
f 15/2/7 13/3/7 19/3/12 17/2/12 
s 2
f 13/3/5 10/4/5 20/4/13 19/3/13 
s 1
f 10/4/3 9/1/3 18/1/14 20/4/14 
f 12/4/4 11/1/4 21/1/15 22/4/15 
s 2
f 11/1/6 14/2/6 23/2/16 21/1/16 
s 1
f 14/2/8 16/3/8 24/3/17 23/2/17 
s 2
f 16/3/10 12/4/10 22/4/18 24/3/18 
s 4
f 18/1/19 17/2/19 2/2/19 1/1/19 
s 8
f 17/2/20 19/3/20 3/3/20 2/2/20 
s 4
f 19/3/21 20/4/21 4/4/21 3/3/21 
s 8
f 20/4/22 18/1/22 1/1/22 4/4/22 
s 4
f 22/4/23 21/1/23 6/1/23 5/4/23 
s 8
f 21/1/24 23/2/24 7/2/24 6/1/24 
s 4
f 23/2/25 24/3/25 8/3/25 7/2/25 
s 8
f 24/3/26 22/4/26 5/4/26 8/3/26 
# 22 polygons

