# 3ds Max Wavefront OBJ Exporter v0.97b - (c)2007 guruware
# File Created: 02.05.2015 15:32:10

#
# object Cushion
#

v  -0.0000 2.1497 12.6075
v  12.8970 1.6394 12.0319
v  12.8970 1.8098 -12.6075
v  -0.0000 2.3197 -12.6075
v  -12.8970 1.6396 12.1330
v  -12.8970 1.8096 -12.6075
v  -0.0000 -0.6588 14.8904
v  -0.0000 -1.7511 14.8904
v  15.1800 -1.7511 14.2157
v  15.1800 -0.6588 14.2157
v  15.1800 -0.4580 -14.8904
v  15.1800 -1.5503 -14.8904
v  -0.0000 -1.5503 -14.8904
v  -0.0000 -0.4580 -14.8904
v  -15.1800 -0.6588 14.4160
v  -15.1800 -1.7511 14.4160
v  -15.1800 -0.4580 -14.8904
v  -15.1800 -1.5503 -14.8904
v  -14.6076 -2.1265 -14.3180
v  -0.0000 -2.1266 -14.3180
v  -0.0000 -2.3196 14.3180
v  -14.6076 -2.3197 13.8612
v  14.6076 -2.1265 -14.3180
v  14.6076 -2.3197 13.6681
v  -0.0000 1.0573 14.3197
v  14.6092 1.0573 13.6697
v  14.6092 1.2504 -14.3197
v  -0.0000 1.2504 -14.3197
v  -14.6093 1.0573 13.8452
v  -14.6093 1.2504 -14.3197
# 30 vertices

vn 0.0098 0.9592 0.2826
vn 0.1368 0.9817 0.1323
vn 0.1450 0.9842 -0.1012
vn -0.0079 0.9641 -0.2653
vn -0.1486 0.9829 0.1088
vn -0.1319 0.9838 -0.1210
vn 0.0065 0.1592 0.9872
vn 0.0066 0.0000 1.0000
vn 0.0444 0.0000 0.9990
vn 0.0439 0.1434 0.9887
vn -0.0000 0.1431 -0.9897
vn 0.0000 0.0000 -1.0000
vn 0.0000 0.1605 -0.9870
vn 0.9897 0.1429 0.0010
vn 1.0000 0.0000 -0.0000
vn 0.9896 0.1436 0.0010
vn -0.0314 0.1470 0.9886
vn -0.0312 0.0000 0.9995
vn -0.9896 0.1436 0.0010
vn -1.0000 0.0000 -0.0000
vn -0.9898 0.1421 0.0010
vn 0.0000 0.1431 -0.9897
vn 0.0001 -1.0000 -0.0068
vn -0.0000 -1.0000 -0.0068
vn -0.0001 -1.0000 -0.0068
vn 0.0002 -1.0000 -0.0069
vn 0.0000 -1.0000 -0.0069
vn -0.0002 -1.0000 -0.0068
vn 0.0179 0.8486 0.5287
vn 0.1692 0.9711 0.1683
vn 0.1785 0.9708 -0.1605
vn -0.0153 0.8537 -0.5206
vn -0.1810 0.9684 0.1713
vn -0.1625 0.9743 -0.1557
vn 0.0421 0.3156 0.9480
vn 0.0063 0.3159 0.9488
vn -0.0000 0.3169 -0.9485
vn 0.9487 0.3162 0.0022
vn -0.0307 0.3246 0.9453
vn -0.9487 0.3162 0.0022
vn 0.0000 0.3169 -0.9485
vn 0.0046 -0.7095 0.7047
vn 0.0047 -0.7095 0.7047
vn 0.0313 -0.7095 0.7041
vn 0.0313 -0.7095 0.7040
vn 0.0000 -0.7047 -0.7095
vn -0.0000 -0.7047 -0.7095
vn 0.7071 -0.7071 -0.0049
vn 0.7070 -0.7072 -0.0049
vn -0.0220 -0.7095 0.7044
vn -0.7070 -0.7072 -0.0048
vn -0.7071 -0.7071 -0.0048
# 52 vertex normals

vt 0.2976 0.0617 0.0000
vt 0.1256 0.0632 0.0000
vt 0.1256 0.7432 0.0000
vt 0.2976 0.7432 0.0000
vt 0.4696 0.0617 0.0000
vt 0.4696 0.7432 0.0000
vt 0.2976 0.0000 0.0000
vt 0.0952 0.0000 0.0000
vt 0.0952 0.8049 0.0000
vt 0.2976 0.8049 0.0000
vt 0.5000 0.0000 0.0000
vt 0.5000 0.8049 0.0000
vt 0.4924 0.7894 0.0000
vt 0.2976 0.7894 0.0000
vt 0.2976 0.0155 0.0000
vt 0.4924 0.0157 0.0000
vt 0.1028 0.7891 0.0000
vt 0.1028 0.0155 0.0000
vt 0.2976 0.0309 0.0000
vt 0.1104 0.0316 0.0000
vt 0.1104 0.7741 0.0000
vt 0.2976 0.7741 0.0000
vt 0.4848 0.0309 0.0000
vt 0.4848 0.7741 0.0000
# 24 texture coords

g Cushion
s 1
f 1/1/1 2/2/2 3/3/3 4/4/4 
f 5/5/5 1/1/1 4/4/4 6/6/6 
s 2
f 7/7/7 8/7/8 9/8/9 10/8/10 
f 11/9/11 12/9/12 13/10/12 14/10/13 
s 4
f 10/8/14 9/8/15 12/9/15 11/9/16 
s 2
f 15/11/17 16/11/18 8/7/8 7/7/7 
s 4
f 17/12/19 18/12/20 16/11/20 15/11/21 
s 2
f 14/10/13 13/10/12 18/12/12 17/12/22 
s 1
f 19/13/23 20/14/24 21/15/25 22/16/26 
f 20/14/24 23/17/27 24/18/28 21/15/25 
f 25/19/29 26/20/30 2/2/2 1/1/1 
f 27/21/31 28/22/32 4/4/4 3/3/3 
f 26/20/30 27/21/31 3/3/3 2/2/2 
f 29/23/33 25/19/29 1/1/1 5/5/5 
f 30/24/34 29/23/33 5/5/5 6/6/6 
f 28/22/32 30/24/34 6/6/6 4/4/4 
s 2
f 7/7/7 10/8/10 26/20/35 25/19/36 
f 11/9/11 14/10/13 28/22/37 27/21/37 
s 4
f 10/8/14 11/9/16 27/21/38 26/20/38 
s 2
f 15/11/17 7/7/7 25/19/36 29/23/39 
s 4
f 17/12/19 15/11/21 29/23/40 30/24/40 
s 2
f 14/10/13 17/12/22 30/24/41 28/22/37 
s 8
f 8/7/42 21/15/43 24/18/44 9/8/45 
f 12/9/46 23/17/46 20/14/47 13/10/47 
s 16
f 9/8/48 24/18/48 23/17/49 12/9/49 
s 8
f 16/11/50 22/16/50 21/15/43 8/7/42 
s 16
f 18/12/51 19/13/51 22/16/52 16/11/52 
s 8
f 13/10/47 20/14/47 19/13/47 18/12/46 
# 28 polygons

