# 3ds Max Wavefront OBJ Exporter v0.97b - (c)2007 guruware
# File Created: 02.05.2015 13:57:43

mtllib d10.mtl

#
# object Cone001
#

v  1.3880 -0.0180 -0.0000
v  0.3277 -0.0180 -1.4595
v  -0.1465 1.6955 -0.0000
v  -1.3880 -0.0180 -0.9020
v  -1.3880 -0.0180 0.9020
v  0.3277 -0.0180 1.4595
v  -0.1465 -1.6955 -0.0000
# 7 vertices

vn 0.6551 0.5867 -0.4760
vn -0.2502 0.5867 -0.7702
vn -0.8098 0.5867 0.0000
vn -0.2502 0.5867 0.7702
vn 0.6551 0.5867 0.4760
vn 0.6503 -0.5949 -0.4725
vn 0.6503 -0.5949 0.4725
vn -0.2484 -0.5949 0.7645
vn -0.8038 -0.5949 0.0000
vn -0.2484 -0.5949 -0.7645
# 10 vertex normals

vt 0.2727 0.7030 1.0000
vt 0.5188 0.7013 1.0000
vt 0.3977 0.9908 0.0851
vt 0.5335 0.6982 1.0000
vt 0.7796 0.6959 1.0000
vt 0.6592 0.9857 0.0851
vt 0.0161 0.0216 1.0000
vt 0.2622 0.0199 1.0000
vt 0.1411 0.3094 0.0851
vt 0.7422 0.2023 1.0000
vt 0.9883 0.2001 1.0000
vt 0.8680 0.4899 0.0851
vt 0.2740 0.3959 1.0000
vt 0.5201 0.3973 1.0000
vt 0.3954 0.6853 0.0851
vt 0.5459 0.0052 -0.2500
vt 0.7920 0.0053 -0.2500
vt 0.6688 0.2900 -0.2500
vt 0.0191 0.7047 -0.2500
vt 0.2652 0.7035 -0.2500
vt 0.1435 0.9888 -0.2500
vt 0.5353 0.3911 -0.2500
vt 0.7814 0.3912 -0.2500
vt 0.6582 0.6759 -0.2500
vt 0.0186 0.3970 -0.2500
vt 0.2647 0.3965 -0.2500
vt 0.1422 0.6814 -0.2500
vt 0.2883 0.0138 -0.2500
vt 0.5344 0.0124 -0.2500
vt 0.4130 0.2978 -0.2500
# 30 texture coords

g Cone001
usemtl Material__42
s off
f 1/1/1 2/2/1 3/3/1 
f 2/4/2 4/5/2 3/6/2 
f 4/7/3 5/8/3 3/9/3 
f 5/10/4 6/11/4 3/12/4 
f 6/13/5 1/14/5 3/15/5 
f 2/16/6 1/17/6 7/18/6 
f 1/19/7 6/20/7 7/21/7 
f 6/22/8 5/23/8 7/24/8 
f 5/25/9 4/26/9 7/27/9 
f 4/28/10 2/29/10 7/30/10 
# 0 polygons - 10 triangles

