# 3ds Max Wavefront OBJ Exporter v0.97b - (c)2007 guruware
# File Created: 02.05.2015 12:28:07

mtllib d20.mtl

#
# object d20
#

v  0.0000 1.9616 -0.0000
v  1.7545 0.8772 -0.0000
v  0.5422 0.8772 -1.6686
v  -1.4194 0.8772 -1.0313
v  -1.4194 0.8772 1.0313
v  0.5422 0.8772 1.6686
v  1.4194 -0.8772 1.0313
v  1.4194 -0.8772 -1.0313
v  -0.5422 -0.8772 -1.6686
v  -1.7545 -0.8772 -0.0000
v  -0.5422 -0.8772 1.6686
v  0.0000 -1.9616 -0.0000
# 12 vertices

vn 0.4911 0.7947 -0.3568
vn -0.1876 0.7947 -0.5774
vn -0.6071 0.7947 -0.0000
vn -0.1876 0.7947 0.5774
vn 0.4911 0.7947 0.3568
vn 0.9822 -0.1876 0.0000
vn 0.3035 -0.1876 -0.9342
vn -0.7947 -0.1876 -0.5774
vn -0.7947 -0.1876 0.5774
vn 0.3035 -0.1876 0.9342
vn 0.7947 0.1876 -0.5774
vn -0.3035 0.1876 -0.9342
vn -0.9822 0.1876 -0.0000
vn -0.3035 0.1876 0.9342
vn 0.7947 0.1876 0.5774
vn 0.1876 -0.7947 -0.5774
vn -0.4911 -0.7947 -0.3568
vn -0.4911 -0.7947 0.3568
vn 0.1876 -0.7947 0.5774
vn 0.6071 -0.7947 0.0000
# 20 vertex normals

vt 0.1483 0.8057 0.0000
vt 0.0469 0.6300 0.0000
vt 0.2498 0.6300 0.0000
vt 0.1483 0.6046 0.0000
vt 0.0469 0.4289 0.0000
vt 0.2498 0.4289 0.0000
vt 0.6157 0.1894 0.0000
vt 0.5142 0.0137 0.0000
vt 0.7171 0.0137 0.0000
vt 0.8501 0.5797 0.0000
vt 0.7487 0.4040 0.0000
vt 0.9516 0.4040 0.0000
vt 0.6174 0.3877 0.0000
vt 0.5159 0.2120 0.0000
vt 0.7188 0.2120 0.0000
vt 0.3891 0.3877 0.0000
vt 0.2876 0.2120 0.0000
vt 0.4906 0.2120 0.0000
vt 0.1483 0.4036 0.0000
vt 0.0469 0.2278 0.0000
vt 0.2498 0.2278 0.0000
vt 0.1483 0.2025 0.0000
vt 0.0469 0.0268 0.0000
vt 0.2498 0.0268 0.0000
vt 0.3874 0.1894 0.0000
vt 0.2860 0.0137 0.0000
vt 0.4889 0.0137 0.0000
vt 0.6219 0.9841 0.0000
vt 0.5204 0.8084 0.0000
vt 0.7233 0.8084 0.0000
vt 0.1495 0.9909 0.0000
vt 0.0481 0.8152 0.0000
vt 0.2510 0.8152 0.0000
vt 0.3868 0.7830 0.0000
vt 0.2854 0.6073 0.0000
vt 0.4883 0.6073 0.0000
vt 0.6151 0.5820 0.0000
vt 0.5136 0.4062 0.0000
vt 0.7166 0.4062 0.0000
vt 0.8433 0.7830 0.0000
vt 0.7419 0.6073 0.0000
vt 0.9448 0.6073 0.0000
vt 0.8433 0.9841 0.0000
vt 0.7419 0.8084 0.0000
vt 0.9448 0.8084 0.0000
vt 0.8433 0.3809 0.0000
vt 0.7419 0.2052 0.0000
vt 0.9448 0.2052 0.0000
vt 0.8501 0.1957 0.0000
vt 0.7487 0.0200 0.0000
vt 0.9516 0.0200 0.0000
vt 0.3868 0.5820 0.0000
vt 0.2854 0.4062 0.0000
vt 0.4883 0.4062 0.0000
vt 0.6151 0.7830 0.0000
vt 0.5136 0.6073 0.0000
vt 0.7166 0.6073 0.0000
vt 0.3868 0.9841 0.0000
vt 0.2854 0.8084 0.0000
vt 0.4883 0.8084 0.0000
# 60 texture coords

g d20
usemtl Material__37
s off
f 1/1/1 2/2/1 3/3/1 
f 1/4/2 3/5/2 4/6/2 
f 1/7/3 4/8/3 5/9/3 
f 1/10/4 5/11/4 6/12/4 
f 1/13/5 6/14/5 2/15/5 
f 2/16/6 7/17/6 8/18/6 
f 3/19/7 8/20/7 9/21/7 
f 4/22/8 9/23/8 10/24/8 
f 5/25/9 10/26/9 11/27/9 
f 6/28/10 11/29/10 7/30/10 
f 8/31/11 3/32/11 2/33/11 
f 9/34/12 4/35/12 3/36/12 
f 10/37/13 5/38/13 4/39/13 
f 11/40/14 6/41/14 5/42/14 
f 7/43/15 2/44/15 6/45/15 
f 12/46/16 9/47/16 8/48/16 
f 12/49/17 10/50/17 9/51/17 
f 12/52/18 11/53/18 10/54/18 
f 12/55/19 7/56/19 11/57/19 
f 12/58/20 8/59/20 7/60/20 
# 0 polygons - 20 triangles

