# 3ds Max Wavefront OBJ Exporter v0.97b - (c)2007 guruware
# File Created: 02.05.2015 14:00:46

mtllib d6.mtl

#
# object d6
#

v  0.9930 -0.9930 -0.7291
v  0.9930 -0.9930 0.7291
v  0.7291 -0.9930 0.9930
v  -0.7291 -0.9930 0.9930
v  -0.9930 -0.9930 0.7291
v  -0.9930 -0.9930 -0.7291
v  -0.7291 -0.9930 -0.9930
v  0.7291 -0.9930 -0.9930
v  0.7291 0.9930 -0.9930
v  -0.7291 0.9930 -0.9930
v  -0.9930 0.9930 -0.7291
v  -0.9930 0.9930 0.7291
v  -0.7291 0.9930 0.9930
v  0.7291 0.9930 0.9930
v  0.9930 0.9930 0.7291
v  0.9930 0.9930 -0.7291
v  -0.9930 0.7291 0.9930
v  -0.9930 -0.7291 0.9930
v  0.9930 -0.7291 0.9930
v  0.9930 0.7291 0.9930
v  0.9930 -0.7291 -0.9930
v  0.9930 0.7291 -0.9930
v  -0.9930 -0.7291 -0.9930
v  -0.9930 0.7291 -0.9930
# 24 vertices

vn 0.0000 -1.0000 -0.0000
vn 0.0000 1.0000 -0.0000
vn 0.0000 0.0000 1.0000
vn 1.0000 0.0000 -0.0000
vn 0.0000 0.0000 -1.0000
vn -1.0000 0.0000 -0.0000
vn -0.5774 -0.5774 0.5774
vn 0.5774 -0.5774 0.5774
vn -0.5774 -0.5774 -0.5774
vn 0.5774 -0.5774 -0.5774
vn -0.5774 0.5774 0.5774
vn 0.5774 0.5774 0.5774
vn -0.5774 0.5774 -0.5774
vn 0.5774 0.5774 -0.5774
# 14 vertex normals

vt 0.5453 0.6709 0.0000
vt 0.7765 0.6709 0.0000
vt 0.8184 0.7127 0.0000
vt 0.8184 0.9439 0.0000
vt 0.7765 0.9857 0.0000
vt 0.5453 0.9857 0.0000
vt 0.5035 0.9439 0.0000
vt 0.5035 0.7127 0.0000
vt 0.1647 0.2968 0.0000
vt 0.1647 0.0656 0.0000
vt 0.2065 0.0237 0.0000
vt 0.4377 0.0237 0.0000
vt 0.4796 0.0656 0.0000
vt 0.4796 0.2968 0.0000
vt 0.4377 0.3386 0.0000
vt 0.2065 0.3386 0.0000
vt 0.4933 0.2991 0.0000
vt 0.4933 0.0679 0.0000
vt 0.5351 0.0260 0.0000
vt 0.7663 0.0260 0.0000
vt 0.8081 0.0679 0.0000
vt 0.8081 0.2991 0.0000
vt 0.7663 0.3409 0.0000
vt 0.5351 0.3409 0.0000
vt 0.4953 0.6201 0.0000
vt 0.4953 0.3900 0.0000
vt 0.5369 0.3484 0.0000
vt 0.7670 0.3484 0.0000
vt 0.8086 0.3900 0.0000
vt 0.8086 0.6201 0.0000
vt 0.7670 0.6617 0.0000
vt 0.5369 0.6617 0.0000
vt 0.1768 0.9469 0.0000
vt 0.1768 0.7157 0.0000
vt 0.2186 0.6738 0.0000
vt 0.4498 0.6738 0.0000
vt 0.4916 0.7157 0.0000
vt 0.4916 0.9469 0.0000
vt 0.4498 0.9887 0.0000
vt 0.2186 0.9887 0.0000
vt 0.1695 0.6226 0.0000
vt 0.1695 0.3914 0.0000
vt 0.2113 0.3496 0.0000
vt 0.4425 0.3496 0.0000
vt 0.4843 0.3914 0.0000
vt 0.4843 0.6226 0.0000
vt 0.4425 0.6644 0.0000
vt 0.2113 0.6644 0.0000
vt 0.7417 0.1411 0.0000
vt 0.7417 -0.0890 0.0000
vt 0.9410 0.0260 0.0000
vt 0.7519 0.7859 0.0000
vt 0.7519 0.5558 0.0000
vt 0.9512 0.6709 0.0000
vt 0.4371 1.1008 0.0000
vt 0.4371 0.8707 0.0000
vt 0.6364 0.9857 0.0000
vt 0.4252 0.7889 0.0000
vt 0.4252 0.5588 0.0000
vt 0.6245 0.6738 0.0000
vt 0.4131 0.1388 0.0000
vt 0.4131 -0.0913 0.0000
vt 0.6124 0.0237 0.0000
vt 0.4268 0.4559 0.0000
vt 0.4268 0.2258 0.0000
vt 0.6261 0.3409 0.0000
vt 0.1103 1.1037 0.0000
vt 0.1103 0.8736 0.0000
vt 0.3096 0.9887 0.0000
vt 0.0983 0.4537 0.0000
vt 0.0983 0.2235 0.0000
vt 0.2976 0.3386 0.0000
# 72 texture coords

g d6
usemtl Material__38
s off
f 1/1/1 2/2/1 3/3/1 4/4/1 5/5/1 6/6/1 7/7/1 8/8/1 
f 9/9/2 10/10/2 11/11/2 12/12/2 13/13/2 14/14/2 15/15/2 16/16/2 
f 14/17/3 13/18/3 17/19/3 18/20/3 4/21/3 3/22/3 19/23/3 20/24/3 
f 16/25/4 15/26/4 20/27/4 19/28/4 2/29/4 1/30/4 21/31/4 22/32/4 
f 10/33/5 9/34/5 22/35/5 21/36/5 8/37/5 7/38/5 23/39/5 24/40/5 
f 12/41/6 11/42/6 24/43/6 23/44/6 6/45/6 5/46/6 18/47/6 17/48/6 
f 4/49/7 18/50/7 5/51/7 
f 3/52/8 2/53/8 19/54/8 
f 7/55/9 6/56/9 23/57/9 
f 8/58/10 21/59/10 1/60/10 
f 13/61/11 12/62/11 17/63/11 
f 14/64/12 20/65/12 15/66/12 
f 10/67/13 24/68/13 11/69/13 
f 9/70/14 16/71/14 22/72/14 
# 6 polygons - 8 triangles

