# 3ds Max Wavefront OBJ Exporter v0.97b - (c)2007 guruware
# File Created: 02.05.2015 15:33:24

mtllib Floppy_Diskette.mtl

#
# object Object005
#

v  5.0137 0.1929 -3.3998
v  0.4054 0.1929 -3.3998
v  0.4054 0.1929 -0.0000
v  5.0137 0.1929 -0.0000
v  0.4054 0.1929 3.3998
v  5.0137 0.1929 3.3998
# 6 vertices

vn 0.0000 1.0000 -0.0000
# 1 vertex normals

vt 1.0000 0.7500 0.0000
vt 0.8432 0.7500 0.0000
vt 0.8432 0.5000 0.0000
vt 1.0000 0.5000 0.0000
vt 0.8432 0.2500 0.0000
vt 1.0000 0.2500 0.0000
# 6 texture coords

g Object005
usemtl wire_115115115
s off
f 1/1/1 2/2/1 3/3/1 4/4/1 
f 4/4/1 3/3/1 5/5/1 6/6/1 
# 2 polygons

#
# object Object006
#

v  -0.2940 0.1929 -3.3998
v  -0.2940 0.1929 -0.0000
v  0.4054 0.1929 -0.0000
v  0.4054 0.1929 -3.3998
v  -0.2940 0.1929 3.3998
v  0.4054 0.1929 3.3998
# 6 vertices

vn 0.0000 1.0000 -0.0000
# 1 vertex normals

vt 0.6865 0.7500 0.0000
vt 0.6865 0.5000 0.0000
vt 0.8432 0.5000 0.0000
vt 0.8432 0.7500 0.0000
vt 0.6865 0.2500 0.0000
vt 0.8432 0.2500 0.0000
# 6 texture coords

g Object006
usemtl wire_176026026
s off
f 7/7/2 8/8/2 9/9/2 10/10/2 
f 8/8/2 11/11/2 12/12/2 9/9/2 
# 2 polygons

#
# object Cylinder002
#

v  1.0761 -0.0125 -0.0983
v  0.9100 -0.0125 0.6267
v  0.9100 -0.2251 0.6267
v  1.0761 -0.2251 -0.0983
v  0.4563 -0.0125 1.1574
v  0.4563 -0.2251 1.1574
v  -0.1635 -0.0125 1.3517
v  -0.1635 -0.2251 1.3517
v  -0.7833 -0.0125 1.1574
v  -0.7833 -0.2251 1.1574
v  -1.2370 -0.0125 0.6267
v  -1.2370 -0.2251 0.6267
v  -1.4030 -0.0125 -0.0983
v  -1.4030 -0.2251 -0.0983
v  -1.2370 -0.0125 -0.8234
v  -1.2370 -0.2251 -0.8234
v  -0.7833 -0.0125 -1.3541
v  -0.7833 -0.2251 -1.3541
v  -0.1635 -0.0125 -1.5484
v  -0.1635 -0.2251 -1.5484
v  0.4563 -0.0125 -1.3541
v  0.4563 -0.2251 -1.3541
v  0.9100 -0.0125 -0.8234
v  0.9100 -0.2251 -0.8234
# 24 vertices

vn 1.0000 -0.0000 -0.0000
vn 0.8660 -0.0000 0.5000
vn 0.5000 0.0000 0.8660
vn -0.0000 0.0000 1.0000
vn -0.5000 0.0000 0.8660
vn -0.8660 0.0000 0.5000
vn -1.0000 0.0000 0.0000
vn -0.8660 0.0000 -0.5000
vn -0.5000 -0.0000 -0.8660
vn -0.0000 -0.0000 -1.0000
vn 0.5000 -0.0000 -0.8660
vn 0.8660 -0.0000 -0.5000
vn -0.0000 -1.0000 0.0000
# 13 vertex normals

vt 0.7500 0.0000 1.0000
vt 0.6667 0.0000 1.0000
vt 0.6667 1.0000 1.0000
vt 0.7500 1.0000 1.0000
vt 0.5833 0.0000 1.0000
vt 0.5833 1.0000 1.0000
vt 0.5000 0.0000 1.0000
vt 0.5000 1.0000 1.0000
vt 0.4167 0.0000 1.0000
vt 0.4167 1.0000 1.0000
vt 0.3333 0.0000 1.0000
vt 0.3333 1.0000 1.0000
vt 0.2500 0.0000 1.0000
vt 0.2500 1.0000 1.0000
vt 0.1667 0.0000 1.0000
vt 0.1667 1.0000 1.0000
vt 0.0833 0.0000 1.0000
vt 0.0833 1.0000 1.0000
vt 0.0000 0.0000 1.0000
vt 0.0000 1.0000 1.0000
vt -0.0833 0.0000 1.0000
vt -0.0833 1.0000 1.0000
vt 0.9167 0.0000 1.0000
vt 0.8333 0.0000 1.0000
vt 0.8333 1.0000 1.0000
vt 0.9167 1.0000 1.0000
vt 0.0000 0.5000 0.2500
vt 0.0670 0.7500 0.2500
vt 0.2500 0.9330 0.2500
vt 0.5000 1.0000 0.2500
vt 0.7500 0.9330 0.2500
vt 0.9330 0.7500 0.2500
vt 1.0000 0.5000 0.2500
vt 0.9330 0.2500 0.2500
vt 0.7500 0.0670 0.2500
vt 0.5000 0.0000 0.2500
vt 0.2500 0.0670 0.2500
vt 0.0670 0.2500 0.2500
# 38 texture coords

g Cylinder002
usemtl wire_086086086
s 8
f 13/13/3 14/14/4 15/15/4 16/16/3 
f 14/14/4 17/17/5 18/18/5 15/15/4 
f 17/17/5 19/19/6 20/20/6 18/18/5 
f 19/19/6 21/21/7 22/22/7 20/20/6 
f 21/21/7 23/23/8 24/24/8 22/22/7 
f 23/23/8 25/25/9 26/26/9 24/24/8 
f 25/25/9 27/27/10 28/28/10 26/26/9 
f 27/27/10 29/29/11 30/30/11 28/28/10 
f 29/29/11 31/31/12 32/32/12 30/30/11 
f 31/31/12 33/33/13 34/34/13 32/32/12 
f 33/35/13 35/36/14 36/37/14 34/38/13 
f 35/36/14 13/13/3 16/16/3 36/37/14 
s 1
f 32/39/15 34/40/15 36/41/15 16/42/15 15/43/15 18/44/15 20/45/15 22/46/15 24/47/15 26/48/15 28/49/15 30/50/15 
# 13 polygons

#
# object Box001
#

v  -5.1238 -0.1929 2.5000
v  -1.7140 -0.1929 2.5000
v  -1.7140 -0.1929 5.0000
v  -5.1238 -0.1929 5.0000
v  -1.7140 0.1929 5.0000
v  -1.7140 0.1929 2.5000
v  -5.1238 0.1929 2.5000
v  -5.1238 0.1929 5.0000
v  5.1419 -0.1929 3.5498
v  5.1419 0.1929 3.5498
v  5.1419 0.1929 5.0000
v  5.1419 -0.1929 5.0000
v  -0.4112 -0.1929 -5.0000
v  -0.4112 0.1929 -5.0000
v  5.1419 0.1929 -5.0000
v  5.1419 -0.1929 -5.0000
v  -5.1238 -0.1929 -2.5000
v  -5.1238 0.1929 -2.5000
v  -5.1238 0.1929 -4.0000
v  -5.1238 -0.1929 -4.0000
v  -4.7703 -0.2351 -1.7599
v  -1.8616 -0.2495 -1.7599
v  -1.8616 -0.2495 -0.4528
v  -4.7703 -0.2351 -0.4528
v  5.1419 -0.1929 -3.5498
v  5.1419 0.1929 -3.5498
v  5.1419 0.1929 -0.0000
v  5.1419 -0.1929 0.0000
v  -4.2690 -0.1929 -5.0000
v  -1.6918 -0.1929 -5.0000
v  -1.7140 -0.1929 -2.5000
v  -4.2690 0.1929 -5.0000
v  -1.7140 0.1929 -2.5000
v  -1.6918 0.1929 -5.0000
v  -0.4222 -0.1929 3.5498
v  -0.4222 -0.1929 5.0000
v  -0.4222 0.1929 5.0000
v  -0.4222 0.1929 3.5498
v  -0.4222 -0.1929 -3.5498
v  -0.4222 -0.1929 0.0000
v  -1.7140 -0.1929 0.0000
v  -4.7703 0.2351 -1.7599
v  -4.7703 0.2351 -0.4528
v  -1.8616 0.2495 -0.4528
v  -1.8616 0.2495 -1.7599
v  -0.4222 0.1929 -3.5498
v  -5.1419 -0.2338 -2.5000
v  -5.1419 0.2338 -2.5000
v  -1.7140 -0.2508 -2.5000
v  -1.7140 -0.2508 0.0000
v  -1.7140 -0.2508 2.5000
v  -5.1419 -0.2338 2.5000
v  -5.1419 0.2338 2.5000
v  -1.7140 0.2508 2.5000
v  -1.7140 0.1929 -0.0000
v  -1.7140 0.2508 -0.0000
v  -1.7140 0.2508 -2.5000
v  -0.4222 0.1929 -0.0000
v  5.0137 0.1929 -3.3998
v  5.0137 0.1929 -0.0000
v  -0.2940 0.1929 -3.3998
v  -0.2940 0.1929 -0.0000
v  -0.2940 0.1929 3.3998
v  5.0137 0.1929 3.3998
# 64 vertices

vn -0.0000 -1.0000 0.0000
vn 0.0000 1.0000 -0.0000
vn 0.0000 0.0000 1.0000
vn 1.0000 -0.0000 -0.0000
vn -0.0000 -0.0000 -1.0000
vn -1.0000 0.0000 -0.0000
vn -0.0022 -1.0000 0.0000
vn -0.7071 0.0000 -0.7071
vn -0.0022 1.0000 -0.0000
# 9 vertex normals

vt 1.0000 0.2500 0.0000
vt 0.6270 0.2500 0.0000
vt 0.6270 0.0000 0.0000
vt 1.0000 0.0000 0.0000
vt 0.3730 0.0000 0.0000
vt 0.3730 0.2500 0.0000
vt 0.0000 0.2500 0.0000
vt 0.0000 0.0000 0.0000
vt 0.3730 1.0000 0.0000
vt 0.0000 1.0000 0.0000
vt 0.2500 0.0000 0.0000
vt 0.2500 1.0000 0.0000
vt 0.2250 0.0000 0.0000
vt 0.2250 1.0000 0.0000
vt 0.1000 1.0000 0.0000
vt 0.1000 0.0000 0.0000
vt 1.0000 0.7500 0.0000
vt 0.6270 0.7500 0.0000
vt 0.6270 0.5000 0.0000
vt 1.0000 0.5000 0.0000
vt 0.7500 0.0000 0.0000
vt 0.7500 1.0000 0.0000
vt 0.5000 1.0000 0.0000
vt 0.5000 0.0000 0.0000
vt 0.9000 1.0000 0.0000
vt 0.4500 1.0000 0.0000
vt 1.0000 0.9000 0.0000
vt 0.0000 0.9000 0.0000
vt 0.0000 0.7500 0.0000
vt 0.3730 0.7500 0.0000
vt 0.5500 1.0000 0.0000
vt 1.0000 1.0000 0.0000
vt -5.1289 0.0000 0.0000
vt -5.1289 1.0000 0.0000
vt 0.3135 0.2500 0.0000
vt 0.3135 0.0000 0.0000
vt 0.6865 0.0000 0.0000
vt 0.6865 0.2500 0.0000
vt 0.6865 1.0000 0.0000
vt 0.3135 0.7500 0.0000
vt 0.3135 0.5000 0.0000
vt 0.0000 0.5000 0.0000
vt 0.3730 0.5000 0.0000
vt 0.9000 0.0000 0.0000
vt 0.4500 0.0000 0.0000
vt 0.6865 0.7500 0.0000
vt 0.7750 1.0000 0.0000
vt 0.6865 0.5000 0.0000
# 48 texture coords

g Box001
usemtl wire_007007007
s off
f 37/51/16 38/52/16 39/53/16 40/54/16 
f 41/55/17 42/56/17 43/57/17 44/58/17 
f 39/55/18 41/59/18 44/60/18 40/58/18 
f 45/61/19 46/62/19 47/60/19 48/58/19 
f 49/63/20 50/64/20 51/60/20 52/58/20 
f 53/61/21 54/62/21 55/65/21 56/66/21 
f 57/67/22 58/68/22 59/69/22 60/70/22 
f 61/71/19 62/72/19 63/73/19 64/74/19 
f 65/75/16 66/76/16 67/68/16 53/67/16 56/77/16 
f 68/65/17 55/78/17 54/79/17 69/80/17 70/81/17 
f 52/54/19 51/82/19 62/72/19 61/71/19 
f 64/74/19 63/73/19 46/62/19 45/61/19 
f 40/54/21 44/82/21 43/72/21 37/71/21 
f 65/83/23 56/66/23 55/65/23 68/84/23 
f 71/85/16 72/86/16 39/53/16 38/52/16 
f 73/87/17 74/88/17 42/56/17 41/55/17 
f 72/87/18 73/89/18 41/59/18 39/55/18 
f 75/90/16 76/91/16 77/69/16 67/68/16 
f 78/79/24 79/92/24 80/93/24 81/80/24 
f 76/91/16 71/85/16 38/52/16 77/69/16 
f 65/94/20 68/75/20 70/76/20 66/95/20 
f 82/96/17 50/97/17 70/81/17 69/80/17 
f 66/76/16 49/64/16 75/90/16 67/68/16 
f 54/62/20 53/61/20 83/61/20 84/62/20 
f 53/67/20 67/68/20 85/68/20 83/67/20 
f 67/68/19 77/69/19 86/69/19 85/68/19 
f 77/69/19 38/52/19 87/52/19 86/69/19 
f 38/52/18 37/51/18 88/51/18 87/52/18 
f 37/71/18 43/72/18 89/72/18 88/71/18 
f 43/57/18 42/56/18 90/56/18 89/57/18 
f 42/56/19 91/93/19 92/93/19 90/56/19 
f 91/93/19 69/80/19 93/80/19 92/93/19 
f 69/80/20 54/79/20 84/79/20 93/80/20 
f 66/95/20 70/76/20 50/64/20 49/63/20 
f 69/80/17 91/93/17 94/98/17 82/96/17 
f 91/93/17 42/56/17 74/88/17 94/98/17 
f 45/57/16 48/58/16 72/86/16 71/85/16 
f 47/54/17 46/51/17 74/88/17 73/87/17 
f 48/54/18 47/82/18 73/89/18 72/87/18 
f 61/79/16 64/92/16 76/91/16 75/90/16 
f 64/92/16 45/57/16 71/85/16 76/91/16 
f 62/67/17 51/82/17 50/97/17 82/96/17 
f 52/60/16 61/79/16 75/90/16 49/64/16 
f 63/70/17 62/67/17 95/67/17 96/70/17 
f 62/67/17 82/96/17 97/96/17 95/67/17 
f 82/96/17 94/98/17 98/98/17 97/96/17 
f 94/98/17 74/88/17 99/88/17 98/98/17 
f 74/88/17 46/51/17 100/51/17 99/88/17 
f 46/51/17 63/70/17 96/70/17 100/51/17 
# 49 polygons

#
# object Object003
#

v  -5.1419 -0.2338 2.5000
v  -5.1419 0.2338 2.5000
v  -5.1419 0.2338 -0.0000
v  -5.1419 -0.2338 0.0000
v  -5.1419 0.2338 -2.5000
v  -5.1419 -0.2338 -2.5000
v  -1.7140 -0.2508 0.0000
v  -1.7140 -0.2508 2.5000
v  -1.7140 0.2508 2.5000
v  -1.7140 0.2508 -0.0000
v  -4.7703 -0.2351 -1.7599
v  -4.7703 -0.2351 -0.4528
v  -1.7140 -0.2508 -2.5000
v  -1.8616 -0.2495 -1.7599
v  -1.8616 -0.2495 -0.4528
v  -4.7703 0.2351 -0.4528
v  -4.7703 0.2351 -1.7599
v  -1.8616 0.2495 -0.4528
v  -1.7140 0.2508 -2.5000
v  -1.8616 0.2495 -1.7599
# 20 vertices

vn -1.0000 0.0000 -0.0000
vn -0.0022 -1.0000 0.0000
vn -0.0022 1.0000 -0.0000
vn -0.0015 -1.0000 0.0000
vn -0.0022 -1.0000 0.0004
vn -0.0039 -1.0000 0.0000
vn -0.0022 -1.0000 -0.0006
vn -0.0015 1.0000 -0.0000
vn -0.0022 1.0000 -0.0006
vn -0.0039 1.0000 -0.0000
vn -0.0022 1.0000 0.0004
# 11 vertex normals

vt 0.7500 0.0000 0.0000
vt 0.7500 1.0000 0.0000
vt 0.5000 1.0000 0.0000
vt 0.5000 0.0000 0.0000
vt 0.2500 1.0000 0.0000
vt 0.2500 0.0000 0.0000
vt 1.0000 0.5000 0.0000
vt 0.6270 0.5000 0.0000
vt 0.6270 0.2500 0.0000
vt 1.0000 0.2500 0.0000
vt 0.0000 0.5000 0.0000
vt 0.0000 0.2500 0.0000
vt 0.3730 0.2500 0.0000
vt 0.3730 0.5000 0.0000
vt 1.0000 0.7500 0.0000
vt 0.6270 0.7500 0.0000
vt 0.0000 0.7500 0.0000
vt 0.3730 0.7500 0.0000
# 18 texture coords

g Object003
usemtl wire_086086086
s off
f 101/99/25 102/100/25 103/101/25 104/102/25 
f 104/102/25 103/101/25 105/103/25 106/104/25 
f 104/105/26 107/106/26 108/107/26 101/108/26 
f 103/109/27 102/110/27 109/111/27 110/112/27 
f 104/105/28 106/113/28 111/113/28 112/105/28 
f 106/113/29 113/114/29 114/114/29 111/113/29 
f 113/114/30 107/106/30 115/106/30 114/114/30 
f 107/106/31 104/105/31 112/105/31 115/106/31 
f 105/115/32 103/109/32 116/109/32 117/115/32 
f 103/109/33 110/112/33 118/112/33 116/109/33 
f 110/112/34 119/116/34 120/116/34 118/112/34 
f 119/116/35 105/115/35 117/115/35 120/116/35 
# 12 polygons

