# 3ds Max Wavefront OBJ Exporter v0.97b - (c)2007 guruware
# File Created: 01.05.2015 23:55:24

#
# object Key
#

v  2.3273 -0.0474 -0.0046
v  2.0189 -0.0474 -0.2870
v  2.0189 0.0474 -0.2870
v  2.3273 0.0474 -0.0046
v  -0.5309 -0.0750 -0.5000
v  -0.8273 -0.0750 -0.8660
v  -0.8273 0.0750 -0.8660
v  -0.5309 0.0750 -0.5000
v  -1.3273 -0.0750 -1.0000
v  -1.3273 0.0750 -1.0000
v  -1.8273 -0.0750 -0.8660
v  -1.8273 0.0750 -0.8660
v  -2.1933 -0.0750 -0.5000
v  -2.1933 0.0750 -0.5000
v  -2.3273 -0.0750 -0.0000
v  -2.3273 0.0750 -0.0000
v  -2.1933 -0.0750 0.5000
v  -2.1933 0.0750 0.5000
v  -1.8273 -0.0750 0.8660
v  -1.8273 0.0750 0.8660
v  -1.3273 -0.0750 1.0000
v  -1.3273 0.0750 1.0000
v  -0.8273 -0.0750 0.8660
v  -0.8273 0.0750 0.8660
v  -0.5309 -0.0750 0.5000
v  -0.5309 0.0750 0.5000
v  2.0189 -0.0750 0.3229
v  2.0189 0.0750 0.3229
v  -0.3970 -0.0750 -0.0046
v  -1.4922 -0.0750 -0.0046
v  -1.5252 -0.0750 -0.1231
v  -1.6153 -0.0750 -0.2132
v  -1.7384 -0.0750 -0.2462
v  -1.8615 -0.0750 -0.2132
v  -1.9516 -0.0750 -0.1231
v  -1.9846 -0.0750 -0.0000
v  -1.9516 -0.0750 0.1231
v  -1.8615 -0.0750 0.2132
v  -1.7384 -0.0750 0.2462
v  -1.6153 -0.0750 0.2132
v  -1.5252 -0.0750 0.1231
v  -0.3970 0.0750 -0.0046
v  -1.5252 0.0750 -0.1231
v  -1.4922 0.0750 -0.0046
v  -1.6153 0.0750 -0.2132
v  -1.7384 0.0750 -0.2462
v  -1.8615 0.0750 -0.2132
v  -1.9516 0.0750 -0.1231
v  -1.9846 0.0750 -0.0000
v  -1.9516 0.0750 0.1231
v  -1.8615 0.0750 0.2132
v  -1.7384 0.0750 0.2462
v  -1.6153 0.0750 0.2132
v  -1.5252 0.0750 0.1231
v  0.5248 0.0474 -0.2870
v  0.5248 -0.0474 -0.2870
v  0.3506 -0.0474 -0.0897
v  0.3506 0.0474 -0.0897
v  0.3506 0.0750 0.3229
v  0.3506 -0.0750 0.3229
v  -0.3374 -0.0750 -0.3465
v  -0.1997 -0.0750 -0.5062
v  -0.1997 -0.0750 -0.0046
v  -0.0195 -0.0750 -0.2874
v  1.3332 0.0474 -0.1116
v  1.3332 -0.0474 -0.1116
v  1.1602 -0.0474 -0.2870
v  1.1602 0.0474 -0.2870
v  0.7571 0.0474 -0.2870
v  0.7571 -0.0474 -0.2870
v  -0.3374 0.0750 -0.3465
v  -0.1997 0.0750 -0.5062
v  -0.0195 0.0750 -0.2874
v  0.2042 -0.0474 -0.2873
v  0.2042 0.0474 -0.2873
v  0.9519 0.0750 0.3229
v  0.9519 0.0474 -0.1593
v  -0.3374 0.0750 0.3387
v  -0.1997 0.0750 0.4965
v  -0.0195 0.0750 0.3229
v  1.5639 -0.0750 0.3229
v  1.5639 0.0750 0.3229
v  0.9519 -0.0750 0.3229
v  -0.3374 -0.0750 0.3387
v  -0.1997 -0.0750 0.4965
v  -0.0195 -0.0750 0.3229
v  0.9519 -0.0474 -0.1529
v  1.5639 0.0474 -0.1116
v  1.5639 -0.0474 -0.1116
v  1.6894 0.0474 -0.2868
v  1.6894 -0.0474 -0.2868
# 91 vertices

vn 0.9998 0.0000 -0.0176
vn 0.6754 0.0000 -0.7375
vn 0.7772 0.0000 -0.6292
vn 0.5447 0.0000 -0.8386
vn -0.0000 0.0000 -1.0000
vn -0.5000 0.0000 -0.8660
vn -0.8660 0.0000 -0.5000
vn -1.0000 0.0000 -0.0000
vn -0.8660 0.0000 0.5000
vn -0.5000 0.0000 0.8660
vn -0.0000 0.0000 1.0000
vn 0.5447 0.0000 0.8386
vn 0.7772 0.0000 0.6292
vn 0.7280 0.0000 0.6856
vn 0.0000 -1.0000 -0.0000
vn 0.0000 1.0000 -0.0000
vn -0.7496 0.0000 -0.6619
vn -0.0751 0.9950 -0.0664
vn -0.0751 -0.9950 -0.0664
vn 0.7119 0.0000 -0.7023
vn 0.0000 0.0000 -1.0000
vn 0.6215 0.0000 -0.7835
vn -0.7575 0.0000 -0.6529
vn 0.7720 0.0000 -0.6356
vn 0.8035 0.0000 -0.5953
vn 0.0412 0.9981 -0.0450
vn -0.0349 0.9978 -0.0569
vn 0.0373 0.9977 -0.0569
vn 0.0000 0.9990 -0.0451
vn 0.0190 0.9986 -0.0496
vn 0.6401 0.0000 0.7683
vn -0.7534 0.0000 0.6576
vn 0.6940 0.0000 0.7200
vn 0.0000 0.0000 1.0000
vn 0.0412 -0.9981 -0.0450
vn -0.0371 -0.9976 -0.0577
vn 0.0397 -0.9975 -0.0577
vn 0.0000 -0.9990 -0.0451
vn 0.0190 -0.9986 -0.0496
vn 0.0005 0.0000 -1.0000
vn 0.1221 0.9925 -0.0000
vn 0.1221 -0.9925 -0.0000
vn -0.8636 0.0000 0.5041
vn -1.0000 0.0000 0.0093
vn -0.8683 0.0000 -0.4961
vn 0.5000 0.0000 -0.8660
vn 0.8660 0.0000 -0.5000
vn 1.0000 0.0000 0.0000
vn 0.8660 0.0000 0.5000
vn 0.5000 0.0000 0.8660
vn 0.0118 0.9985 -0.0529
vn 0.0118 -0.9985 -0.0529
vn 0.0000 0.9980 -0.0632
vn 0.0000 -0.9980 -0.0632
vn -0.8131 0.0000 -0.5822
vn -0.0879 0.9941 -0.0630
vn -0.0879 -0.9941 -0.0630
vn -0.0003 0.0000 -1.0000
vn -0.0000 0.9990 -0.0451
vn -0.0000 -0.9990 -0.0451
vn -0.5316 -0.0287 -0.8465
vn 0.5574 -0.0282 -0.8298
# 62 vertex normals

vt 0.7500 0.0000 1.0000
vt 0.8333 1.0000 1.0000
vt 0.7500 1.0000 1.0000
vt 0.8333 0.0000 1.0000
vt 0.9167 0.0000 1.0000
vt 0.9167 1.0000 1.0000
vt 1.0000 0.0000 1.0000
vt 1.0000 1.0000 1.0000
vt 0.0000 0.0000 1.0000
vt 0.0833 0.0000 1.0000
vt 0.0833 1.0000 1.0000
vt 0.0000 1.0000 1.0000
vt 0.1667 0.0000 1.0000
vt 0.1667 1.0000 1.0000
vt 0.2500 0.0000 1.0000
vt 0.2500 1.0000 1.0000
vt 0.3333 0.0000 1.0000
vt 0.3333 1.0000 1.0000
vt 0.4167 0.0000 1.0000
vt 0.4167 1.0000 1.0000
vt 0.5000 0.0000 1.0000
vt 0.5000 1.0000 1.0000
vt 0.5833 0.0000 1.0000
vt 0.5833 1.0000 1.0000
vt 0.6667 0.0000 1.0000
vt 0.6667 1.0000 1.0000
vt 0.2500 0.9330 -0.2500
vt 0.5000 1.0000 -0.2500
vt 0.5000 0.7500 -0.2500
vt 0.3750 0.7165 -0.2500
vt 0.0670 0.7500 -0.2500
vt 0.2835 0.6250 -0.2500
vt 0.0000 0.5000 -0.2500
vt 0.2500 0.5000 -0.2500
vt 0.0670 0.2500 -0.2500
vt 0.2835 0.3750 -0.2500
vt 0.2500 0.0670 -0.2500
vt 0.3750 0.2835 -0.2500
vt 0.5000 0.0000 -0.2500
vt 0.5000 0.2500 -0.2500
vt 0.7500 0.0670 -0.2500
vt 0.6250 0.2835 -0.2500
vt 0.9330 0.2500 -0.2500
vt 0.7165 0.3750 -0.2500
vt 1.0000 0.5000 -0.2500
vt 0.7500 0.5000 -0.2500
vt 0.9330 0.7500 -0.2500
vt 0.7165 0.6250 -0.2500
vt 0.7500 0.9330 -0.2500
vt 0.6250 0.7165 -0.2500
vt 0.5000 1.0000 0.2500
vt 0.2500 0.9330 0.2500
vt 0.3750 0.7165 0.2500
vt 0.5000 0.7500 0.2500
vt 0.0670 0.7500 0.2500
vt 0.2835 0.6250 0.2500
vt 0.0000 0.5000 0.2500
vt 0.2500 0.5000 0.2500
vt 0.0670 0.2500 0.2500
vt 0.2835 0.3750 0.2500
vt 0.2500 0.0670 0.2500
vt 0.3750 0.2835 0.2500
vt 0.5000 0.0000 0.2500
vt 0.5000 0.2500 0.2500
vt 0.7500 0.0670 0.2500
vt 0.6250 0.2835 0.2500
vt 0.9330 0.2500 0.2500
vt 0.7165 0.3750 0.2500
vt 1.0000 0.5000 0.2500
vt 0.7500 0.5000 0.2500
vt 0.9330 0.7500 0.2500
vt 0.7165 0.6250 0.2500
vt 0.7500 0.9330 0.2500
vt 0.6250 0.7165 0.2500
vt 0.7980 0.4237 1.0000
vt 0.7275 1.0000 1.0000
vt 0.7264 0.7165 1.0000
# 77 texture coords

g Key
s 8
f 1/1/1 2/1/2 3/2/2 4/3/1 
f 5/4/3 6/5/4 7/6/4 8/2/3 
f 6/5/4 9/7/5 10/8/5 7/6/4 
f 9/9/5 11/10/6 12/11/6 10/12/5 
f 11/10/6 13/13/7 14/14/7 12/11/6 
f 13/13/7 15/15/8 16/16/8 14/14/7 
f 15/15/8 17/17/9 18/18/9 16/16/8 
f 17/17/9 19/19/10 20/20/10 18/18/9 
f 19/19/10 21/21/11 22/22/11 20/20/10 
f 21/21/11 23/23/12 24/24/12 22/22/11 
f 23/23/12 25/25/13 26/26/13 24/24/12 
f 27/25/14 1/1/1 4/3/1 28/26/14 
s 1
f 5/27/15 29/28/15 30/29/15 31/30/15 
f 6/31/15 5/27/15 31/30/15 32/32/15 
f 9/33/15 6/31/15 32/32/15 33/34/15 
f 11/35/15 9/33/15 33/34/15 34/36/15 
f 13/37/15 11/35/15 34/36/15 35/38/15 
f 15/39/15 13/37/15 35/38/15 36/40/15 
f 17/41/15 15/39/15 36/40/15 37/42/15 
f 19/43/15 17/41/15 37/42/15 38/44/15 
f 21/45/15 19/43/15 38/44/15 39/46/15 
f 23/47/15 21/45/15 39/46/15 40/48/15 
f 25/49/15 23/47/15 40/48/15 41/50/15 
f 29/28/15 25/49/15 41/50/15 30/29/15 
f 42/51/16 8/52/16 43/53/16 44/54/16 
f 8/52/16 7/55/16 45/56/16 43/53/16 
f 7/55/16 10/57/16 46/58/16 45/56/16 
f 10/57/16 12/59/16 47/60/16 46/58/16 
f 12/59/16 14/61/16 48/62/16 47/60/16 
f 14/61/16 16/63/16 49/64/16 48/62/16 
f 16/63/16 18/65/16 50/66/16 49/64/16 
f 18/65/16 20/67/16 51/68/16 50/66/16 
f 20/67/16 22/69/16 52/70/16 51/68/16 
f 22/69/16 24/71/16 53/72/16 52/70/16 
f 24/71/16 26/73/16 54/74/16 53/72/16 
f 26/73/16 42/51/16 44/54/16 54/74/16 
s off
f 55/3/17 56/4/17 57/1/17 58/2/17 
f 59/26/18 55/3/18 58/2/18 
f 57/1/19 56/4/19 60/25/19 
f 29/1/15 5/4/15 61/4/15 
f 29/1/15 61/4/15 62/4/15 63/1/15 
f 64/1/15 63/1/15 62/4/15 
f 65/2/20 66/1/20 67/75/20 68/3/20 
f 69/3/21 70/4/21 56/4/21 55/3/21 
f 5/4/22 8/2/22 71/2/22 61/4/22 
f 61/4/23 71/2/23 72/2/23 62/4/23 
f 62/4/24 72/2/24 73/2/24 64/1/24 
f 74/1/25 75/2/25 58/2/25 57/1/25 
f 71/2/16 8/2/16 42/3/16 
f 72/2/16 71/2/16 42/3/16 
f 28/26/26 4/3/26 3/2/26 
f 76/26/27 68/3/27 77/76/27 
f 76/26/28 77/76/28 69/3/28 
f 76/26/29 69/3/29 55/3/29 59/26/29 
f 42/3/16 26/26/16 78/26/16 
f 42/3/16 78/26/16 79/26/16 72/2/16 
f 72/2/16 79/26/16 80/26/16 73/2/16 
f 75/2/30 80/26/30 59/26/30 58/2/30 
f 81/25/11 82/26/11 76/26/11 83/25/11 
f 83/25/11 76/26/11 59/26/11 60/25/11 
f 26/26/31 25/25/31 84/25/31 78/26/31 
f 78/26/32 84/25/32 85/25/32 79/26/32 
f 79/26/33 85/25/33 86/25/33 80/26/33 
f 80/26/34 86/25/34 60/25/34 59/26/34 
f 2/1/35 1/1/35 27/25/35 
f 87/77/36 67/75/36 83/25/36 
f 70/4/37 87/77/37 83/25/37 
f 56/4/38 70/4/38 83/25/38 60/25/38 
f 84/25/15 25/25/15 29/1/15 
f 85/25/15 84/25/15 29/1/15 63/1/15 
f 86/25/15 85/25/15 63/1/15 64/1/15 
f 86/25/39 74/1/39 57/1/39 60/25/39 
f 64/1/40 73/2/40 75/2/40 74/1/40 
f 75/2/41 73/2/41 80/26/41 
f 86/25/42 64/1/42 74/1/42 
s 2
f 31/30/43 30/29/44 44/54/44 43/53/43 
f 30/29/44 41/50/45 54/74/45 44/54/44 
f 41/50/45 40/48/6 53/72/6 54/74/45 
f 40/48/6 39/46/21 52/70/21 53/72/6 
f 39/46/21 38/44/46 51/68/46 52/70/21 
f 38/44/46 37/42/47 50/66/47 51/68/46 
f 37/42/47 36/40/48 49/64/48 50/66/47 
f 36/40/48 35/38/49 48/62/49 49/64/48 
f 35/38/49 34/36/50 47/60/50 48/62/49 
f 34/36/50 33/34/34 46/58/34 47/60/50 
f 33/34/34 32/32/10 45/56/10 46/58/34 
f 32/32/10 31/30/43 43/53/43 45/56/10 
s off
f 88/2/21 89/1/21 66/1/21 65/2/21 
f 68/3/51 76/26/51 82/26/51 65/2/51 
f 83/25/52 67/75/52 66/1/52 81/25/52 
f 88/2/53 65/2/53 82/26/53 
f 81/25/54 66/1/54 89/1/54 
f 90/2/55 91/1/55 89/1/55 88/2/55 
f 90/2/56 88/2/56 82/26/56 
f 81/25/57 89/1/57 91/1/57 
f 3/2/58 2/1/58 91/1/58 90/2/58 
f 27/25/34 28/26/34 82/26/34 81/25/34 
f 90/2/59 82/26/59 28/26/59 3/2/59 
f 81/25/60 91/1/60 2/1/60 27/25/60 
f 87/77/61 77/76/61 68/3/61 67/75/61 
f 87/77/62 70/4/62 69/3/62 77/76/62 
# 81 polygons - 20 triangles

