# 3ds Max Wavefront OBJ Exporter v0.97b - (c)2007 guruware
# File Created: 01.05.2015 23:55:45

#
# object HouseKey2
#

v  2.2397 -0.0510 -0.0055
v  1.9314 -0.0510 -0.2879
v  1.9314 0.0510 -0.2879
v  2.2397 0.0510 -0.0055
v  1.9314 -0.0746 0.3220
v  1.9314 0.0746 0.3220
v  0.4373 0.0510 -0.0486
v  0.4373 -0.0510 -0.0486
v  0.2630 -0.0510 -0.0417
v  0.2630 0.0510 -0.0417
v  0.2630 0.0746 0.3220
v  0.2630 -0.0746 0.3220
v  -0.2457 -0.0746 -0.0055
v  -0.5606 -0.0510 -0.5009
v  -0.3834 -0.0510 -0.3474
v  -0.2457 -0.0510 -0.5071
v  -0.0491 -0.0510 -0.2883
v  1.3188 0.0510 -0.2123
v  1.3188 -0.0510 -0.2123
v  1.0726 -0.0510 -0.0413
v  1.0726 0.0510 -0.0413
v  0.5450 0.0510 -0.2428
v  0.5450 -0.0510 -0.2428
v  -0.5606 0.0510 -0.5009
v  -0.3834 0.0510 -0.3474
v  -0.2457 0.0510 -0.5071
v  -0.0491 0.0510 -0.2883
v  0.1166 -0.0510 -0.2882
v  0.1166 0.0510 -0.2882
v  -0.3869 0.0746 -0.0055
v  0.8643 0.0746 0.3220
v  0.8643 0.0510 -0.2456
v  -0.5606 0.0746 0.4991
v  -0.3834 0.0746 0.3378
v  -0.2457 0.0746 0.4956
v  -0.0491 0.0746 0.3220
v  1.4764 -0.0746 0.3220
v  1.4764 0.0746 0.3220
v  0.8643 -0.0746 0.3220
v  -0.5606 -0.0746 0.4991
v  -0.3834 -0.0746 0.3378
v  -0.2457 -0.0746 0.4956
v  -0.0491 -0.0746 0.3220
v  0.8643 -0.0510 -0.2442
v  1.5496 0.0510 -0.2123
v  1.5496 -0.0510 -0.2123
v  1.7244 0.0510 -0.0897
v  1.7244 -0.0510 -0.0897
v  -1.0040 -0.0746 -0.0073
v  -0.6960 -0.0746 -0.5009
v  -0.6960 0.0746 -0.5009
v  -1.0040 0.0746 -0.0073
v  -0.6960 0.0746 0.4991
v  -0.6960 -0.0746 0.4991
v  -1.0178 -0.0746 -0.7978
v  -1.0178 0.0746 -0.7978
v  -1.0178 0.0746 0.7978
v  -1.0178 -0.0746 0.7978
v  -1.3233 -0.0746 -0.6702
v  -1.9057 -0.0746 -0.6648
v  -1.9924 -0.0746 -0.7978
v  -1.9924 0.0746 -0.7978
v  -1.3233 0.0746 -0.6702
v  -1.9924 0.0746 0.7978
v  -1.9924 -0.0746 0.7978
v  -1.3233 -0.0746 0.6585
v  -1.3233 0.0746 0.6585
v  -1.7970 0.0746 0.6639
v  -2.2397 -0.0746 -0.4512
v  -2.2397 0.0746 -0.4512
v  -2.2397 0.0746 0.4491
v  -2.2397 -0.0746 0.4491
v  -2.2397 0.0746 -0.0052
v  -2.2397 -0.0746 -0.0052
v  -1.4135 -0.0746 -0.1816
v  -1.9840 -0.0746 -0.5296
v  -1.9840 0.0746 -0.5296
v  -1.9057 0.0746 -0.6648
v  -1.4135 0.0746 -0.1816
v  -1.8977 -0.0746 0.5244
v  -1.7970 -0.0746 0.6639
v  -1.4135 -0.0746 0.1665
v  -1.4135 0.0746 0.1665
v  -1.8977 0.0746 0.5244
v  -1.4304 -0.0746 -0.0060
v  -2.0993 -0.0746 -0.0051
v  -2.0319 -0.0746 0.3156
v  -2.0319 -0.0746 -0.3265
v  -1.4304 0.0746 -0.0060
v  -2.0993 0.0746 -0.0051
v  -2.0319 0.0746 -0.3265
v  -2.0319 0.0746 0.3156
# 92 vertices

vn 0.9998 0.0000 -0.0202
vn 0.6754 0.0000 -0.7375
vn 0.7280 0.0000 0.6856
vn -0.0392 0.0000 -0.9992
vn -0.0025 0.9979 -0.0649
vn -0.0025 -0.9979 -0.0649
vn 0.0912 -0.9902 -0.1053
vn -0.0546 -0.9974 -0.0470
vn 0.0524 -0.9975 -0.0470
vn -0.5705 0.0000 -0.8213
vn -0.8745 0.0000 -0.4850
vn 0.6549 0.0000 -0.7557
vn -0.7575 0.0000 -0.6529
vn 0.7439 0.0000 -0.6683
vn 0.8598 0.0000 -0.5107
vn 0.0592 0.9959 -0.0683
vn -0.0808 0.9943 -0.0696
vn 0.0399 0.9986 -0.0359
vn 0.0355 0.9986 -0.0387
vn 0.0408 0.9983 -0.0416
vn -0.0004 0.9991 -0.0417
vn -0.0133 0.9987 -0.0485
vn 0.0000 1.0000 -0.0000
vn 0.0235 0.9994 -0.0243
vn 0.0239 0.9987 -0.0445
vn -0.0000 0.0000 1.0000
vn 0.6731 0.0000 0.7395
vn -0.7534 0.0000 0.6576
vn 0.6621 0.0000 0.7494
vn 0.0000 0.0000 1.0000
vn 0.0355 -0.9986 -0.0387
vn 0.0406 -0.9983 -0.0417
vn -0.0002 -0.9991 -0.0418
vn -0.0133 -0.9987 -0.0485
vn 0.0000 -1.0000 -0.0000
vn 0.0354 -0.9991 -0.0213
vn 0.0239 -0.9987 -0.0445
vn 0.0006 0.0000 -1.0000
vn 0.0000 0.9992 -0.0387
vn 0.0000 -0.9992 -0.0387
vn 0.0000 0.0000 -1.0000
vn -0.0106 0.9985 -0.0532
vn -0.0106 -0.9985 -0.0532
vn 0.0000 0.9990 -0.0442
vn 0.0000 -0.9990 -0.0442
vn 0.5739 0.0000 -0.8189
vn 0.0283 0.9988 -0.0404
vn 0.0283 -0.9988 -0.0404
vn -0.6915 0.0000 -0.7224
vn -0.0149 0.9986 -0.0499
vn -0.0149 -0.9986 -0.0499
vn 0.6990 -0.0048 -0.7151
vn -0.0065 -0.0067 -1.0000
vn 0.0265 -0.9994 -0.0241
vn 0.0315 0.9993 -0.0196
vn 0.6782 0.0000 -0.7349
vn 0.6804 0.0000 0.7328
vn -0.8141 0.0000 -0.5808
vn -0.8157 0.0000 0.5784
vn -1.0000 0.0000 -0.0000
vn -0.4703 -0.0000 0.8825
vn -0.4715 -0.0000 -0.8819
vn -0.4715 0.0000 -0.8819
vn 0.9786 0.0000 -0.2058
vn 0.9787 -0.0000 0.2052
vn 0.9787 0.0000 0.2052
vn -0.9834 0.0000 -0.1815
vn -0.4080 0.0000 -0.9130
vn 0.5208 0.0000 -0.8537
vn 0.8654 0.0000 0.5011
vn 0.0092 0.0000 1.0000
vn -0.3676 -0.0000 0.9300
vn -0.9836 -0.0000 0.1803
vn -0.3676 0.0000 0.9300
vn -0.0115 0.0000 -0.9999
vn 0.8106 0.0000 -0.5855
vn 0.5944 0.0000 0.8042
# 77 vertex normals

vt 0.7500 0.0000 1.0000
vt 0.8333 1.0000 1.0000
vt 0.7500 1.0000 1.0000
vt 0.6667 0.0000 1.0000
vt 0.6667 1.0000 1.0000
vt 0.8333 0.0000 1.0000
vt 0.7980 0.4237 1.0000
vt 0.7275 1.0000 1.0000
vt 0.7264 0.7165 1.0000
vt 0.8004 0.0000 1.0000
vt 0.7005 1.0000 1.0000
vt 0.7500 0.5000 1.0000
vt 0.8169 0.0000 1.0000
vt 0.7665 1.0000 1.0000
vt 0.7331 0.2969 1.0000
vt 0.6836 1.0000 1.0000
vt 0.7995 0.5938 1.0000
vt 0.6996 1.0000 1.0000
# 18 texture coords

g HouseKey2
s 8
f 1/1/1 2/1/2 3/2/2 4/3/1 
f 5/4/3 1/1/1 4/3/1 6/5/3 
s off
f 7/3/4 8/6/4 9/1/4 10/2/4 
f 11/5/5 7/3/5 10/2/5 
f 9/1/6 8/6/6 12/4/6 
f 13/1/7 14/6/7 15/6/7 
f 13/1/8 15/6/8 16/6/8 
f 17/1/9 13/1/9 16/6/9 
f 18/2/10 19/1/10 20/7/10 21/3/10 
f 22/3/11 23/6/11 8/6/11 7/3/11 
f 14/6/12 24/2/12 25/2/12 15/6/12 
f 15/6/13 25/2/13 26/2/13 16/6/13 
f 16/6/14 26/2/14 27/2/14 17/1/14 
f 28/1/15 29/2/15 10/2/15 9/1/15 
f 25/2/16 24/2/16 30/3/16 
f 26/2/17 25/2/17 30/3/17 
f 27/2/18 26/2/18 30/3/18 
f 6/5/19 4/3/19 3/2/19 
f 31/5/20 21/3/20 32/8/20 
f 31/5/21 32/8/21 22/3/21 
f 31/5/22 22/3/22 7/3/22 11/5/22 
f 30/3/23 33/5/23 34/5/23 
f 30/3/23 34/5/23 35/5/23 
f 30/3/24 35/5/24 36/5/24 27/2/24 
f 29/2/25 36/5/25 11/5/25 10/2/25 
f 37/4/26 38/5/26 31/5/26 39/4/26 
f 39/4/26 31/5/26 11/5/26 12/4/26 
f 33/5/27 40/4/27 41/4/27 34/5/27 
f 34/5/28 41/4/28 42/4/28 35/5/28 
f 35/5/29 42/4/29 43/4/29 36/5/29 
f 36/5/30 43/4/30 12/4/30 11/5/30 
f 2/1/31 1/1/31 5/4/31 
f 44/9/32 20/7/32 39/4/32 
f 23/6/33 44/9/33 39/4/33 
f 8/6/34 23/6/34 39/4/34 12/4/34 
f 41/4/35 40/4/35 13/1/35 
f 42/4/35 41/4/35 13/1/35 
f 43/4/36 42/4/36 13/1/36 17/1/36 
f 43/4/37 28/1/37 9/1/37 12/4/37 
f 17/1/38 27/2/38 29/2/38 28/1/38 
f 29/2/39 27/2/39 36/5/39 
f 43/4/40 17/1/40 28/1/40 
f 45/2/41 46/1/41 19/1/41 18/2/41 
f 21/3/42 31/5/42 38/5/42 18/2/42 
f 20/7/43 19/1/43 37/4/43 39/4/43 
f 45/2/44 18/2/44 38/5/44 
f 37/4/45 19/1/45 46/1/45 
f 47/2/46 48/1/46 46/1/46 45/2/46 
f 47/2/47 45/2/47 38/5/47 
f 37/4/48 46/1/48 48/1/48 
f 3/2/49 2/1/49 48/1/49 47/2/49 
f 5/4/30 6/5/30 38/5/30 37/4/30 
f 47/2/50 38/5/50 6/5/50 3/2/50 
f 37/4/51 48/1/51 2/1/51 5/4/51 
f 44/9/52 32/8/52 21/3/52 20/7/52 
f 44/9/53 23/6/53 22/3/53 32/8/53 
f 14/6/54 13/1/54 49/1/54 50/6/54 
f 24/2/41 14/6/41 50/6/41 51/2/41 
f 30/3/55 24/2/55 51/2/55 52/3/55 
f 40/4/30 33/5/30 53/5/30 54/4/30 
f 13/1/35 40/4/35 54/4/35 49/1/35 
f 33/5/23 30/3/23 52/3/23 53/5/23 
f 50/6/35 49/1/35 55/6/35 
f 51/2/56 50/6/56 55/6/56 56/2/56 
f 52/3/23 51/2/23 56/2/23 
f 54/4/57 53/5/57 57/5/57 58/4/57 
f 49/1/35 54/4/35 58/4/35 
f 53/5/23 52/3/23 57/5/23 
f 55/6/35 59/1/35 60/6/35 61/6/35 
f 56/2/41 55/6/41 61/6/41 62/2/41 
f 52/3/23 56/2/23 63/3/23 
f 58/4/30 57/5/30 64/5/30 65/4/30 
f 49/1/35 58/4/35 66/1/35 
f 57/5/23 67/3/23 68/5/23 64/5/23 
f 62/2/58 61/6/58 69/10/58 70/2/58 
f 65/4/59 64/5/59 71/11/59 72/4/59 
s 1
f 73/12/60 74/12/60 72/2/60 71/11/60 
s 2
f 70/5/60 69/10/60 74/12/60 73/12/60 
s off
f 49/1/35 75/1/35 59/1/35 
f 69/10/35 61/6/35 60/6/35 76/13/35 
f 62/2/23 70/2/23 77/14/23 78/2/23 
f 52/3/23 63/3/23 79/3/23 
f 65/4/35 72/4/35 80/15/35 81/4/35 
f 49/1/35 66/1/35 82/1/35 
f 52/3/23 83/3/23 67/3/23 
f 71/11/23 64/5/23 68/5/23 84/16/23 
f 49/1/35 82/1/35 85/1/35 
f 72/4/35 74/12/35 86/12/35 87/17/35 
f 74/12/35 69/10/35 88/10/35 86/12/35 
f 69/10/35 76/13/35 88/10/35 
f 52/3/23 79/3/23 89/3/23 
f 70/2/23 73/12/23 90/12/23 91/18/23 
f 73/12/23 71/11/23 92/11/23 90/12/23 
f 71/11/23 84/16/23 92/11/23 
s 1
f 88/10/61 85/1/61 89/3/61 91/18/61 
s 2
f 85/1/62 87/17/63 92/11/63 89/3/62 
s 1
f 87/17/64 86/12/64 90/12/64 92/11/64 
s 2
f 86/12/65 88/10/65 91/18/65 90/12/66 
s 1
f 59/1/67 75/1/68 79/3/68 63/3/67 
f 75/1/68 76/13/69 77/14/69 79/3/68 
s 2
f 76/13/70 60/6/70 78/2/70 77/14/70 
s 4
f 60/6/71 59/1/71 63/3/71 78/2/71 
s 5
f 82/1/72 66/1/73 67/3/73 83/3/74 
s 2
f 66/1/75 81/4/75 68/5/75 67/3/75 
s 1
f 81/4/76 80/15/76 84/16/76 68/5/76 
s 6
f 80/15/77 82/1/72 83/3/74 84/16/77 
s off
f 83/3/23 89/3/23 92/11/23 84/16/23 
f 77/14/23 70/2/23 91/18/23 
f 75/1/35 85/1/35 88/10/35 76/13/35 
f 80/15/35 72/4/35 87/17/35 
f 83/3/23 52/3/23 89/3/23 
f 77/14/23 91/18/23 89/3/23 79/3/23 
f 75/1/35 49/1/35 85/1/35 
f 80/15/35 87/17/35 85/1/35 82/1/35 
f 55/6/35 49/1/35 59/1/35 
f 58/4/35 65/4/35 81/4/35 66/1/35 
f 57/5/23 52/3/23 67/3/23 
f 56/2/23 62/2/23 78/2/23 63/3/23 
# 74 polygons - 44 triangles

