# 3ds Max Wavefront OBJ Exporter v0.97b - (c)2007 guruware
# File Created: 01.05.2015 22:38:25

#
# object LEGO_REG_2_Bevel
#

v  1.0088 1.2222 -0.6169
v  -1.0088 1.2222 -0.6169
v  -1.0088 1.2222 0.3744
v  1.0088 1.2222 0.3744
v  -1.0088 -1.2222 -0.6169
v  -1.0088 0.1816 0.3744
v  -0.2459 0.6927 0.3692
v  -0.4063 0.9526 0.3692
v  -0.4063 0.9526 0.6169
v  -0.2459 0.6927 0.6169
v  -0.7272 0.9526 0.3692
v  -0.7272 0.9526 0.6169
v  -0.8876 0.6927 0.3692
v  -0.8876 0.6927 0.6169
v  -0.7272 0.4327 0.3692
v  -0.7272 0.4327 0.6169
v  -0.4063 0.4327 0.3692
v  -0.4063 0.4327 0.6169
v  0.8876 0.6927 0.3692
v  0.7272 0.9526 0.3692
v  0.7272 0.9526 0.6169
v  0.8876 0.6927 0.6169
v  0.4063 0.9526 0.3692
v  0.4063 0.9526 0.6169
v  0.2459 0.6927 0.3692
v  0.2459 0.6927 0.6169
v  0.4063 0.4327 0.3692
v  0.4063 0.4327 0.6169
v  0.7272 0.4327 0.3692
v  0.7272 0.4327 0.6169
v  1.0088 -1.2222 -0.6169
v  1.0088 0.1816 0.3744
# 32 vertices

vn 0.0000 1.0000 0.0000
vn -1.0000 0.0000 0.0000
vn 1.0000 0.0000 0.0000
vn 0.4872 0.8733 0.0000
vn 1.0000 -0.0000 0.0000
vn -0.4872 0.8733 0.0000
vn -1.0000 -0.0000 0.0000
vn -0.4872 -0.8733 0.0000
vn 0.4872 -0.8733 0.0000
vn 0.0000 0.0000 1.0000
vn 0.0000 0.0000 -1.0000
vn 0.0000 -0.5769 0.8168
# 12 vertex normals

vt 0.0000 0.0000 0.0000
vt 1.0000 0.0000 0.0000
vt 1.0000 1.0000 0.0000
vt 0.0000 1.0000 0.0000
vt 0.6958 0.0000 0.0000
vt 0.6958 1.0000 0.0000
vt 0.7500 0.0000 1.0000
vt 0.9167 0.0000 1.0000
vt 0.9167 1.0000 1.0000
vt 0.7500 1.0000 1.0000
vt 1.0833 0.0000 1.0000
vt 1.0833 1.0000 1.0000
vt 0.0833 0.0000 1.0000
vt 0.2500 0.0000 1.0000
vt 0.2500 1.0000 1.0000
vt 0.0833 1.0000 1.0000
vt 0.4167 0.0000 1.0000
vt 0.4167 1.0000 1.0000
vt 0.5833 0.0000 1.0000
vt 0.5833 1.0000 1.0000
vt 0.5000 0.0000 0.2500
vt 0.9330 0.2500 0.2500
vt 0.9330 0.7500 0.2500
vt 0.5000 1.0000 0.2500
vt 0.0670 0.7500 0.2500
vt 0.0670 0.2500 0.2500
vt 0.0000 0.3042 0.0000
vt 1.0000 0.3042 0.0000
vt 0.3042 1.0000 0.0000
vt 0.3042 0.0000 0.0000
# 30 texture coords

g LEGO_REG_2_Bevel
s 32
f 1/1/1 2/2/1 3/3/1 4/4/1 
s 64
f 5/5/2 6/6/2 3/4/2 2/1/2 
s 8
f 7/7/3 8/8/4 9/9/4 10/10/5 
f 8/8/4 11/11/6 12/12/6 9/9/4 
f 11/13/6 13/14/7 14/15/2 12/16/6 
f 13/14/7 15/17/8 16/18/8 14/15/2 
f 15/17/8 17/19/9 18/20/9 16/18/8 
f 17/19/9 7/7/3 10/10/5 18/20/9 
s 1
f 14/21/10 16/22/10 18/23/10 10/24/10 9/25/10 12/26/10 
s 8
f 19/7/3 20/8/4 21/9/4 22/10/5 
f 20/8/4 23/11/6 24/12/6 21/9/4 
f 23/13/6 25/14/7 26/15/2 24/16/6 
f 25/14/7 27/17/8 28/18/8 26/15/2 
f 27/17/8 29/19/9 30/20/9 28/18/8 
f 29/19/9 19/7/3 22/10/5 30/20/9 
s 1
f 26/21/10 28/22/10 30/23/10 22/24/10 21/25/10 24/26/10 
s 2
f 2/3/11 1/4/11 31/27/11 5/28/11 
s 4
f 4/3/10 3/4/10 6/27/10 32/28/10 
s 16
f 1/2/3 4/3/3 32/29/3 31/30/3 
s off
f 32/29/12 6/27/12 5/5/12 31/27/12 
# 20 polygons

