# 3ds Max Wavefront OBJ Exporter v0.97b - (c)2007 guruware
# File Created: 01.05.2015 23:00:10

#
# object LEGO_REG_4_Piece
#

v  1.0088 1.2221 -0.6169
v  -1.0088 1.2221 -0.6169
v  -1.0088 1.2221 0.3744
v  1.0088 1.2221 0.3744
v  -1.0088 -1.2221 -0.6169
v  -1.0088 -1.2221 0.3744
v  -0.2459 -0.6326 0.3692
v  -0.4063 -0.3727 0.3692
v  -0.4063 -0.3727 0.6169
v  -0.2459 -0.6326 0.6169
v  -0.7272 -0.3727 0.3692
v  -0.7272 -0.3727 0.6169
v  -0.8876 -0.6326 0.3692
v  -0.8876 -0.6326 0.6169
v  -0.7272 -0.8925 0.3692
v  -0.7272 -0.8925 0.6169
v  -0.4063 -0.8925 0.3692
v  -0.4063 -0.8925 0.6169
v  -0.2459 0.6926 0.3692
v  -0.4063 0.9525 0.3692
v  -0.4063 0.9525 0.6169
v  -0.2459 0.6926 0.6169
v  -0.7272 0.9525 0.3692
v  -0.7272 0.9525 0.6169
v  -0.8876 0.6926 0.3692
v  -0.8876 0.6926 0.6169
v  -0.7272 0.4327 0.3692
v  -0.7272 0.4327 0.6169
v  -0.4063 0.4327 0.3692
v  -0.4063 0.4327 0.6169
v  0.8876 0.6926 0.3692
v  0.7272 0.9525 0.3692
v  0.7272 0.9525 0.6169
v  0.8876 0.6926 0.6169
v  0.4063 0.9525 0.3692
v  0.4063 0.9525 0.6169
v  0.2459 0.6926 0.3692
v  0.2459 0.6926 0.6169
v  0.4063 0.4327 0.3692
v  0.4063 0.4327 0.6169
v  0.7272 0.4327 0.3692
v  0.7272 0.4327 0.6169
v  0.8876 -0.6326 0.3692
v  0.7272 -0.3727 0.3692
v  0.7272 -0.3727 0.6169
v  0.8876 -0.6326 0.6169
v  0.4063 -0.3727 0.3692
v  0.4063 -0.3727 0.6169
v  0.2459 -0.6326 0.3692
v  0.2459 -0.6326 0.6169
v  0.4063 -0.8925 0.3692
v  0.4063 -0.8925 0.6169
v  0.7272 -0.8925 0.3692
v  0.7272 -0.8925 0.6169
v  1.0088 -1.2221 -0.6169
v  1.0088 -1.2221 0.3744
# 56 vertices

vn 0.0000 1.0000 0.0000
vn -1.0000 0.0000 0.0000
vn 1.0000 -0.0000 0.0000
vn 0.4872 0.8733 0.0000
vn -0.4872 0.8733 0.0000
vn -1.0000 -0.0000 0.0000
vn -0.4872 -0.8733 0.0000
vn 0.4872 -0.8733 0.0000
vn 0.0000 0.0000 1.0000
vn 1.0000 0.0000 0.0000
vn 0.0000 0.0000 -1.0000
vn 0.0000 -1.0000 0.0000
# 12 vertex normals

vt 0.0000 0.0000 0.0000
vt 1.0000 0.0000 0.0000
vt 1.0000 1.0000 0.0000
vt 0.0000 1.0000 0.0000
vt 0.6958 0.0000 0.0000
vt 0.6958 1.0000 0.0000
vt 0.7500 0.0000 1.0000
vt 0.9167 0.0000 1.0000
vt 0.9167 1.0000 1.0000
vt 0.7500 1.0000 1.0000
vt 1.0833 0.0000 1.0000
vt 1.0833 1.0000 1.0000
vt 0.0833 0.0000 1.0000
vt 0.2500 0.0000 1.0000
vt 0.2500 1.0000 1.0000
vt 0.0833 1.0000 1.0000
vt 0.4167 0.0000 1.0000
vt 0.4167 1.0000 1.0000
vt 0.5833 0.0000 1.0000
vt 0.5833 1.0000 1.0000
vt 0.5000 0.0000 0.2500
vt 0.9330 0.2500 0.2500
vt 0.9330 0.7500 0.2500
vt 0.5000 1.0000 0.2500
vt 0.0670 0.7500 0.2500
vt 0.0670 0.2500 0.2500
vt 0.0000 0.3042 0.0000
vt 1.0000 0.3042 0.0000
vt 0.3042 1.0000 0.0000
vt 0.3042 0.0000 0.0000
# 30 texture coords

g LEGO_REG_4_Piece
s 32
f 1/1/1 2/2/1 3/3/1 4/4/1 
s 64
f 5/5/2 6/6/2 3/4/2 2/1/2 
s 8
f 7/7/3 8/8/4 9/9/4 10/10/3 
f 8/8/4 11/11/5 12/12/5 9/9/4 
f 11/13/5 13/14/6 14/15/6 12/16/5 
f 13/14/6 15/17/7 16/18/7 14/15/6 
f 15/17/7 17/19/8 18/20/8 16/18/7 
f 17/19/8 7/7/3 10/10/3 18/20/8 
s 1
f 14/21/9 16/22/9 18/23/9 10/24/9 9/25/9 12/26/9 
s 8
f 19/7/10 20/8/4 21/9/4 22/10/3 
f 20/8/4 23/11/5 24/12/5 21/9/4 
f 23/13/5 25/14/6 26/15/2 24/16/5 
f 25/14/6 27/17/7 28/18/7 26/15/2 
f 27/17/7 29/19/8 30/20/8 28/18/7 
f 29/19/8 19/7/10 22/10/3 30/20/8 
s 1
f 26/21/9 28/22/9 30/23/9 22/24/9 21/25/9 24/26/9 
s 8
f 31/7/10 32/8/4 33/9/4 34/10/3 
f 32/8/4 35/11/5 36/12/5 33/9/4 
f 35/13/5 37/14/6 38/15/2 36/16/5 
f 37/14/6 39/17/7 40/18/7 38/15/2 
f 39/17/7 41/19/8 42/20/8 40/18/7 
f 41/19/8 31/7/10 34/10/3 42/20/8 
s 1
f 38/21/9 40/22/9 42/23/9 34/24/9 33/25/9 36/26/9 
s 8
f 43/7/10 44/8/4 45/9/4 46/10/10 
f 44/8/4 47/11/5 48/12/5 45/9/4 
f 47/13/5 49/14/6 50/15/6 48/16/5 
f 49/14/6 51/17/7 52/18/7 50/15/6 
f 51/17/7 53/19/8 54/20/8 52/18/7 
f 53/19/8 43/7/10 46/10/10 54/20/8 
s 1
f 50/21/9 52/22/9 54/23/9 46/24/9 45/25/9 48/26/9 
s 2
f 2/3/11 1/4/11 55/27/11 5/28/11 
s 4
f 4/3/9 3/4/9 6/27/9 56/28/9 
s 16
f 1/2/10 4/3/10 56/29/10 55/30/10 
s off
f 56/29/12 6/27/12 5/5/12 55/27/12 
# 34 polygons

