# 3ds Max Wavefront OBJ Exporter v0.97b - (c)2007 guruware
# File Created: 01.05.2015 22:13:27

#
# object Lolipop
#

v  4.8183 0.0000 -0.0664
v  4.0810 1.5310 -0.0664
v  4.0810 1.5310 0.0664
v  4.8183 0.0000 0.0664
v  2.4243 1.9092 -0.0664
v  2.4243 1.9092 0.0664
v  1.0957 0.8497 -0.0664
v  1.0957 0.8497 0.0664
v  1.0957 -0.8497 -0.0664
v  1.0957 -0.8497 0.0664
v  2.4243 -1.9092 -0.0664
v  2.4243 -1.9092 0.0664
v  4.0810 -1.5310 -0.0664
v  4.0810 -1.5310 0.0664
v  3.8392 0.0000 -0.1727
v  3.4705 0.7655 -0.1727
v  2.6421 0.9546 -0.1727
v  1.9779 0.4248 -0.1727
v  1.9779 -0.4248 -0.1727
v  2.6421 -0.9546 -0.1727
v  3.4705 -0.7655 -0.1727
v  2.8600 0.0000 -0.2468
v  3.4705 0.7655 0.1727
v  3.8392 0.0000 0.1727
v  2.6421 0.9546 0.1727
v  1.9779 0.4248 0.1727
v  1.9779 -0.4248 0.1727
v  2.6421 -0.9546 0.1727
v  3.4705 -0.7655 0.1727
v  2.8600 0.0000 0.2468
v  -4.8183 -0.1007 -0.0477
v  -4.8183 0.0674 -0.0477
v  1.5963 0.0674 -0.0477
v  1.5963 -0.1007 -0.0477
v  -4.8183 -0.1007 0.0525
v  1.5963 -0.1007 0.0525
v  1.5963 0.0674 0.0525
v  -4.8183 0.0674 0.0525
# 38 vertices

vn 1.0000 0.0000 0.0000
vn 0.6235 0.7818 0.0000
vn 1.0000 -0.0000 0.0000
vn -0.2225 0.9749 0.0000
vn -0.9010 0.4339 0.0000
vn -0.9010 -0.4339 0.0000
vn -0.2225 -0.9749 0.0000
vn 0.6235 -0.7818 0.0000
vn 0.0673 0.0844 -0.9942
vn 0.1079 -0.0000 -0.9942
vn 0.0963 0.0000 -0.9954
vn 0.0600 0.0753 -0.9954
vn -0.0240 0.1052 -0.9942
vn -0.0214 0.0939 -0.9954
vn -0.0972 0.0468 -0.9942
vn -0.0868 0.0418 -0.9954
vn -0.0972 -0.0468 -0.9942
vn -0.0868 -0.0418 -0.9954
vn -0.0240 -0.1052 -0.9942
vn -0.0214 -0.0939 -0.9954
vn 0.0673 -0.0844 -0.9942
vn 0.0600 -0.0753 -0.9954
vn 0.0000 0.0000 -1.0000
vn 0.1079 0.0000 0.9942
vn 0.0673 0.0844 0.9942
vn 0.0600 0.0753 0.9954
vn 0.0963 -0.0000 0.9954
vn -0.0240 0.1052 0.9942
vn -0.0214 0.0939 0.9954
vn -0.0972 0.0468 0.9942
vn -0.0868 0.0418 0.9954
vn -0.0972 -0.0468 0.9942
vn -0.0868 -0.0418 0.9954
vn -0.0240 -0.1052 0.9942
vn -0.0214 -0.0939 0.9954
vn 0.0673 -0.0844 0.9942
vn 0.0600 -0.0753 0.9954
vn 0.0000 0.0000 1.0000
vn 0.0000 -1.0000 0.0000
vn 0.0000 1.0000 0.0000
vn -1.0000 0.0000 0.0000
# 41 vertex normals

vt 0.7500 0.0000 1.0000
vt 0.8929 0.0000 1.0000
vt 0.8929 1.0000 1.0000
vt 0.7500 1.0000 1.0000
vt 1.0357 0.0000 1.0000
vt 1.0357 1.0000 1.0000
vt 0.0357 0.0000 1.0000
vt 0.1786 0.0000 1.0000
vt 0.1786 1.0000 1.0000
vt 0.0357 1.0000 1.0000
vt 0.3214 0.0000 1.0000
vt 0.3214 1.0000 1.0000
vt 0.4643 0.0000 1.0000
vt 0.4643 1.0000 1.0000
vt 0.6071 0.0000 1.0000
vt 0.6071 1.0000 1.0000
vt 0.1091 0.8117 -0.2500
vt 0.5000 1.0000 -0.2500
vt 0.5000 0.7500 -0.2500
vt 0.3045 0.6559 -0.2500
vt 0.0125 0.3887 -0.2500
vt 0.2563 0.4444 -0.2500
vt 0.2831 0.0495 -0.2500
vt 0.3915 0.2748 -0.2500
vt 0.7169 0.0495 -0.2500
vt 0.6085 0.2748 -0.2500
vt 0.9875 0.3887 -0.2500
vt 0.7437 0.4444 -0.2500
vt 0.8909 0.8117 -0.2500
vt 0.6955 0.6559 -0.2500
vt 0.5000 0.5000 -0.2500
vt 0.5000 1.0000 0.2500
vt 0.1091 0.8117 0.2500
vt 0.3045 0.6559 0.2500
vt 0.5000 0.7500 0.2500
vt 0.0125 0.3887 0.2500
vt 0.2563 0.4444 0.2500
vt 0.2831 0.0495 0.2500
vt 0.3915 0.2748 0.2500
vt 0.7169 0.0495 0.2500
vt 0.6085 0.2748 0.2500
vt 0.9875 0.3887 0.2500
vt 0.7437 0.4444 0.2500
vt 0.8909 0.8117 0.2500
vt 0.6955 0.6559 0.2500
vt 0.5000 0.5000 0.2500
vt 1.0000 0.0000 0.0000
vt 1.0000 1.0000 0.0000
vt 0.0000 1.0000 0.0000
vt 0.0000 0.0000 0.0000
# 50 texture coords

g Lolipop
s 8
f 1/1/1 2/2/2 3/3/2 4/4/3 
f 2/2/2 5/5/4 6/6/4 3/3/2 
f 5/7/4 7/8/5 8/9/5 6/10/4 
f 7/8/5 9/11/6 10/12/6 8/9/5 
f 9/11/6 11/13/7 12/14/7 10/12/6 
f 11/13/7 13/15/8 14/16/8 12/14/7 
f 13/15/8 1/1/1 4/4/3 14/16/8 
s 1
f 2/17/9 1/18/10 15/19/11 16/20/12 
f 5/21/13 2/17/9 16/20/12 17/22/14 
f 7/23/15 5/21/13 17/22/14 18/24/16 
f 9/25/17 7/23/15 18/24/16 19/26/18 
f 11/27/19 9/25/17 19/26/18 20/28/20 
f 13/29/21 11/27/19 20/28/20 21/30/22 
f 1/18/10 13/29/21 21/30/22 15/19/11 
f 16/20/12 15/19/11 22/31/23 
f 17/22/14 16/20/12 22/31/23 
f 18/24/16 17/22/14 22/31/23 
f 19/26/18 18/24/16 22/31/23 
f 20/28/20 19/26/18 22/31/23 
f 21/30/22 20/28/20 22/31/23 
f 15/19/11 21/30/22 22/31/23 
f 4/32/24 3/33/25 23/34/26 24/35/27 
f 3/33/25 6/36/28 25/37/29 23/34/26 
f 6/36/28 8/38/30 26/39/31 25/37/29 
f 8/38/30 10/40/32 27/41/33 26/39/31 
f 10/40/32 12/42/34 28/43/35 27/41/33 
f 12/42/34 14/44/36 29/45/37 28/43/35 
f 14/44/36 4/32/24 24/35/27 29/45/37 
f 24/35/27 23/34/26 30/46/38 
f 23/34/26 25/37/29 30/46/38 
f 25/37/29 26/39/31 30/46/38 
f 26/39/31 27/41/33 30/46/38 
f 27/41/33 28/43/35 30/46/38 
f 28/43/35 29/45/37 30/46/38 
f 29/45/37 24/35/27 30/46/38 
s 2
f 31/47/23 32/48/23 33/49/23 34/50/23 
s 4
f 35/50/38 36/47/38 37/48/38 38/49/38 
s 8
f 31/50/39 34/47/39 36/48/39 35/49/39 
s 32
f 33/50/40 32/47/40 38/48/40 37/49/40 
s 64
f 32/50/41 31/47/41 35/48/41 38/49/41 
# 26 polygons - 14 triangles

