# 3ds Max Wavefront OBJ Exporter v0.97b - (c)2007 guruware
# File Created: 01.05.2015 23:00:51

#
# object Lolipop_Wrapper
#

v  -2.1105 -2.0731 0.3159
v  -0.9928 -1.9614 0.0400
v  -0.7361 -1.0630 0.1686
v  -2.0159 -1.1564 0.0400
v  0.7035 -2.1480 -0.3159
v  0.7035 -1.2289 0.0400
v  2.1105 -2.0731 0.0831
v  2.1105 -1.2289 -0.0820
v  -0.5156 -0.0559 0.0400
v  -2.1105 -0.3847 0.0400
v  0.8314 -0.7319 0.0400
v  1.9078 -0.3246 0.1063
v  -0.7035 0.4596 0.0400
v  -1.9221 0.4596 0.1671
v  0.7035 0.2962 0.2661
v  2.1105 0.4596 0.0400
v  -0.7035 1.3038 -0.1674
v  -2.1105 1.3038 0.0400
v  0.7035 1.3038 0.0400
v  2.1105 1.3038 -0.0488
v  -0.7035 2.1480 0.0400
v  -2.1105 2.1480 0.1240
v  0.7035 2.1480 0.1222
v  2.1105 2.1480 0.1976
# 24 vertices

vn 0.0309 0.1030 0.9942
vn 0.1892 -0.2211 0.9567
vn 0.0191 0.0248 0.9995
vn -0.0794 0.1796 0.9805
vn 0.0523 -0.2684 0.9619
vn 0.0808 -0.1952 0.9774
vn -0.2772 0.1844 0.9430
vn -0.0434 -0.0965 0.9944
vn -0.0579 -0.0018 0.9983
vn 0.0300 -0.0500 0.9983
vn 0.0005 -0.0441 0.9990
vn -0.0407 0.0091 0.9991
vn -0.0325 0.0979 0.9947
vn 0.1176 0.0145 0.9930
vn -0.0011 -0.0107 0.9999
vn 0.1057 0.0399 0.9936
vn 0.0077 0.0064 0.9999
vn 0.1156 0.0041 0.9933
vn -0.0592 0.0476 0.9971
vn 0.0887 -0.0656 0.9939
vn 0.0288 -0.2149 0.9762
vn 0.0593 -0.0989 0.9933
vn -0.0839 -0.1215 0.9890
vn 0.0214 -0.2178 0.9758
# 24 vertex normals

vt 0.0000 0.0000 0.0000
vt 0.3333 0.0000 0.0000
vt 0.3333 0.2000 0.0000
vt 0.0000 0.2000 0.0000
vt 0.6667 0.0000 0.0000
vt 0.6667 0.2000 0.0000
vt 1.0000 0.0000 0.0000
vt 1.0000 0.2000 0.0000
vt 0.3333 0.4000 0.0000
vt 0.0000 0.4000 0.0000
vt 0.6667 0.4000 0.0000
vt 1.0000 0.4000 0.0000
vt 0.3333 0.6000 0.0000
vt 0.0000 0.6000 0.0000
vt 0.6667 0.6000 0.0000
vt 1.0000 0.6000 0.0000
vt 0.3333 0.8000 0.0000
vt 0.0000 0.8000 0.0000
vt 0.6667 0.8000 0.0000
vt 1.0000 0.8000 0.0000
vt 0.3333 1.0000 0.0000
vt 0.0000 1.0000 0.0000
vt 0.6667 1.0000 0.0000
vt 1.0000 1.0000 0.0000
# 24 texture coords

g Lolipop_Wrapper
s 1
f 1/1/1 2/2/2 3/3/3 4/4/4 
f 2/2/2 5/5/5 6/6/6 3/3/3 
f 5/5/5 7/7/7 8/8/8 6/6/6 
f 4/4/4 3/3/3 9/9/9 10/10/10 
f 3/3/3 6/6/6 11/11/11 9/9/9 
f 6/6/6 8/8/8 12/12/12 11/11/11 
f 10/10/10 9/9/9 13/13/13 14/14/14 
f 9/9/9 11/11/11 15/15/15 13/13/13 
f 11/11/11 12/12/12 16/16/16 15/15/15 
f 14/14/14 13/13/13 17/17/17 18/18/18 
f 13/13/13 15/15/15 19/19/19 17/17/17 
f 15/15/15 16/16/16 20/20/20 19/19/19 
f 18/18/18 17/17/17 21/21/21 22/22/22 
f 17/17/17 19/19/19 23/23/23 21/21/21 
f 19/19/19 20/20/20 24/24/24 23/23/23 
# 15 polygons

