# 3ds Max Wavefront OBJ Exporter v0.97b - (c)2007 guruware
# File Created: 01.05.2015 22:13:05

#
# object NES_Cartridge
#

v  -12.5802 -54.1926 -1.2659
v  -8.6466 -54.1926 -1.2659
v  -8.6466 -72.1983 -1.2659
v  -12.5802 -72.1983 -1.2659
v  -8.6466 -54.1926 1.2659
v  -12.5802 -54.1926 1.2659
v  -12.5802 -72.1983 1.2659
v  -8.6466 -72.1983 1.2659
v  12.5802 -61.9820 -1.2659
v  12.5802 -61.9820 1.2659
v  12.5802 -72.1983 1.2659
v  12.5802 -72.1983 -1.2659
v  -8.6466 -53.1926 -1.2659
v  -8.6466 -53.1926 1.2659
v  12.5802 -53.1926 1.2659
v  12.5802 -53.1926 -1.2659
v  -12.3637 -71.1213 -0.1889
v  -12.3637 -71.1213 0.1889
v  -12.3637 -55.2697 0.1889
v  -12.3637 -55.2697 -0.1889
v  -12.5802 -72.0188 -1.0864
v  -12.5802 -54.3721 -1.0864
v  -12.5802 -72.0188 1.0864
v  -12.5802 -54.3721 1.0864
v  -10.4230 -72.0188 -1.0864
v  -10.4230 -54.3721 -1.0864
v  -10.4230 -72.0188 1.0864
v  -10.4230 -54.3721 1.0864
v  -10.4230 -71.1213 -0.1889
v  -10.4230 -55.2697 -0.1889
v  -10.4230 -71.1213 0.1889
v  -10.4230 -55.2697 0.1889
v  12.5802 -54.1926 -1.2659
v  12.5802 -57.0883 -1.2659
v  12.5802 -73.1983 -1.2659
v  12.5802 -73.1983 1.2659
v  -8.6466 -73.1983 1.2659
v  -8.6466 -73.1983 -1.2659
v  12.5802 -54.1926 1.2659
v  12.5802 -57.0883 1.2659
v  8.0190 -61.9820 1.2659
v  8.0190 -57.0883 1.2659
v  12.5802 -57.0883 0.1889
v  8.0190 -57.0883 0.1889
v  8.0190 -61.9820 0.1889
v  12.5802 -61.9820 0.1889
# 46 vertices

vn 0.0000 0.0000 -1.0000
vn 0.0000 0.0000 1.0000
vn 0.0000 -1.0000 0.0000
vn 1.0000 0.0000 0.0000
vn 0.0000 1.0000 0.0000
vn -1.0000 0.0000 0.0000
vn 0.7315 -0.6818 0.0000
# 7 vertex normals

vt 1.0000 1.0000 0.0000
vt 0.8437 1.0000 0.0000
vt 0.8437 0.0000 0.0000
vt 1.0000 0.0000 0.0000
vt 0.1563 1.0000 0.0000
vt 0.0000 1.0000 0.0000
vt 0.0000 0.0000 0.0000
vt 0.1563 0.0000 0.0000
vt 0.6508 0.0000 0.0000
vt 0.6508 1.0000 0.0000
vt 0.0000 0.8392 0.0000
vt 0.0000 0.6508 0.0000
vt 0.8392 1.0000 0.0000
vt 0.8392 0.0000 0.0000
vt 1.0000 0.6508 0.0000
vt 0.8601 0.6508 0.0000
vt 0.8601 0.8392 0.0000
vt 1.0000 0.8392 0.0000
vt 0.0000 0.1374 0.0000
vt 0.1563 0.1374 0.0000
# 20 texture coords

g NES_Cartridge
s 2
f 1/1/1 2/2/1 3/3/1 4/4/1 
s 4
f 5/5/2 6/6/2 7/7/2 8/8/2 
s 8
f 3/8/3 8/5/3 7/6/3 4/7/3 
s 16
f 9/9/4 10/10/4 11/6/4 12/7/4 
s 32
f 13/3/5 14/2/5 15/6/5 16/7/5 
s 64
f 17/4/6 18/1/6 19/6/6 20/7/6 
s off
f 4/4/6 21/4/6 22/7/6 1/7/6 
f 4/4/6 7/1/6 23/1/6 21/4/6 
f 6/6/6 24/6/6 23/1/6 7/1/6 
f 6/6/6 1/7/6 22/7/6 24/6/6 
f 21/4/2 25/4/2 26/7/2 22/7/2 
f 21/4/5 23/1/5 27/1/5 25/4/5 
f 24/6/1 28/6/1 27/1/1 23/1/1 
f 24/6/3 22/7/3 26/7/3 28/6/3 
f 25/4/6 29/4/6 30/7/6 26/7/6 
f 25/4/6 27/1/6 31/1/6 29/4/6 
f 28/6/6 32/6/6 31/1/6 27/1/6 
f 28/6/6 26/7/6 30/7/6 32/6/6 
f 29/4/1 17/4/1 20/7/1 30/7/1 
f 29/4/3 31/1/3 18/1/3 17/4/3 
f 32/6/2 19/6/2 18/1/2 31/1/2 
f 32/6/5 30/7/5 20/7/5 19/6/5 
s 2
f 3/3/1 2/2/1 33/6/1 34/11/1 9/12/1 12/7/1 
s 8
f 35/4/3 36/1/3 37/5/3 38/8/3 
s 32
f 1/4/5 6/1/5 5/2/5 2/3/5 
s 16
f 33/4/4 39/1/4 40/13/4 34/14/4 
s 4
f 10/15/2 41/16/2 42/17/2 40/18/2 39/1/2 5/5/2 8/8/2 11/4/2 
f 43/18/2 44/17/2 45/16/2 46/15/2 
s off
f 39/6/4 33/7/4 16/7/4 15/6/4 
f 2/3/1 13/3/1 16/7/1 33/7/1 
f 2/3/6 5/2/6 14/2/6 13/3/6 
f 39/6/2 15/6/2 14/2/2 5/2/2 
f 12/4/4 11/1/4 36/1/4 35/4/4 
f 8/5/2 37/5/2 36/1/2 11/1/2 
f 8/5/6 3/8/6 38/8/6 37/5/6 
f 12/4/1 35/4/1 38/8/1 3/8/1 
f 42/17/7 41/16/7 45/16/7 44/17/7 43/18/7 40/18/7 
f 41/16/5 10/15/5 46/15/5 45/16/5 
s 1
f 46/19/4 9/11/4 34/4/4 43/20/4 
# 39 polygons

