# 3ds Max Wavefront OBJ Exporter v0.97b - (c)2007 guruware
# File Created: 01.05.2015 22:57:50

#
# object Plane002
#

v  -2.6225 0.9738 1.2828
v  -2.6225 -8.8628 1.2828
v  12.1693 -8.8628 1.2828
v  12.1693 0.9738 1.2828
# 4 vertices

vn 0.0000 0.0000 1.0000
# 1 vertex normals

vt 0.0000 1.0000 0.0000
vt 0.0000 0.0000 0.0000
vt 1.0000 0.0000 0.0000
vt 1.0000 1.0000 0.0000
# 4 texture coords

g Plane002
s 1
f 1/1/1 2/2/1 3/3/1 4/4/1 
# 1 polygons

#
# object NES_Cartridge
#

v  -12.3285 9.0028 -1.2659
v  -8.4736 9.0028 -1.2659
v  -8.4736 -9.0028 -1.2659
v  -12.3285 -9.0028 -1.2659
v  -8.4736 9.0028 1.2659
v  -12.3285 9.0028 1.2659
v  -12.3285 -9.0028 1.2659
v  -8.4736 -9.0028 1.2659
v  12.3285 1.2135 -1.2659
v  12.3285 1.2135 1.2659
v  12.3285 -9.0028 1.2659
v  12.3285 -9.0028 -1.2659
v  -8.4736 10.0028 -1.2659
v  -8.4736 10.0028 1.2659
v  12.3285 10.0028 1.2659
v  12.3285 10.0028 -1.2659
v  -12.1163 -7.9258 -0.1889
v  -12.1163 -7.9258 0.1889
v  -12.1163 7.9258 0.1889
v  -12.1163 7.9258 -0.1889
v  -12.3285 -8.8233 -1.0864
v  -12.3285 8.8233 -1.0864
v  -12.3285 -8.8233 1.0864
v  -12.3285 8.8233 1.0864
v  -10.2145 -8.8233 -1.0864
v  -10.2145 8.8233 -1.0864
v  -10.2145 -8.8233 1.0864
v  -10.2145 8.8233 1.0864
v  -10.2145 -7.9258 -0.1889
v  -10.2145 7.9258 -0.1889
v  -10.2145 -7.9258 0.1889
v  -10.2145 7.9258 0.1889
v  12.3285 9.0028 -1.2659
v  12.3285 6.1072 -1.2659
v  12.3285 -10.0028 -1.2659
v  12.3285 -10.0028 1.2659
v  -8.4736 -10.0028 1.2659
v  -8.4736 -10.0028 -1.2659
v  12.3285 9.0028 1.2659
v  12.3285 6.1072 1.2659
v  7.8586 1.2135 1.2659
v  7.8586 6.1072 1.2659
v  12.3285 6.1072 0.1889
v  7.8586 6.1072 0.1889
v  7.8586 1.2135 0.1889
v  12.3285 1.2135 0.1889
# 46 vertices

vn 0.0000 0.0000 -1.0000
vn 0.0000 0.0000 1.0000
vn 0.0000 -1.0000 0.0000
vn 1.0000 0.0000 0.0000
vn 0.0000 1.0000 0.0000
vn -1.0000 0.0000 0.0000
vn 0.7315 -0.6818 0.0000
# 7 vertex normals

vt 1.0000 1.0000 0.0000
vt 0.8437 1.0000 0.0000
vt 0.8437 0.0000 0.0000
vt 1.0000 0.0000 0.0000
vt 0.1563 1.0000 0.0000
vt 0.0000 1.0000 0.0000
vt 0.0000 0.0000 0.0000
vt 0.1563 0.0000 0.0000
vt 0.6508 0.0000 0.0000
vt 0.6508 1.0000 0.0000
vt 0.0000 0.8392 0.0000
vt 0.0000 0.6508 0.0000
vt 0.8392 1.0000 0.0000
vt 0.8392 0.0000 0.0000
vt 1.0000 0.6508 0.0000
vt 0.8601 0.6508 0.0000
vt 0.8601 0.8392 0.0000
vt 1.0000 0.8392 0.0000
vt 0.0000 0.1374 0.0000
vt 0.1563 0.1374 0.0000
# 20 texture coords

g NES_Cartridge
s 2
f 5/5/2 6/6/2 7/7/2 8/8/2 
s 4
f 9/9/3 10/10/3 11/11/3 12/12/3 
s 8
f 7/12/4 12/9/4 11/10/4 8/11/4 
s 16
f 13/13/5 14/14/5 15/10/5 16/11/5 
s 32
f 17/7/6 18/6/6 19/10/6 20/11/6 
s 64
f 21/8/7 22/5/7 23/10/7 24/11/7 
s off
f 8/8/7 25/8/7 26/11/7 5/11/7 
f 8/8/7 11/5/7 27/5/7 25/8/7 
f 10/10/7 28/10/7 27/5/7 11/5/7 
f 10/10/7 5/11/7 26/11/7 28/10/7 
f 25/8/3 29/8/3 30/11/3 26/11/3 
f 25/8/6 27/5/6 31/5/6 29/8/6 
f 28/10/2 32/10/2 31/5/2 27/5/2 
f 28/10/4 26/11/4 30/11/4 32/10/4 
f 29/8/7 33/8/7 34/11/7 30/11/7 
f 29/8/7 31/5/7 35/5/7 33/8/7 
f 32/10/7 36/10/7 35/5/7 31/5/7 
f 32/10/7 30/11/7 34/11/7 36/10/7 
f 33/8/2 21/8/2 24/11/2 34/11/2 
f 33/8/4 35/5/4 22/5/4 21/8/4 
f 36/10/3 23/10/3 22/5/3 35/5/3 
f 36/10/6 34/11/6 24/11/6 23/10/6 
s 2
f 7/7/2 6/6/2 37/10/2 38/15/2 13/16/2 16/11/2 
s 8
f 39/8/4 40/5/4 41/9/4 42/12/4 
s 32
f 5/8/6 10/5/6 9/6/6 6/7/6 
s 16
f 37/8/5 43/5/5 44/17/5 38/18/5 
s 4
f 14/19/3 45/20/3 46/21/3 44/22/3 43/5/3 9/9/3 12/12/3 15/8/3 
f 47/22/3 48/21/3 49/20/3 50/19/3 
s off
f 43/10/5 37/11/5 20/11/5 19/10/5 
f 6/7/2 17/7/2 20/11/2 37/11/2 
f 6/7/7 9/6/7 18/6/7 17/7/7 
f 43/10/3 19/10/3 18/6/3 9/6/3 
f 16/8/5 15/5/5 40/5/5 39/8/5 
f 12/9/3 41/9/3 40/5/3 15/5/3 
f 12/9/7 7/12/7 42/12/7 41/9/7 
f 16/8/2 39/8/2 42/12/2 7/12/2 
f 46/21/8 45/20/8 49/20/8 48/21/8 47/22/8 44/22/8 
f 45/20/6 14/19/6 50/19/6 49/20/6 
s 1
f 50/23/5 13/15/5 38/8/5 47/24/5 
# 39 polygons

