# 3ds Max Wavefront OBJ Exporter v0.97b - (c)2007 guruware
# File Created: 01.05.2015 23:55:00

#
# object PaperClip
#

v  2.4081 0.0000 -0.7055
v  2.4098 0.1105 -0.5937
v  2.7704 0.1107 -0.4433
v  2.8501 0.0000 -0.5230
v  2.4120 -0.0000 -0.4842
v  2.6936 -0.0000 -0.3670
v  2.4098 -0.1105 -0.5937
v  2.7704 -0.1107 -0.4433
v  2.9070 0.1107 -0.1405
v  3.0195 0.0000 -0.1402
v  2.7985 -0.0000 -0.1417
v  2.9070 -0.1107 -0.1405
v  2.8190 0.1108 0.1640
v  2.8988 0.0000 0.2441
v  2.7433 -0.0000 0.0870
v  2.8190 -0.1108 0.1640
v  2.4588 0.1105 0.3145
v  2.4571 0.0000 0.4262
v  2.4609 -0.0000 0.2049
v  2.4588 -0.1105 0.3145
v  -2.3620 0.0000 0.7004
v  -2.3636 0.1105 0.5887
v  -2.7242 0.1107 0.4383
v  -2.8039 0.0000 0.5180
v  -2.3658 -0.0000 0.4791
v  -2.6476 -0.0000 0.3618
v  -2.3636 -0.1105 0.5887
v  -2.7242 -0.1107 0.4383
v  -2.9068 0.1107 -0.0025
v  -3.0195 0.0000 -0.0025
v  -2.7985 -0.0000 -0.0025
v  -2.9068 -0.1107 -0.0025
v  -2.7242 0.1107 -0.4433
v  -2.8039 0.0000 -0.5231
v  -2.6476 -0.0000 -0.3669
v  -2.7242 -0.1107 -0.4433
v  -2.3636 0.1105 -0.5937
v  -2.3620 0.0000 -0.7055
v  -2.3658 -0.0000 -0.4842
v  -2.3636 -0.1105 -0.5937
v  1.0237 0.0000 0.7021
v  1.0237 0.1123 0.5898
v  1.0237 -0.0000 0.4775
v  1.0237 -0.1123 0.5898
v  -1.4572 0.1105 0.3146
v  -1.4556 0.0000 0.4262
v  -1.4587 -0.0000 0.2050
v  -1.4572 -0.1105 0.3146
v  -1.6978 0.1107 0.2294
v  -1.7846 0.0000 0.3014
v  -1.6131 -0.0000 0.1617
v  -1.6978 -0.1107 0.2294
v  -1.8022 0.1107 0.0202
v  -1.9144 0.0000 0.0303
v  -1.6943 -0.0000 0.0110
v  -1.8022 -0.1107 0.0202
v  -1.7206 0.1108 -0.2260
v  -1.7931 0.0000 -0.3130
v  -1.6520 -0.0000 -0.1430
v  -1.7206 -0.1108 -0.2260
v  -1.4189 0.1105 -0.3104
v  -1.4176 0.0000 -0.4218
v  -1.4200 -0.0000 -0.2007
v  -1.4189 -0.1105 -0.3104
v  0.9658 0.1123 -0.3112
v  0.9658 0.0000 -0.4235
v  0.9658 -0.0000 -0.1989
v  0.9658 -0.1123 -0.3112
# 68 vertices

vn 0.1273 0.7048 -0.6979
vn 0.1548 0.7013 -0.6958
vn 0.2788 0.6840 -0.6741
vn 0.2781 0.6848 -0.6735
vn -0.1288 0.6966 0.7058
vn -0.1564 0.6937 0.7031
vn -0.2855 0.6708 0.6845
vn -0.2858 0.6705 0.6847
vn -0.1568 -0.6934 0.7032
vn -0.1290 -0.6967 0.7056
vn -0.2851 -0.6708 0.6847
vn -0.2850 -0.6703 0.6851
vn 0.1535 -0.7020 -0.6955
vn 0.1267 -0.7044 -0.6984
vn 0.2799 -0.6841 -0.6736
vn 0.2800 -0.6853 -0.6723
vn 0.6632 0.6868 -0.2973
vn 0.6603 0.6895 -0.2977
vn 0.6681 0.6823 -0.2967
vn 0.6702 0.6804 -0.2965
vn -0.6723 0.6726 0.3093
vn -0.6673 0.6770 0.3105
vn -0.6776 0.6678 0.3081
vn -0.6812 0.6646 0.3072
vn -0.6740 -0.6721 0.3065
vn -0.6722 -0.6754 0.3032
vn -0.6766 -0.6673 0.3113
vn -0.6791 -0.6625 0.3160
vn 0.6644 -0.6866 -0.2951
vn 0.6632 -0.6885 -0.2934
vn 0.6673 -0.6821 -0.2991
vn 0.6690 -0.6793 -0.3016
vn 0.6934 0.6907 0.2055
vn 0.6871 0.6990 0.1983
vn 0.7034 0.6768 0.2171
vn 0.7078 0.6705 0.2223
vn -0.7138 0.6755 -0.1849
vn -0.7027 0.6910 -0.1694
vn -0.7245 0.6595 -0.2004
vn -0.7322 0.6473 -0.2119
vn -0.7120 -0.6741 -0.1965
vn -0.6981 -0.6869 -0.2021
vn -0.7294 -0.6574 -0.1893
vn -0.7493 -0.6371 -0.1806
vn 0.6916 -0.6900 0.2133
vn 0.6846 -0.6965 0.2150
vn 0.7066 -0.6759 0.2096
vn 0.7168 -0.6659 0.2069
vn 0.2797 0.6851 0.6726
vn 0.2798 0.6866 0.6710
vn 0.2794 0.6818 0.6761
vn 0.2793 0.6807 0.6772
vn -0.2858 0.6710 -0.6841
vn -0.2858 0.6708 -0.6844
vn -0.2859 0.6715 -0.6836
vn -0.2859 0.6717 -0.6834
vn -0.2860 -0.6711 -0.6840
vn -0.2862 -0.6709 -0.6841
vn -0.2857 -0.6715 -0.6837
vn -0.2854 -0.6718 -0.6835
vn 0.2783 -0.6850 0.6733
vn 0.2774 -0.6860 0.6726
vn 0.2809 -0.6816 0.6756
vn 0.2822 -0.6801 0.6767
vn -0.2809 0.6814 0.6758
vn -0.2819 0.6801 0.6767
vn -0.2787 0.6842 0.6739
vn -0.2780 0.6851 0.6733
vn 0.2850 0.6715 -0.6840
vn 0.2846 0.6719 -0.6837
vn 0.2856 0.6708 -0.6844
vn 0.2859 0.6705 -0.6846
vn 0.2854 -0.6714 -0.6839
vn 0.2855 -0.6718 -0.6836
vn 0.2853 -0.6708 -0.6846
vn 0.2852 -0.6703 -0.6851
vn -0.2796 -0.6815 0.6762
vn -0.2796 -0.6806 0.6772
vn -0.2799 -0.6843 0.6733
vn -0.2800 -0.6856 0.6720
vn -0.6729 0.6852 0.2788
vn 0.6856 0.6703 -0.2840
vn 0.6856 -0.6703 -0.2840
vn -0.6729 -0.6852 0.2787
vn -0.6729 -0.6852 0.2788
vn -0.6729 0.6852 -0.2788
vn -0.6729 0.6852 -0.2787
vn 0.6856 0.6703 0.2840
vn 0.6856 -0.6703 0.2840
vn -0.6729 -0.6852 -0.2788
vn -0.2799 0.6843 -0.6733
vn -0.2800 0.6856 -0.6720
vn -0.1535 0.7020 -0.6954
vn -0.1266 0.7044 -0.6984
vn 0.2853 0.6708 0.6846
vn 0.2852 0.6703 0.6851
vn 0.1569 0.6934 0.7032
vn 0.1290 0.6967 0.7056
vn 0.2856 -0.6708 0.6844
vn 0.2859 -0.6705 0.6846
vn 0.1288 -0.6966 0.7058
vn 0.1565 -0.6937 0.7031
vn -0.2787 -0.6842 -0.6739
vn -0.2780 -0.6851 -0.6733
vn -0.1273 -0.7048 -0.6979
vn -0.1548 -0.7013 -0.6958
vn -0.0005 0.7090 0.7052
vn -0.0002 0.7055 -0.7087
vn -0.0002 -0.7055 -0.7087
vn -0.0005 -0.7090 0.7052
vn 0.0000 0.7107 0.7035
vn -0.0000 0.7040 -0.7102
vn -0.0000 -0.7040 -0.7102
vn 0.0000 -0.7107 0.7035
vn -0.2554 0.6737 0.6935
vn 0.2327 0.6602 -0.7142
vn 0.2327 -0.6602 -0.7142
vn -0.2554 -0.6737 0.6935
vn -0.6451 0.6964 0.3144
vn 0.6501 0.6820 -0.3351
vn 0.6501 -0.6820 -0.3351
vn -0.6451 -0.6964 0.3144
vn -0.7023 0.6697 -0.2415
vn 0.7245 0.6518 0.2244
vn 0.7245 -0.6518 0.2244
vn -0.7023 -0.6697 -0.2415
vn -0.1985 0.6887 -0.6973
vn 0.1897 0.6772 0.7110
vn 0.1897 -0.6772 0.7110
vn -0.1985 -0.6887 -0.6973
vn -0.0006 0.7084 -0.7058
vn -0.0004 0.7060 0.7082
vn -0.0004 -0.7060 0.7082
vn -0.0006 -0.7084 -0.7058
vn 1.0000 0.0000 0.0000
# 135 vertex normals

vt 0.0000 0.0191 0.0000
vt 0.2500 0.0228 0.0000
vt 0.2500 0.1250 0.0000
vt 0.0000 0.1250 0.0000
vt 0.5000 0.0282 0.0000
vt 0.5000 0.1250 0.0000
vt 0.7500 0.0228 0.0000
vt 0.7500 0.1250 0.0000
vt 1.0000 0.0191 0.0000
vt 1.0000 0.1250 0.0000
vt 0.2500 0.2500 0.0000
vt 0.0000 0.2500 0.0000
vt 0.5000 0.2500 0.0000
vt 0.7500 0.2500 0.0000
vt 1.0000 0.2500 0.0000
vt 0.2500 0.3750 0.0000
vt 0.0000 0.3750 0.0000
vt 0.5000 0.3750 0.0000
vt 0.7500 0.3750 0.0000
vt 1.0000 0.3750 0.0000
vt 0.2500 0.4772 0.0000
vt 0.0000 0.4809 0.0000
vt 0.5000 0.4718 0.0000
vt 0.7500 0.4772 0.0000
vt 1.0000 0.4809 0.0000
vt 0.0000 0.5191 0.0000
vt 0.2500 0.5228 0.0000
vt 0.2500 0.6250 0.0000
vt 0.0000 0.6250 0.0000
vt 0.5000 0.5282 0.0000
vt 0.5000 0.6250 0.0000
vt 0.7500 0.5228 0.0000
vt 0.7500 0.6250 0.0000
vt 1.0000 0.5191 0.0000
vt 1.0000 0.6250 0.0000
vt 0.2500 0.7500 0.0000
vt 0.0000 0.7500 0.0000
vt 0.5000 0.7500 0.0000
vt 0.7500 0.7500 0.0000
vt 1.0000 0.7500 0.0000
vt 0.2500 0.8750 0.0000
vt 0.0000 0.8750 0.0000
vt 0.5000 0.8750 0.0000
vt 0.7500 0.8750 0.0000
vt 1.0000 0.8750 0.0000
vt 0.2500 0.9772 0.0000
vt 0.0000 0.9809 0.0000
vt 0.5000 0.9718 0.0000
vt 0.7500 0.9772 0.0000
vt 1.0000 0.9809 0.0000
vt 0.1182 1.1856 0.0000
vt 0.3682 1.1819 0.0000
vt 0.6182 1.1765 0.0000
vt 0.3818 1.1765 0.0000
vt 0.6318 1.1819 0.0000
vt 0.8818 1.1856 0.0000
# 56 texture coords

g PaperClip
s 1
f 1/1/1 2/2/2 3/3/3 4/4/4 
s 2
f 2/2/5 5/5/6 6/6/7 3/3/8 
s 1
f 5/5/9 7/7/10 8/8/11 6/6/12 
s 2
f 7/7/13 1/9/14 4/10/15 8/8/16 
s 4
f 4/4/17 3/3/18 9/11/19 10/12/20 
s 8
f 3/3/21 6/6/22 11/13/23 9/11/24 
s 4
f 6/6/25 8/8/26 12/14/27 11/13/28 
s 8
f 8/8/29 4/10/30 10/15/31 12/14/32 
s 1
f 10/12/33 9/11/34 13/16/35 14/17/36 
s 2
f 9/11/37 11/13/38 15/18/39 13/16/40 
s 1
f 11/13/41 12/14/42 16/19/43 15/18/44 
s 2
f 12/14/45 10/15/46 14/20/47 16/19/48 
s 4
f 14/17/49 13/16/50 17/21/51 18/22/52 
s 8
f 13/16/53 15/18/54 19/23/55 17/21/56 
s 4
f 15/18/57 16/19/58 20/24/59 19/23/60 
s 8
f 16/19/61 14/20/62 18/25/63 20/24/64 
s 4
f 21/26/65 22/27/66 23/28/67 24/29/68 
s 8
f 22/27/69 25/30/70 26/31/71 23/28/72 
s 4
f 25/30/73 27/32/74 28/33/75 26/31/76 
s 8
f 27/32/77 21/34/78 24/35/79 28/33/80 
s 1
f 24/29/81 23/28/81 29/36/81 30/37/81 
s 2
f 23/28/82 26/31/82 31/38/82 29/36/82 
s 1
f 26/31/83 28/33/83 32/39/83 31/38/83 
s 2
f 28/33/84 24/35/84 30/40/85 32/39/85 
s 4
f 30/37/86 29/36/86 33/41/86 34/42/87 
s 8
f 29/36/88 31/38/88 35/43/88 33/41/88 
s 4
f 31/38/89 32/39/89 36/44/89 35/43/89 
s 8
f 32/39/90 30/40/90 34/45/90 36/44/90 
s 1
f 34/42/91 33/41/92 37/46/93 38/47/94 
s 2
f 33/41/95 35/43/96 39/48/97 37/46/98 
s 1
f 35/43/99 36/44/100 40/49/101 39/48/102 
s 2
f 36/44/103 34/45/104 38/50/105 40/49/106 
s 1
f 1/51/1 38/47/94 37/46/93 2/52/2 
s 2
f 2/52/5 37/46/98 39/48/97 5/53/6 
s 1
f 5/54/9 39/48/102 40/49/101 7/55/10 
s 2
f 7/55/13 40/49/106 38/50/105 1/56/14 
s off
f 22/27/107 21/26/107 41/26/107 42/27/107 
f 25/30/108 22/27/108 42/27/108 43/30/108 
f 27/32/109 25/30/109 43/30/109 44/32/109 
f 21/34/110 27/32/110 44/32/110 41/34/110 
f 18/22/111 17/21/111 45/21/111 46/22/111 
f 17/21/112 19/23/112 47/23/112 45/21/112 
f 19/23/113 20/24/113 48/24/113 47/23/113 
f 20/24/114 18/25/114 46/25/114 48/24/114 
f 46/22/115 45/21/115 49/21/115 50/22/115 
f 45/21/116 47/23/116 51/23/116 49/21/116 
f 47/23/117 48/24/117 52/24/117 51/23/117 
f 48/24/118 46/25/118 50/25/118 52/24/118 
f 50/22/119 49/21/119 53/21/119 54/22/119 
f 49/21/120 51/23/120 55/23/120 53/21/120 
f 51/23/121 52/24/121 56/24/121 55/23/121 
f 52/24/122 50/25/122 54/25/122 56/24/122 
f 54/22/123 53/21/123 57/21/123 58/22/123 
f 53/21/124 55/23/124 59/23/124 57/21/124 
f 55/23/125 56/24/125 60/24/125 59/23/125 
f 56/24/126 54/25/126 58/25/126 60/24/126 
f 58/22/127 57/21/127 61/21/127 62/22/127 
f 57/21/128 59/23/128 63/23/128 61/21/128 
f 59/23/129 60/24/129 64/24/129 63/23/129 
f 60/24/130 58/25/130 62/25/130 64/24/130 
f 62/22/131 61/21/131 65/21/131 66/22/131 
f 61/21/132 63/23/132 67/23/132 65/21/132 
f 63/23/133 64/24/133 68/24/133 67/23/133 
f 64/24/134 62/25/134 66/25/134 68/24/134 
f 44/32/135 43/30/135 42/27/135 41/26/135 
f 67/23/135 68/24/135 66/25/135 65/21/135 
# 66 polygons

