# 3ds Max Wavefront OBJ Exporter v0.97b - (c)2007 guruware
# File Created: 01.05.2015 23:51:41

#
# object Penny
#

v  0.4999 -0.0444 -0.0000
v  0.4330 -0.0444 -0.2500
v  0.4330 0.0444 -0.2500
v  0.4999 0.0444 -0.0000
v  0.2500 -0.0444 -0.4330
v  0.2500 0.0444 -0.4330
v  -0.0000 -0.0444 -0.4999
v  -0.0000 0.0444 -0.4999
v  -0.2500 -0.0444 -0.4330
v  -0.2500 0.0444 -0.4330
v  -0.4330 -0.0444 -0.2500
v  -0.4330 0.0444 -0.2500
v  -0.4999 -0.0444 -0.0000
v  -0.4999 0.0444 -0.0000
v  -0.4330 -0.0444 0.2500
v  -0.4330 0.0444 0.2500
v  -0.2500 -0.0444 0.4330
v  -0.2500 0.0444 0.4330
v  -0.0000 -0.0444 0.4999
v  -0.0000 0.0444 0.4999
v  0.2500 -0.0444 0.4330
v  0.2500 0.0444 0.4330
v  0.4330 -0.0444 0.2500
v  0.4330 0.0444 0.2500
v  0.2500 -0.0444 -0.0000
v  0.2165 -0.0444 -0.1250
v  0.0000 -0.0444 -0.0000
v  0.1250 -0.0444 -0.2165
v  -0.0000 -0.0444 -0.2500
v  -0.1250 -0.0444 -0.2165
v  -0.2165 -0.0444 -0.1250
v  -0.2500 -0.0444 -0.0000
v  -0.2165 -0.0444 0.1250
v  -0.1250 -0.0444 0.2165
v  -0.0000 -0.0444 0.2500
v  0.1250 -0.0444 0.2165
v  0.2165 -0.0444 0.1250
v  0.2165 0.0444 -0.1250
v  0.2500 0.0444 -0.0000
v  0.0000 0.0444 -0.0000
v  0.1250 0.0444 -0.2165
v  -0.0000 0.0444 -0.2500
v  -0.1250 0.0444 -0.2165
v  -0.2165 0.0444 -0.1250
v  -0.2500 0.0444 -0.0000
v  -0.2165 0.0444 0.1250
v  -0.1250 0.0444 0.2165
v  -0.0000 0.0444 0.2500
v  0.1250 0.0444 0.2165
v  0.2165 0.0444 0.1250
# 50 vertices

vn 1.0000 0.0000 0.0000
vn 0.8660 0.0000 -0.5000
vn 0.5000 0.0000 -0.8660
vn -0.0000 0.0000 -1.0000
vn -0.5000 0.0000 -0.8660
vn -0.8660 0.0000 -0.5000
vn -1.0000 0.0000 -0.0000
vn -0.8660 0.0000 0.5000
vn -0.5000 0.0000 0.8660
vn -0.0000 0.0000 1.0000
vn 0.5000 0.0000 0.8660
vn 0.8660 0.0000 0.5000
vn 0.0000 -1.0000 -0.0000
vn 0.0000 1.0000 -0.0000
# 14 vertex normals

vt 0.7500 0.0000 1.0000
vt 0.8333 0.0000 1.0000
vt 0.8333 1.0000 1.0000
vt 0.7500 1.0000 1.0000
vt 0.9167 0.0000 1.0000
vt 0.9167 1.0000 1.0000
vt 1.0000 0.0000 1.0000
vt 1.0000 1.0000 1.0000
vt 0.0000 0.0000 1.0000
vt 0.0833 0.0000 1.0000
vt 0.0833 1.0000 1.0000
vt 0.0000 1.0000 1.0000
vt 0.1667 0.0000 1.0000
vt 0.1667 1.0000 1.0000
vt 0.2500 0.0000 1.0000
vt 0.2500 1.0000 1.0000
vt 0.3333 0.0000 1.0000
vt 0.3333 1.0000 1.0000
vt 0.4167 0.0000 1.0000
vt 0.4167 1.0000 1.0000
vt 0.5000 0.0000 1.0000
vt 0.5000 1.0000 1.0000
vt 0.5833 0.0000 1.0000
vt 0.5833 1.0000 1.0000
vt 0.6667 0.0000 1.0000
vt 0.6667 1.0000 1.0000
vt 0.2500 0.9330 -0.2500
vt 0.5000 1.0000 -0.2500
vt 0.5000 0.7500 -0.2500
vt 0.3750 0.7165 -0.2500
vt 0.5000 0.5000 -0.2500
vt 0.0670 0.7500 -0.2500
vt 0.2835 0.6250 -0.2500
vt 0.0000 0.5000 -0.2500
vt 0.2500 0.5000 -0.2500
vt 0.0670 0.2500 -0.2500
vt 0.2835 0.3750 -0.2500
vt 0.2500 0.0670 -0.2500
vt 0.3750 0.2835 -0.2500
vt 0.5000 0.0000 -0.2500
vt 0.5000 0.2500 -0.2500
vt 0.7500 0.0670 -0.2500
vt 0.6250 0.2835 -0.2500
vt 0.9330 0.2500 -0.2500
vt 0.7165 0.3750 -0.2500
vt 1.0000 0.5000 -0.2500
vt 0.7500 0.5000 -0.2500
vt 0.9330 0.7500 -0.2500
vt 0.7165 0.6250 -0.2500
vt 0.7500 0.9330 -0.2500
vt 0.6250 0.7165 -0.2500
vt 0.5000 1.0000 0.2500
vt 0.2500 0.9330 0.2500
vt 0.3750 0.7165 0.2500
vt 0.5000 0.7500 0.2500
vt 0.5000 0.5000 0.2500
vt 0.0670 0.7500 0.2500
vt 0.2835 0.6250 0.2500
vt 0.0000 0.5000 0.2500
vt 0.2500 0.5000 0.2500
vt 0.0670 0.2500 0.2500
vt 0.2835 0.3750 0.2500
vt 0.2500 0.0670 0.2500
vt 0.3750 0.2835 0.2500
vt 0.5000 0.0000 0.2500
vt 0.5000 0.2500 0.2500
vt 0.7500 0.0670 0.2500
vt 0.6250 0.2835 0.2500
vt 0.9330 0.2500 0.2500
vt 0.7165 0.3750 0.2500
vt 1.0000 0.5000 0.2500
vt 0.7500 0.5000 0.2500
vt 0.9330 0.7500 0.2500
vt 0.7165 0.6250 0.2500
vt 0.7500 0.9330 0.2500
vt 0.6250 0.7165 0.2500
# 76 texture coords

g Penny
s 8
f 1/1/1 2/2/2 3/3/2 4/4/1 
f 2/2/2 5/5/3 6/6/3 3/3/2 
f 5/5/3 7/7/4 8/8/4 6/6/3 
f 7/9/4 9/10/5 10/11/5 8/12/4 
f 9/10/5 11/13/6 12/14/6 10/11/5 
f 11/13/6 13/15/7 14/16/7 12/14/6 
f 13/15/7 15/17/8 16/18/8 14/16/7 
f 15/17/8 17/19/9 18/20/9 16/18/8 
f 17/19/9 19/21/10 20/22/10 18/20/9 
f 19/21/10 21/23/11 22/24/11 20/22/10 
f 21/23/11 23/25/12 24/26/12 22/24/11 
f 23/25/12 1/1/1 4/4/1 24/26/12 
s 1
f 2/27/13 1/28/13 25/29/13 26/30/13 
f 25/29/13 27/31/13 26/30/13 
f 5/32/13 2/27/13 26/30/13 28/33/13 
f 26/30/13 27/31/13 28/33/13 
f 7/34/13 5/32/13 28/33/13 29/35/13 
f 28/33/13 27/31/13 29/35/13 
f 9/36/13 7/34/13 29/35/13 30/37/13 
f 29/35/13 27/31/13 30/37/13 
f 11/38/13 9/36/13 30/37/13 31/39/13 
f 30/37/13 27/31/13 31/39/13 
f 13/40/13 11/38/13 31/39/13 32/41/13 
f 31/39/13 27/31/13 32/41/13 
f 15/42/13 13/40/13 32/41/13 33/43/13 
f 32/41/13 27/31/13 33/43/13 
f 17/44/13 15/42/13 33/43/13 34/45/13 
f 33/43/13 27/31/13 34/45/13 
f 19/46/13 17/44/13 34/45/13 35/47/13 
f 34/45/13 27/31/13 35/47/13 
f 21/48/13 19/46/13 35/47/13 36/49/13 
f 35/47/13 27/31/13 36/49/13 
f 23/50/13 21/48/13 36/49/13 37/51/13 
f 36/49/13 27/31/13 37/51/13 
f 1/28/13 23/50/13 37/51/13 25/29/13 
f 37/51/13 27/31/13 25/29/13 
f 4/52/14 3/53/14 38/54/14 39/55/14 
f 38/54/14 40/56/14 39/55/14 
f 3/53/14 6/57/14 41/58/14 38/54/14 
f 41/58/14 40/56/14 38/54/14 
f 6/57/14 8/59/14 42/60/14 41/58/14 
f 42/60/14 40/56/14 41/58/14 
f 8/59/14 10/61/14 43/62/14 42/60/14 
f 43/62/14 40/56/14 42/60/14 
f 10/61/14 12/63/14 44/64/14 43/62/14 
f 44/64/14 40/56/14 43/62/14 
f 12/63/14 14/65/14 45/66/14 44/64/14 
f 45/66/14 40/56/14 44/64/14 
f 14/65/14 16/67/14 46/68/14 45/66/14 
f 46/68/14 40/56/14 45/66/14 
f 16/67/14 18/69/14 47/70/14 46/68/14 
f 47/70/14 40/56/14 46/68/14 
f 18/69/14 20/71/14 48/72/14 47/70/14 
f 48/72/14 40/56/14 47/70/14 
f 20/71/14 22/73/14 49/74/14 48/72/14 
f 49/74/14 40/56/14 48/72/14 
f 22/73/14 24/75/14 50/76/14 49/74/14 
f 50/76/14 40/56/14 49/74/14 
f 24/75/14 4/52/14 39/55/14 50/76/14 
f 39/55/14 40/56/14 50/76/14 
# 36 polygons - 24 triangles

