# 3ds Max Wavefront OBJ Exporter v0.97b - (c)2007 guruware
# File Created: 01.05.2015 23:54:09

#
# object SafetyPinOpen
#

v  2.1062 -0.1726 -0.0111
v  2.1087 -0.0174 0.0890
v  1.4339 -0.0174 0.0890
v  1.4339 -0.1726 -0.0111
v  2.4120 -0.1726 -0.7635
v  2.4723 -0.0174 -0.8058
v  2.4723 -0.0174 -0.2746
v  2.4120 -0.1726 -0.3169
v  2.1062 -0.1726 -1.0693
v  2.1087 -0.0174 -1.1694
v  1.4339 -0.1726 -1.0693
v  2.0117 -0.0739 -0.8333
v  1.4339 -0.0739 -0.8333
v  2.1802 -0.1342 -0.6647
v  2.1802 -0.1342 -0.4157
v  2.0117 -0.1342 -0.2471
v  1.4339 -0.1342 -0.2471
v  1.4339 0.1379 -0.0111
v  2.1062 0.1379 -0.0111
v  2.0117 0.0994 -0.2471
v  1.4339 0.0994 -0.2471
v  2.4120 0.1379 -0.3169
v  2.1802 0.0994 -0.4157
v  2.4120 0.1379 -0.7635
v  2.1802 0.0994 -0.6647
v  2.1062 0.1379 -1.0693
v  2.0117 0.0994 -0.8333
v  1.4339 0.1379 -1.0693
v  1.4339 0.0392 -0.8333
v  2.2026 -0.0174 -0.6477
v  2.2336 -0.0174 -0.3804
v  2.0735 0.0458 0.0216
v  1.6746 0.0533 0.0206
v  2.0735 -0.0805 0.0216
v  1.6746 -0.0880 0.0206
v  1.4339 -0.0174 -1.1694
v  -1.9677 0.0759 -0.0646
v  1.6772 0.0509 1.1041
v  1.6903 -0.0189 1.0542
v  -1.9556 -0.0170 -0.1321
v  -1.9826 0.0097 0.0235
v  1.6551 0.0006 1.1694
v  -1.9729 -0.0816 -0.0385
v  1.6675 -0.0696 1.1215
v  -2.1922 -0.0252 -0.2457
v  -2.2465 0.0659 -0.1985
v  -2.3029 -0.0017 -0.1323
v  -2.2544 -0.0913 -0.1737
v  -2.3148 -0.0521 -0.4732
v  -2.3928 0.0340 -0.4695
v  -2.4723 -0.0387 -0.4463
v  -2.4025 -0.1237 -0.4486
v  -2.2796 -0.0836 -0.7287
v  -2.3510 -0.0032 -0.7730
v  -2.4237 -0.0820 -0.7990
v  -2.3596 -0.1617 -0.7584
v  -2.0998 -0.1039 -0.9153
v  -2.1385 -0.0271 -0.9937
v  -2.1756 -0.1100 -1.0564
v  -2.1408 -0.1863 -0.9853
v  -1.8439 -0.1017 -0.9623
v  -1.8373 -0.0244 -1.0491
v  -1.8231 -0.1069 -1.1211
v  -1.8287 -0.1834 -1.0425
v  -1.6098 -0.0742 -0.8520
v  -1.5628 0.0080 -0.9200
v  -1.5007 -0.0688 -0.9694
v  -1.5423 -0.1496 -0.9075
v  -1.4868 -0.0282 -0.6271
v  -1.4192 0.0619 -0.6576
v  -1.3316 -0.0054 -0.6601
v  -1.3915 -0.0929 -0.6316
v  -1.5222 0.0225 -0.3738
v  -1.4602 0.1208 -0.3634
v  -1.3802 0.0642 -0.3124
v  -1.4352 -0.0305 -0.3201
v  -1.7027 0.0620 -0.1896
v  -1.6688 0.1667 -0.1504
v  -1.6276 0.1184 -0.0597
v  -1.6578 0.0183 -0.0930
v  -1.9596 0.0789 -0.1455
v  -1.9644 0.1863 -0.0996
v  -1.9793 0.1417 0.0006
v  -1.9753 0.0393 -0.0387
v  -2.1949 0.0704 -0.2594
v  -2.2337 0.1767 -0.2299
v  -2.3007 0.1301 -0.1549
v  -2.2667 0.0289 -0.1798
v  -2.3186 0.0432 -0.4886
v  -2.3746 0.1459 -0.4910
v  -2.4693 0.0932 -0.4674
v  -2.4200 -0.0047 -0.4644
v  -2.2830 0.0115 -0.7465
v  -2.3344 0.1101 -0.7832
v  -2.4209 0.0502 -0.8182
v  -2.3757 -0.0440 -0.7850
v  -2.1041 -0.0092 -0.9339
v  -2.1297 0.0871 -0.9971
v  -2.1725 0.0223 -1.0751
v  -2.1487 -0.0691 -1.0211
v  1.5084 -0.0087 -0.9790
v  1.4983 0.0834 -1.0381
v  1.4825 0.0213 -1.1329
v  1.4929 -0.0734 -1.0676
v  1.5869 0.0150 -0.5802
v  1.8587 0.0401 -0.5802
v  1.8587 -0.0321 -0.5802
v  1.5869 -0.0321 -0.5802
v  1.6788 -0.0064 -0.2641
v  1.7668 0.0018 -0.2641
v  1.8014 -0.0024 1.1507
# 111 vertices

vn 0.3761 -0.5063 0.7760
vn 0.3450 0.0000 0.9386
vn 0.0000 -0.0000 1.0000
vn 0.0000 -0.5419 0.8404
vn 0.8483 -0.4180 -0.3251
vn 0.9162 -0.0000 -0.4008
vn 0.9162 0.0000 0.4008
vn 0.8483 -0.4180 0.3251
vn 0.3761 -0.5063 -0.7760
vn 0.3450 -0.0000 -0.9386
vn 0.0000 -0.9226 0.3859
vn -0.1527 -0.9503 0.2713
vn -0.1897 -0.9457 0.2638
vn 0.0000 -0.9542 0.2993
vn -0.1392 -0.9886 0.0579
vn -0.2038 -0.9766 0.0684
vn -0.1392 -0.9886 -0.0579
vn -0.1395 -0.9886 -0.0572
vn -0.0569 -0.9888 -0.1382
vn -0.0578 -0.9888 -0.1378
vn 0.0000 -0.9870 -0.1607
vn 0.0000 0.9870 -0.1607
vn -0.0569 0.9888 -0.1382
vn -0.0578 0.9888 -0.1378
vn -0.1392 0.9886 -0.0579
vn -0.1395 0.9886 -0.0572
vn -0.1392 0.9886 0.0579
vn -0.1395 0.9886 0.0572
vn -0.0569 0.9888 0.1382
vn -0.0738 0.9839 0.1629
vn -0.0725 0.9410 0.3307
vn -0.0992 0.9508 0.2936
vn -0.8779 -0.1350 0.4594
vn -0.6996 -0.0086 0.7145
vn -0.9168 0.0008 0.3993
vn -0.9896 0.0000 -0.1441
vn -0.8248 -0.5516 -0.1243
vn -0.1762 -0.9624 -0.2065
vn -0.0911 -0.9812 -0.1704
vn -0.0880 -0.9910 -0.1009
vn -0.1712 -0.9851 -0.0161
vn -0.8871 0.1427 0.4390
vn -0.8248 0.5516 -0.1243
vn -0.0911 0.9812 -0.1704
vn -0.1762 0.9624 -0.2065
vn -0.1712 0.9851 -0.0161
vn -0.0880 0.9910 -0.1009
vn 0.3761 0.5063 0.7760
vn 0.0000 0.5419 0.8404
vn 0.8483 0.4180 -0.3251
vn 0.8483 0.4180 0.3251
vn 0.0000 0.5419 -0.8404
vn 0.3761 0.5063 -0.7760
vn 0.0000 0.0000 -1.0000
vn 0.0000 -0.5419 -0.8404
vn -0.9742 0.0000 0.2259
vn -0.9729 0.0000 0.2312
vn -1.0000 0.0000 -0.0000
vn -0.9291 0.0000 -0.3699
vn 0.0025 0.0000 -1.0000
vn -0.1181 0.1141 -0.9864
vn -0.1181 -0.1141 -0.9864
vn 0.2892 0.5872 -0.7560
vn 0.3644 0.5858 -0.7239
vn 0.3568 0.5866 -0.7271
vn 0.2964 0.5866 -0.7537
vn -0.2291 0.7966 0.5594
vn -0.0577 0.8005 0.5966
vn -0.0514 0.7997 0.5983
vn -0.2409 0.7947 0.5571
vn -0.3020 -0.5575 0.7733
vn -0.1005 -0.5726 0.8136
vn -0.0895 -0.5718 0.8155
vn -0.2942 -0.5573 0.7764
vn 0.2292 -0.8203 -0.5241
vn 0.3211 -0.8058 -0.4976
vn 0.3139 -0.8068 -0.5006
vn 0.2193 -0.8214 -0.5265
vn 0.5109 0.6154 -0.6002
vn 0.5114 0.6153 -0.5999
vn -0.4650 0.7864 0.4066
vn -0.4646 0.7870 0.4058
vn -0.5353 -0.5756 0.6182
vn -0.5346 -0.5763 0.6181
vn 0.4365 -0.8183 -0.3740
vn 0.4366 -0.8182 -0.3740
vn 0.7205 0.6608 -0.2104
vn 0.7205 0.6608 -0.2101
vn -0.6697 0.7420 0.0319
vn -0.6695 0.7422 0.0320
vn -0.7524 -0.6240 0.2111
vn -0.7525 -0.6237 0.2114
vn 0.6291 -0.7771 -0.0202
vn 0.6292 -0.7770 -0.0199
vn 0.6581 0.7149 0.2362
vn 0.6580 0.7149 0.2365
vn -0.6149 0.6912 -0.3796
vn -0.6148 0.6914 -0.3795
vn -0.6862 -0.6814 -0.2545
vn -0.6865 -0.6812 -0.2544
vn 0.5770 -0.7302 0.3659
vn 0.5769 -0.7302 0.3661
vn 0.3366 0.7503 0.5691
vn 0.3363 0.7503 0.5692
vn -0.3343 0.6590 -0.6738
vn -0.3343 0.6592 -0.6736
vn -0.3511 -0.7191 -0.5997
vn -0.3514 -0.7189 -0.5997
vn 0.3144 -0.7009 0.6402
vn 0.3142 -0.7009 0.6404
vn -0.1295 0.7453 0.6541
vn -0.1298 0.7453 0.6540
vn 0.0560 0.6620 -0.7474
vn 0.0558 0.6621 -0.7473
vn 0.1324 -0.7149 -0.6866
vn 0.1322 -0.7147 -0.6868
vn -0.0484 -0.7044 0.7081
vn -0.0487 -0.7044 0.7081
vn -0.5639 0.6932 0.4490
vn -0.5641 0.6931 0.4487
vn 0.4043 0.7025 -0.5857
vn 0.4042 0.7026 -0.5857
vn 0.5812 -0.6619 -0.4734
vn 0.5811 -0.6618 -0.4737
vn -0.3703 -0.7426 0.5581
vn -0.3705 -0.7426 0.5579
vn -0.7958 0.6052 0.0237
vn -0.7958 0.6051 0.0234
vn 0.5833 0.7686 -0.2627
vn 0.5832 0.7687 -0.2628
vn 0.8194 -0.5722 -0.0341
vn 0.8195 -0.5721 -0.0345
vn -0.5344 -0.8040 0.2608
vn -0.5345 -0.8040 0.2605
vn -0.7272 0.5069 -0.4629
vn -0.7270 0.5068 -0.4632
vn 0.5361 0.8392 0.0911
vn 0.5360 0.8393 0.0910
vn 0.7478 -0.4724 0.4666
vn 0.7481 -0.4722 0.4663
vn -0.4906 -0.8692 -0.0626
vn -0.4905 -0.8692 -0.0629
vn -0.3742 0.4288 -0.8222
vn -0.3739 0.4288 -0.8224
vn 0.2939 0.8928 0.3415
vn 0.2939 0.8928 0.3413
vn 0.3847 -0.3936 0.8349
vn 0.3851 -0.3933 0.8349
vn -0.2700 -0.9183 -0.2897
vn -0.2698 -0.9182 -0.2898
vn 0.1352 0.3944 -0.9089
vn 0.1356 0.3943 -0.9089
vn -0.0408 0.9151 0.4011
vn -0.0407 0.9152 0.4009
vn -0.1372 -0.3597 0.9229
vn -0.1369 -0.3594 0.9231
vn 0.0323 -0.9388 -0.3429
vn 0.0325 -0.9388 -0.3429
vn 0.6081 0.4106 -0.6794
vn 0.6084 0.4106 -0.6792
vn -0.3376 0.9047 0.2599
vn -0.3375 0.9047 0.2598
vn -0.6201 -0.3777 0.6876
vn -0.6200 -0.3773 0.6879
vn 0.2982 -0.9298 -0.2158
vn 0.2984 -0.9298 -0.2157
vn 0.8597 0.4648 -0.2120
vn 0.8597 0.4648 -0.2116
vn -0.4892 0.8720 -0.0164
vn -0.4891 0.8721 -0.0164
vn -0.8758 -0.4344 0.2106
vn -0.8759 -0.4340 0.2109
vn 0.4325 -0.9011 0.0303
vn 0.4327 -0.9010 0.0305
vn 0.7868 0.5285 0.3189
vn 0.7862 0.5291 0.3194
vn -0.4506 0.8345 -0.3170
vn -0.4498 0.8351 -0.3166
vn -0.8000 -0.5005 -0.3309
vn -0.8002 -0.5008 -0.3300
vn 0.3977 -0.8691 0.2941
vn 0.3979 -0.8689 0.2944
vn 0.3426 0.5779 0.7407
vn 0.3508 0.5783 0.7365
vn -0.1972 0.8050 -0.5595
vn -0.2087 0.8061 -0.5537
vn -0.3603 -0.5427 -0.7587
vn -0.3442 -0.5427 -0.7662
vn 0.1780 -0.8509 0.4942
vn 0.1709 -0.8505 0.4974
vn 0.0104 0.5407 0.8411
vn 0.0104 0.5409 0.8410
vn -0.0053 0.8369 -0.5473
vn -0.0054 0.8359 -0.5489
vn -0.0132 -0.5689 -0.8223
vn -0.0131 -0.5678 -0.8231
vn 0.0066 -0.8083 0.5888
vn 0.0066 -0.8086 0.5883
vn -0.6981 0.0077 0.7160
vn -0.0965 0.9861 0.1353
vn -0.0912 0.9853 0.1446
vn 0.8558 0.0000 0.5173
vn 0.9106 0.0000 0.4133
vn 0.9117 0.0000 0.4108
vn 0.0000 -0.9899 0.1416
vn 0.0065 -0.9904 0.1380
vn -0.9122 0.0000 0.4098
vn -0.9134 0.0000 0.4072
vn -0.0926 0.9913 0.0932
vn -0.0933 0.9913 0.0928
vn 0.9603 0.0000 0.2790
vn 0.0533 -0.9956 0.0767
vn 0.0936 -0.9942 0.0536
vn -0.9603 0.0000 0.2790
vn -0.0796 -0.5402 -0.8377
vn -0.1334 -0.0000 -0.9911
vn -0.3454 -0.9262 0.1508
vn -0.3454 0.9262 0.1508
vn -0.0796 0.5402 -0.8377
vn 0.4916 0.5657 -0.6621
vn 0.0960 0.7729 0.6273
vn 0.0946 -0.5494 0.8302
vn 0.4785 -0.7718 -0.4187
# 223 vertex normals

vt 0.7317 0.0000 0.0000
vt 0.7317 0.5000 0.0000
vt 0.0000 0.5000 0.0000
vt 0.0000 0.0000 0.0000
vt 0.7110 0.0000 0.0000
vt 0.7110 0.5000 0.0000
vt 0.2890 0.5000 0.0000
vt 0.2890 0.0000 0.0000
vt -1.0757 0.5000 0.0000
vt -1.0757 -0.0000 0.0000
vt 0.4559 0.0000 0.0000
vt 0.4559 0.5000 0.0000
vt -1.1585 0.5000 0.0000
vt -1.1585 -0.0000 0.0000
vt 1.0000 1.0000 0.0000
vt 0.4559 1.0000 0.0000
vt 0.2683 1.0000 0.0000
vt 0.0000 0.7110 0.0000
vt 0.0000 0.2890 0.0000
vt 0.2683 0.0000 0.0000
vt 1.0000 0.0000 0.0000
vt 1.0000 0.2890 0.0000
vt 1.0000 0.7110 0.0000
vt 0.7317 1.0000 0.0000
vt 0.0000 1.0000 0.0000
vt 0.5000 0.7110 0.0000
vt 0.5000 0.2890 0.0000
vt 0.5317 0.0000 0.0000
vt 0.4301 0.0000 0.0000
vt 0.4683 0.0000 0.0000
vt 0.5699 0.0000 0.0000
vt 0.7110 1.0000 0.0000
vt 0.2890 1.0000 0.0000
vt 1.0000 0.5000 0.0000
vt -1.0757 1.0000 0.0000
vt -1.1585 1.0000 0.0000
vt 0.4783 -0.1534 0.0856
vt 1.1184 3.4321 0.0799
vt 1.0376 3.4396 0.0004
vt 0.4004 -0.1270 0.0047
vt 0.5509 -0.1815 0.0063
vt 1.1963 3.4212 0.0006
vt 0.4781 -0.1585 -0.0740
vt 1.1182 3.4283 -0.0799
vt 0.2467 -0.3398 0.0147
vt 0.2973 -0.4040 0.0972
vt 0.3411 -0.4693 0.0199
vt 0.2954 -0.4117 -0.0621
vt -0.0002 -0.4200 0.0243
vt 0.0030 -0.4998 0.1088
vt 0.0002 -0.5800 0.0333
vt -0.0030 -0.5085 -0.0503
vt -0.2472 -0.3397 0.0339
vt -0.2902 -0.4046 0.1204
vt -0.3407 -0.4693 0.0466
vt -0.3024 -0.4111 -0.0385
vt -0.3999 -0.1296 0.0436
vt -0.4708 -0.1562 0.1319
vt -0.5513 -0.1794 0.0600
vt -0.4880 -0.1554 -0.0266
vt -0.3999 0.1303 0.0532
vt -0.4710 0.1498 0.1434
vt -0.5513 0.1788 0.0734
vt -0.4879 0.1617 -0.0147
vt -0.2470 0.3408 0.0628
vt -0.2918 0.3965 0.1548
vt -0.3409 0.4684 0.0868
vt -0.3008 0.4190 -0.0027
vt 0.0006 0.4212 0.0725
vt -0.0030 0.4905 0.1663
vt -0.0005 0.5791 0.1002
vt 0.0030 0.5176 0.0092
vt 0.2483 0.3407 0.0822
vt 0.2848 0.3971 0.1776
vt 0.3397 0.4685 0.1135
vt 0.3077 0.4185 0.0213
vt 0.4016 0.1297 0.0918
vt 0.4621 0.1533 0.1889
vt 0.5499 0.1793 0.1269
vt 0.4965 0.1583 0.0333
vt 0.4016 -0.1313 0.1015
vt 0.4622 -0.1470 0.2002
vt 0.5499 -0.1780 0.1402
vt 0.4964 -0.1643 0.0454
vt 0.2480 -0.3428 0.1112
vt 0.2864 -0.3891 0.2115
vt 0.3401 -0.4668 0.1536
vt 0.3061 -0.4261 0.0576
vt -0.0009 -0.4236 0.1209
vt 0.0030 -0.4813 0.2227
vt 0.0008 -0.5771 0.1669
vt -0.0029 -0.5264 0.0698
vt -0.2502 -0.3426 0.1307
vt -0.2795 -0.3896 0.2338
vt -0.3382 -0.4670 0.1802
vt -0.3127 -0.4256 0.0820
vt -0.4038 -0.1332 0.1401
vt -0.4547 -0.1502 0.2451
vt -0.5482 -0.1768 0.1936
vt -0.5058 -0.1603 0.0948
vt 0.1919 3.4301 0.1477
vt 0.1471 3.4278 0.2480
vt 0.0425 3.4306 0.2018
vt 0.0929 3.4321 0.0980
vt 0.5000 1.0000 0.0000
vt 1.1176 3.4303 0.0002
# 106 texture coords

g SafetyPinOpen
s 1
f 1/1/1 2/2/2 3/3/3 4/4/4 
f 5/5/5 6/6/6 7/7/7 8/8/8 
f 8/8/8 7/7/7 2/9/2 1/10/1 
f 9/11/9 10/12/10 6/13/6 5/14/5 
s 2
f 11/15/11 9/16/12 12/17/13 13/15/14 
f 9/16/12 5/18/15 14/18/16 12/17/13 
f 5/18/15 8/19/17 15/19/18 14/18/16 
f 8/19/17 1/20/19 16/20/20 15/19/18 
f 1/20/19 4/21/21 17/21/21 16/20/20 
s 4
f 18/4/22 19/1/23 20/1/24 21/4/22 
f 19/1/23 22/22/25 23/22/26 20/1/24 
f 22/22/25 24/23/27 25/23/28 23/22/26 
f 24/23/27 26/24/29 27/24/30 25/23/28 
f 28/25/31 29/25/32 27/24/30 26/24/29 
s 8
f 25/23/33 27/24/34 30/26/35 
f 25/23/33 30/26/35 31/27/36 23/22/37 
f 23/22/37 31/27/36 32/28/38 20/1/39 
f 20/1/39 32/28/38 33/29/40 21/4/41 
f 14/18/42 15/19/43 31/27/36 30/26/35 
f 15/19/43 16/20/44 34/30/45 31/27/36 
f 16/20/44 17/21/46 35/31/47 34/30/45 
s 1
f 19/24/48 18/25/49 3/3/3 2/2/2 
f 24/32/50 22/33/51 7/7/7 6/6/6 
f 28/15/52 26/17/53 10/12/10 36/34/54 
f 22/33/51 19/35/48 2/9/2 7/7/7 
f 26/17/53 24/36/50 6/13/6 10/12/10 
f 11/21/55 36/34/54 10/12/10 9/11/9 
s 8
f 13/15/56 29/25/57 28/25/58 11/21/58 
f 11/21/58 28/25/58 36/34/58 
s 1
f 31/27/59 34/30/59 32/28/59 
s 16
f 32/28/60 34/30/60 35/31/61 33/29/62 
s 1
f 37/37/63 38/38/64 39/39/65 40/40/66 
s 2
f 41/41/67 42/42/68 38/38/69 37/37/70 
s 4
f 43/43/71 44/44/72 42/42/73 41/41/74 
s 8
f 40/40/75 39/39/76 44/44/77 43/43/78 
s 1
f 40/40/66 45/45/79 46/46/80 37/37/63 
s 2
f 37/37/70 46/46/81 47/47/82 41/41/67 
s 4
f 41/41/74 47/47/83 48/48/84 43/43/71 
s 8
f 43/43/78 48/48/85 45/45/86 40/40/75 
s 1
f 45/45/79 49/49/87 50/50/88 46/46/80 
s 2
f 46/46/81 50/50/89 51/51/90 47/47/82 
s 4
f 47/47/83 51/51/91 52/52/92 48/48/84 
s 8
f 48/48/85 52/52/93 49/49/94 45/45/86 
s 1
f 49/49/87 53/53/95 54/54/96 50/50/88 
s 2
f 50/50/89 54/54/97 55/55/98 51/51/90 
s 4
f 51/51/91 55/55/99 56/56/100 52/52/92 
s 8
f 52/52/93 56/56/101 53/53/102 49/49/94 
s 1
f 53/53/95 57/57/103 58/58/104 54/54/96 
s 2
f 54/54/97 58/58/105 59/59/106 55/55/98 
s 4
f 55/55/99 59/59/107 60/60/108 56/56/100 
s 8
f 56/56/101 60/60/109 57/57/110 53/53/102 
s 1
f 57/57/103 61/61/111 62/62/112 58/58/104 
s 2
f 58/58/105 62/62/113 63/63/114 59/59/106 
s 4
f 59/59/107 63/63/115 64/64/116 60/60/108 
s 8
f 60/60/109 64/64/117 61/61/118 57/57/110 
s 1
f 61/61/111 65/65/119 66/66/120 62/62/112 
s 2
f 62/62/113 66/66/121 67/67/122 63/63/114 
s 4
f 63/63/115 67/67/123 68/68/124 64/64/116 
s 8
f 64/64/117 68/68/125 65/65/126 61/61/118 
s 1
f 65/65/119 69/69/127 70/70/128 66/66/120 
s 2
f 66/66/121 70/70/129 71/71/130 67/67/122 
s 4
f 67/67/123 71/71/131 72/72/132 68/68/124 
s 8
f 68/68/125 72/72/133 69/69/134 65/65/126 
s 1
f 69/69/127 73/73/135 74/74/136 70/70/128 
s 2
f 70/70/129 74/74/137 75/75/138 71/71/130 
s 4
f 71/71/131 75/75/139 76/76/140 72/72/132 
s 8
f 72/72/133 76/76/141 73/73/142 69/69/134 
s 1
f 73/73/135 77/77/143 78/78/144 74/74/136 
s 2
f 74/74/137 78/78/145 79/79/146 75/75/138 
s 4
f 75/75/139 79/79/147 80/80/148 76/76/140 
s 8
f 76/76/141 80/80/149 77/77/150 73/73/142 
s 1
f 77/77/143 81/81/151 82/82/152 78/78/144 
s 2
f 78/78/145 82/82/153 83/83/154 79/79/146 
s 4
f 79/79/147 83/83/155 84/84/156 80/80/148 
s 8
f 80/80/149 84/84/157 81/81/158 77/77/150 
s 1
f 81/81/151 85/85/159 86/86/160 82/82/152 
s 2
f 82/82/153 86/86/161 87/87/162 83/83/154 
s 4
f 83/83/155 87/87/163 88/88/164 84/84/156 
s 8
f 84/84/157 88/88/165 85/85/166 81/81/158 
s 1
f 85/85/159 89/89/167 90/90/168 86/86/160 
s 2
f 86/86/161 90/90/169 91/91/170 87/87/162 
s 4
f 87/87/163 91/91/171 92/92/172 88/88/164 
s 8
f 88/88/165 92/92/173 89/89/174 85/85/166 
s 1
f 89/89/167 93/93/175 94/94/176 90/90/168 
s 2
f 90/90/169 94/94/177 95/95/178 91/91/170 
s 4
f 91/91/171 95/95/179 96/96/180 92/92/172 
s 8
f 92/92/173 96/96/181 93/93/182 89/89/174 
s 1
f 93/93/175 97/97/183 98/98/184 94/94/176 
s 2
f 94/94/177 98/98/185 99/99/186 95/95/178 
s 4
f 95/95/179 99/99/187 100/100/188 96/96/180 
s 8
f 96/96/181 100/100/189 97/97/190 93/93/182 
s 1
f 97/97/183 101/101/191 102/102/192 98/98/184 
s 2
f 98/98/185 102/102/193 103/103/194 99/99/186 
s 4
f 99/99/187 103/103/195 104/104/196 100/100/188 
s 8
f 100/100/189 104/104/197 101/101/198 97/97/190 
f 27/24/34 12/17/199 30/26/35 
f 12/17/199 14/18/42 30/26/35 
s 4
f 27/24/30 29/25/32 105/25/200 106/24/201 
s 1
f 12/17/202 27/24/202 106/24/203 107/17/204 
s 2
f 13/15/14 12/17/13 107/17/205 108/15/206 
s 8
f 29/25/57 13/15/56 108/15/207 105/25/208 
s 4
f 106/24/201 105/25/200 109/105/209 110/105/210 
s 1
f 107/17/204 106/24/203 110/105/211 
s 2
f 108/15/206 107/17/205 110/105/212 109/105/213 
s 8
f 105/25/208 108/15/207 109/105/214 
s 16
f 18/25/215 33/29/62 3/3/216 
s 8
f 18/25/217 21/4/41 33/29/40 
f 35/31/47 17/21/46 4/21/218 
s 16
f 35/31/61 4/21/219 3/3/216 
f 33/29/62 35/31/61 3/3/216 
s 1
f 39/39/65 38/38/64 111/106/220 
s 2
f 38/38/69 42/42/68 111/106/221 
s 4
f 42/42/73 44/44/72 111/106/222 
s 8
f 44/44/77 39/39/76 111/106/223 
# 98 polygons - 16 triangles

