# 3ds Max Wavefront OBJ Exporter v0.97b - (c)2007 guruware
# File Created: 02.05.2015 00:04:22

#
# object ScrapPaper1
#

v  -2.1368 -0.7239 2.6416
v  -0.9603 0.6471 1.7332
v  -2.0307 0.1400 0.1884
v  -2.9131 0.7875 1.0967
v  -1.0664 0.8338 2.2071
v  0.1101 0.1369 0.5502
v  0.0040 0.6021 0.9919
v  1.1804 0.4681 0.0835
v  1.0743 -0.2120 1.6644
v  2.2508 0.4136 1.5471
v  -0.3308 0.7876 0.8249
v  -1.4012 0.1336 -0.7200
v  0.7396 0.2868 -0.3582
v  1.8099 0.0892 -0.0338
v  2.8803 0.2658 0.3831
v  -0.9801 -0.8338 -0.0835
v  -2.0505 -0.0135 -1.6284
v  0.0903 0.1233 -1.2665
v  1.1606 0.1022 -1.7332
v  2.2310 0.2625 -1.3162
v  -0.2980 -0.3362 -1.7642
v  -1.3684 0.5051 -2.5367
v  0.7723 0.2494 -2.1749
v  1.8427 0.3045 -2.6416
v  2.9131 0.0808 -2.2246
# 25 vertices

vn -0.3910 0.7933 0.4666
vn -0.0680 0.6948 0.7160
vn -0.2931 0.9476 0.1271
vn 0.8943 0.3197 0.3131
vn -0.7260 0.1515 -0.6708
vn 0.3774 0.9017 -0.2108
vn -0.6481 0.5565 -0.5200
vn -0.0573 0.6377 -0.7682
vn -0.1911 0.2210 0.9564
vn 0.1247 0.9088 0.3982
vn 0.3097 0.9499 0.0428
vn 0.6328 0.2681 -0.7264
vn 0.4036 0.9145 -0.0265
vn -0.0490 0.8950 -0.4434
vn 0.0662 0.9557 -0.2869
vn 0.0866 0.8961 -0.4353
vn 0.6865 0.5378 0.4894
vn -0.6394 0.5784 -0.5067
vn 0.1257 0.9615 0.2445
vn -0.3007 0.9447 -0.1308
vn -0.3261 0.7887 0.5212
vn 0.2721 0.4603 0.8450
vn -0.2129 0.9507 0.2256
vn 0.1853 0.8103 0.5560
vn 0.0441 0.9977 0.0514
# 25 vertex normals

vt 0.2500 0.0000 0.0000
vt 0.2500 0.2500 0.0000
vt 0.0000 0.2500 0.0000
vt 0.0000 0.0000 0.0000
vt 0.5000 0.0000 0.0000
vt 0.5000 0.2500 0.0000
vt 0.7500 0.0000 0.0000
vt 0.7500 0.2500 0.0000
vt 1.0000 0.0000 0.0000
vt 1.0000 0.2500 0.0000
vt 0.2500 0.5000 0.0000
vt 0.0000 0.5000 0.0000
vt 0.5000 0.5000 0.0000
vt 0.7500 0.5000 0.0000
vt 1.0000 0.5000 0.0000
vt 0.2500 0.7500 0.0000
vt 0.0000 0.7500 0.0000
vt 0.5000 0.7500 0.0000
vt 0.7500 0.7500 0.0000
vt 1.0000 0.7500 0.0000
vt 0.2500 1.0000 0.0000
vt 0.0000 1.0000 0.0000
vt 0.5000 1.0000 0.0000
vt 0.7500 1.0000 0.0000
vt 1.0000 1.0000 0.0000
# 25 texture coords

g ScrapPaper1
s 1
f 1/1/1 2/2/2 3/3/3 4/4/4 
f 1/1/1 5/5/5 6/6/6 2/2/2 
f 7/7/7 8/8/8 6/6/6 5/5/5 
f 7/7/7 9/9/9 10/10/10 8/8/8 
f 3/3/3 2/2/2 11/11/11 12/12/12 
f 2/2/2 6/6/6 13/13/13 11/11/11 
f 6/6/6 8/8/8 14/14/14 13/13/13 
f 8/8/8 10/10/10 15/15/15 14/14/14 
f 12/12/12 11/11/11 16/16/16 17/17/17 
f 11/11/11 13/13/13 18/18/18 16/16/16 
f 13/13/13 14/14/14 19/19/19 18/18/18 
f 14/14/14 15/15/15 20/20/20 19/19/19 
f 17/17/17 16/16/16 21/21/21 22/22/22 
f 16/16/16 18/18/18 23/23/23 21/21/21 
f 18/18/18 19/19/19 24/24/24 23/23/23 
f 19/19/19 20/20/20 25/25/25 24/24/24 
# 16 polygons

