# 3ds Max Wavefront OBJ Exporter v0.97b - (c)2007 guruware
# File Created: 01.05.2015 22:13:17

#
# object Shitty_Cellular
#

v  -16.0536 50.6280 -2.2322
v  -16.0536 60.8694 -2.2322
v  -14.3200 61.3800 -2.4765
v  -8.9679 62.2479 -3.0167
v  -8.9679 49.5136 -3.0167
v  -14.1299 50.3346 -2.7936
v  -8.9679 62.2479 2.5154
v  -14.3200 61.3800 1.9752
v  -16.0536 60.8694 1.7309
v  -16.0536 50.6280 1.7309
v  -14.1299 50.3346 2.2923
v  -8.9679 49.5136 2.5154
v  16.0536 50.9837 -3.0712
v  16.0536 60.7778 -3.0712
v  16.0536 60.7778 2.0677
v  16.0536 50.9837 2.0677
v  9.3895 62.4878 -2.9527
v  9.3895 62.4878 3.0473
v  14.6339 61.9402 2.7803
v  14.6339 61.9402 -2.9527
v  14.6339 49.8213 -2.9527
v  14.6339 49.8213 2.7803
v  9.3895 49.2737 -2.9527
v  9.3895 49.2737 3.0473
v  0.5599 62.8583 -2.9527
v  0.5599 62.8583 3.0473
v  0.5599 48.9032 -2.9527
v  0.5599 48.9032 3.0473
v  2.0028 50.4402 2.7056
v  7.9465 50.7707 2.7056
v  7.9465 60.9908 2.7056
v  2.0028 61.3214 2.7056
v  1.3415 62.5320 3.0712
v  8.6078 62.1279 3.0712
v  1.3415 49.2295 3.0712
v  8.6078 49.6336 3.0712
# 36 vertices

vn -0.0946 0.0968 -0.9908
vn -0.1396 0.0000 -0.9902
vn -0.1144 -0.0041 -0.9934
vn -0.0444 -0.0019 -0.9990
vn -0.0441 0.0215 -0.9988
vn 0.1581 0.9871 0.0258
vn -0.0733 0.0070 0.9973
vn -0.0496 -0.2889 0.9561
vn -0.1297 0.0118 0.9915
vn -0.2801 0.0000 0.9600
vn -0.1509 0.0060 0.9885
vn -0.0499 -0.0000 0.9988
vn -0.1101 -0.9939 0.0000
vn -0.1092 -0.9940 -0.0000
vn -0.1571 -0.9876 0.0000
vn 1.0000 0.0000 0.0000
vn 0.0729 0.9973 -0.0000
vn 0.0724 0.9974 -0.0000
vn 0.1039 0.9946 -0.0000
vn 0.1039 0.9946 0.0000
vn -1.0000 0.0000 0.0000
vn 0.6335 -0.7737 0.0000
vn -0.1508 -0.9886 0.0000
vn 0.6335 0.7737 0.0000
vn -0.2825 0.9593 0.0000
vn -0.0174 -0.0163 -0.9997
vn 0.0121 -0.1161 -0.9932
vn -0.0054 -0.0031 -1.0000
vn 0.0000 0.0000 -1.0000
vn -0.0287 0.0017 -0.9996
vn -0.0832 0.0000 -0.9965
vn 0.1446 -0.0815 0.9861
vn -0.0127 -0.5338 0.8455
vn 0.1114 -0.0348 0.9932
vn 0.0509 -0.0000 0.9987
vn 0.1969 0.0090 0.9804
vn 0.4486 0.0000 0.8937
vn 0.1039 -0.9946 0.0000
vn 0.0724 -0.9974 0.0000
vn 0.0729 -0.9973 0.0000
vn -0.0111 0.9999 -0.0000
vn -0.0101 0.9999 0.0000
vn 0.0033 0.0000 -1.0000
vn -0.0101 -0.9999 -0.0000
vn -0.0111 -0.9999 -0.0000
vn -0.1107 0.9939 0.0000
vn -0.1097 0.9940 0.0000
vn 0.0000 0.0000 1.0000
vn -0.0557 -0.0000 0.9984
vn -0.0557 0.0000 0.9984
vn -0.1601 0.9871 0.0000
vn 0.0033 0.0695 0.9976
vn -0.0306 0.0000 0.9995
vn 0.0033 -0.0695 0.9976
vn 0.0306 -0.0000 0.9995
vn -0.0165 -0.2973 0.9546
vn 0.4839 -0.0000 0.8751
vn -0.0165 0.2973 0.9546
vn -0.4839 0.0000 0.8751
# 59 vertex normals

vt 1.0000 0.1003 0.0000
vt 1.0000 0.8997 0.0000
vt 0.9498 1.0000 0.0000
vt 0.8663 1.0000 0.0000
vt 0.8663 0.0000 0.0000
vt 0.9498 0.0000 0.0000
vt 0.1337 1.0000 0.0000
vt 0.0502 1.0000 0.0000
vt 0.0000 0.8997 0.0000
vt 0.0000 0.1003 0.0000
vt 0.0502 0.0000 0.0000
vt 0.1337 0.0000 0.0000
vt 0.1003 0.0000 0.0000
vt 0.8997 0.0000 0.0000
vt 0.8997 1.0000 0.0000
vt 0.1003 1.0000 0.0000
vt 0.3732 0.0000 0.0000
vt 0.3732 1.0000 0.0000
vt -0.3238 0.0000 0.0000
vt -0.3238 1.0000 0.0000
vt 1.3238 1.0000 0.0000
vt 1.3238 -0.0000 0.0000
vt -0.6476 0.0000 0.0000
vt -0.6476 1.0000 0.0000
vt 0.6268 1.0000 0.0000
vt 0.6268 0.0000 0.0000
vt 0.6671 0.0000 0.0000
vt 0.6671 1.0000 0.0000
vt 0.3329 1.0000 0.0000
vt 0.3329 0.0000 0.0000
# 30 texture coords

g Shitty_Cellular
s 1
f 1/1/1 2/2/2 3/3/3 4/4/4 5/5/5 6/6/6 
f 7/7/7 8/8/8 9/9/9 10/10/10 11/11/11 12/12/12 
s 2
f 5/12/13 12/7/14 11/8/15 6/11/15 
f 13/13/16 14/14/16 15/15/16 16/16/16 
f 17/17/17 18/18/18 19/8/19 20/11/20 
f 2/13/21 1/14/21 10/15/21 9/16/21 
s 4
f 21/19/22 13/13/22 16/16/22 22/20/22 
f 11/21/23 10/15/23 1/14/23 6/22/23 
f 14/23/24 20/11/24 19/8/24 15/24/24 
f 3/19/25 2/13/25 9/16/25 8/20/25 
s 1
f 13/10/26 21/11/27 23/17/28 17/18/29 20/8/30 14/9/31 
f 15/2/32 19/3/33 18/25/34 24/26/35 22/6/36 16/1/37 
s 2
f 21/6/38 22/3/38 24/25/39 23/26/40 
f 25/27/41 26/28/42 18/18/18 17/17/17 
s 1
f 17/18/29 23/17/28 27/27/43 25/28/43 
s 2
f 23/26/40 24/25/39 28/29/44 27/30/45 
f 4/5/46 7/4/47 26/28/42 25/27/41 
s 1
f 29/30/48 30/26/48 31/25/48 32/29/48 
f 25/28/43 27/27/43 5/5/5 4/4/4 
f 28/30/49 26/29/50 7/7/7 12/12/12 
s 2
f 27/30/45 28/29/44 12/7/14 5/12/13 
f 3/6/51 8/3/51 7/4/47 4/5/46 
s off
f 18/25/52 26/29/52 33/29/52 34/25/52 
f 26/29/53 28/30/53 35/30/53 33/29/53 
f 28/30/54 24/26/54 36/26/54 35/30/54 
f 24/26/55 18/25/55 34/25/55 36/26/55 
f 34/25/56 33/29/56 32/29/56 31/25/56 
f 33/29/57 35/30/57 29/30/57 32/29/57 
f 35/30/58 36/26/58 30/26/58 29/30/58 
f 36/26/59 34/25/59 31/25/59 30/26/59 
# 30 polygons

