# 3ds Max Wavefront OBJ Exporter v0.97b - (c)2007 guruware
# File Created: 01.05.2015 23:58:40

#
# object Spoon
#

v  8.6397 -0.5142 0.0000
v  8.1900 -0.5137 -1.0191
v  8.1639 -0.4047 -1.0043
v  8.6091 -0.4051 0.0000
v  7.0221 -0.5128 -1.6455
v  7.0085 -0.4033 -1.6188
v  5.3650 -0.5112 -1.7798
v  5.3729 -0.4054 -1.7547
v  4.1927 -0.5137 -1.1059
v  4.2349 -0.4037 -1.0986
v  4.1927 -0.5137 1.1059
v  5.3650 -0.5112 1.7798
v  5.3729 -0.4054 1.7547
v  4.2349 -0.4037 1.0986
v  7.0221 -0.5128 1.6455
v  7.0085 -0.4033 1.6188
v  8.1900 -0.5137 1.0191
v  8.1639 -0.4047 1.0043
v  7.3216 -1.0517 0.0000
v  7.0794 -1.0509 -0.5541
v  6.1695 -1.0493 -0.9668
v  5.3860 -1.0487 -0.9665
v  4.7431 -1.0474 -0.5994
v  3.7485 -0.5737 0.0000
v  4.4962 -1.0468 0.0000
v  4.7431 -1.0474 0.5994
v  5.3860 -1.0487 0.9665
v  6.1695 -1.0493 0.9668
v  7.0794 -1.0509 0.5541
v  5.6769 -1.2318 0.0000
v  7.7419 -0.5929 -0.7706
v  8.0851 -0.5926 -0.0000
v  6.8414 -0.5937 -1.2460
v  5.5289 -0.5940 -1.3509
v  4.6416 -0.5949 -0.8330
v  3.9377 -0.4082 0.0000
v  4.3034 -0.5954 0.0000
v  4.6416 -0.5949 0.8330
v  5.5289 -0.5940 1.3509
v  6.8414 -0.5937 1.2460
v  7.7419 -0.5929 0.7706
v  5.5221 -0.8768 -0.0000
v  3.6395 -0.4114 -0.6254
v  3.7362 -0.2479 -0.6487
v  3.5759 -0.4176 0.0000
v  3.6395 -0.4114 0.6254
v  3.7362 -0.2479 0.6487
v  3.7690 -0.2540 0.0000
v  3.0938 -0.1875 -0.4373
v  3.2175 -0.0341 -0.4503
v  3.2175 -0.0341 0.4503
v  3.0938 -0.1875 0.4373
v  2.5710 0.0351 -0.3996
v  2.6613 0.1957 -0.3939
v  2.5710 0.0351 0.3996
v  2.6613 0.1957 0.3939
v  -2.4483 0.8815 -0.3432
v  -2.4113 1.0734 -0.3379
v  -2.4483 0.8815 0.3432
v  -2.4113 1.0734 0.3379
v  -5.9310 1.2318 -0.3627
v  -5.9243 1.0368 -0.3679
v  -7.8649 0.9001 -0.5640
v  -7.9274 1.0798 -0.5489
v  -5.9243 1.0368 0.3679
v  -7.8649 0.9001 0.5640
v  -5.9310 1.2318 0.3627
v  -7.9274 1.0798 0.5489
v  -8.5811 0.5436 -0.3843
v  -8.6397 0.7162 -0.3871
v  -8.5811 0.5436 0.3843
v  -8.6397 0.7162 0.3871
# 72 vertices

vn 0.9899 0.1415 -0.0006
vn 0.7826 0.1490 -0.6044
vn 0.7809 0.1473 -0.6070
vn 0.9899 0.1415 -0.0007
vn 0.3379 0.1648 -0.9266
vn 0.3360 0.1642 -0.9274
vn -0.2560 0.1546 -0.9542
vn -0.2569 0.1550 -0.9539
vn -0.6416 0.1571 -0.7508
vn -0.6445 0.1551 -0.7487
vn -0.6403 0.1542 0.7525
vn -0.2550 0.1550 0.9544
vn -0.2558 0.1546 0.9543
vn -0.6414 0.1570 0.7510
vn 0.3357 0.1642 0.9276
vn 0.3336 0.1648 0.9282
vn 0.7834 0.1473 0.6038
vn 0.7814 0.1490 0.6060
vn 0.5215 -0.7611 -0.3858
vn 0.6262 -0.7797 -0.0001
vn 0.4680 -0.8837 -0.0001
vn 0.3707 -0.8729 -0.3172
vn 0.2571 -0.7135 -0.6518
vn 0.1216 -0.8482 -0.5155
vn -0.1784 -0.6742 -0.7166
vn -0.1935 -0.8254 -0.5303
vn -0.6114 -0.6539 -0.4457
vn -0.4883 -0.8003 -0.3480
vn -0.8125 -0.5812 -0.0439
vn -0.6047 -0.7964 0.0086
vn -0.6013 -0.6580 0.4534
vn -0.4985 -0.7955 0.3445
vn -0.1663 -0.6872 0.7072
vn -0.1835 -0.8211 0.5404
vn 0.2518 -0.7309 0.6343
vn 0.1158 -0.8352 0.5377
vn 0.5119 -0.7667 0.3874
vn 0.3702 -0.8681 0.3308
vn -0.0402 -0.9992 0.0000
vn -0.5759 0.8175 -0.0000
vn -0.4641 0.8109 0.3565
vn -0.3531 0.8943 0.2748
vn -0.4372 0.8994 -0.0000
vn -0.2030 0.7995 0.5653
vn -0.1629 0.8840 0.4382
vn 0.1511 0.8197 0.5526
vn 0.1152 0.8791 0.4625
vn 0.5171 0.7992 0.3065
vn 0.4064 0.8644 0.2961
vn 0.7788 0.6251 -0.0531
vn 0.5854 0.8106 -0.0180
vn 0.5236 0.8059 -0.2764
vn 0.4236 0.8591 -0.2873
vn 0.1524 0.8189 -0.5533
vn 0.1162 0.8795 -0.4616
vn -0.2046 0.7989 -0.5656
vn -0.1639 0.8843 -0.4373
vn -0.4639 0.8110 -0.3565
vn -0.3531 0.8943 -0.2750
vn 0.1075 0.9942 -0.0000
vn -0.5696 0.0986 -0.8160
vn -0.5268 0.0917 -0.8450
vn -0.7507 -0.6591 -0.0451
vn -0.4750 -0.8784 -0.0521
vn -0.6291 -0.7586 0.1698
vn -0.5277 0.0935 0.8443
vn -0.5719 0.0975 0.8145
vn 0.7428 0.6681 -0.0444
vn 0.5568 0.8306 0.0102
vn 0.6619 0.7464 0.0686
vn -0.2616 0.0431 -0.9642
vn -0.2107 0.0430 -0.9766
vn -0.6542 -0.7560 -0.0192
vn -0.2107 0.0430 0.9766
vn -0.2616 0.0431 0.9642
vn 0.6260 0.7798 0.0042
vn -0.0544 0.0290 -0.9981
vn -0.0405 0.0338 -0.9986
vn -0.6542 -0.7560 0.0192
vn -0.4917 -0.8708 -0.0000
vn -0.0405 0.0338 0.9986
vn -0.0544 0.0290 0.9981
vn 0.6260 0.7798 -0.0042
vn 0.4897 0.8719 -0.0000
vn 0.0009 0.0177 -0.9998
vn 0.0021 0.0175 -0.9998
vn -0.2029 -0.9792 -0.0000
vn 0.0021 0.0175 0.9998
vn 0.0009 0.0177 0.9998
vn 0.2070 0.9783 -0.0000
vn 0.0654 0.0213 -0.9976
vn 0.0673 0.0181 -0.9976
vn -0.1278 0.0276 -0.9914
vn -0.0462 0.0396 -0.9981
vn 0.0297 -0.9996 -0.0000
vn 0.4306 -0.9025 -0.0000
vn 0.0625 0.0210 0.9978
vn 0.0617 0.0180 0.9979
vn -0.0377 0.0426 0.9984
vn -0.1089 0.0284 0.9936
vn -0.0347 0.9994 -0.0000
vn -0.4427 0.8967 -0.0000
vn -0.2459 -0.0377 -0.9686
vn -0.2281 -0.0495 -0.9724
vn 0.6999 -0.7142 -0.0000
vn -0.2563 -0.0447 0.9656
vn -0.2523 -0.0536 0.9662
vn -0.7089 0.7053 -0.0000
vn -0.9854 -0.1700 -0.0000
# 109 vertex normals

vt 0.7500 0.0000 1.0000
vt 0.8500 0.0000 1.0000
vt 0.8500 1.0000 1.0000
vt 0.7500 1.0000 1.0000
vt 0.9500 0.0000 1.0000
vt 0.9500 1.0000 1.0000
vt 1.0500 0.0000 1.0000
vt 1.0500 1.0000 1.0000
vt 0.0500 0.0000 1.0000
vt 0.1500 0.0000 1.0000
vt 0.1500 1.0000 1.0000
vt 0.0500 1.0000 1.0000
vt 0.3500 0.0000 1.0000
vt 0.4500 0.0000 1.0000
vt 0.4500 1.0000 1.0000
vt 0.3500 1.0000 1.0000
vt 0.5500 0.0000 1.0000
vt 0.5500 1.0000 1.0000
vt 0.6500 0.0000 1.0000
vt 0.6500 1.0000 1.0000
vt 0.2061 0.9045 -0.2500
vt 0.5000 1.0000 -0.2500
vt 0.5000 0.7500 -0.2500
vt 0.3531 0.7023 -0.2500
vt 0.0245 0.6545 -0.2500
vt 0.2622 0.5773 -0.2500
vt 0.0245 0.3455 -0.2500
vt 0.2622 0.4227 -0.2500
vt 0.2061 0.0955 -0.2500
vt 0.3531 0.2977 -0.2500
vt 0.5000 0.0000 -0.2500
vt 0.5000 0.2500 -0.2500
vt 0.7939 0.0955 -0.2500
vt 0.6469 0.2977 -0.2500
vt 0.9755 0.3455 -0.2500
vt 0.7378 0.4227 -0.2500
vt 0.9755 0.6545 -0.2500
vt 0.7378 0.5773 -0.2500
vt 0.7939 0.9045 -0.2500
vt 0.6469 0.7023 -0.2500
vt 0.5000 0.5000 -0.2500
vt 0.5000 1.0000 0.2500
vt 0.2061 0.9045 0.2500
vt 0.3531 0.7023 0.2500
vt 0.5000 0.7500 0.2500
vt 0.0245 0.6545 0.2500
vt 0.2622 0.5773 0.2500
vt 0.0245 0.3455 0.2500
vt 0.2622 0.4227 0.2500
vt 0.2061 0.0955 0.2500
vt 0.3531 0.2977 0.2500
vt 0.5000 0.0000 0.2500
vt 0.5000 0.2500 0.2500
vt 0.7939 0.0955 0.2500
vt 0.6469 0.2977 0.2500
vt 0.9755 0.3455 0.2500
vt 0.7378 0.4227 0.2500
vt 0.9755 0.6545 0.2500
vt 0.7378 0.5773 0.2500
vt 0.7939 0.9045 0.2500
vt 0.6469 0.7023 0.2500
vt 0.5000 0.5000 0.2500
vt 0.2500 0.0000 1.0000
vt 0.2500 1.0000 1.0000
# 64 texture coords

g Spoon
s 1
f 1/1/1 2/2/2 3/3/3 4/4/4 
f 2/2/2 5/5/5 6/6/6 3/3/3 
f 5/5/5 7/7/7 8/8/8 6/6/6 
f 7/9/7 9/10/9 10/11/10 8/12/8 
f 11/13/11 12/14/12 13/15/13 14/16/14 
f 12/14/12 15/17/15 16/18/16 13/15/13 
f 15/17/15 17/19/17 18/20/18 16/18/16 
f 17/19/17 1/1/1 4/4/4 18/20/18 
s 2
f 2/21/19 1/22/20 19/23/21 20/24/22 
f 5/25/23 2/21/19 20/24/22 21/26/24 
f 7/27/25 5/25/23 21/26/24 22/28/26 
f 9/29/27 7/27/25 22/28/26 23/30/28 
f 24/31/29 9/29/27 23/30/28 25/32/30 
f 11/33/31 24/31/29 25/32/30 26/34/32 
f 12/35/33 11/33/31 26/34/32 27/36/34 
f 15/37/35 12/35/33 27/36/34 28/38/36 
f 17/39/37 15/37/35 28/38/36 29/40/38 
f 1/22/20 17/39/37 29/40/38 19/23/21 
f 20/24/22 19/23/21 30/41/39 
f 21/26/24 20/24/22 30/41/39 
f 22/28/26 21/26/24 30/41/39 
f 23/30/28 22/28/26 30/41/39 
f 25/32/30 23/30/28 30/41/39 
f 26/34/32 25/32/30 30/41/39 
f 27/36/34 26/34/32 30/41/39 
f 28/38/36 27/36/34 30/41/39 
f 29/40/38 28/38/36 30/41/39 
f 19/23/21 29/40/38 30/41/39 
f 4/42/40 3/43/41 31/44/42 32/45/43 
f 3/43/41 6/46/44 33/47/45 31/44/42 
f 6/46/44 8/48/46 34/49/47 33/47/45 
f 8/48/46 10/50/48 35/51/49 34/49/47 
f 10/50/48 36/52/50 37/53/51 35/51/49 
f 36/52/50 14/54/52 38/55/53 37/53/51 
f 14/54/52 13/56/54 39/57/55 38/55/53 
f 13/56/54 16/58/56 40/59/57 39/57/55 
f 16/58/56 18/60/58 41/61/59 40/59/57 
f 18/60/58 4/42/40 32/45/43 41/61/59 
f 32/45/43 31/44/42 42/62/60 
f 31/44/42 33/47/45 42/62/60 
f 33/47/45 34/49/47 42/62/60 
f 34/49/47 35/51/49 42/62/60 
f 35/51/49 37/53/51 42/62/60 
f 37/53/51 38/55/53 42/62/60 
f 38/55/53 39/57/55 42/62/60 
f 39/57/55 40/59/57 42/62/60 
f 40/59/57 41/61/59 42/62/60 
f 41/61/59 32/45/43 42/62/60 
s 1
f 10/11/10 9/10/9 43/10/61 44/11/62 
s 2
f 9/10/27 24/63/29 45/63/63 43/10/64 
f 24/63/29 11/13/31 46/13/65 45/63/63 
s 1
f 11/13/11 14/16/14 47/16/66 46/13/67 
s 2
f 14/16/52 36/64/50 48/64/68 47/16/69 
f 36/64/50 10/11/48 44/11/70 48/64/68 
s 1
f 44/11/62 43/10/61 49/10/71 50/11/72 
s 2
f 43/10/64 45/63/63 49/10/73 
s 1
f 47/16/66 51/16/74 52/13/75 46/13/67 
s 2
f 47/16/69 48/64/68 51/16/76 
s 1
f 53/10/77 54/11/78 50/11/72 49/10/71 
s 2
f 52/13/79 55/13/80 53/10/80 49/10/73 
s 1
f 51/16/74 56/16/81 55/13/82 52/13/75 
s 2
f 50/11/83 54/11/84 56/16/84 51/16/76 
s 1
f 57/10/85 58/11/86 54/11/78 53/10/77 
s 2
f 55/13/80 59/13/87 57/10/87 53/10/80 
s 1
f 56/16/81 60/16/88 59/13/89 55/13/82 
s 2
f 54/11/84 58/11/90 60/16/90 56/16/84 
s 1
f 61/11/91 62/10/92 63/10/93 64/11/94 
s 2
f 62/10/95 65/13/95 66/13/96 63/10/96 
s 1
f 65/13/97 67/16/98 68/16/99 66/13/100 
s 2
f 67/16/101 61/11/101 64/11/102 68/16/102 
s 1
f 64/11/94 63/10/93 69/10/103 70/11/104 
s 2
f 66/13/96 71/13/105 69/10/105 63/10/96 
s 1
f 66/13/100 68/16/99 72/16/106 71/13/107 
s 2
f 64/11/102 70/11/108 72/16/108 68/16/102 
s 1
f 62/10/92 61/11/91 58/11/86 57/10/85 
s 2
f 59/13/87 65/13/95 62/10/95 57/10/87 
s 1
f 60/16/88 67/16/98 65/13/97 59/13/89 
s 2
f 58/11/90 61/11/101 67/16/101 60/16/90 
f 48/64/68 50/11/83 51/16/76 
f 48/64/68 44/11/70 50/11/83 
f 45/63/63 46/13/65 52/13/79 
f 45/63/63 52/13/79 49/10/73 
s 4
f 71/13/109 72/16/109 70/11/109 69/10/109 
# 57 polygons - 26 triangles

