# 3ds Max Wavefront OBJ Exporter v0.97b - (c)2007 guruware
# File Created: 02.05.2015 12:08:50

mtllib Syringe.mtl

#
# object Syringe
#

v  -4.5090 0.4935 -0.7439
v  -4.5090 0.8176 -0.0708
v  8.2874 0.8244 -0.0708
v  8.2874 0.4978 -0.6645
v  -4.5090 -0.2348 -0.9101
v  8.2874 -0.2359 -0.8613
v  -4.5090 -0.8188 -0.4443
v  8.2874 -0.8244 -0.3098
v  -4.5090 -0.8188 0.3027
v  8.2874 -0.8244 0.1682
v  -4.5090 -0.2348 0.7684
v  8.2874 -0.2359 0.7196
v  -4.5090 0.4935 0.6022
v  8.2874 0.4978 0.5228
v  -4.9648 0.3596 -0.5760
v  -4.9648 0.6029 -0.0708
v  -4.9648 -0.1870 -0.7008
v  -4.9648 -0.6254 -0.3512
v  -4.9648 -0.6254 0.2095
v  -4.9648 -0.1870 0.5591
v  -4.9648 0.3596 0.4343
v  13.0228 -0.2928 0.0495
v  13.0228 -0.2928 -0.1912
v  13.0228 -0.1047 -0.3412
v  13.0228 0.1300 -0.2877
v  13.0228 0.2344 -0.0708
v  13.0228 0.1300 0.1460
v  13.0228 -0.1047 0.1996
v  8.4989 0.8244 -0.0708
v  8.4989 0.4978 -0.6645
v  8.4600 0.4978 0.5228
v  8.3664 0.1852 2.6811
v  8.3664 -0.2196 2.6849
v  8.4345 -0.2196 2.6849
v  8.4345 0.1852 2.6811
v  8.3664 -0.5442 2.6741
v  8.4560 -0.5442 2.6741
v  8.4989 -0.8244 -0.3098
v  8.4989 -0.8244 0.1682
v  8.3729 -0.5442 -2.6741
v  8.3729 -0.2196 -2.6849
v  8.4625 -0.2196 -2.6849
v  8.4625 -0.5442 -2.6741
v  8.3729 0.1852 -2.6811
v  8.4625 0.1852 -2.6811
v  8.4600 -0.2359 0.7196
v  8.4989 -0.2359 -0.8613
v  8.5297 0.6441 -0.0708
v  8.5297 0.3854 -0.6080
v  8.5297 0.3854 0.4663
v  8.5297 -0.1958 0.5990
v  8.5297 -0.6620 0.2273
v  8.5297 -0.6620 -0.3689
v  8.5297 -0.1958 -0.7407
v  10.6955 0.3282 -0.0708
v  10.6955 0.1884 -0.3610
v  10.6955 0.1884 0.2193
v  10.6955 -0.1255 0.2910
v  10.6955 -0.3773 0.0902
v  10.6955 -0.3773 -0.2319
v  10.6955 -0.1255 -0.4326
v  12.7939 0.2344 -0.0708
v  12.7939 0.1300 -0.2877
v  12.7939 0.1300 0.1460
v  12.7939 -0.1047 0.1996
v  12.7939 -0.2928 0.0495
v  12.7939 -0.2928 -0.1912
v  12.7939 -0.1047 -0.3412
v  12.7939 0.1220 0.9685
v  12.7939 -0.1126 0.9772
v  13.0228 -0.1126 0.9772
v  13.0228 0.1220 0.9685
v  12.7939 -0.3008 0.9528
v  13.0228 -0.3008 0.9528
v  12.7939 -0.3008 -1.0945
v  12.7939 -0.1126 -1.1189
v  13.0228 -0.1126 -1.1189
v  13.0228 -0.3008 -1.0945
v  12.7939 0.1220 -1.1102
v  13.0228 0.1220 -1.1102
# 80 vertices

vn 0.0031 0.6219 -0.7831
vn 0.0010 1.0000 0.0009
vn 0.0012 1.0000 0.0010
vn 0.0035 0.6173 -0.7867
vn 0.0049 -0.2216 -0.9751
vn 0.0062 -0.2419 -0.9703
vn 0.0015 -0.9005 -0.4348
vn 0.0038 -0.9185 -0.3953
vn 0.0042 -0.8998 0.4363
vn 0.0013 -0.9179 0.3967
vn 0.0064 -0.2238 0.9746
vn 0.0049 -0.2440 0.9698
vn 0.0034 0.6231 0.7821
vn 0.0030 0.6186 0.7857
vn -0.3906 0.8294 -0.3994
vn -0.3906 0.2048 -0.8975
vn -0.3906 -0.5740 -0.7197
vn -0.3906 -0.9206 -0.0000
vn -0.3906 -0.5740 0.7197
vn -0.3906 0.2048 0.8975
vn -0.3906 0.8294 0.3994
vn 1.0000 0.0000 -0.0000
vn 0.0000 0.8762 -0.4820
vn 0.0000 0.8762 0.4820
vn 0.0000 0.0095 1.0000
vn 0.0000 -0.0333 0.9994
vn 0.0000 -1.0000 -0.0000
vn 0.0000 -0.0333 -0.9994
vn 0.0000 0.0095 -1.0000
vn -0.9991 -0.0227 0.0368
vn 0.0000 -0.9938 0.1111
vn 0.9982 0.0590 0.0114
vn 0.9999 0.0022 0.0125
vn 0.0000 0.9897 0.1434
vn -0.9992 0.0068 0.0388
vn -0.9990 0.0079 -0.0451
vn 0.0000 0.9882 -0.1532
vn 0.9998 0.0034 -0.0192
vn 0.9998 -0.0112 -0.0182
vn 0.0000 -0.9931 -0.1177
vn -0.9987 -0.0263 -0.0426
vn 0.9775 0.1872 -0.0969
vn 0.9403 0.2880 0.1814
vn 0.8051 0.1441 0.5753
vn 0.8659 -0.3110 0.3917
vn 0.9825 -0.1864 -0.0000
vn 0.9459 -0.2137 -0.2442
vn 0.9509 0.0752 -0.3003
vn 0.1303 0.8933 -0.4302
vn 0.1303 0.8933 0.4302
vn 0.1303 0.2206 0.9666
vn 0.1303 -0.6182 0.7752
vn 0.1303 -0.9915 -0.0000
vn 0.1303 -0.6182 -0.7752
vn 0.1303 0.2206 -0.9666
vn 0.0402 0.9002 -0.4335
vn 0.0402 0.9002 0.4335
vn 0.0402 0.2223 0.9741
vn 0.0402 -0.6230 0.7812
vn 0.0402 -0.9992 -0.0000
vn 0.0402 -0.6230 -0.7812
vn 0.0402 0.2223 -0.9741
vn 0.0000 0.9010 -0.4339
vn 0.0000 0.9010 0.4339
vn 0.0000 0.0370 0.9993
vn 0.0000 -0.1284 0.9917
vn 0.0000 -0.1284 -0.9917
vn 0.0000 0.0370 -0.9993
vn -1.0000 0.0000 -0.0000
vn 0.0000 -1.0000 -0.0088
vn 0.0000 1.0000 0.0097
vn 0.0000 1.0000 -0.0097
vn 0.0000 -1.0000 0.0088
# 73 vertex normals

vt 0.8929 1.0000 1.0000
vt 0.7500 1.0000 1.0000
vt 0.7500 0.0000 1.0000
vt 0.8929 0.0000 1.0000
vt 1.0357 1.0000 1.0000
vt 1.0357 0.0000 1.0000
vt 0.1786 1.0000 1.0000
vt 0.0357 1.0000 1.0000
vt 0.0357 0.0000 1.0000
vt 0.1786 0.0000 1.0000
vt 0.3214 1.0000 1.0000
vt 0.3214 0.0000 1.0000
vt 0.4643 1.0000 1.0000
vt 0.4643 0.0000 1.0000
vt 0.6071 1.0000 1.0000
vt 0.6071 0.0000 1.0000
vt 0.5000 1.0000 0.2500
vt 0.1091 0.8117 0.2500
vt 0.0125 0.3887 0.2500
vt 0.2831 0.0495 0.2500
vt 0.7169 0.0495 0.2500
vt 0.9875 0.3887 0.2500
vt 0.8909 0.8117 0.2500
# 23 texture coords

g Syringe
usemtl wire_201201201
s 8
f 1/1/1 2/2/2 3/3/3 4/4/4 
f 5/5/5 1/1/1 4/4/4 6/6/6 
f 7/7/7 5/8/5 6/9/6 8/10/8 
f 9/11/9 7/7/7 8/10/8 10/12/10 
f 11/13/11 9/11/9 10/12/10 12/14/12 
f 13/15/13 11/13/11 12/14/12 14/16/14 
f 2/2/2 13/15/13 14/16/14 3/3/3 
s off
f 2/17/15 1/18/15 15/18/15 16/17/15 
f 1/18/16 5/19/16 17/19/16 15/18/16 
f 5/19/17 7/20/17 18/20/17 17/19/17 
f 7/20/18 9/21/18 19/21/18 18/20/18 
f 9/21/19 11/22/19 20/22/19 19/21/19 
f 11/22/20 13/23/20 21/23/20 20/22/20 
f 13/23/21 2/17/21 16/17/21 21/23/21 
f 22/12/22 23/10/22 24/9/22 25/4/22 26/3/22 27/16/22 28/14/22 
f 4/4/23 3/3/23 29/3/23 30/4/23 
f 3/3/24 14/16/24 31/16/24 29/3/24 
f 32/16/25 33/14/25 34/14/25 35/16/25 
f 33/14/26 36/12/26 37/12/26 34/14/26 
f 10/12/27 8/10/27 38/10/27 39/12/27 
f 40/10/28 41/9/28 42/9/28 43/10/28 
f 41/9/29 44/4/29 45/4/29 42/9/29 
f 12/14/30 10/12/30 36/12/30 33/14/30 
f 10/12/31 39/12/31 37/12/31 36/12/31 
f 39/12/32 46/14/32 34/14/32 37/12/32 
f 46/14/33 31/16/33 35/16/33 34/14/33 
f 31/16/34 14/16/34 32/16/34 35/16/34 
f 14/16/35 12/14/35 33/14/35 32/16/35 
f 6/9/36 4/4/36 44/4/36 41/9/36 
f 4/4/37 30/4/37 45/4/37 44/4/37 
f 30/4/38 47/9/38 42/9/38 45/4/38 
f 47/9/39 38/10/39 43/10/39 42/9/39 
f 38/10/40 8/10/40 40/10/40 43/10/40 
f 8/10/41 6/9/41 41/9/41 40/10/41 
f 30/4/42 29/3/42 48/3/42 49/4/42 
f 29/3/43 31/16/43 50/16/43 48/3/43 
f 31/16/44 46/14/44 51/14/44 50/16/44 
f 46/14/45 39/12/45 52/12/45 51/14/45 
f 39/12/46 38/10/46 53/10/46 52/12/46 
f 38/10/47 47/9/47 54/9/47 53/10/47 
f 47/9/48 30/4/48 49/4/48 54/9/48 
f 49/4/49 48/3/49 55/3/49 56/4/49 
f 48/3/50 50/16/50 57/16/50 55/3/50 
f 50/16/51 51/14/51 58/14/51 57/16/51 
f 51/14/52 52/12/52 59/12/52 58/14/52 
f 52/12/53 53/10/53 60/10/53 59/12/53 
f 53/10/54 54/9/54 61/9/54 60/10/54 
f 54/9/55 49/4/55 56/4/55 61/9/55 
f 56/4/56 55/3/56 62/3/56 63/4/56 
f 55/3/57 57/16/57 64/16/57 62/3/57 
f 57/16/58 58/14/58 65/14/58 64/16/58 
f 58/14/59 59/12/59 66/12/59 65/14/59 
f 59/12/60 60/10/60 67/10/60 66/12/60 
f 60/10/61 61/9/61 68/9/61 67/10/61 
f 61/9/62 56/4/62 63/4/62 68/9/62 
f 63/4/63 62/3/63 26/3/63 25/4/63 
f 62/3/64 64/16/64 27/16/64 26/3/64 
f 69/16/65 70/14/65 71/14/65 72/16/65 
f 70/14/66 73/12/66 74/12/66 71/14/66 
f 66/12/27 67/10/27 23/10/27 22/12/27 
f 75/10/67 76/9/67 77/9/67 78/10/67 
f 76/9/68 79/4/68 80/4/68 77/9/68 
f 64/16/69 65/14/69 70/14/69 69/16/69 
f 65/14/69 66/12/69 73/12/69 70/14/69 
f 66/12/70 22/12/70 74/12/70 73/12/70 
f 22/12/22 28/14/22 71/14/22 74/12/22 
f 28/14/22 27/16/22 72/16/22 71/14/22 
f 27/16/71 64/16/71 69/16/71 72/16/71 
f 67/10/69 68/9/69 76/9/69 75/10/69 
f 68/9/69 63/4/69 79/4/69 76/9/69 
f 63/4/72 25/4/72 80/4/72 79/4/72 
f 25/4/22 24/9/22 77/9/22 80/4/22 
f 24/9/22 23/10/22 78/10/22 77/9/22 
f 23/10/73 67/10/73 75/10/73 78/10/73 
# 74 polygons

#
# object Object003
#

v  -6.5766 -0.0190 -0.0708
v  -6.5766 -0.0282 -0.0898
v  -13.0228 -0.0433 -0.0708
v  -6.5766 -0.0486 -0.0944
v  -6.5766 -0.0651 -0.0813
v  -6.5766 -0.0651 -0.0603
v  -6.5766 -0.0486 -0.0472
v  -6.5766 -0.0282 -0.0519
# 8 vertices

vn -0.0034 0.9010 -0.4339
vn -0.0034 0.2225 -0.9749
vn -0.0034 -0.6235 -0.7818
vn -0.0034 -1.0000 -0.0000
vn -0.0034 -0.6235 0.7818
vn -0.0034 0.2225 0.9749
vn -0.0034 0.9010 0.4339
# 7 vertex normals

vt 0.5000 1.0000 0.2500
vt 0.1091 0.8117 0.2500
vt 0.5000 0.5000 0.2500
vt 0.0125 0.3887 0.2500
vt 0.2831 0.0495 0.2500
vt 0.7169 0.0495 0.2500
vt 0.9875 0.3887 0.2500
vt 0.8909 0.8117 0.2500
# 8 texture coords

g Object003
usemtl wire_086086086
s off
f 81/24/74 82/25/74 83/26/74 
f 82/25/75 84/27/75 83/26/75 
f 84/27/76 85/28/76 83/26/76 
f 85/28/77 86/29/77 83/26/77 
f 86/29/78 87/30/78 83/26/78 
f 87/30/79 88/31/79 83/26/79 
f 88/31/80 81/24/80 83/26/80 
# 0 polygons - 7 triangles

#
# object Object005
#

v  -4.9648 0.6029 -0.0708
v  -4.9648 0.3596 -0.5760
v  -5.7707 0.2971 -0.4976
v  -5.7707 0.5026 -0.0708
v  -4.9648 -0.1870 -0.7008
v  -5.7707 -0.1647 -0.6030
v  -4.9648 -0.6254 -0.3512
v  -5.7707 -0.5350 -0.3077
v  -4.9648 -0.6254 0.2095
v  -5.7707 -0.5350 0.1660
v  -4.9648 -0.1870 0.5591
v  -5.7707 -0.1647 0.4613
v  -4.9648 0.3596 0.4343
v  -5.7707 0.2971 0.3559
v  -5.7707 0.2258 -0.4082
v  -5.7707 0.3882 -0.0708
v  -5.7707 -0.1393 -0.4915
v  -5.7707 -0.4320 -0.2580
v  -5.7707 -0.4320 0.1164
v  -5.7707 -0.1393 0.3498
v  -5.7707 0.2258 0.2665
v  -6.5766 0.1280 -0.2856
v  -6.5766 0.2314 -0.0708
v  -6.5766 -0.1044 -0.3386
v  -6.5766 -0.2907 -0.1900
v  -6.5766 -0.2907 0.0483
v  -6.5766 -0.1044 0.1970
v  -6.5766 0.1280 0.1439
v  -6.5766 -0.0282 -0.0898
v  -6.5766 -0.0190 -0.0708
v  -6.5766 -0.0486 -0.0944
v  -6.5766 -0.0651 -0.0813
v  -6.5766 -0.0651 -0.0603
v  -6.5766 -0.0486 -0.0472
v  -6.5766 -0.0282 -0.0519
# 35 vertices

vn -0.1115 0.8954 -0.4312
vn -0.1115 0.2211 -0.9689
vn -0.1115 -0.6196 -0.7770
vn -0.1115 -0.9938 -0.0000
vn -0.1115 -0.6196 0.7770
vn -0.1115 0.2211 0.9689
vn -0.1115 0.8954 0.4312
vn -1.0000 0.0000 0.0000
vn -1.0000 0.0000 -0.0000
vn -0.1726 0.8874 -0.4274
vn -0.1727 0.2192 -0.9603
vn -0.1727 -0.6141 -0.7701
vn -0.1727 -0.9850 -0.0000
vn -0.1727 -0.6141 0.7701
vn -0.1727 0.2192 0.9603
vn -0.1726 0.8874 0.4274
# 16 vertex normals

vt 0.5000 1.0000 0.2500
vt 0.1091 0.8117 0.2500
vt 0.0125 0.3887 0.2500
vt 0.2831 0.0495 0.2500
vt 0.7169 0.0495 0.2500
vt 0.9875 0.3887 0.2500
vt 0.8909 0.8117 0.2500
# 7 texture coords

g Object005
usemtl wire_006135113
s off
f 89/32/81 90/33/81 91/33/81 92/32/81 
f 90/33/82 93/34/82 94/34/82 91/33/82 
f 93/34/83 95/35/83 96/35/83 94/34/83 
f 95/35/84 97/36/84 98/36/84 96/35/84 
f 97/36/85 99/37/85 100/37/85 98/36/85 
f 99/37/86 101/38/86 102/38/86 100/37/86 
f 101/38/87 89/32/87 92/32/87 102/38/87 
f 92/32/88 91/33/88 103/33/88 104/32/88 
f 91/33/89 94/34/89 105/34/89 103/33/89 
f 94/34/89 96/35/89 106/35/89 105/34/89 
f 96/35/89 98/36/89 107/36/89 106/35/89 
f 98/36/89 100/37/89 108/37/89 107/36/89 
f 100/37/89 102/38/89 109/38/89 108/37/89 
f 102/38/89 92/32/89 104/32/89 109/38/89 
f 104/32/90 103/33/90 110/33/90 111/32/90 
f 103/33/91 105/34/91 112/34/91 110/33/91 
f 105/34/92 106/35/92 113/35/92 112/34/92 
f 106/35/93 107/36/93 114/36/93 113/35/93 
f 107/36/94 108/37/94 115/37/94 114/36/94 
f 108/37/95 109/38/95 116/38/95 115/37/95 
f 109/38/96 104/32/96 111/32/96 116/38/96 
f 111/32/89 110/33/89 117/33/89 118/32/89 
f 110/33/89 112/34/89 119/34/89 117/33/89 
f 112/34/89 113/35/89 120/35/89 119/34/89 
f 113/35/89 114/36/89 121/36/89 120/35/89 
f 114/36/89 115/37/89 122/37/89 121/36/89 
f 115/37/89 116/38/89 123/38/89 122/37/89 
f 116/38/89 111/32/89 118/32/89 123/38/89 
# 28 polygons

