# 3ds Max Wavefront OBJ Exporter v0.97b - (c)2007 guruware
# File Created: 01.05.2015 22:14:15

#
# object Syringe
#

v  -2.0959 0.3458 0.2294
v  -2.0959 0.0329 0.3800
v  3.8522 0.0329 0.3832
v  3.8522 0.3089 0.2314
v  -2.0959 0.4230 -0.1091
v  3.8522 0.4003 -0.1097
v  -2.0959 0.2065 -0.3806
v  3.8522 0.1440 -0.3832
v  -2.0959 -0.1407 -0.3806
v  3.8522 -0.0782 -0.3832
v  -2.0959 -0.3572 -0.1091
v  3.8522 -0.3345 -0.1097
v  -2.0959 -0.2799 0.2294
v  3.8522 -0.2430 0.2314
v  -2.3078 0.2677 0.1672
v  -2.3078 0.0329 0.2802
v  -2.3078 0.3257 -0.0869
v  -2.3078 0.1632 -0.2907
v  -2.3078 -0.0974 -0.2907
v  -2.3078 -0.2599 -0.0869
v  -2.3078 -0.2019 0.1672
v  -2.6824 0.2313 0.1381
v  -2.6824 0.0329 0.2336
v  -2.6824 0.2803 -0.0766
v  -2.6824 0.1430 -0.2487
v  -2.6824 -0.0772 -0.2487
v  -2.6824 -0.2144 -0.0766
v  -2.6824 -0.1654 0.1381
v  -2.6824 0.1897 0.1049
v  -2.6824 0.0329 0.1805
v  -2.6824 0.2285 -0.0647
v  -2.6824 0.1199 -0.2008
v  -2.6824 -0.0541 -0.2008
v  -2.6824 -0.1626 -0.0647
v  -2.6824 -0.1239 0.1049
v  -3.0570 0.1327 0.0595
v  -3.0570 0.0329 0.1076
v  -3.0570 0.1574 -0.0485
v  -3.0570 0.0883 -0.1351
v  -3.0570 -0.0225 -0.1351
v  -3.0570 -0.0915 -0.0485
v  -3.0570 -0.0669 0.0595
v  -3.0570 0.0417 -0.0131
v  -3.0570 0.0329 -0.0089
v  -3.0570 0.0439 -0.0226
v  -3.0570 0.0378 -0.0302
v  -3.0570 0.0280 -0.0302
v  -3.0570 0.0220 -0.0226
v  -3.0570 0.0241 -0.0131
v  -6.0534 0.0329 -0.0201
v  6.0534 -0.0230 -0.1361
v  6.0534 0.0889 -0.1361
v  6.0534 0.1586 -0.0486
v  6.0534 0.1337 0.0604
v  6.0534 0.0329 0.1090
v  6.0534 -0.0679 0.0604
v  6.0534 -0.0928 -0.0486
v  3.9506 0.0329 0.3832
v  3.9506 0.3089 0.2314
v  3.9325 -0.2430 0.2314
v  3.8889 -1.2462 0.0861
v  3.8889 -1.2480 -0.1021
v  3.9206 -1.2480 -0.1021
v  3.9206 -1.2462 0.0861
v  3.8889 -1.2430 -0.2530
v  3.9306 -1.2430 -0.2530
v  3.9506 0.1440 -0.3832
v  3.9506 -0.0782 -0.3832
v  3.8920 1.2430 -0.2530
v  3.8920 1.2480 -0.1021
v  3.9336 1.2480 -0.1021
v  3.9336 1.2430 -0.2530
v  3.8920 1.2462 0.0861
v  3.9336 1.2462 0.0861
v  3.9325 -0.3345 -0.1097
v  3.9506 0.4003 -0.1097
v  3.9649 0.0329 0.2994
v  3.9649 0.2826 0.1792
v  3.9649 -0.2168 0.1792
v  3.9649 -0.2784 -0.0910
v  3.9649 -0.1056 -0.3077
v  3.9649 0.1715 -0.3077
v  3.9649 0.3443 -0.0910
v  4.9716 0.0329 0.1525
v  4.9716 0.1678 0.0876
v  4.9716 -0.1019 0.0876
v  4.9716 -0.1353 -0.0583
v  4.9716 -0.0419 -0.1754
v  4.9716 0.1078 -0.1754
v  4.9716 0.2011 -0.0583
v  5.9470 0.0329 0.1090
v  5.9470 0.1337 0.0604
v  5.9470 -0.0679 0.0604
v  5.9470 -0.0928 -0.0486
v  5.9470 -0.0230 -0.1361
v  5.9470 0.0889 -0.1361
v  5.9470 0.1586 -0.0486
v  5.9470 -0.4502 0.0567
v  5.9470 -0.4542 -0.0524
v  6.0534 -0.4542 -0.0524
v  6.0534 -0.4502 0.0567
v  5.9470 -0.4429 -0.1398
v  6.0534 -0.4429 -0.1398
v  5.9470 0.5088 -0.1398
v  5.9470 0.5201 -0.0524
v  6.0534 0.5201 -0.0524
v  6.0534 0.5088 -0.1398
v  5.9470 0.5160 0.0567
v  6.0534 0.5160 0.0567
# 109 vertices

vn 0.0031 0.7831 0.6219
vn 0.0010 -0.0009 1.0000
vn 0.0012 -0.0010 1.0000
vn 0.0035 0.7867 0.6173
vn 0.0049 0.9751 -0.2216
vn 0.0062 0.9703 -0.2419
vn 0.0015 0.4348 -0.9005
vn 0.0038 0.3953 -0.9185
vn 0.0042 -0.4363 -0.8998
vn 0.0013 -0.3967 -0.9179
vn 0.0064 -0.9746 -0.2238
vn 0.0049 -0.9698 -0.2440
vn 0.0034 -0.7821 0.6231
vn 0.0030 -0.7857 0.6186
vn -0.3906 0.3994 0.8294
vn -0.3906 0.8975 0.2048
vn -0.3906 0.7197 -0.5740
vn -0.3906 0.0000 -0.9206
vn -0.3906 -0.7197 -0.5740
vn -0.3906 -0.8975 0.2048
vn -0.3906 -0.3994 0.8294
vn -0.1115 0.4312 0.8954
vn -0.1115 0.9689 0.2211
vn -0.1115 0.7770 -0.6196
vn -0.1115 0.0000 -0.9938
vn -0.1115 -0.7770 -0.6196
vn -0.1115 -0.9689 0.2211
vn -0.1115 -0.4312 0.8954
vn -1.0000 -0.0000 0.0000
vn -1.0000 0.0000 0.0000
vn -0.1726 0.4274 0.8874
vn -0.1727 0.9603 0.2192
vn -0.1727 0.7701 -0.6141
vn -0.1727 0.0000 -0.9850
vn -0.1727 -0.7701 -0.6141
vn -0.1727 -0.9603 0.2192
vn -0.1726 -0.4274 0.8874
vn -0.0034 0.4339 0.9010
vn -0.0034 0.9749 0.2225
vn -0.0034 0.7818 -0.6235
vn -0.0034 0.0000 -1.0000
vn -0.0034 -0.7818 -0.6235
vn -0.0034 -0.9749 0.2225
vn -0.0034 -0.4339 0.9010
vn 1.0000 0.0000 0.0000
vn 0.0000 0.4820 0.8762
vn 0.0000 -0.4820 0.8762
vn 0.0000 -1.0000 0.0095
vn 0.0000 -0.9994 -0.0333
vn 0.0000 0.0000 -1.0000
vn 0.0000 0.9994 -0.0333
vn 0.0000 1.0000 0.0095
vn -0.9991 -0.0368 -0.0227
vn 0.0000 -0.1111 -0.9938
vn 0.9982 -0.0114 0.0590
vn 0.9999 -0.0125 0.0022
vn 0.0000 -0.1434 0.9897
vn -0.9992 -0.0388 0.0068
vn -0.9990 0.0451 0.0079
vn 0.0000 0.1532 0.9882
vn 0.9998 0.0192 0.0034
vn 0.9998 0.0182 -0.0112
vn 0.0000 0.1177 -0.9931
vn -0.9987 0.0426 -0.0263
vn 0.9775 0.0969 0.1872
vn 0.9403 -0.1814 0.2880
vn 0.8051 -0.5753 0.1441
vn 0.8659 -0.3917 -0.3110
vn 0.9825 0.0000 -0.1864
vn 0.9459 0.2442 -0.2137
vn 0.9509 0.3003 0.0752
vn 0.1303 0.4302 0.8933
vn 0.1303 -0.4302 0.8933
vn 0.1303 -0.9666 0.2206
vn 0.1303 -0.7752 -0.6182
vn 0.1303 0.0000 -0.9915
vn 0.1303 0.7752 -0.6182
vn 0.1303 0.9666 0.2206
vn 0.0402 0.4335 0.9002
vn 0.0402 -0.4335 0.9002
vn 0.0402 -0.9741 0.2223
vn 0.0402 -0.7812 -0.6230
vn 0.0402 0.0000 -0.9992
vn 0.0402 0.7812 -0.6230
vn 0.0402 0.9741 0.2223
vn 0.0000 0.4339 0.9010
vn 0.0000 -0.4339 0.9010
vn 0.0000 -0.9993 0.0370
vn 0.0000 -0.9917 -0.1284
vn 0.0000 0.9917 -0.1284
vn 0.0000 0.9993 0.0370
vn 0.0000 0.0088 -1.0000
vn 0.0000 -0.0097 1.0000
vn 0.0000 0.0097 1.0000
vn 0.0000 -0.0088 -1.0000
# 95 vertex normals

vt 0.8929 1.0000 1.0000
vt 0.7500 1.0000 1.0000
vt 0.7500 0.0000 1.0000
vt 0.8929 0.0000 1.0000
vt 1.0357 1.0000 1.0000
vt 1.0357 0.0000 1.0000
vt 0.1786 1.0000 1.0000
vt 0.0357 1.0000 1.0000
vt 0.0357 0.0000 1.0000
vt 0.1786 0.0000 1.0000
vt 0.3214 1.0000 1.0000
vt 0.3214 0.0000 1.0000
vt 0.4643 1.0000 1.0000
vt 0.4643 0.0000 1.0000
vt 0.6071 1.0000 1.0000
vt 0.6071 0.0000 1.0000
vt 0.5000 1.0000 0.2500
vt 0.1091 0.8117 0.2500
vt 0.0125 0.3887 0.2500
vt 0.2831 0.0495 0.2500
vt 0.7169 0.0495 0.2500
vt 0.9875 0.3887 0.2500
vt 0.8909 0.8117 0.2500
vt 0.5000 0.5000 0.2500
# 24 texture coords

g Syringe
s 8
f 1/1/1 2/2/2 3/3/3 4/4/4 
f 5/5/5 1/1/1 4/4/4 6/6/6 
f 7/7/7 5/8/5 6/9/6 8/10/8 
f 9/11/9 7/7/7 8/10/8 10/12/10 
f 11/13/11 9/11/9 10/12/10 12/14/12 
f 13/15/13 11/13/11 12/14/12 14/16/14 
f 2/2/2 13/15/13 14/16/14 3/3/3 
s off
f 2/17/15 1/18/15 15/18/15 16/17/15 
f 1/18/16 5/19/16 17/19/16 15/18/16 
f 5/19/17 7/20/17 18/20/17 17/19/17 
f 7/20/18 9/21/18 19/21/18 18/20/18 
f 9/21/19 11/22/19 20/22/19 19/21/19 
f 11/22/20 13/23/20 21/23/20 20/22/20 
f 13/23/21 2/17/21 16/17/21 21/23/21 
f 16/17/22 15/18/22 22/18/22 23/17/22 
f 15/18/23 17/19/23 24/19/23 22/18/23 
f 17/19/24 18/20/24 25/20/24 24/19/24 
f 18/20/25 19/21/25 26/21/25 25/20/25 
f 19/21/26 20/22/26 27/22/26 26/21/26 
f 20/22/27 21/23/27 28/23/27 27/22/27 
f 21/23/28 16/17/28 23/17/28 28/23/28 
f 23/17/29 22/18/29 29/18/29 30/17/29 
f 22/18/30 24/19/30 31/19/30 29/18/30 
f 24/19/30 25/20/30 32/20/30 31/19/30 
f 25/20/30 26/21/30 33/21/30 32/20/30 
f 26/21/30 27/22/30 34/22/30 33/21/30 
f 27/22/30 28/23/30 35/23/30 34/22/30 
f 28/23/30 23/17/30 30/17/30 35/23/30 
f 30/17/31 29/18/31 36/18/31 37/17/31 
f 29/18/32 31/19/32 38/19/32 36/18/32 
f 31/19/33 32/20/33 39/20/33 38/19/33 
f 32/20/34 33/21/34 40/21/34 39/20/34 
f 33/21/35 34/22/35 41/22/35 40/21/35 
f 34/22/36 35/23/36 42/23/36 41/22/36 
f 35/23/37 30/17/37 37/17/37 42/23/37 
f 37/17/30 36/18/30 43/18/30 44/17/30 
f 36/18/30 38/19/30 45/19/30 43/18/30 
f 38/19/30 39/20/30 46/20/30 45/19/30 
f 39/20/30 40/21/30 47/21/30 46/20/30 
f 40/21/30 41/22/30 48/22/30 47/21/30 
f 41/22/30 42/23/30 49/23/30 48/22/30 
f 42/23/30 37/17/30 44/17/30 49/23/30 
f 44/17/38 43/18/38 50/24/38 
f 43/18/39 45/19/39 50/24/39 
f 45/19/40 46/20/40 50/24/40 
f 46/20/41 47/21/41 50/24/41 
f 47/21/42 48/22/42 50/24/42 
f 48/22/43 49/23/43 50/24/43 
f 49/23/44 44/17/44 50/24/44 
f 51/12/45 52/10/45 53/9/45 54/4/45 55/3/45 56/16/45 57/14/45 
f 4/4/46 3/3/46 58/3/46 59/4/46 
f 3/3/47 14/16/47 60/16/47 58/3/47 
f 61/16/48 62/14/48 63/14/48 64/16/48 
f 62/14/49 65/12/49 66/12/49 63/14/49 
f 10/12/50 8/10/50 67/10/50 68/12/50 
f 69/10/51 70/9/51 71/9/51 72/10/51 
f 70/9/52 73/4/52 74/4/52 71/9/52 
f 12/14/53 10/12/53 65/12/53 62/14/53 
f 10/12/54 68/12/54 66/12/54 65/12/54 
f 68/12/55 75/14/55 63/14/55 66/12/55 
f 75/14/56 60/16/56 64/16/56 63/14/56 
f 60/16/57 14/16/57 61/16/57 64/16/57 
f 14/16/58 12/14/58 62/14/58 61/16/58 
f 6/9/59 4/4/59 73/4/59 70/9/59 
f 4/4/60 59/4/60 74/4/60 73/4/60 
f 59/4/61 76/9/61 71/9/61 74/4/61 
f 76/9/62 67/10/62 72/10/62 71/9/62 
f 67/10/63 8/10/63 69/10/63 72/10/63 
f 8/10/64 6/9/64 70/9/64 69/10/64 
f 59/4/65 58/3/65 77/3/65 78/4/65 
f 58/3/66 60/16/66 79/16/66 77/3/66 
f 60/16/67 75/14/67 80/14/67 79/16/67 
f 75/14/68 68/12/68 81/12/68 80/14/68 
f 68/12/69 67/10/69 82/10/69 81/12/69 
f 67/10/70 76/9/70 83/9/70 82/10/70 
f 76/9/71 59/4/71 78/4/71 83/9/71 
f 78/4/72 77/3/72 84/3/72 85/4/72 
f 77/3/73 79/16/73 86/16/73 84/3/73 
f 79/16/74 80/14/74 87/14/74 86/16/74 
f 80/14/75 81/12/75 88/12/75 87/14/75 
f 81/12/76 82/10/76 89/10/76 88/12/76 
f 82/10/77 83/9/77 90/9/77 89/10/77 
f 83/9/78 78/4/78 85/4/78 90/9/78 
f 85/4/79 84/3/79 91/3/79 92/4/79 
f 84/3/80 86/16/80 93/16/80 91/3/80 
f 86/16/81 87/14/81 94/14/81 93/16/81 
f 87/14/82 88/12/82 95/12/82 94/14/82 
f 88/12/83 89/10/83 96/10/83 95/12/83 
f 89/10/84 90/9/84 97/9/84 96/10/84 
f 90/9/85 85/4/85 92/4/85 97/9/85 
f 92/4/86 91/3/86 55/3/86 54/4/86 
f 91/3/87 93/16/87 56/16/87 55/3/87 
f 98/16/88 99/14/88 100/14/88 101/16/88 
f 99/14/89 102/12/89 103/12/89 100/14/89 
f 95/12/50 96/10/50 52/10/50 51/12/50 
f 104/10/90 105/9/90 106/9/90 107/10/90 
f 105/9/91 108/4/91 109/4/91 106/9/91 
f 93/16/30 94/14/30 99/14/30 98/16/30 
f 94/14/30 95/12/30 102/12/30 99/14/30 
f 95/12/92 51/12/92 103/12/92 102/12/92 
f 51/12/45 57/14/45 100/14/45 103/12/45 
f 57/14/45 56/16/45 101/16/45 100/14/45 
f 56/16/93 93/16/93 98/16/93 101/16/93 
f 96/10/30 97/9/30 105/9/30 104/10/30 
f 97/9/30 92/4/30 108/4/30 105/9/30 
f 92/4/94 54/4/94 109/4/94 108/4/94 
f 54/4/45 53/9/45 106/9/45 109/4/45 
f 53/9/45 52/10/45 107/10/45 106/9/45 
f 52/10/95 96/10/95 104/10/95 107/10/95 
# 102 polygons - 7 triangles

