# 3ds Max Wavefront OBJ Exporter v0.97b - (c)2007 guruware
# File Created: 01.05.2015 22:19:20

#
# object ToothPick
#

v  -2.3853 0.0000 -0.0238
v  -2.3853 0.0250 -0.0056
v  2.3853 0.0250 -0.0056
v  2.3853 0.0000 -0.0238
v  -2.3853 0.0155 0.0238
v  2.3853 0.0155 0.0238
v  -2.3853 -0.0155 0.0238
v  2.3853 -0.0155 0.0238
v  -2.3853 -0.0250 -0.0056
v  2.3853 -0.0250 -0.0056
v  -2.8940 -0.0000 0.0025
v  2.8940 -0.0000 0.0025
# 12 vertices

vn -0.0000 0.0000 -1.0000
vn -0.0000 0.9511 -0.3090
vn 0.0000 0.5878 0.8090
vn 0.0000 -0.5878 0.8090
vn -0.0000 -0.9511 -0.3090
vn -0.1033 0.5846 -0.8047
vn -0.1033 -0.5846 -0.8047
vn -0.1033 -0.9460 0.3074
vn -0.1033 -0.0000 0.9947
vn -0.1033 0.9460 0.3074
vn 0.1033 0.5846 -0.8047
vn 0.1033 0.9460 0.3074
vn 0.1033 -0.0000 0.9947
vn 0.1033 -0.9460 0.3074
vn 0.1033 -0.5846 -0.8047
# 15 vertex normals

vt 0.7500 0.0000 1.0000
vt 0.9500 0.0000 1.0000
vt 0.9500 1.0000 1.0000
vt 0.7500 1.0000 1.0000
vt 1.1500 0.0000 1.0000
vt 1.1500 1.0000 1.0000
vt 0.1500 0.0000 1.0000
vt 0.3500 0.0000 1.0000
vt 0.3500 1.0000 1.0000
vt 0.1500 1.0000 1.0000
vt 0.5500 0.0000 1.0000
vt 0.5500 1.0000 1.0000
vt 0.0245 0.6545 -0.2500
vt 0.5000 1.0000 -0.2500
vt 0.5000 0.5000 -0.2500
vt 0.9755 0.6545 -0.2500
vt 0.7939 0.0955 -0.2500
vt 0.2061 0.0955 -0.2500
vt 0.5000 1.0000 0.2500
vt 0.0245 0.6545 0.2500
vt 0.5000 0.5000 0.2500
vt 0.2061 0.0955 0.2500
vt 0.7939 0.0955 0.2500
vt 0.9755 0.6545 0.2500
# 24 texture coords

g ToothPick
s 8
f 1/1/1 2/2/2 3/3/2 4/4/1 
f 2/2/2 5/5/3 6/6/3 3/3/2 
f 5/7/3 7/8/4 8/9/4 6/10/3 
f 7/8/4 9/11/5 10/12/5 8/9/4 
f 9/11/5 1/1/1 4/4/1 10/12/5 
s off
f 2/13/6 1/14/6 11/15/6 
f 1/14/7 9/16/7 11/15/7 
f 9/16/8 7/17/8 11/15/8 
f 7/17/9 5/18/9 11/15/9 
f 5/18/10 2/13/10 11/15/10 
f 4/19/11 3/20/11 12/21/11 
f 3/20/12 6/22/12 12/21/12 
f 6/22/13 8/23/13 12/21/13 
f 8/23/14 10/24/14 12/21/14 
f 10/24/15 4/19/15 12/21/15 
# 5 polygons - 10 triangles

