# 3ds Max Wavefront OBJ Exporter v0.97b - (c)2007 guruware
# File Created: 29.03.2015 21:51:48

#
# object cylinder_180
#

v  0.0000 0.0000 -0.0000
v  0.4904 0.0000 -0.0975
v  0.4976 0.0000 -0.0490
v  0.5000 0.0000 -0.0000
v  0.4619 0.0000 -0.1913
v  0.4785 0.0000 -0.1451
v  0.4157 0.0000 -0.2778
v  0.4410 0.0000 -0.2357
v  0.3536 0.0000 -0.3536
v  0.3865 0.0000 -0.3172
v  0.2778 0.0000 -0.4157
v  0.3172 0.0000 -0.3865
v  0.1913 0.0000 -0.4619
v  0.2357 0.0000 -0.4410
v  0.0975 0.0000 -0.4904
v  0.1451 0.0000 -0.4785
v  -0.0000 0.0000 -0.5000
v  0.0490 0.0000 -0.4976
v  -0.0975 0.0000 -0.4904
v  -0.0490 0.0000 -0.4976
v  -0.1913 0.0000 -0.4619
v  -0.1451 0.0000 -0.4785
v  -0.2778 0.0000 -0.4157
v  -0.2357 0.0000 -0.4410
v  -0.3536 0.0000 -0.3536
v  -0.3172 0.0000 -0.3865
v  -0.4157 0.0000 -0.2778
v  -0.3865 0.0000 -0.3172
v  -0.4619 0.0000 -0.1913
v  -0.4410 0.0000 -0.2357
v  -0.4904 0.0000 -0.0975
v  -0.4785 0.0000 -0.1451
v  -0.5000 0.0000 0.0000
v  -0.4976 0.0000 -0.0490
v  0.5000 0.2000 -0.0000
v  0.0000 0.2000 -0.0000
v  0.4976 0.2000 -0.0490
v  0.4904 0.2000 -0.0975
v  0.4785 0.2000 -0.1451
v  0.4619 0.2000 -0.1913
v  0.4410 0.2000 -0.2357
v  0.4157 0.2000 -0.2778
v  0.3865 0.2000 -0.3172
v  0.3536 0.2000 -0.3536
v  0.3172 0.2000 -0.3865
v  0.2778 0.2000 -0.4157
v  0.2357 0.2000 -0.4410
v  0.1913 0.2000 -0.4619
v  0.1451 0.2000 -0.4785
v  0.0975 0.2000 -0.4904
v  0.0490 0.2000 -0.4976
v  -0.0000 0.2000 -0.5000
v  -0.0490 0.2000 -0.4976
v  -0.0975 0.2000 -0.4904
v  -0.1451 0.2000 -0.4785
v  -0.1913 0.2000 -0.4619
v  -0.2357 0.2000 -0.4410
v  -0.2778 0.2000 -0.4157
v  -0.3172 0.2000 -0.3865
v  -0.3536 0.2000 -0.3536
v  -0.3865 0.2000 -0.3172
v  -0.4157 0.2000 -0.2778
v  -0.4410 0.2000 -0.2357
v  -0.4619 0.2000 -0.1913
v  -0.4785 0.2000 -0.1451
v  -0.4904 0.2000 -0.0975
v  -0.4976 0.2000 -0.0490
v  -0.5000 0.2000 0.0000
v  0.5000 0.4000 -0.0000
v  0.0000 0.4000 -0.0000
v  0.4976 0.4000 -0.0490
v  0.4904 0.4000 -0.0975
v  0.4785 0.4000 -0.1451
v  0.4619 0.4000 -0.1913
v  0.4410 0.4000 -0.2357
v  0.4157 0.4000 -0.2778
v  0.3865 0.4000 -0.3172
v  0.3536 0.4000 -0.3536
v  0.3172 0.4000 -0.3865
v  0.2778 0.4000 -0.4157
v  0.2357 0.4000 -0.4410
v  0.1913 0.4000 -0.4619
v  0.1451 0.4000 -0.4785
v  0.0975 0.4000 -0.4904
v  0.0490 0.4000 -0.4976
v  -0.0000 0.4000 -0.5000
v  -0.0490 0.4000 -0.4976
v  -0.0975 0.4000 -0.4904
v  -0.1451 0.4000 -0.4785
v  -0.1913 0.4000 -0.4619
v  -0.2357 0.4000 -0.4410
v  -0.2778 0.4000 -0.4157
v  -0.3172 0.4000 -0.3865
v  -0.3536 0.4000 -0.3536
v  -0.3865 0.4000 -0.3172
v  -0.4157 0.4000 -0.2778
v  -0.4410 0.4000 -0.2357
v  -0.4619 0.4000 -0.1913
v  -0.4785 0.4000 -0.1451
v  -0.4904 0.4000 -0.0975
v  -0.4976 0.4000 -0.0490
v  -0.5000 0.4000 0.0000
v  0.5000 0.6000 -0.0000
v  0.0000 0.6000 -0.0000
v  0.4976 0.6000 -0.0490
v  0.4904 0.6000 -0.0975
v  0.4785 0.6000 -0.1451
v  0.4619 0.6000 -0.1913
v  0.4410 0.6000 -0.2357
v  0.4157 0.6000 -0.2778
v  0.3865 0.6000 -0.3172
v  0.3536 0.6000 -0.3536
v  0.3172 0.6000 -0.3865
v  0.2778 0.6000 -0.4157
v  0.2357 0.6000 -0.4410
v  0.1913 0.6000 -0.4619
v  0.1451 0.6000 -0.4785
v  0.0975 0.6000 -0.4904
v  0.0490 0.6000 -0.4976
v  -0.0000 0.6000 -0.5000
v  -0.0490 0.6000 -0.4976
v  -0.0975 0.6000 -0.4904
v  -0.1451 0.6000 -0.4785
v  -0.1913 0.6000 -0.4619
v  -0.2357 0.6000 -0.4410
v  -0.2778 0.6000 -0.4157
v  -0.3172 0.6000 -0.3865
v  -0.3536 0.6000 -0.3536
v  -0.3865 0.6000 -0.3172
v  -0.4157 0.6000 -0.2778
v  -0.4410 0.6000 -0.2357
v  -0.4619 0.6000 -0.1913
v  -0.4785 0.6000 -0.1451
v  -0.4904 0.6000 -0.0975
v  -0.4976 0.6000 -0.0490
v  -0.5000 0.6000 0.0000
v  0.5000 0.8000 -0.0000
v  0.0000 0.8000 -0.0000
v  0.4976 0.8000 -0.0490
v  0.4904 0.8000 -0.0975
v  0.4785 0.8000 -0.1451
v  0.4619 0.8000 -0.1913
v  0.4410 0.8000 -0.2357
v  0.4157 0.8000 -0.2778
v  0.3865 0.8000 -0.3172
v  0.3536 0.8000 -0.3536
v  0.3172 0.8000 -0.3865
v  0.2778 0.8000 -0.4157
v  0.2357 0.8000 -0.4410
v  0.1913 0.8000 -0.4619
v  0.1451 0.8000 -0.4785
v  0.0975 0.8000 -0.4904
v  0.0490 0.8000 -0.4976
v  -0.0000 0.8000 -0.5000
v  -0.0490 0.8000 -0.4976
v  -0.0975 0.8000 -0.4904
v  -0.1451 0.8000 -0.4785
v  -0.1913 0.8000 -0.4619
v  -0.2357 0.8000 -0.4410
v  -0.2778 0.8000 -0.4157
v  -0.3172 0.8000 -0.3865
v  -0.3536 0.8000 -0.3536
v  -0.3865 0.8000 -0.3172
v  -0.4157 0.8000 -0.2778
v  -0.4410 0.8000 -0.2357
v  -0.4619 0.8000 -0.1913
v  -0.4785 0.8000 -0.1451
v  -0.4904 0.8000 -0.0975
v  -0.4976 0.8000 -0.0490
v  -0.5000 0.8000 0.0000
v  0.5000 1.0000 -0.0000
v  0.0000 1.0000 -0.0000
v  0.4976 1.0000 -0.0490
v  0.4904 1.0000 -0.0975
v  0.4785 1.0000 -0.1451
v  0.4619 1.0000 -0.1913
v  0.4410 1.0000 -0.2357
v  0.4157 1.0000 -0.2778
v  0.3865 1.0000 -0.3172
v  0.3536 1.0000 -0.3536
v  0.3172 1.0000 -0.3865
v  0.2778 1.0000 -0.4157
v  0.2357 1.0000 -0.4410
v  0.1913 1.0000 -0.4619
v  0.1451 1.0000 -0.4785
v  0.0975 1.0000 -0.4904
v  0.0490 1.0000 -0.4976
v  -0.0000 1.0000 -0.5000
v  -0.0490 1.0000 -0.4976
v  -0.0975 1.0000 -0.4904
v  -0.1451 1.0000 -0.4785
v  -0.1913 1.0000 -0.4619
v  -0.2357 1.0000 -0.4410
v  -0.2778 1.0000 -0.4157
v  -0.3172 1.0000 -0.3865
v  -0.3536 1.0000 -0.3536
v  -0.3865 1.0000 -0.3172
v  -0.4157 1.0000 -0.2778
v  -0.4410 1.0000 -0.2357
v  -0.4619 1.0000 -0.1913
v  -0.4785 1.0000 -0.1451
v  -0.4904 1.0000 -0.0975
v  -0.4976 1.0000 -0.0490
v  -0.5000 1.0000 0.0000
# 204 vertices

vn 0.0000 -1.0000 -0.0000
vn 0.0000 0.0000 1.0000
vn 0.9988 0.0000 -0.0491
vn 0.9892 0.0000 -0.1467
vn 0.9700 0.0000 -0.2430
vn 0.9415 0.0000 -0.3369
vn 0.9040 0.0000 -0.4276
vn 0.8577 0.0000 -0.5141
vn 0.8032 0.0000 -0.5957
vn 0.7410 0.0000 -0.6716
vn 0.6716 0.0000 -0.7410
vn 0.5957 0.0000 -0.8032
vn 0.5141 0.0000 -0.8577
vn 0.4276 0.0000 -0.9040
vn 0.3369 0.0000 -0.9415
vn 0.2430 0.0000 -0.9700
vn 0.1467 0.0000 -0.9892
vn 0.0491 0.0000 -0.9988
vn -0.0491 0.0000 -0.9988
vn -0.1467 0.0000 -0.9892
vn -0.2430 0.0000 -0.9700
vn -0.3369 0.0000 -0.9415
vn -0.4276 0.0000 -0.9040
vn -0.5141 0.0000 -0.8577
vn -0.5957 0.0000 -0.8032
vn -0.6716 0.0000 -0.7410
vn -0.7410 0.0000 -0.6716
vn -0.8032 0.0000 -0.5957
vn -0.8577 0.0000 -0.5141
vn -0.9040 0.0000 -0.4276
vn -0.9415 0.0000 -0.3369
vn -0.9700 0.0000 -0.2430
vn -0.9892 0.0000 -0.1467
vn -0.9988 0.0000 -0.0491
vn 0.0000 1.0000 -0.0000
# 35 vertex normals

vt 0.5000 0.0000 0.0000
vt 0.7813 0.0000 1.0000
vt 0.7656 0.0000 1.0000
vt 0.7500 0.0000 1.0000
vt 0.8125 0.0000 1.0000
vt 0.7969 0.0000 1.0000
vt 0.8438 0.0000 1.0000
vt 0.8281 0.0000 1.0000
vt 0.8750 0.0000 1.0000
vt 0.8594 0.0000 1.0000
vt 0.9062 0.0000 1.0000
vt 0.8906 0.0000 1.0000
vt 0.9375 0.0000 1.0000
vt 0.9219 0.0000 1.0000
vt 0.9688 0.0000 1.0000
vt 0.9531 0.0000 1.0000
vt 0.0000 0.0000 1.0000
vt -0.0156 0.0000 1.0000
vt -0.0263 0.0000 0.9904
vt 0.0313 0.0000 1.0000
vt 0.0156 0.0000 1.0000
vt 0.0625 0.0000 1.0000
vt 0.0469 0.0000 1.0000
vt 0.0938 0.0000 1.0000
vt 0.0781 0.0000 1.0000
vt 0.1250 0.0000 1.0000
vt 0.1094 0.0000 1.0000
vt 0.1563 0.0000 1.0000
vt 0.1406 0.0000 1.0000
vt 0.1875 0.0000 1.0000
vt 0.1719 0.0000 1.0000
vt 0.2188 0.0000 1.0000
vt 0.2031 0.0000 1.0000
vt 0.2500 0.0000 1.0000
vt 0.2344 0.0000 1.0000
vt 0.7500 0.2000 1.0000
vt 0.5000 0.2000 0.0000
vt 0.7656 0.2000 1.0000
vt 0.7813 0.2000 1.0000
vt 0.7969 0.2000 1.0000
vt 0.8125 0.2000 1.0000
vt 0.8281 0.2000 1.0000
vt 0.8438 0.2000 1.0000
vt 0.8594 0.2000 1.0000
vt 0.8750 0.2000 1.0000
vt 0.8906 0.2000 1.0000
vt 0.9062 0.2000 1.0000
vt 0.9219 0.2000 1.0000
vt 0.9375 0.2000 1.0000
vt 0.9531 0.2000 1.0000
vt 0.9688 0.2000 1.0000
vt 0.9844 0.0000 1.0000
vt 0.9844 0.2000 1.0000
vt 0.0000 0.2000 1.0000
vt -0.0156 0.2000 1.0000
vt 0.0156 0.2000 1.0000
vt 0.0313 0.2000 1.0000
vt 0.0469 0.2000 1.0000
vt 0.0625 0.2000 1.0000
vt 0.0781 0.2000 1.0000
vt 0.0938 0.2000 1.0000
vt 0.1094 0.2000 1.0000
vt 0.1250 0.2000 1.0000
vt 0.1406 0.2000 1.0000
vt 0.1563 0.2000 1.0000
vt 0.1719 0.2000 1.0000
vt 0.1875 0.2000 1.0000
vt 0.2031 0.2000 1.0000
vt 0.2188 0.2000 1.0000
vt 0.2344 0.2000 1.0000
vt 0.2500 0.2000 1.0000
vt 0.7500 0.4000 1.0000
vt 0.5000 0.4000 0.0000
vt 0.7656 0.4000 1.0000
vt 0.7813 0.4000 1.0000
vt 0.7969 0.4000 1.0000
vt 0.8125 0.4000 1.0000
vt 0.8281 0.4000 1.0000
vt 0.8438 0.4000 1.0000
vt 0.8594 0.4000 1.0000
vt 0.8750 0.4000 1.0000
vt 0.8906 0.4000 1.0000
vt 0.9062 0.4000 1.0000
vt 0.9219 0.4000 1.0000
vt 0.9375 0.4000 1.0000
vt 0.9531 0.4000 1.0000
vt 0.9688 0.4000 1.0000
vt 0.9844 0.4000 1.0000
vt 0.0000 0.4000 1.0000
vt -0.0156 0.4000 1.0000
vt 0.0156 0.4000 1.0000
vt 0.0313 0.4000 1.0000
vt 0.0469 0.4000 1.0000
vt 0.0625 0.4000 1.0000
vt 0.0781 0.4000 1.0000
vt 0.0938 0.4000 1.0000
vt 0.1094 0.4000 1.0000
vt 0.1250 0.4000 1.0000
vt 0.1406 0.4000 1.0000
vt 0.1563 0.4000 1.0000
vt 0.1719 0.4000 1.0000
vt 0.1875 0.4000 1.0000
vt 0.2031 0.4000 1.0000
vt 0.2188 0.4000 1.0000
vt 0.2344 0.4000 1.0000
vt 0.2500 0.4000 1.0000
vt 0.7500 0.6000 1.0000
vt 0.5000 0.6000 0.0000
vt 0.7656 0.6000 1.0000
vt 0.7813 0.6000 1.0000
vt 0.7969 0.6000 1.0000
vt 0.8125 0.6000 1.0000
vt 0.8281 0.6000 1.0000
vt 0.8438 0.6000 1.0000
vt 0.8594 0.6000 1.0000
vt 0.8750 0.6000 1.0000
vt 0.8906 0.6000 1.0000
vt 0.9062 0.6000 1.0000
vt 0.9219 0.6000 1.0000
vt 0.9375 0.6000 1.0000
vt 0.9531 0.6000 1.0000
vt 0.9688 0.6000 1.0000
vt 0.9844 0.6000 1.0000
vt 0.0000 0.6000 1.0000
vt -0.0156 0.6000 1.0000
vt 0.0156 0.6000 1.0000
vt 0.0313 0.6000 1.0000
vt 0.0469 0.6000 1.0000
vt 0.0625 0.6000 1.0000
vt 0.0781 0.6000 1.0000
vt 0.0938 0.6000 1.0000
vt 0.1094 0.6000 1.0000
vt 0.1250 0.6000 1.0000
vt 0.1406 0.6000 1.0000
vt 0.1563 0.6000 1.0000
vt 0.1719 0.6000 1.0000
vt 0.1875 0.6000 1.0000
vt 0.2031 0.6000 1.0000
vt 0.2188 0.6000 1.0000
vt 0.2344 0.6000 1.0000
vt 0.2500 0.6000 1.0000
vt 0.7500 0.8000 1.0000
vt 0.5000 0.8000 0.0000
vt 0.7656 0.8000 1.0000
vt 0.7813 0.8000 1.0000
vt 0.7969 0.8000 1.0000
vt 0.8125 0.8000 1.0000
vt 0.8281 0.8000 1.0000
vt 0.8438 0.8000 1.0000
vt 0.8594 0.8000 1.0000
vt 0.8750 0.8000 1.0000
vt 0.8906 0.8000 1.0000
vt 0.9062 0.8000 1.0000
vt 0.9219 0.8000 1.0000
vt 0.9375 0.8000 1.0000
vt 0.9531 0.8000 1.0000
vt 0.9688 0.8000 1.0000
vt 0.9844 0.8000 1.0000
vt 0.0000 0.8000 1.0000
vt -0.0156 0.8000 1.0000
vt 0.0156 0.8000 1.0000
vt 0.0313 0.8000 1.0000
vt 0.0469 0.8000 1.0000
vt 0.0625 0.8000 1.0000
vt 0.0781 0.8000 1.0000
vt 0.0938 0.8000 1.0000
vt 0.1094 0.8000 1.0000
vt 0.1250 0.8000 1.0000
vt 0.1406 0.8000 1.0000
vt 0.1563 0.8000 1.0000
vt 0.1719 0.8000 1.0000
vt 0.1875 0.8000 1.0000
vt 0.2031 0.8000 1.0000
vt 0.2188 0.8000 1.0000
vt 0.2344 0.8000 1.0000
vt 0.2500 0.8000 1.0000
vt 0.7500 1.0000 1.0000
vt 0.5000 1.0000 0.0000
vt 0.7656 1.0000 1.0000
vt 0.7813 1.0000 1.0000
vt 0.7969 1.0000 1.0000
vt 0.8125 1.0000 1.0000
vt 0.8281 1.0000 1.0000
vt 0.8438 1.0000 1.0000
vt 0.8594 1.0000 1.0000
vt 0.8750 1.0000 1.0000
vt 0.8906 1.0000 1.0000
vt 0.9062 1.0000 1.0000
vt 0.9219 1.0000 1.0000
vt 0.9375 1.0000 1.0000
vt 0.9531 1.0000 1.0000
vt 0.9688 1.0000 1.0000
vt 0.9844 1.0000 1.0000
vt 0.0000 1.0000 1.0000
vt -0.0156 1.0000 1.0000
vt 0.0156 1.0000 1.0000
vt 0.0313 1.0000 1.0000
vt 0.0469 1.0000 1.0000
vt 0.0625 1.0000 1.0000
vt 0.0781 1.0000 1.0000
vt 0.0938 1.0000 1.0000
vt 0.1094 1.0000 1.0000
vt 0.1250 1.0000 1.0000
vt 0.1406 1.0000 1.0000
vt 0.1563 1.0000 1.0000
vt 0.1719 1.0000 1.0000
vt 0.1875 1.0000 1.0000
vt 0.2031 1.0000 1.0000
vt 0.2188 1.0000 1.0000
vt 0.2344 1.0000 1.0000
vt 0.2500 1.0000 1.0000
vt -0.0263 1.0000 0.9904
# 212 texture coords

g cylinder_180
f 1/1/1 2/2/1 3/3/1 4/4/1 
f 1/1/1 5/5/1 6/6/1 2/2/1 
f 1/1/1 7/7/1 8/8/1 5/5/1 
f 1/1/1 9/9/1 10/10/1 7/7/1 
f 1/1/1 11/11/1 12/12/1 9/9/1 
f 1/1/1 13/13/1 14/14/1 11/11/1 
f 1/1/1 15/15/1 16/16/1 13/13/1 
f 1/1/1 17/17/1 18/18/1 15/19/1 
f 1/1/1 19/20/1 20/21/1 17/17/1 
f 1/1/1 21/22/1 22/23/1 19/20/1 
f 1/1/1 23/24/1 24/25/1 21/22/1 
f 1/1/1 25/26/1 26/27/1 23/24/1 
f 1/1/1 27/28/1 28/29/1 25/26/1 
f 1/1/1 29/30/1 30/31/1 27/28/1 
f 1/1/1 31/32/1 32/33/1 29/30/1 
f 1/1/1 33/34/1 34/35/1 31/32/1 
f 1/1/2 4/4/2 35/36/2 36/37/2 
f 4/4/3 3/3/3 37/38/3 35/36/3 
f 3/3/4 2/2/4 38/39/4 37/38/4 
f 2/2/5 6/6/5 39/40/5 38/39/5 
f 6/6/6 5/5/6 40/41/6 39/40/6 
f 5/5/7 8/8/7 41/42/7 40/41/7 
f 8/8/8 7/7/8 42/43/8 41/42/8 
f 7/7/9 10/10/9 43/44/9 42/43/9 
f 10/10/10 9/9/10 44/45/10 43/44/10 
f 9/9/11 12/12/11 45/46/11 44/45/11 
f 12/12/12 11/11/12 46/47/12 45/46/12 
f 11/11/13 14/14/13 47/48/13 46/47/13 
f 14/14/14 13/13/14 48/49/14 47/48/14 
f 13/13/15 16/16/15 49/50/15 48/49/15 
f 16/16/16 15/15/16 50/51/16 49/50/16 
f 15/15/17 18/52/17 51/53/17 50/51/17 
f 18/18/18 17/17/18 52/54/18 51/55/18 
f 17/17/19 20/21/19 53/56/19 52/54/19 
f 20/21/20 19/20/20 54/57/20 53/56/20 
f 19/20/21 22/23/21 55/58/21 54/57/21 
f 22/23/22 21/22/22 56/59/22 55/58/22 
f 21/22/23 24/25/23 57/60/23 56/59/23 
f 24/25/24 23/24/24 58/61/24 57/60/24 
f 23/24/25 26/27/25 59/62/25 58/61/25 
f 26/27/26 25/26/26 60/63/26 59/62/26 
f 25/26/27 28/29/27 61/64/27 60/63/27 
f 28/29/28 27/28/28 62/65/28 61/64/28 
f 27/28/29 30/31/29 63/66/29 62/65/29 
f 30/31/30 29/30/30 64/67/30 63/66/30 
f 29/30/31 32/33/31 65/68/31 64/67/31 
f 32/33/32 31/32/32 66/69/32 65/68/32 
f 31/32/33 34/35/33 67/70/33 66/69/33 
f 34/35/34 33/34/34 68/71/34 67/70/34 
f 33/34/2 1/1/2 36/37/2 68/71/2 
f 36/37/2 35/36/2 69/72/2 70/73/2 
f 35/36/3 37/38/3 71/74/3 69/72/3 
f 37/38/4 38/39/4 72/75/4 71/74/4 
f 38/39/5 39/40/5 73/76/5 72/75/5 
f 39/40/6 40/41/6 74/77/6 73/76/6 
f 40/41/7 41/42/7 75/78/7 74/77/7 
f 41/42/8 42/43/8 76/79/8 75/78/8 
f 42/43/9 43/44/9 77/80/9 76/79/9 
f 43/44/10 44/45/10 78/81/10 77/80/10 
f 44/45/11 45/46/11 79/82/11 78/81/11 
f 45/46/12 46/47/12 80/83/12 79/82/12 
f 46/47/13 47/48/13 81/84/13 80/83/13 
f 47/48/14 48/49/14 82/85/14 81/84/14 
f 48/49/15 49/50/15 83/86/15 82/85/15 
f 49/50/16 50/51/16 84/87/16 83/86/16 
f 50/51/17 51/53/17 85/88/17 84/87/17 
f 51/55/18 52/54/18 86/89/18 85/90/18 
f 52/54/19 53/56/19 87/91/19 86/89/19 
f 53/56/20 54/57/20 88/92/20 87/91/20 
f 54/57/21 55/58/21 89/93/21 88/92/21 
f 55/58/22 56/59/22 90/94/22 89/93/22 
f 56/59/23 57/60/23 91/95/23 90/94/23 
f 57/60/24 58/61/24 92/96/24 91/95/24 
f 58/61/25 59/62/25 93/97/25 92/96/25 
f 59/62/26 60/63/26 94/98/26 93/97/26 
f 60/63/27 61/64/27 95/99/27 94/98/27 
f 61/64/28 62/65/28 96/100/28 95/99/28 
f 62/65/29 63/66/29 97/101/29 96/100/29 
f 63/66/30 64/67/30 98/102/30 97/101/30 
f 64/67/31 65/68/31 99/103/31 98/102/31 
f 65/68/32 66/69/32 100/104/32 99/103/32 
f 66/69/33 67/70/33 101/105/33 100/104/33 
f 67/70/34 68/71/34 102/106/34 101/105/34 
f 68/71/2 36/37/2 70/73/2 102/106/2 
f 70/73/2 69/72/2 103/107/2 104/108/2 
f 69/72/3 71/74/3 105/109/3 103/107/3 
f 71/74/4 72/75/4 106/110/4 105/109/4 
f 72/75/5 73/76/5 107/111/5 106/110/5 
f 73/76/6 74/77/6 108/112/6 107/111/6 
f 74/77/7 75/78/7 109/113/7 108/112/7 
f 75/78/8 76/79/8 110/114/8 109/113/8 
f 76/79/9 77/80/9 111/115/9 110/114/9 
f 77/80/10 78/81/10 112/116/10 111/115/10 
f 78/81/11 79/82/11 113/117/11 112/116/11 
f 79/82/12 80/83/12 114/118/12 113/117/12 
f 80/83/13 81/84/13 115/119/13 114/118/13 
f 81/84/14 82/85/14 116/120/14 115/119/14 
f 82/85/15 83/86/15 117/121/15 116/120/15 
f 83/86/16 84/87/16 118/122/16 117/121/16 
f 84/87/17 85/88/17 119/123/17 118/122/17 
f 85/90/18 86/89/18 120/124/18 119/125/18 
f 86/89/19 87/91/19 121/126/19 120/124/19 
f 87/91/20 88/92/20 122/127/20 121/126/20 
f 88/92/21 89/93/21 123/128/21 122/127/21 
f 89/93/22 90/94/22 124/129/22 123/128/22 
f 90/94/23 91/95/23 125/130/23 124/129/23 
f 91/95/24 92/96/24 126/131/24 125/130/24 
f 92/96/25 93/97/25 127/132/25 126/131/25 
f 93/97/26 94/98/26 128/133/26 127/132/26 
f 94/98/27 95/99/27 129/134/27 128/133/27 
f 95/99/28 96/100/28 130/135/28 129/134/28 
f 96/100/29 97/101/29 131/136/29 130/135/29 
f 97/101/30 98/102/30 132/137/30 131/136/30 
f 98/102/31 99/103/31 133/138/31 132/137/31 
f 99/103/32 100/104/32 134/139/32 133/138/32 
f 100/104/33 101/105/33 135/140/33 134/139/33 
f 101/105/34 102/106/34 136/141/34 135/140/34 
f 102/106/2 70/73/2 104/108/2 136/141/2 
f 104/108/2 103/107/2 137/142/2 138/143/2 
f 103/107/3 105/109/3 139/144/3 137/142/3 
f 105/109/4 106/110/4 140/145/4 139/144/4 
f 106/110/5 107/111/5 141/146/5 140/145/5 
f 107/111/6 108/112/6 142/147/6 141/146/6 
f 108/112/7 109/113/7 143/148/7 142/147/7 
f 109/113/8 110/114/8 144/149/8 143/148/8 
f 110/114/9 111/115/9 145/150/9 144/149/9 
f 111/115/10 112/116/10 146/151/10 145/150/10 
f 112/116/11 113/117/11 147/152/11 146/151/11 
f 113/117/12 114/118/12 148/153/12 147/152/12 
f 114/118/13 115/119/13 149/154/13 148/153/13 
f 115/119/14 116/120/14 150/155/14 149/154/14 
f 116/120/15 117/121/15 151/156/15 150/155/15 
f 117/121/16 118/122/16 152/157/16 151/156/16 
f 118/122/17 119/123/17 153/158/17 152/157/17 
f 119/125/18 120/124/18 154/159/18 153/160/18 
f 120/124/19 121/126/19 155/161/19 154/159/19 
f 121/126/20 122/127/20 156/162/20 155/161/20 
f 122/127/21 123/128/21 157/163/21 156/162/21 
f 123/128/22 124/129/22 158/164/22 157/163/22 
f 124/129/23 125/130/23 159/165/23 158/164/23 
f 125/130/24 126/131/24 160/166/24 159/165/24 
f 126/131/25 127/132/25 161/167/25 160/166/25 
f 127/132/26 128/133/26 162/168/26 161/167/26 
f 128/133/27 129/134/27 163/169/27 162/168/27 
f 129/134/28 130/135/28 164/170/28 163/169/28 
f 130/135/29 131/136/29 165/171/29 164/170/29 
f 131/136/30 132/137/30 166/172/30 165/171/30 
f 132/137/31 133/138/31 167/173/31 166/172/31 
f 133/138/32 134/139/32 168/174/32 167/173/32 
f 134/139/33 135/140/33 169/175/33 168/174/33 
f 135/140/34 136/141/34 170/176/34 169/175/34 
f 136/141/2 104/108/2 138/143/2 170/176/2 
f 138/143/2 137/142/2 171/177/2 172/178/2 
f 137/142/3 139/144/3 173/179/3 171/177/3 
f 139/144/4 140/145/4 174/180/4 173/179/4 
f 140/145/5 141/146/5 175/181/5 174/180/5 
f 141/146/6 142/147/6 176/182/6 175/181/6 
f 142/147/7 143/148/7 177/183/7 176/182/7 
f 143/148/8 144/149/8 178/184/8 177/183/8 
f 144/149/9 145/150/9 179/185/9 178/184/9 
f 145/150/10 146/151/10 180/186/10 179/185/10 
f 146/151/11 147/152/11 181/187/11 180/186/11 
f 147/152/12 148/153/12 182/188/12 181/187/12 
f 148/153/13 149/154/13 183/189/13 182/188/13 
f 149/154/14 150/155/14 184/190/14 183/189/14 
f 150/155/15 151/156/15 185/191/15 184/190/15 
f 151/156/16 152/157/16 186/192/16 185/191/16 
f 152/157/17 153/158/17 187/193/17 186/192/17 
f 153/160/18 154/159/18 188/194/18 187/195/18 
f 154/159/19 155/161/19 189/196/19 188/194/19 
f 155/161/20 156/162/20 190/197/20 189/196/20 
f 156/162/21 157/163/21 191/198/21 190/197/21 
f 157/163/22 158/164/22 192/199/22 191/198/22 
f 158/164/23 159/165/23 193/200/23 192/199/23 
f 159/165/24 160/166/24 194/201/24 193/200/24 
f 160/166/25 161/167/25 195/202/25 194/201/25 
f 161/167/26 162/168/26 196/203/26 195/202/26 
f 162/168/27 163/169/27 197/204/27 196/203/27 
f 163/169/28 164/170/28 198/205/28 197/204/28 
f 164/170/29 165/171/29 199/206/29 198/205/29 
f 165/171/30 166/172/30 200/207/30 199/206/30 
f 166/172/31 167/173/31 201/208/31 200/207/31 
f 167/173/32 168/174/32 202/209/32 201/208/32 
f 168/174/33 169/175/33 203/210/33 202/209/33 
f 169/175/34 170/176/34 204/211/34 203/210/34 
f 170/176/2 138/143/2 172/178/2 204/211/2 
f 172/178/35 171/177/35 173/179/35 174/180/35 
f 172/178/35 174/180/35 175/181/35 176/182/35 
f 172/178/35 176/182/35 177/183/35 178/184/35 
f 172/178/35 178/184/35 179/185/35 180/186/35 
f 172/178/35 180/186/35 181/187/35 182/188/35 
f 172/178/35 182/188/35 183/189/35 184/190/35 
f 172/178/35 184/190/35 185/191/35 186/192/35 
f 172/178/35 186/212/35 187/195/35 188/194/35 
f 172/178/35 188/194/35 189/196/35 190/197/35 
f 172/178/35 190/197/35 191/198/35 192/199/35 
f 172/178/35 192/199/35 193/200/35 194/201/35 
f 172/178/35 194/201/35 195/202/35 196/203/35 
f 172/178/35 196/203/35 197/204/35 198/205/35 
f 172/178/35 198/205/35 199/206/35 200/207/35 
f 172/178/35 200/207/35 201/208/35 202/209/35 
f 172/178/35 202/209/35 203/210/35 204/211/35 
# 202 polygons

