# 3ds Max Wavefront OBJ Exporter v0.97b - (c)2007 guruware
# File Created: 29.03.2015 21:51:27

#
# object cylinder_90
#

v  0.0000 0.0000 -0.0000
v  0.4976 0.0000 -0.0490
v  0.4994 0.0000 -0.0245
v  0.5000 0.0000 -0.0000
v  0.4904 0.0000 -0.0975
v  0.4946 0.0000 -0.0734
v  0.4785 0.0000 -0.1451
v  0.4850 0.0000 -0.1215
v  0.4619 0.0000 -0.1913
v  0.4708 0.0000 -0.1684
v  0.4410 0.0000 -0.2357
v  0.4520 0.0000 -0.2138
v  0.4157 0.0000 -0.2778
v  0.4289 0.0000 -0.2571
v  0.3865 0.0000 -0.3172
v  0.4016 0.0000 -0.2978
v  0.3536 0.0000 -0.3536
v  0.3705 0.0000 -0.3358
v  0.3172 0.0000 -0.3865
v  0.3358 0.0000 -0.3705
v  0.2778 0.0000 -0.4157
v  0.2978 0.0000 -0.4016
v  0.2357 0.0000 -0.4410
v  0.2571 0.0000 -0.4289
v  0.1913 0.0000 -0.4619
v  0.2138 0.0000 -0.4520
v  0.1451 0.0000 -0.4785
v  0.1684 0.0000 -0.4708
v  0.0975 0.0000 -0.4904
v  0.1215 0.0000 -0.4850
v  0.0490 0.0000 -0.4976
v  0.0734 0.0000 -0.4946
v  -0.0000 0.0000 -0.5000
v  0.0245 0.0000 -0.4994
v  0.5000 0.2000 -0.0000
v  0.0000 0.2000 -0.0000
v  0.4994 0.2000 -0.0245
v  0.4976 0.2000 -0.0490
v  0.4946 0.2000 -0.0734
v  0.4904 0.2000 -0.0975
v  0.4850 0.2000 -0.1215
v  0.4785 0.2000 -0.1451
v  0.4708 0.2000 -0.1684
v  0.4619 0.2000 -0.1913
v  0.4520 0.2000 -0.2138
v  0.4410 0.2000 -0.2357
v  0.4289 0.2000 -0.2571
v  0.4157 0.2000 -0.2778
v  0.4016 0.2000 -0.2978
v  0.3865 0.2000 -0.3172
v  0.3705 0.2000 -0.3358
v  0.3536 0.2000 -0.3536
v  0.3358 0.2000 -0.3705
v  0.3172 0.2000 -0.3865
v  0.2978 0.2000 -0.4016
v  0.2778 0.2000 -0.4157
v  0.2571 0.2000 -0.4289
v  0.2357 0.2000 -0.4410
v  0.2138 0.2000 -0.4520
v  0.1913 0.2000 -0.4619
v  0.1684 0.2000 -0.4708
v  0.1451 0.2000 -0.4785
v  0.1215 0.2000 -0.4850
v  0.0975 0.2000 -0.4904
v  0.0734 0.2000 -0.4946
v  0.0490 0.2000 -0.4976
v  0.0245 0.2000 -0.4994
v  -0.0000 0.2000 -0.5000
v  0.5000 0.4000 -0.0000
v  0.0000 0.4000 -0.0000
v  0.4994 0.4000 -0.0245
v  0.4976 0.4000 -0.0490
v  0.4946 0.4000 -0.0734
v  0.4904 0.4000 -0.0975
v  0.4850 0.4000 -0.1215
v  0.4785 0.4000 -0.1451
v  0.4708 0.4000 -0.1684
v  0.4619 0.4000 -0.1913
v  0.4520 0.4000 -0.2138
v  0.4410 0.4000 -0.2357
v  0.4289 0.4000 -0.2571
v  0.4157 0.4000 -0.2778
v  0.4016 0.4000 -0.2978
v  0.3865 0.4000 -0.3172
v  0.3705 0.4000 -0.3358
v  0.3536 0.4000 -0.3536
v  0.3358 0.4000 -0.3705
v  0.3172 0.4000 -0.3865
v  0.2978 0.4000 -0.4016
v  0.2778 0.4000 -0.4157
v  0.2571 0.4000 -0.4289
v  0.2357 0.4000 -0.4410
v  0.2138 0.4000 -0.4520
v  0.1913 0.4000 -0.4619
v  0.1684 0.4000 -0.4708
v  0.1451 0.4000 -0.4785
v  0.1215 0.4000 -0.4850
v  0.0975 0.4000 -0.4904
v  0.0734 0.4000 -0.4946
v  0.0490 0.4000 -0.4976
v  0.0245 0.4000 -0.4994
v  -0.0000 0.4000 -0.5000
v  0.5000 0.6000 -0.0000
v  0.0000 0.6000 -0.0000
v  0.4994 0.6000 -0.0245
v  0.4976 0.6000 -0.0490
v  0.4946 0.6000 -0.0734
v  0.4904 0.6000 -0.0975
v  0.4850 0.6000 -0.1215
v  0.4785 0.6000 -0.1451
v  0.4708 0.6000 -0.1684
v  0.4619 0.6000 -0.1913
v  0.4520 0.6000 -0.2138
v  0.4410 0.6000 -0.2357
v  0.4289 0.6000 -0.2571
v  0.4157 0.6000 -0.2778
v  0.4016 0.6000 -0.2978
v  0.3865 0.6000 -0.3172
v  0.3705 0.6000 -0.3358
v  0.3536 0.6000 -0.3536
v  0.3358 0.6000 -0.3705
v  0.3172 0.6000 -0.3865
v  0.2978 0.6000 -0.4016
v  0.2778 0.6000 -0.4157
v  0.2571 0.6000 -0.4289
v  0.2357 0.6000 -0.4410
v  0.2138 0.6000 -0.4520
v  0.1913 0.6000 -0.4619
v  0.1684 0.6000 -0.4708
v  0.1451 0.6000 -0.4785
v  0.1215 0.6000 -0.4850
v  0.0975 0.6000 -0.4904
v  0.0734 0.6000 -0.4946
v  0.0490 0.6000 -0.4976
v  0.0245 0.6000 -0.4994
v  -0.0000 0.6000 -0.5000
v  0.5000 0.8000 -0.0000
v  0.0000 0.8000 -0.0000
v  0.4994 0.8000 -0.0245
v  0.4976 0.8000 -0.0490
v  0.4946 0.8000 -0.0734
v  0.4904 0.8000 -0.0975
v  0.4850 0.8000 -0.1215
v  0.4785 0.8000 -0.1451
v  0.4708 0.8000 -0.1684
v  0.4619 0.8000 -0.1913
v  0.4520 0.8000 -0.2138
v  0.4410 0.8000 -0.2357
v  0.4289 0.8000 -0.2571
v  0.4157 0.8000 -0.2778
v  0.4016 0.8000 -0.2978
v  0.3865 0.8000 -0.3172
v  0.3705 0.8000 -0.3358
v  0.3536 0.8000 -0.3536
v  0.3358 0.8000 -0.3705
v  0.3172 0.8000 -0.3865
v  0.2978 0.8000 -0.4016
v  0.2778 0.8000 -0.4157
v  0.2571 0.8000 -0.4289
v  0.2357 0.8000 -0.4410
v  0.2138 0.8000 -0.4520
v  0.1913 0.8000 -0.4619
v  0.1684 0.8000 -0.4708
v  0.1451 0.8000 -0.4785
v  0.1215 0.8000 -0.4850
v  0.0975 0.8000 -0.4904
v  0.0734 0.8000 -0.4946
v  0.0490 0.8000 -0.4976
v  0.0245 0.8000 -0.4994
v  -0.0000 0.8000 -0.5000
v  0.5000 1.0000 -0.0000
v  0.0000 1.0000 -0.0000
v  0.4994 1.0000 -0.0245
v  0.4976 1.0000 -0.0490
v  0.4946 1.0000 -0.0734
v  0.4904 1.0000 -0.0975
v  0.4850 1.0000 -0.1215
v  0.4785 1.0000 -0.1451
v  0.4708 1.0000 -0.1684
v  0.4619 1.0000 -0.1913
v  0.4520 1.0000 -0.2138
v  0.4410 1.0000 -0.2357
v  0.4289 1.0000 -0.2571
v  0.4157 1.0000 -0.2778
v  0.4016 1.0000 -0.2978
v  0.3865 1.0000 -0.3172
v  0.3705 1.0000 -0.3358
v  0.3536 1.0000 -0.3536
v  0.3358 1.0000 -0.3705
v  0.3172 1.0000 -0.3865
v  0.2978 1.0000 -0.4016
v  0.2778 1.0000 -0.4157
v  0.2571 1.0000 -0.4289
v  0.2357 1.0000 -0.4410
v  0.2138 1.0000 -0.4520
v  0.1913 1.0000 -0.4619
v  0.1684 1.0000 -0.4708
v  0.1451 1.0000 -0.4785
v  0.1215 1.0000 -0.4850
v  0.0975 1.0000 -0.4904
v  0.0734 1.0000 -0.4946
v  0.0490 1.0000 -0.4976
v  0.0245 1.0000 -0.4994
v  -0.0000 1.0000 -0.5000
# 204 vertices

vn 0.0000 -1.0000 -0.0000
vn 0.0000 0.0000 1.0000
vn 0.9997 0.0000 -0.0245
vn 0.9973 0.0000 -0.0736
vn 0.9925 0.0000 -0.1224
vn 0.9853 0.0000 -0.1710
vn 0.9757 0.0000 -0.2191
vn 0.9638 0.0000 -0.2667
vn 0.9495 0.0000 -0.3137
vn 0.9330 0.0000 -0.3599
vn 0.9142 0.0000 -0.4052
vn 0.8932 0.0000 -0.4496
vn 0.8701 0.0000 -0.4929
vn 0.8449 0.0000 -0.5350
vn 0.8176 0.0000 -0.5758
vn 0.7883 0.0000 -0.6152
vn 0.7572 0.0000 -0.6532
vn 0.7242 0.0000 -0.6895
vn 0.6895 0.0000 -0.7242
vn 0.6532 0.0000 -0.7572
vn 0.6152 0.0000 -0.7883
vn 0.5758 0.0000 -0.8176
vn 0.5350 0.0000 -0.8449
vn 0.4929 0.0000 -0.8701
vn 0.4496 0.0000 -0.8932
vn 0.4052 0.0000 -0.9142
vn 0.3599 0.0000 -0.9330
vn 0.3137 0.0000 -0.9495
vn 0.2667 0.0000 -0.9638
vn 0.2191 0.0000 -0.9757
vn 0.1710 0.0000 -0.9853
vn 0.1224 0.0000 -0.9925
vn 0.0736 0.0000 -0.9973
vn 0.0245 0.0000 -0.9997
vn -1.0000 0.0000 0.0000
vn 0.0000 1.0000 -0.0000
# 36 vertex normals

vt 0.5000 0.0000 0.0000
vt 0.7656 0.0000 1.0000
vt 0.7578 0.0000 1.0000
vt 0.7500 0.0000 1.0000
vt 0.7813 0.0000 1.0000
vt 0.7734 0.0000 1.0000
vt 0.7969 0.0000 1.0000
vt 0.7891 0.0000 1.0000
vt 0.8125 0.0000 1.0000
vt 0.8047 0.0000 1.0000
vt 0.8281 0.0000 1.0000
vt 0.8203 0.0000 1.0000
vt 0.8438 0.0000 1.0000
vt 0.8359 0.0000 1.0000
vt 0.8594 0.0000 1.0000
vt 0.8516 0.0000 1.0000
vt 0.8750 0.0000 1.0000
vt 0.8672 0.0000 1.0000
vt 0.8906 0.0000 1.0000
vt 0.8828 0.0000 1.0000
vt 0.9062 0.0000 1.0000
vt 0.8984 0.0000 1.0000
vt 0.9219 0.0000 1.0000
vt 0.9141 0.0000 1.0000
vt 0.9375 0.0000 1.0000
vt 0.9297 0.0000 1.0000
vt 0.9531 0.0000 1.0000
vt 0.9453 0.0000 1.0000
vt 0.9688 0.0000 1.0000
vt 0.9609 0.0000 1.0000
vt 0.9844 0.0000 1.0000
vt 0.9766 0.0000 1.0000
vt 0.0000 0.0000 1.0000
vt -0.0078 0.0000 1.0000
vt -0.0144 0.0000 0.9976
vt 0.7500 0.2000 1.0000
vt 0.5000 0.2000 0.0000
vt 0.7578 0.2000 1.0000
vt 0.7656 0.2000 1.0000
vt 0.7734 0.2000 1.0000
vt 0.7813 0.2000 1.0000
vt 0.7891 0.2000 1.0000
vt 0.7969 0.2000 1.0000
vt 0.8047 0.2000 1.0000
vt 0.8125 0.2000 1.0000
vt 0.8203 0.2000 1.0000
vt 0.8281 0.2000 1.0000
vt 0.8359 0.2000 1.0000
vt 0.8438 0.2000 1.0000
vt 0.8516 0.2000 1.0000
vt 0.8594 0.2000 1.0000
vt 0.8672 0.2000 1.0000
vt 0.8750 0.2000 1.0000
vt 0.8828 0.2000 1.0000
vt 0.8906 0.2000 1.0000
vt 0.8984 0.2000 1.0000
vt 0.9062 0.2000 1.0000
vt 0.9141 0.2000 1.0000
vt 0.9219 0.2000 1.0000
vt 0.9297 0.2000 1.0000
vt 0.9375 0.2000 1.0000
vt 0.9453 0.2000 1.0000
vt 0.9531 0.2000 1.0000
vt 0.9609 0.2000 1.0000
vt 0.9688 0.2000 1.0000
vt 0.9766 0.2000 1.0000
vt 0.9844 0.2000 1.0000
vt 0.9922 0.0000 1.0000
vt 0.9922 0.2000 1.0000
vt 0.0000 0.2000 1.0000
vt -0.0078 0.2000 1.0000
vt 0.7500 0.4000 1.0000
vt 0.5000 0.4000 0.0000
vt 0.7578 0.4000 1.0000
vt 0.7656 0.4000 1.0000
vt 0.7734 0.4000 1.0000
vt 0.7813 0.4000 1.0000
vt 0.7891 0.4000 1.0000
vt 0.7969 0.4000 1.0000
vt 0.8047 0.4000 1.0000
vt 0.8125 0.4000 1.0000
vt 0.8203 0.4000 1.0000
vt 0.8281 0.4000 1.0000
vt 0.8359 0.4000 1.0000
vt 0.8438 0.4000 1.0000
vt 0.8516 0.4000 1.0000
vt 0.8594 0.4000 1.0000
vt 0.8672 0.4000 1.0000
vt 0.8750 0.4000 1.0000
vt 0.8828 0.4000 1.0000
vt 0.8906 0.4000 1.0000
vt 0.8984 0.4000 1.0000
vt 0.9062 0.4000 1.0000
vt 0.9141 0.4000 1.0000
vt 0.9219 0.4000 1.0000
vt 0.9297 0.4000 1.0000
vt 0.9375 0.4000 1.0000
vt 0.9453 0.4000 1.0000
vt 0.9531 0.4000 1.0000
vt 0.9609 0.4000 1.0000
vt 0.9688 0.4000 1.0000
vt 0.9766 0.4000 1.0000
vt 0.9844 0.4000 1.0000
vt 0.9922 0.4000 1.0000
vt 0.0000 0.4000 1.0000
vt -0.0078 0.4000 1.0000
vt 0.7500 0.6000 1.0000
vt 0.5000 0.6000 0.0000
vt 0.7578 0.6000 1.0000
vt 0.7656 0.6000 1.0000
vt 0.7734 0.6000 1.0000
vt 0.7813 0.6000 1.0000
vt 0.7891 0.6000 1.0000
vt 0.7969 0.6000 1.0000
vt 0.8047 0.6000 1.0000
vt 0.8125 0.6000 1.0000
vt 0.8203 0.6000 1.0000
vt 0.8281 0.6000 1.0000
vt 0.8359 0.6000 1.0000
vt 0.8438 0.6000 1.0000
vt 0.8516 0.6000 1.0000
vt 0.8594 0.6000 1.0000
vt 0.8672 0.6000 1.0000
vt 0.8750 0.6000 1.0000
vt 0.8828 0.6000 1.0000
vt 0.8906 0.6000 1.0000
vt 0.8984 0.6000 1.0000
vt 0.9062 0.6000 1.0000
vt 0.9141 0.6000 1.0000
vt 0.9219 0.6000 1.0000
vt 0.9297 0.6000 1.0000
vt 0.9375 0.6000 1.0000
vt 0.9453 0.6000 1.0000
vt 0.9531 0.6000 1.0000
vt 0.9609 0.6000 1.0000
vt 0.9688 0.6000 1.0000
vt 0.9766 0.6000 1.0000
vt 0.9844 0.6000 1.0000
vt 0.9922 0.6000 1.0000
vt 0.0000 0.6000 1.0000
vt -0.0078 0.6000 1.0000
vt 0.7500 0.8000 1.0000
vt 0.5000 0.8000 0.0000
vt 0.7578 0.8000 1.0000
vt 0.7656 0.8000 1.0000
vt 0.7734 0.8000 1.0000
vt 0.7813 0.8000 1.0000
vt 0.7891 0.8000 1.0000
vt 0.7969 0.8000 1.0000
vt 0.8047 0.8000 1.0000
vt 0.8125 0.8000 1.0000
vt 0.8203 0.8000 1.0000
vt 0.8281 0.8000 1.0000
vt 0.8359 0.8000 1.0000
vt 0.8438 0.8000 1.0000
vt 0.8516 0.8000 1.0000
vt 0.8594 0.8000 1.0000
vt 0.8672 0.8000 1.0000
vt 0.8750 0.8000 1.0000
vt 0.8828 0.8000 1.0000
vt 0.8906 0.8000 1.0000
vt 0.8984 0.8000 1.0000
vt 0.9062 0.8000 1.0000
vt 0.9141 0.8000 1.0000
vt 0.9219 0.8000 1.0000
vt 0.9297 0.8000 1.0000
vt 0.9375 0.8000 1.0000
vt 0.9453 0.8000 1.0000
vt 0.9531 0.8000 1.0000
vt 0.9609 0.8000 1.0000
vt 0.9688 0.8000 1.0000
vt 0.9766 0.8000 1.0000
vt 0.9844 0.8000 1.0000
vt 0.9922 0.8000 1.0000
vt 0.0000 0.8000 1.0000
vt -0.0078 0.8000 1.0000
vt 0.7500 1.0000 1.0000
vt 0.5000 1.0000 0.0000
vt 0.7578 1.0000 1.0000
vt 0.7656 1.0000 1.0000
vt 0.7734 1.0000 1.0000
vt 0.7813 1.0000 1.0000
vt 0.7891 1.0000 1.0000
vt 0.7969 1.0000 1.0000
vt 0.8047 1.0000 1.0000
vt 0.8125 1.0000 1.0000
vt 0.8203 1.0000 1.0000
vt 0.8281 1.0000 1.0000
vt 0.8359 1.0000 1.0000
vt 0.8438 1.0000 1.0000
vt 0.8516 1.0000 1.0000
vt 0.8594 1.0000 1.0000
vt 0.8672 1.0000 1.0000
vt 0.8750 1.0000 1.0000
vt 0.8828 1.0000 1.0000
vt 0.8906 1.0000 1.0000
vt 0.8984 1.0000 1.0000
vt 0.9062 1.0000 1.0000
vt 0.9141 1.0000 1.0000
vt 0.9219 1.0000 1.0000
vt 0.9297 1.0000 1.0000
vt 0.9375 1.0000 1.0000
vt 0.9453 1.0000 1.0000
vt 0.9531 1.0000 1.0000
vt 0.9609 1.0000 1.0000
vt 0.9688 1.0000 1.0000
vt 0.9766 1.0000 1.0000
vt 0.9844 1.0000 1.0000
vt 0.9922 1.0000 1.0000
vt 0.0000 1.0000 1.0000
vt -0.0078 1.0000 1.0000
vt -0.0144 1.0000 0.9976
# 212 texture coords

g cylinder_90
f 1/1/1 2/2/1 3/3/1 4/4/1 
f 1/1/1 5/5/1 6/6/1 2/2/1 
f 1/1/1 7/7/1 8/8/1 5/5/1 
f 1/1/1 9/9/1 10/10/1 7/7/1 
f 1/1/1 11/11/1 12/12/1 9/9/1 
f 1/1/1 13/13/1 14/14/1 11/11/1 
f 1/1/1 15/15/1 16/16/1 13/13/1 
f 1/1/1 17/17/1 18/18/1 15/15/1 
f 1/1/1 19/19/1 20/20/1 17/17/1 
f 1/1/1 21/21/1 22/22/1 19/19/1 
f 1/1/1 23/23/1 24/24/1 21/21/1 
f 1/1/1 25/25/1 26/26/1 23/23/1 
f 1/1/1 27/27/1 28/28/1 25/25/1 
f 1/1/1 29/29/1 30/30/1 27/27/1 
f 1/1/1 31/31/1 32/32/1 29/29/1 
f 1/1/1 33/33/1 34/34/1 31/35/1 
f 1/1/2 4/4/2 35/36/2 36/37/2 
f 4/4/3 3/3/3 37/38/3 35/36/3 
f 3/3/4 2/2/4 38/39/4 37/38/4 
f 2/2/5 6/6/5 39/40/5 38/39/5 
f 6/6/6 5/5/6 40/41/6 39/40/6 
f 5/5/7 8/8/7 41/42/7 40/41/7 
f 8/8/8 7/7/8 42/43/8 41/42/8 
f 7/7/9 10/10/9 43/44/9 42/43/9 
f 10/10/10 9/9/10 44/45/10 43/44/10 
f 9/9/11 12/12/11 45/46/11 44/45/11 
f 12/12/12 11/11/12 46/47/12 45/46/12 
f 11/11/13 14/14/13 47/48/13 46/47/13 
f 14/14/14 13/13/14 48/49/14 47/48/14 
f 13/13/15 16/16/15 49/50/15 48/49/15 
f 16/16/16 15/15/16 50/51/16 49/50/16 
f 15/15/17 18/18/17 51/52/17 50/51/17 
f 18/18/18 17/17/18 52/53/18 51/52/18 
f 17/17/19 20/20/19 53/54/19 52/53/19 
f 20/20/20 19/19/20 54/55/20 53/54/20 
f 19/19/21 22/22/21 55/56/21 54/55/21 
f 22/22/22 21/21/22 56/57/22 55/56/22 
f 21/21/23 24/24/23 57/58/23 56/57/23 
f 24/24/24 23/23/24 58/59/24 57/58/24 
f 23/23/25 26/26/25 59/60/25 58/59/25 
f 26/26/26 25/25/26 60/61/26 59/60/26 
f 25/25/27 28/28/27 61/62/27 60/61/27 
f 28/28/28 27/27/28 62/63/28 61/62/28 
f 27/27/29 30/30/29 63/64/29 62/63/29 
f 30/30/30 29/29/30 64/65/30 63/64/30 
f 29/29/31 32/32/31 65/66/31 64/65/31 
f 32/32/32 31/31/32 66/67/32 65/66/32 
f 31/31/33 34/68/33 67/69/33 66/67/33 
f 34/34/34 33/33/34 68/70/34 67/71/34 
f 33/33/35 1/1/35 36/37/35 68/70/35 
f 36/37/2 35/36/2 69/72/2 70/73/2 
f 35/36/3 37/38/3 71/74/3 69/72/3 
f 37/38/4 38/39/4 72/75/4 71/74/4 
f 38/39/5 39/40/5 73/76/5 72/75/5 
f 39/40/6 40/41/6 74/77/6 73/76/6 
f 40/41/7 41/42/7 75/78/7 74/77/7 
f 41/42/8 42/43/8 76/79/8 75/78/8 
f 42/43/9 43/44/9 77/80/9 76/79/9 
f 43/44/10 44/45/10 78/81/10 77/80/10 
f 44/45/11 45/46/11 79/82/11 78/81/11 
f 45/46/12 46/47/12 80/83/12 79/82/12 
f 46/47/13 47/48/13 81/84/13 80/83/13 
f 47/48/14 48/49/14 82/85/14 81/84/14 
f 48/49/15 49/50/15 83/86/15 82/85/15 
f 49/50/16 50/51/16 84/87/16 83/86/16 
f 50/51/17 51/52/17 85/88/17 84/87/17 
f 51/52/18 52/53/18 86/89/18 85/88/18 
f 52/53/19 53/54/19 87/90/19 86/89/19 
f 53/54/20 54/55/20 88/91/20 87/90/20 
f 54/55/21 55/56/21 89/92/21 88/91/21 
f 55/56/22 56/57/22 90/93/22 89/92/22 
f 56/57/23 57/58/23 91/94/23 90/93/23 
f 57/58/24 58/59/24 92/95/24 91/94/24 
f 58/59/25 59/60/25 93/96/25 92/95/25 
f 59/60/26 60/61/26 94/97/26 93/96/26 
f 60/61/27 61/62/27 95/98/27 94/97/27 
f 61/62/28 62/63/28 96/99/28 95/98/28 
f 62/63/29 63/64/29 97/100/29 96/99/29 
f 63/64/30 64/65/30 98/101/30 97/100/30 
f 64/65/31 65/66/31 99/102/31 98/101/31 
f 65/66/32 66/67/32 100/103/32 99/102/32 
f 66/67/33 67/69/33 101/104/33 100/103/33 
f 67/71/34 68/70/34 102/105/34 101/106/34 
f 68/70/35 36/37/35 70/73/35 102/105/35 
f 70/73/2 69/72/2 103/107/2 104/108/2 
f 69/72/3 71/74/3 105/109/3 103/107/3 
f 71/74/4 72/75/4 106/110/4 105/109/4 
f 72/75/5 73/76/5 107/111/5 106/110/5 
f 73/76/6 74/77/6 108/112/6 107/111/6 
f 74/77/7 75/78/7 109/113/7 108/112/7 
f 75/78/8 76/79/8 110/114/8 109/113/8 
f 76/79/9 77/80/9 111/115/9 110/114/9 
f 77/80/10 78/81/10 112/116/10 111/115/10 
f 78/81/11 79/82/11 113/117/11 112/116/11 
f 79/82/12 80/83/12 114/118/12 113/117/12 
f 80/83/13 81/84/13 115/119/13 114/118/13 
f 81/84/14 82/85/14 116/120/14 115/119/14 
f 82/85/15 83/86/15 117/121/15 116/120/15 
f 83/86/16 84/87/16 118/122/16 117/121/16 
f 84/87/17 85/88/17 119/123/17 118/122/17 
f 85/88/18 86/89/18 120/124/18 119/123/18 
f 86/89/19 87/90/19 121/125/19 120/124/19 
f 87/90/20 88/91/20 122/126/20 121/125/20 
f 88/91/21 89/92/21 123/127/21 122/126/21 
f 89/92/22 90/93/22 124/128/22 123/127/22 
f 90/93/23 91/94/23 125/129/23 124/128/23 
f 91/94/24 92/95/24 126/130/24 125/129/24 
f 92/95/25 93/96/25 127/131/25 126/130/25 
f 93/96/26 94/97/26 128/132/26 127/131/26 
f 94/97/27 95/98/27 129/133/27 128/132/27 
f 95/98/28 96/99/28 130/134/28 129/133/28 
f 96/99/29 97/100/29 131/135/29 130/134/29 
f 97/100/30 98/101/30 132/136/30 131/135/30 
f 98/101/31 99/102/31 133/137/31 132/136/31 
f 99/102/32 100/103/32 134/138/32 133/137/32 
f 100/103/33 101/104/33 135/139/33 134/138/33 
f 101/106/34 102/105/34 136/140/34 135/141/34 
f 102/105/35 70/73/35 104/108/35 136/140/35 
f 104/108/2 103/107/2 137/142/2 138/143/2 
f 103/107/3 105/109/3 139/144/3 137/142/3 
f 105/109/4 106/110/4 140/145/4 139/144/4 
f 106/110/5 107/111/5 141/146/5 140/145/5 
f 107/111/6 108/112/6 142/147/6 141/146/6 
f 108/112/7 109/113/7 143/148/7 142/147/7 
f 109/113/8 110/114/8 144/149/8 143/148/8 
f 110/114/9 111/115/9 145/150/9 144/149/9 
f 111/115/10 112/116/10 146/151/10 145/150/10 
f 112/116/11 113/117/11 147/152/11 146/151/11 
f 113/117/12 114/118/12 148/153/12 147/152/12 
f 114/118/13 115/119/13 149/154/13 148/153/13 
f 115/119/14 116/120/14 150/155/14 149/154/14 
f 116/120/15 117/121/15 151/156/15 150/155/15 
f 117/121/16 118/122/16 152/157/16 151/156/16 
f 118/122/17 119/123/17 153/158/17 152/157/17 
f 119/123/18 120/124/18 154/159/18 153/158/18 
f 120/124/19 121/125/19 155/160/19 154/159/19 
f 121/125/20 122/126/20 156/161/20 155/160/20 
f 122/126/21 123/127/21 157/162/21 156/161/21 
f 123/127/22 124/128/22 158/163/22 157/162/22 
f 124/128/23 125/129/23 159/164/23 158/163/23 
f 125/129/24 126/130/24 160/165/24 159/164/24 
f 126/130/25 127/131/25 161/166/25 160/165/25 
f 127/131/26 128/132/26 162/167/26 161/166/26 
f 128/132/27 129/133/27 163/168/27 162/167/27 
f 129/133/28 130/134/28 164/169/28 163/168/28 
f 130/134/29 131/135/29 165/170/29 164/169/29 
f 131/135/30 132/136/30 166/171/30 165/170/30 
f 132/136/31 133/137/31 167/172/31 166/171/31 
f 133/137/32 134/138/32 168/173/32 167/172/32 
f 134/138/33 135/139/33 169/174/33 168/173/33 
f 135/141/34 136/140/34 170/175/34 169/176/34 
f 136/140/35 104/108/35 138/143/35 170/175/35 
f 138/143/2 137/142/2 171/177/2 172/178/2 
f 137/142/3 139/144/3 173/179/3 171/177/3 
f 139/144/4 140/145/4 174/180/4 173/179/4 
f 140/145/5 141/146/5 175/181/5 174/180/5 
f 141/146/6 142/147/6 176/182/6 175/181/6 
f 142/147/7 143/148/7 177/183/7 176/182/7 
f 143/148/8 144/149/8 178/184/8 177/183/8 
f 144/149/9 145/150/9 179/185/9 178/184/9 
f 145/150/10 146/151/10 180/186/10 179/185/10 
f 146/151/11 147/152/11 181/187/11 180/186/11 
f 147/152/12 148/153/12 182/188/12 181/187/12 
f 148/153/13 149/154/13 183/189/13 182/188/13 
f 149/154/14 150/155/14 184/190/14 183/189/14 
f 150/155/15 151/156/15 185/191/15 184/190/15 
f 151/156/16 152/157/16 186/192/16 185/191/16 
f 152/157/17 153/158/17 187/193/17 186/192/17 
f 153/158/18 154/159/18 188/194/18 187/193/18 
f 154/159/19 155/160/19 189/195/19 188/194/19 
f 155/160/20 156/161/20 190/196/20 189/195/20 
f 156/161/21 157/162/21 191/197/21 190/196/21 
f 157/162/22 158/163/22 192/198/22 191/197/22 
f 158/163/23 159/164/23 193/199/23 192/198/23 
f 159/164/24 160/165/24 194/200/24 193/199/24 
f 160/165/25 161/166/25 195/201/25 194/200/25 
f 161/166/26 162/167/26 196/202/26 195/201/26 
f 162/167/27 163/168/27 197/203/27 196/202/27 
f 163/168/28 164/169/28 198/204/28 197/203/28 
f 164/169/29 165/170/29 199/205/29 198/204/29 
f 165/170/30 166/171/30 200/206/30 199/205/30 
f 166/171/31 167/172/31 201/207/31 200/206/31 
f 167/172/32 168/173/32 202/208/32 201/207/32 
f 168/173/33 169/174/33 203/209/33 202/208/33 
f 169/176/34 170/175/34 204/210/34 203/211/34 
f 170/175/35 138/143/35 172/178/35 204/210/35 
f 172/178/36 171/177/36 173/179/36 174/180/36 
f 172/178/36 174/180/36 175/181/36 176/182/36 
f 172/178/36 176/182/36 177/183/36 178/184/36 
f 172/178/36 178/184/36 179/185/36 180/186/36 
f 172/178/36 180/186/36 181/187/36 182/188/36 
f 172/178/36 182/188/36 183/189/36 184/190/36 
f 172/178/36 184/190/36 185/191/36 186/192/36 
f 172/178/36 186/192/36 187/193/36 188/194/36 
f 172/178/36 188/194/36 189/195/36 190/196/36 
f 172/178/36 190/196/36 191/197/36 192/198/36 
f 172/178/36 192/198/36 193/199/36 194/200/36 
f 172/178/36 194/200/36 195/201/36 196/202/36 
f 172/178/36 196/202/36 197/203/36 198/204/36 
f 172/178/36 198/204/36 199/205/36 200/206/36 
f 172/178/36 200/206/36 201/207/36 202/208/36 
f 172/178/36 202/212/36 203/211/36 204/210/36 
# 202 polygons

