# 3ds Max Wavefront OBJ Exporter v0.97b - (c)2007 guruware
# File Created: 29.03.2015 21:32:24

#
# object geodome
#

v  0.0000 0.5000 -0.0000
v  0.2629 0.4253 -0.0000
v  0.0812 0.4253 -0.2500
v  -0.2127 0.4253 -0.1545
v  -0.2127 0.4253 0.1545
v  0.0812 0.4253 0.2500
v  0.3441 0.2629 -0.2500
v  -0.1314 0.2629 -0.4045
v  -0.4253 0.2629 0.0000
v  -0.1314 0.2629 0.4045
v  0.3441 0.2629 0.2500
v  0.4472 0.2236 -0.0000
v  0.1382 0.2236 -0.4253
v  -0.3618 0.2236 -0.2629
v  -0.3618 0.2236 0.2629
v  0.1382 0.2236 0.4253
v  0.4755 0.0000 -0.1545
v  0.2939 0.0000 -0.4045
v  -0.0000 0.0000 -0.5000
v  -0.2939 0.0000 -0.4045
v  -0.4755 0.0000 -0.1545
v  -0.4755 0.0000 0.1545
v  -0.2939 0.0000 0.4045
v  0.0000 0.0000 0.5000
v  0.2939 0.0000 0.4045
v  0.4755 0.0000 0.1545
v  0.0000 0.0000 -0.0000
# 27 vertices

vn 0.2680 0.9435 -0.1947
vn -0.1024 0.9435 -0.3151
vn -0.3313 0.9435 0.0000
vn -0.1024 0.9435 0.3151
vn 0.2680 0.9435 0.1947
vn 0.4911 0.7947 -0.3568
vn -0.1876 0.7947 -0.5774
vn -0.6071 0.7947 0.0000
vn -0.1876 0.7947 0.5774
vn 0.4911 0.7947 0.3568
vn 0.7240 0.6617 0.1947
vn 0.7240 0.6617 -0.1947
vn 0.4089 0.6617 -0.6284
vn 0.0385 0.6617 -0.7488
vn -0.4713 0.6617 -0.5831
vn -0.7002 0.6617 -0.2680
vn -0.7002 0.6617 0.2680
vn -0.4713 0.6617 0.5831
vn 0.0385 0.6617 0.7488
vn 0.4089 0.6617 0.6284
vn 0.8897 0.3304 -0.3151
vn 0.5746 0.3304 -0.7488
vn -0.0247 0.3304 -0.9435
vn -0.5346 0.3304 -0.7779
vn -0.9050 0.3304 -0.2680
vn -0.9050 0.3304 0.2680
vn -0.5346 0.3304 0.7779
vn -0.0247 0.3304 0.9435
vn 0.5746 0.3304 0.7488
vn 0.8897 0.3304 0.3151
vn 0.9921 0.1256 -0.0000
vn 0.7947 0.1876 -0.5774
vn 0.3066 0.1256 -0.9435
vn -0.3035 0.1876 -0.9342
vn -0.8026 0.1256 -0.5831
vn -0.9822 0.1876 0.0000
vn -0.8026 0.1256 0.5831
vn -0.3035 0.1876 0.9342
vn 0.3066 0.1256 0.9435
vn 0.7947 0.1876 0.5773
vn 0.0000 -1.0000 -0.0000
# 41 vertex normals

vt 0.6000 1.0000 0.5000
vt 0.5000 0.8238 0.5000
vt 0.7000 0.8238 0.5000
vt 0.8000 1.0000 0.5000
vt 0.9000 0.8238 0.5000
vt 0.0000 1.0000 0.5000
vt -0.1000 0.8238 0.5000
vt 0.1000 0.8238 0.5000
vt 0.2000 1.0000 0.5000
vt 0.3000 0.8238 0.5000
vt 0.4000 1.0000 0.5000
vt 0.6000 0.6762 0.5000
vt 0.8000 0.6762 0.5000
vt 0.0000 0.6762 0.5000
vt 0.2000 0.6762 0.5000
vt 0.4000 0.6762 0.5000
vt 0.5000 0.6476 0.5000
vt 0.7000 0.6476 0.5000
vt 0.9000 0.6476 0.5000
vt -0.1000 0.6476 0.5000
vt 0.1000 0.6476 0.5000
vt 0.3000 0.6476 0.5000
vt 0.5500 0.5000 0.5000
vt 0.6500 0.5000 0.5000
vt 0.7500 0.5000 0.5000
vt 0.8500 0.5000 0.5000
vt -0.0500 0.5000 0.5000
vt 0.0500 0.5000 0.5000
vt 0.1500 0.5000 0.5000
vt 0.2500 0.5000 0.5000
vt 0.3500 0.5000 0.5000
vt 0.4500 0.5000 0.5000
vt 0.9500 0.5000 0.5000
vt 0.5000 0.5000 0.0000
vt 0.6000 0.5000 0.0000
vt 0.7000 0.5000 0.0000
vt 0.8000 0.5000 0.0000
vt 0.9000 0.5000 0.0000
vt 0.0000 0.5000 0.0000
vt 0.1000 0.5000 0.0000
vt 0.2000 0.5000 0.0000
vt 0.3000 0.5000 0.0000
vt 0.4000 0.5000 0.0000
# 43 texture coords

g geodome
f 1/1/1 2/2/1 3/3/1 
f 1/4/2 3/3/2 4/5/2 
f 1/6/3 4/7/3 5/8/3 
f 1/9/4 5/8/4 6/10/4 
f 1/11/5 6/10/5 2/2/5 
f 7/12/6 3/3/6 2/2/6 
f 8/13/7 4/5/7 3/3/7 
f 9/14/8 5/8/8 4/7/8 
f 10/15/9 6/10/9 5/8/9 
f 11/16/10 2/2/10 6/10/10 
f 2/2/11 11/16/11 12/17/11 
f 2/2/12 12/17/12 7/12/12 
f 3/3/13 7/12/13 13/18/13 
f 3/3/14 13/18/14 8/13/14 
f 4/5/15 8/13/15 14/19/15 
f 4/7/16 14/20/16 9/14/16 
f 5/8/17 9/14/17 15/21/17 
f 5/8/18 15/21/18 10/15/18 
f 6/10/19 10/15/19 16/22/19 
f 6/10/20 16/22/20 11/16/20 
f 17/23/21 7/12/21 12/17/21 
f 18/24/22 13/18/22 7/12/22 
f 19/25/23 8/13/23 13/18/23 
f 20/26/24 14/19/24 8/13/24 
f 21/27/25 9/14/25 14/20/25 
f 22/28/26 15/21/26 9/14/26 
f 23/29/27 10/15/27 15/21/27 
f 24/30/28 16/22/28 10/15/28 
f 25/31/29 11/16/29 16/22/29 
f 26/32/30 12/17/30 11/16/30 
f 12/17/31 26/32/31 17/23/31 
f 7/12/32 17/23/32 18/24/32 
f 13/18/33 18/24/33 19/25/33 
f 8/13/34 19/25/34 20/26/34 
f 14/19/35 20/26/35 21/33/35 
f 9/14/36 21/27/36 22/28/36 
f 15/21/37 22/28/37 23/29/37 
f 10/15/38 23/29/38 24/30/38 
f 16/22/39 24/30/39 25/31/39 
f 11/16/40 25/31/40 26/32/40 
f 17/23/41 26/32/41 27/34/41 
f 18/24/41 17/23/41 27/35/41 
f 19/25/41 18/24/41 27/36/41 
f 20/26/41 19/25/41 27/37/41 
f 21/33/41 20/26/41 27/38/41 
f 22/28/41 21/27/41 27/39/41 
f 23/29/41 22/28/41 27/40/41 
f 24/30/41 23/29/41 27/41/41 
f 25/31/41 24/30/41 27/42/41 
f 26/32/41 25/31/41 27/43/41 
# 0 polygons - 50 triangles

