# 3ds Max Wavefront OBJ Exporter v0.97b - (c)2007 guruware
# File Created: 24.11.2014 14:59:47

mtllib torus hex.mtl

#
# object TorusHex
#

v  -0.0000 1.1000 0.0000
v  -0.0000 1.0500 0.0866
v  0.9093 0.5250 0.0866
v  0.9526 0.5500 0.0000
v  -0.0000 0.9500 0.0866
v  0.8227 0.4750 0.0866
v  -0.0000 0.9000 -0.0000
v  0.7794 0.4500 -0.0000
v  -0.0000 0.9500 -0.0866
v  0.8227 0.4750 -0.0866
v  -0.0000 1.0500 -0.0866
v  0.9093 0.5250 -0.0866
v  0.9093 -0.5250 0.0866
v  0.9526 -0.5500 0.0000
v  0.8227 -0.4750 0.0866
v  0.7794 -0.4500 -0.0000
v  0.8227 -0.4750 -0.0866
v  0.9093 -0.5250 -0.0866
v  -0.0000 -1.0500 0.0866
v  -0.0000 -1.1000 0.0000
v  -0.0000 -0.9500 0.0866
v  -0.0000 -0.9000 -0.0000
v  -0.0000 -0.9500 -0.0866
v  -0.0000 -1.0500 -0.0866
v  -0.9093 -0.5250 0.0866
v  -0.9526 -0.5500 0.0000
v  -0.8227 -0.4750 0.0866
v  -0.7794 -0.4500 -0.0000
v  -0.8227 -0.4750 -0.0866
v  -0.9093 -0.5250 -0.0866
v  -0.9093 0.5250 0.0866
v  -0.9526 0.5500 0.0000
v  -0.8227 0.4750 0.0866
v  -0.7794 0.4500 -0.0000
v  -0.8227 0.4750 -0.0866
v  -0.9093 0.5250 -0.0866
# 36 vertices

vn -0.0000 1.0000 -0.0000
vn -0.0000 0.6042 0.7968
vn 0.5233 0.3021 0.7968
vn 0.8660 0.5000 -0.0000
vn -0.0000 -0.3556 0.9347
vn -0.3079 -0.1778 0.9347
vn 0.0000 -1.0000 -0.0000
vn -0.8660 -0.5000 -0.0000
vn 0.0000 -0.3556 -0.9347
vn -0.3079 -0.1778 -0.9347
vn 0.0000 0.6042 -0.7968
vn 0.5233 0.3021 -0.7968
vn 0.5233 -0.3021 0.7968
vn 0.8660 -0.5000 0.0000
vn -0.3079 0.1778 0.9347
vn -0.8660 0.5000 -0.0000
vn -0.3079 0.1778 -0.9347
vn 0.5233 -0.3021 -0.7968
vn 0.0000 -0.6042 0.7968
vn -0.0000 -1.0000 0.0000
vn 0.0000 0.3556 0.9347
vn 0.0000 1.0000 -0.0000
vn 0.0000 0.3556 -0.9347
vn -0.0000 -0.6042 -0.7968
vn -0.5233 -0.3021 0.7968
vn 0.3079 0.1778 0.9347
vn 0.3079 0.1778 -0.9347
vn -0.5233 -0.3021 -0.7968
vn -0.5233 0.3021 0.7968
vn -0.8660 0.5000 0.0000
vn 0.3079 -0.1778 0.9347
vn 0.8660 -0.5000 -0.0000
vn 0.3079 -0.1778 -0.9347
vn -0.5233 0.3021 -0.7968
# 34 vertex normals

vt 0.0000 0.0000 0.0000
vt 0.1667 0.0000 0.0000
vt 0.1667 0.1667 0.0000
vt 0.0000 0.1667 0.0000
vt 0.3333 0.0000 0.0000
vt 0.3333 0.1667 0.0000
vt 0.5000 0.0000 0.0000
vt 0.5000 0.1667 0.0000
vt 0.6667 0.0000 0.0000
vt 0.6667 0.1667 0.0000
vt 0.8333 0.0000 0.0000
vt 0.8333 0.1667 0.0000
vt 1.0000 0.0000 0.0000
vt 1.0000 0.1667 0.0000
vt 0.1667 0.3333 0.0000
vt 0.0000 0.3333 0.0000
vt 0.3333 0.3333 0.0000
vt 0.5000 0.3333 0.0000
vt 0.6667 0.3333 0.0000
vt 0.8333 0.3333 0.0000
vt 1.0000 0.3333 0.0000
vt 0.1667 0.5000 0.0000
vt 0.0000 0.5000 0.0000
vt 0.3333 0.5000 0.0000
vt 0.5000 0.5000 0.0000
vt 0.6667 0.5000 0.0000
vt 0.8333 0.5000 0.0000
vt 1.0000 0.5000 0.0000
vt 0.1667 0.6667 0.0000
vt 0.0000 0.6667 0.0000
vt 0.3333 0.6667 0.0000
vt 0.5000 0.6667 0.0000
vt 0.6667 0.6667 0.0000
vt 0.8333 0.6667 0.0000
vt 1.0000 0.6667 0.0000
vt 0.1667 0.8333 0.0000
vt 0.0000 0.8333 0.0000
vt 0.3333 0.8333 0.0000
vt 0.5000 0.8333 0.0000
vt 0.6667 0.8333 0.0000
vt 0.8333 0.8333 0.0000
vt 1.0000 0.8333 0.0000
vt 0.1667 1.0000 0.0000
vt 0.0000 1.0000 0.0000
vt 0.3333 1.0000 0.0000
vt 0.5000 1.0000 0.0000
vt 0.6667 1.0000 0.0000
vt 0.8333 1.0000 0.0000
vt 1.0000 1.0000 0.0000
# 49 texture coords

g TorusHex
usemtl wire_140088225
s 1
f 1/1/1 2/2/2 3/3/3 4/4/4 
f 2/2/2 5/5/5 6/6/6 3/3/3 
f 5/5/5 7/7/7 8/8/8 6/6/6 
f 7/7/7 9/9/9 10/10/10 8/8/8 
f 9/9/9 11/11/11 12/12/12 10/10/10 
f 11/11/11 1/13/1 4/14/4 12/12/12 
f 4/4/4 3/3/3 13/15/13 14/16/14 
f 3/3/3 6/6/6 15/17/15 13/15/13 
f 6/6/6 8/8/8 16/18/16 15/17/15 
f 8/8/8 10/10/10 17/19/17 16/18/16 
f 10/10/10 12/12/12 18/20/18 17/19/17 
f 12/12/12 4/14/4 14/21/14 18/20/18 
f 14/16/14 13/15/13 19/22/19 20/23/20 
f 13/15/13 15/17/15 21/24/21 19/22/19 
f 15/17/15 16/18/16 22/25/22 21/24/21 
f 16/18/16 17/19/17 23/26/23 22/25/22 
f 17/19/17 18/20/18 24/27/24 23/26/23 
f 18/20/18 14/21/14 20/28/20 24/27/24 
f 20/23/20 19/22/19 25/29/25 26/30/8 
f 19/22/19 21/24/21 27/31/26 25/29/25 
f 21/24/21 22/25/22 28/32/4 27/31/26 
f 22/25/22 23/26/23 29/33/27 28/32/4 
f 23/26/23 24/27/24 30/34/28 29/33/27 
f 24/27/24 20/28/20 26/35/8 30/34/28 
f 26/30/8 25/29/25 31/36/29 32/37/30 
f 25/29/25 27/31/26 33/38/31 31/36/29 
f 27/31/26 28/32/4 34/39/32 33/38/31 
f 28/32/4 29/33/27 35/40/33 34/39/32 
f 29/33/27 30/34/28 36/41/34 35/40/33 
f 30/34/28 26/35/8 32/42/30 36/41/34 
f 32/37/30 31/36/29 2/43/2 1/44/1 
f 31/36/29 33/38/31 5/45/5 2/43/2 
f 33/38/31 34/39/32 7/46/7 5/45/5 
f 34/39/32 35/40/33 9/47/9 7/46/7 
f 35/40/33 36/41/34 11/48/11 9/47/9 
f 36/41/34 32/42/30 1/49/1 11/48/11 
# 36 polygons

